<svg width="16" height="16" xmlns="http://www.w3.org/2000/svg" fill-rule="evenodd" clip-rule="evenodd" stroke-linejoin="round" stroke-miterlimit="1.414"><g fill="#000000" fill-rule="nonzero"><path d="M0 9.795c0 1.566 1.002 2.965 3.066 2.965 1.969 0 3.159-1.103 3.159-3.187V3.408H4.276V9.6c0 .874-.39 1.365-1.231 1.365-.692 0-1.156-.464-1.176-1.17H0zM14.017 7.429v1.142c0 1.674-.827 2.515-1.997 2.515-1.176 0-2.003-.841-2.003-2.515V7.429c0-1.674.827-2.521 2.003-2.521 1.17 0 1.997.847 1.997 2.521zM16 8.565V7.449c0-2.595-1.479-4.209-3.98-4.209s-3.986 1.6-3.986 4.209v1.116c0 2.588 1.485 4.195 3.986 4.195 2.501 0 3.98-1.607 3.98-4.195z"/></g></svg>
