<?xml version="1.0" encoding="UTF-8" standalone="no"?><!DOCTYPE svg PUBLIC "-//W3C//DTD SVG 1.1//EN" "http://www.w3.org/Graphics/SVG/1.1/DTD/svg11.dtd"><svg width="600px" height="450px" version="1.1" xmlns="http://www.w3.org/2000/svg" xmlns:xlink="http://www.w3.org/1999/xlink" xml:space="preserve" xmlns:serif="http://www.serif.com/" style="fill-rule:evenodd;clip-rule:evenodd;stroke-linejoin:round;stroke-miterlimit:1.41421;"><rect id="Background" x="0" y="0" width="600" height="450" style="fill:#fafafa;"/><g id="Phone" transform="matrix(4.23022,0,0,4.23022,101.285,115.031)"><path d="M3.364,0.486C3.16,0.213 2.778,0.148 2.495,0.337C2.494,0.337 2.494,0.337 2.494,0.338C1.004,1.33 0.318,3.165 0.789,4.891C0.807,4.96 0.826,5.029 0.845,5.099C2.18,9.995 6.005,13.82 10.901,15.155C10.971,15.174 11.04,15.193 11.109,15.211C12.835,15.682 14.67,14.996 15.662,13.506C15.663,13.506 15.663,13.506 15.663,13.505C15.852,13.222 15.787,12.84 15.514,12.636C14.809,12.107 13.5,11.125 12.694,10.52C12.296,10.222 11.739,10.261 11.387,10.613C11.08,10.92 10.715,11.285 10.437,11.563C10.169,11.831 9.773,11.924 9.414,11.805C9.307,11.769 9.189,11.73 9.062,11.687C6.82,10.94 5.06,9.18 4.313,6.938C4.27,6.811 4.231,6.693 4.195,6.586C4.076,6.227 4.169,5.831 4.437,5.563C4.715,5.285 5.08,4.92 5.387,4.613C5.739,4.261 5.778,3.704 5.48,3.306C4.875,2.5 3.893,1.191 3.364,0.486Z" style="fill:#59a706;"/></g><g id="Pin" transform="matrix(4,0,0,4,268,116)"><path d="M7.789,15.669C7.835,15.741 7.914,15.785 8,15.785C8.086,15.785 8.165,15.741 8.211,15.669C9.161,14.161 13,7.891 13,5C13,2.24 10.76,0 8,0C5.24,0 3,2.24 3,5C3,7.891 6.839,14.161 7.789,15.669ZM8,3C9.104,3 10,3.896 10,5C10,6.104 9.104,7 8,7C6.896,7 6,6.104 6,5C6,3.896 6.896,3 8,3Z" style="fill:#59a706;"/></g><g id="Mail" transform="matrix(4,0,0,4,432,116)"><path d="M15.5,2C15.776,2 16,2.224 16,2.5L16,13.5C16,13.776 15.776,14 15.5,14L0.5,14C0.224,14 0,13.776 0,13.5L0,2.5C0,2.224 0.224,2 0.5,2L15.5,2ZM1.568,3.005C1.613,3.013 1.624,3.014 1.667,3.029C1.732,3.052 1.786,3.089 1.839,3.133L8,8.82L14.161,3.133L14.2,3.1C14.3,3.032 14.41,2.993 14.533,3.001C14.795,3.018 15.004,3.245 15,3.507C14.999,3.558 14.991,3.609 14.975,3.657C14.947,3.739 14.899,3.806 14.839,3.867L8.339,9.867C8.3,9.9 8.262,9.929 8.216,9.951C8.096,10.008 7.955,10.016 7.83,9.97C7.782,9.953 7.741,9.928 7.699,9.899C5.423,7.999 3.34,5.879 1.161,3.867C1.101,3.806 1.052,3.739 1.025,3.657C0.955,3.443 1.04,3.202 1.229,3.08C1.303,3.032 1.382,3.011 1.467,3.001C1.518,3 1.518,3 1.568,3.005Z" style="fill:#59a706;"/></g><g id="Alert" transform="matrix(4,0,0,4,104,270)"><path d="M8,0C12.415,0 16,3.585 16,8C16,12.415 12.415,16 8,16C3.585,16 0,12.415 0,8C0,3.585 3.585,0 8,0ZM8,11C8.552,11 9,11.448 9,12C9,12.552 8.552,13 8,13C7.448,13 7,12.552 7,12C7,11.448 7.448,11 8,11ZM7,4C7,3.448 7.448,3 8,3C8.552,3 9,3.448 9,4L8.75,9.25C8.75,9.802 8.35,10 8,10C7.65,10 7.25,9.802 7.25,9.25L7,4Z" style="fill:#808080;"/></g><g id="Fax" transform="matrix(4,0,0,4,268,270)"><path id="Page" d="M9.5,5C9.367,5 9.24,4.947 9.146,4.854C9.053,4.76 9,4.633 9,4.5C9,3.542 9,1.458 9,0.5C9,0.367 8.947,0.24 8.854,0.146C8.76,0.053 8.633,0 8.5,0C7.211,0 3.789,0 2.5,0C2.367,0 2.24,0.053 2.146,0.146C2.053,0.24 2,0.367 2,0.5C2,2.888 2,13.112 2,15.5C2,15.633 2.053,15.76 2.146,15.854C2.24,15.947 2.367,16 2.5,16C4.452,16 11.548,16 13.5,16C13.776,16 14,15.776 14,15.5C14,13.668 14,7.332 14,5.5C14,5.367 13.947,5.24 13.854,5.146C13.76,5.053 13.633,5 13.5,5C12.542,5 10.458,5 9.5,5ZM5.44,4.136C5.332,3.992 5.13,3.957 4.98,4.057C4.98,4.057 4.979,4.057 4.979,4.057C4.192,4.582 3.829,5.552 4.078,6.465C4.088,6.502 4.097,6.538 4.108,6.575C4.814,9.164 6.836,11.186 9.425,11.892C9.462,11.903 9.498,11.912 9.535,11.922C10.448,12.171 11.418,11.808 11.943,11.021C11.943,11.021 11.943,11.02 11.943,11.02C12.043,10.87 12.008,10.668 11.864,10.56C11.492,10.281 10.799,9.762 10.373,9.442C10.162,9.284 9.868,9.305 9.682,9.491C9.519,9.653 9.327,9.846 9.18,9.993C9.038,10.135 8.828,10.184 8.638,10.121C8.582,10.102 8.52,10.081 8.453,10.059C7.267,9.664 6.336,8.733 5.941,7.547C5.919,7.48 5.898,7.418 5.879,7.362C5.816,7.172 5.865,6.962 6.007,6.82C6.154,6.673 6.347,6.481 6.509,6.318C6.695,6.132 6.716,5.838 6.558,5.627C6.238,5.201 5.719,4.508 5.44,4.136Z" style="fill:#808080;"/><path id="Corner" d="M10.341,0.341C10.284,0.284 10.198,0.267 10.123,0.298C10.049,0.329 10,0.402 10,0.483C10,1.363 10,3.194 10,3.8C10,3.91 10.09,4 10.2,4C10.806,4 12.637,4 13.517,4C13.598,4 13.671,3.951 13.702,3.877C13.733,3.802 13.716,3.716 13.659,3.659C12.903,2.903 11.097,1.097 10.341,0.341Z" style="fill:#808080;"/></g><g id="Checkmark" transform="matrix(4,0,0,4,432,270)"><path d="M8,0C12.415,0 16,3.585 16,8C16,12.415 12.415,16 8,16C3.585,16 0,12.415 0,8C0,3.585 3.585,0 8,0ZM11.527,3.75C11.634,3.758 11.736,3.78 11.832,3.828C12.094,3.957 12.26,4.235 12.25,4.527C12.246,4.634 12.217,4.735 12.172,4.832C10.903,7.218 9.492,9.526 8.151,11.872C8.104,11.949 8.05,12.018 7.981,12.076C7.785,12.239 7.513,12.292 7.27,12.214C7.17,12.182 7.082,12.128 7.002,12.061C5.962,11.081 4.98,10.041 3.97,9.03C3.886,8.941 3.821,8.841 3.784,8.723C3.757,8.637 3.746,8.545 3.751,8.455C3.768,8.179 3.94,7.929 4.192,7.816C4.261,7.785 4.335,7.765 4.41,7.755C4.485,7.746 4.561,7.749 4.635,7.762C4.787,7.79 4.919,7.865 5.03,7.97L7.336,10.275L10.849,4.128C10.872,4.089 10.872,4.09 10.898,4.052C10.936,4.004 10.976,3.96 11.023,3.921C11.142,3.823 11.284,3.77 11.436,3.753C11.482,3.75 11.481,3.75 11.527,3.75Z" style="fill:#808080;"/></g></svg>