<svg width="600" height="450" version="1.1" xmlns="http://www.w3.org/2000/svg" xmlns:xlink="http://www.w3.org/1999/xlink" xml:space="preserve" xmlns:serif="http://www.serif.com/" fill-rule="evenodd" clip-rule="evenodd" stroke-linejoin="round" stroke-miterlimit="1.414"><g id="Background" transform="matrix(1.17188,0,0,0.878906,0,0)"><rect x="0" y="0" width="512" height="512" fill="url(#_Linear1)"/></g><g id="Logo"><path d="M53.205,22.82C53.254,22.612 53.431,22.459 53.644,22.44C53.857,22.422 54.058,22.542 54.143,22.738C55.34,25.588 56,28.717 56,32C56,45.246 45.246,56 32,56C18.754,56 8,45.246 8,32C8,29.837 8.287,27.74 8.825,25.745C8.917,25.415 9.173,25.155 9.502,25.057C9.831,24.96 10.187,25.039 10.445,25.266C13.033,27.529 18.252,32.128 19,33C20.161,34.354 19.6,36.159 22,40C22.833,41.333 24,42.833 25,44C25.92,45.074 27,46.167 28,47C28.923,47.769 30.218,48.578 31,49C31.916,49.495 32.652,49.596 33,49C33.232,48.602 32.974,48.109 32.5,47.5C32.094,46.978 31.74,46.78 31,46C29.283,44.19 27.625,42.35 28,42C28.431,41.598 31.965,44.75 34,46.5C35.476,47.77 36.081,48.221 36.5,48.5C37.166,48.944 38.42,49.297 39,48.5C39.344,48.027 39.078,47.202 38.5,46.5C38.13,46.05 37.495,45.37 36.5,44.5C34.985,43.176 32.645,41.45 33,41C33.324,40.588 34.841,41.68 37,43C38.749,44.069 40.577,45.106 41.5,45.5C42.423,45.894 43.048,45.961 43.5,45.5C43.8,45.195 43.836,44.592 43.5,44C43.235,43.534 42.028,42.583 40.5,41.5C38.158,39.84 35.025,38.032 35.5,37.5C35.824,37.138 37.827,38.133 40,39C41.425,39.569 42.399,39.88 43,40C43.988,40.198 44.688,40.075 45,39.5C45.272,38.999 45.183,38.329 44,37.5C42.64,36.548 35.234,32.666 33.407,31.713C33.18,31.595 32.9,31.667 32.759,31.88C32.467,32.328 31.956,33.066 31.5,33.5C30.444,34.506 29.511,35.042 28,35C27.225,34.979 26.587,34.848 26.149,34.726C26.102,34.71 26.073,34.662 26.083,34.613C26.092,34.564 26.137,34.53 26.186,34.533C27.058,34.551 28.562,34.498 29.5,34C30.679,33.374 31.314,32.767 32,31.5C32.47,30.632 32.635,29.96 33,30C34.139,30.124 35.775,32.432 39.5,31.5C40.832,31.167 42.061,29.805 40,29C39.178,28.679 37.702,28.515 36,28C33.601,27.274 31.228,26.014 30,26C29.936,25.999 29.872,26 29.81,26.002C29.649,26.005 29.498,26.086 29.407,26.22C29.184,26.525 28.762,27.079 28.49,27.329C27.947,27.826 27.316,28.207 26.665,28.544C26.009,28.883 25.326,29.182 24.602,29.337C24.086,29.448 23.561,29.479 23.035,29.499C22.897,29.505 22.758,29.503 22.619,29.495C21.9,29.45 21.13,29.211 20.668,28.626C20.599,28.539 20.539,28.446 20.488,28.347C20.421,28.218 20.372,28.081 20.341,27.939C20.303,27.766 20.293,27.588 20.31,27.413C20.337,27.129 20.433,26.856 20.57,26.607C20.645,26.472 20.733,26.344 20.826,26.22C20.939,26.068 21.055,25.918 21.173,25.769C21.582,25.253 22.004,24.747 22.428,24.243C22.615,24.021 22.802,23.799 22.99,23.577C23.077,23.475 23.119,23.343 23.107,23.209C23.095,23.076 23.03,22.953 22.927,22.868C21.75,21.706 18.008,17.986 15.76,15.75C15.567,15.559 15.46,15.298 15.464,15.026C15.468,14.755 15.582,14.496 15.78,14.311C20.056,10.394 25.75,8 32,8C36.861,8 41.386,9.448 45.167,11.936C45.296,12.022 45.378,12.163 45.388,12.317C45.399,12.472 45.337,12.622 45.221,12.725C43.989,13.799 42.511,14.686 40,15C36.876,15.391 35.1,14.156 32,16C30.052,17.159 29.137,18.296 27.5,20C25.915,21.65 21.984,26.242 21.5,27C20.872,27.984 21.843,28.543 23,28.5C24.19,28.456 24.873,28.381 26.5,27.5C28.913,26.194 28.674,24.975 30,23.5C30.577,22.858 31.172,22.45 31.561,22.225C31.803,22.099 32.1,22.191 32.228,22.431C32.71,23.274 33.959,25.134 36,26C40.27,27.812 44,27 44,27C44,27 42.692,29.131 43,32C43.211,33.964 43.922,35.027 44.437,35.553C44.762,35.798 45.206,35.811 45.544,35.584C46.545,34.926 48.626,33.321 50.5,31C52.49,28.534 52.997,26.308 53,25C53.002,24.133 53.076,23.427 53.205,22.82ZM26.34,47.538C26.522,47.337 26.833,47.318 27.038,47.497C27.239,47.67 27.443,47.84 27.651,48.004C28.173,48.413 28.72,48.792 29.281,49.146C29.416,49.231 29.503,49.375 29.514,49.534C29.526,49.693 29.46,49.848 29.339,49.951C28.816,50.391 28.318,50.772 28,51C27.081,51.658 25.859,52.072 25,51C24.624,50.531 24.611,49.546 25.5,48.5C25.684,48.283 25.982,47.934 26.34,47.538ZM22.74,43.664C22.835,43.567 22.967,43.516 23.102,43.523C23.237,43.53 23.363,43.594 23.448,43.699C23.449,43.699 23.449,43.699 23.449,43.699C24.045,44.437 24.666,45.155 25.32,45.842C25.414,45.94 25.464,46.071 25.459,46.206C25.454,46.341 25.395,46.468 25.295,46.559C24.366,47.396 23.449,48.151 23,48.5C21.594,49.591 20.628,49.594 20,49C19.015,48.068 19.802,46.797 21,45.5C21.364,45.106 22.015,44.401 22.74,43.664ZM19.414,38.664C19.531,38.561 19.69,38.518 19.843,38.549C19.996,38.58 20.126,38.68 20.194,38.821C20.595,39.63 21.058,40.407 21.56,41.158C21.699,41.364 21.666,41.64 21.483,41.807C20.487,42.711 19.533,43.53 19,44C17.652,45.189 16.355,45.5 15.5,44.5C14.737,43.608 15.606,42.521 16.5,41.5C17.043,40.879 18.199,39.746 19.414,38.664ZM16.827,32.994C16.917,32.888 17.047,32.824 17.186,32.818C17.324,32.811 17.46,32.863 17.559,32.96C17.58,32.981 17.601,33.002 17.623,33.023C17.764,33.162 17.905,33.301 18.043,33.442C18.149,33.55 18.253,33.656 18.341,33.779C18.504,34.005 18.611,34.263 18.701,34.525C18.742,34.648 18.779,34.772 18.816,34.897C18.888,35.153 18.956,35.411 19.026,35.668C19.073,35.839 19.026,36.022 18.903,36.149C18.126,36.947 17.4,37.639 17,38C15.481,39.371 14.6,39.348 14,39C13.662,38.804 13.196,38.334 13.5,37.5C13.667,37.041 15.238,34.88 16.827,32.994Z" transform="matrix(5,0,0,5,140,65)" fill="#fff"/></g><defs><linearGradient id="_Linear1" x1="0" y1="0" x2="1" y2="0" gradientUnits="userSpaceOnUse" gradientTransform="matrix(3.1351e-14,512,-512,3.1351e-14,256,0)"><stop offset="0" stop-color="#59a706" stop-opacity="1"/><stop offset=".58" stop-color="#559e0d" stop-opacity="1"/><stop offset=".8" stop-color="#4d8b1c" stop-opacity="1"/><stop offset="1" stop-color="#45792a" stop-opacity="1"/></linearGradient></defs></svg>