<svg clip-rule="evenodd" fill-rule="evenodd" height="450" stroke-linecap="round" stroke-linejoin="round" stroke-miterlimit="1.5" width="600" xmlns="http://www.w3.org/2000/svg" xmlns:xlink="http://www.w3.org/1999/xlink"><clipPath id="a"><path clip-rule="evenodd" d="m0 0h64v64h-64z"/></clipPath><path d="m0 0h600v450h-600z" fill="#fafafa"/><g fill="#58a706"><path d="m15.5 0h.013l.013.001h.012l.013.002.013.001.012.002.013.002.012.002.012.003.012.003.012.003.012.003.011.004.012.004.011.005.012.004.011.005.011.005.011.006.01.005.011.006.01.006.01.007.011.006.009.007.01.007.01.008.009.007.009.008.009.008.009.008.009.008.008.009.008.009.008.009.008.009.007.009.008.01.007.01.007.009.006.011.007.01.006.01.006.011.005.01.006.011.005.011.005.011.004.012.005.011.004.012.004.011.003.012.003.012.003.012.003.012.002.012.002.013.002.012.001.013.002.013v.012l.001.013v.013 15 .013l-.001.013v.012l-.002.013-.001.013-.002.012-.002.013-.002.012-.003.012-.003.012-.003.012-.003.012-.004.011-.004.012-.005.011-.004.012-.005.011-.005.011-.006.011-.005.01-.006.011-.006.01-.007.01-.006.011-.007.009-.007.01-.008.01-.007.009-.008.009-.008.009-.008.009-.008.009-.009.008-.009.008-.009.008-.009.008-.009.007-.01.008-.01.007-.009.007-.011.006-.01.007-.01.006-.011.006-.01.005-.011.006-.011.005-.011.005-.012.004-.011.005-.012.004-.011.004-.012.003-.012.003-.012.003-.012.003-.012.002-.013.002-.012.002-.013.001-.013.002h-.012l-.013.001h-.013-15-.013l-.013-.001h-.012l-.013-.002-.013-.001-.012-.002-.013-.002-.012-.002-.012-.003-.012-.003-.012-.003-.012-.003-.011-.004-.012-.004-.011-.005-.012-.004-.011-.005-.011-.005-.011-.006-.01-.005-.011-.006-.01-.006-.01-.007-.011-.006-.009-.007-.01-.007-.01-.008-.009-.007-.009-.008-.009-.008-.009-.008-.009-.008-.008-.009-.008-.009-.008-.009-.008-.009-.007-.009-.008-.01-.007-.01-.007-.009-.006-.011-.007-.01-.006-.01-.006-.011-.005-.01-.006-.011-.005-.011-.005-.011-.004-.012-.005-.011-.004-.012-.004-.011-.003-.012-.003-.012-.003-.012-.003-.012-.002-.012-.002-.013-.002-.012-.001-.013-.002-.013v-.012l-.001-.013v-.013-15-.013l.001-.013v-.012l.002-.013.001-.013.002-.012.002-.013.002-.012.003-.012.003-.012.003-.012.003-.012.004-.011.004-.012.005-.011.004-.012.005-.011.005-.011.006-.011.005-.01.006-.011.006-.01.007-.01.006-.011.007-.009.007-.01.008-.01.007-.009.008-.009.008-.009.008-.009.008-.009.009-.008.009-.008.009-.008.009-.008.009-.007.01-.008.01-.007.009-.007.011-.006.01-.007.01-.006.011-.006.01-.005.011-.006.011-.005.011-.005.012-.004.011-.005.012-.004.011-.004.012-.003.012-.003.012-.003.012-.003.012-.002.013-.002.012-.002.013-.001.013-.002h.012l.013-.001h.013zm-14.5 1v14h14v-14z" transform="matrix(4 0 0 4 104 116)"/><path d="m11.529 3h.012l.012.001h.011l.012.002.011.001.012.002.011.002.012.002.011.003.011.003.011.003.011.004.011.004.011.004.011.005.01.004.011.005.01.006.011.006.01.006.01.006.01.006.01.007.009.007.01.007.009.008.01.008.009.008.009.009.008.008.009.009.008.009.008.01.008.009.008.01.007.01.008.011.007.01.006.01.007.011.006.011.006.011.006.011.006.012.005.011.005.012.005.012.004.012.004.012.004.012.004.012.004.012.003.013.003.012.002.013.003.013.002.012.002.013.001.013.002.013.001.013v.013l.001.013v.014 12.469h-8v-12.469-.014l.001-.013v-.013l.001-.013.002-.013.001-.013.002-.013.002-.012.003-.013.002-.013.003-.012.003-.013.004-.012.004-.012.004-.012.004-.012.004-.012.005-.012.005-.012.005-.011.006-.012.006-.011.006-.011.006-.011.007-.011.006-.01.007-.01.008-.011.007-.01.008-.01.008-.009.008-.01.008-.009.009-.009.008-.008.009-.009.009-.008.01-.008.009-.008.01-.007.009-.007.01-.007.01-.006.01-.006.01-.006.011-.006.01-.006.011-.005.01-.004.011-.005.011-.004.011-.004.011-.004.011-.003.011-.003.011-.003.012-.002.011-.002.012-.002.011-.001.012-.002h.011l.012-.001h.012zm-6.588 1.061v10.878h6.118v-10.878z" transform="matrix(4.25 0 0 3.76923 102 119.69231)"/><path d="m4 4.25c0-.133.053-.26.146-.354.094-.093.221-.146.354-.146h5.25v8.947c0 .186-.104.357-.269.443-1.135.593-5.481 2.86-5.481 2.86s0-9.45 0-11.75zm4.625 3.75c.207 0 .375.224.375.5s-.168.5-.375.5-.375-.224-.375-.5.168-.5.375-.5z" transform="matrix(4 0 0 4 103 116)"/><g clip-path="url(#a)" transform="translate(268 116)"><path d="m15.5 0h.013l.013.001h.012l.013.002.013.001.012.002.013.002.012.002.012.003.012.003.012.003.012.003.011.004.012.004.011.005.012.004.011.005.011.005.011.006.01.005.011.006.01.006.01.007.011.006.009.007.01.007.01.008.009.007.009.008.009.008.009.008.009.008.008.009.008.009.008.009.008.009.007.009.008.01.007.01.007.009.006.011.007.01.006.01.006.011.005.01.006.011.005.011.005.011.004.012.005.011.004.012.004.011.003.012.003.012.003.012.003.012.002.012.002.013.002.012.001.013.002.013v.012l.001.013v.013 15 .013l-.001.013v.012l-.002.013-.001.013-.002.012-.002.013-.002.012-.003.012-.003.012-.003.012-.003.012-.004.011-.004.012-.005.011-.004.012-.005.011-.005.011-.006.011-.005.01-.006.011-.006.01-.007.01-.006.011-.007.009-.007.01-.008.01-.007.009-.008.009-.008.009-.008.009-.008.009-.009.008-.009.008-.009.008-.009.008-.009.007-.01.008-.01.007-.009.007-.011.006-.01.007-.01.006-.011.006-.01.005-.011.006-.011.005-.011.005-.012.004-.011.005-.012.004-.011.004-.012.003-.012.003-.012.003-.012.003-.012.002-.013.002-.012.002-.013.001-.013.002h-.012l-.013.001h-.013-15-.013l-.013-.001h-.012l-.013-.002-.013-.001-.012-.002-.013-.002-.012-.002-.012-.003-.012-.003-.012-.003-.012-.003-.011-.004-.012-.004-.011-.005-.012-.004-.011-.005-.011-.005-.011-.006-.01-.005-.011-.006-.01-.006-.01-.007-.011-.006-.009-.007-.01-.007-.01-.008-.009-.007-.009-.008-.009-.008-.009-.008-.009-.008-.008-.009-.008-.009-.008-.009-.008-.009-.007-.009-.008-.01-.007-.01-.007-.009-.006-.011-.007-.01-.006-.01-.006-.011-.005-.01-.006-.011-.005-.011-.005-.011-.004-.012-.005-.011-.004-.012-.004-.011-.003-.012-.003-.012-.003-.012-.003-.012-.002-.012-.002-.013-.002-.012-.001-.013-.002-.013v-.012l-.001-.013v-.013-15-.013l.001-.013v-.012l.002-.013.001-.013.002-.012.002-.013.002-.012.003-.012.003-.012.003-.012.003-.012.004-.011.004-.012.005-.011.004-.012.005-.011.005-.011.006-.011.005-.01.006-.011.006-.01.007-.01.006-.011.007-.009.007-.01.008-.01.007-.009.008-.009.008-.009.008-.009.008-.009.009-.008.009-.008.009-.008.009-.008.009-.007.01-.008.01-.007.009-.007.011-.006.01-.007.01-.006.011-.006.01-.005.011-.006.011-.005.011-.005.012-.004.011-.005.012-.004.011-.004.012-.003.012-.003.012-.003.012-.003.012-.002.013-.002.012-.002.013-.001.013-.002h.012l.013-.001h.013zm-14.5 1v14h14v-14z" transform="scale(4)"/><path d="m12.5 0s-.234.585-.476 1.189c-.347.87-.816 1.686-1.391 2.426-.538.691-1.227 1.577-1.765 2.269-.2.257-.262.593-.168.904s.333.556.641.659c.52.173 1.066.355 1.384.461.17.057.297.201.332.377.077.385.217 1.084.319 1.594.076.379.363.681.738.774.588.147 1.386.347 1.386.347s-.428.107-.889.222c-.28.07-.516.258-.647.515-.132.257-.146.559-.039.827.049.12.098.243.146.363.283.709.429 1.465.429 2.228v.845h4c.133 0 .26-.053.354-.146.093-.094.146-.221.146-.354 0-2.388 0-12.612 0-15 0-.133-.053-.26-.146-.354-.094-.093-.221-.146-.354-.146-1.172 0-4 0-4 0z" transform="matrix(4 0 0 4 -4 0)"/><ellipse cy="25.5" rx="27" ry="21.5" transform="matrix(.925926 0 0 .930233 0 2.27907)"/><path d="m15 41 5-6c1.303 3.257 3.562 6.042 6.481 7.987.87.581 1.519 1.013 1.519 1.013s-.937 0-2.169 0c-3.816 0-7.559-1.037-10.831-3z"/></g><path d="m15.5 0h.013l.013.001h.012l.013.002.013.001.012.002.013.002.012.002.012.003.012.003.012.003.012.003.011.004.012.004.011.005.012.004.011.005.011.005.011.006.01.005.011.006.01.006.01.007.011.006.009.007.01.007.01.008.009.007.009.008.009.008.009.008.009.008.008.009.008.009.008.009.008.009.007.009.008.01.007.01.007.009.006.011.007.01.006.01.006.011.005.01.006.011.005.011.005.011.004.012.005.011.004.012.004.011.003.012.003.012.003.012.003.012.002.012.002.013.002.012.001.013.002.013v.012l.001.013v.013 15 .013l-.001.013v.012l-.002.013-.001.013-.002.012-.002.013-.002.012-.003.012-.003.012-.003.012-.003.012-.004.011-.004.012-.005.011-.004.012-.005.011-.005.011-.006.011-.005.01-.006.011-.006.01-.007.01-.006.011-.007.009-.007.01-.008.01-.007.009-.008.009-.008.009-.008.009-.008.009-.009.008-.009.008-.009.008-.009.008-.009.007-.01.008-.01.007-.009.007-.011.006-.01.007-.01.006-.011.006-.01.005-.011.006-.011.005-.011.005-.012.004-.011.005-.012.004-.011.004-.012.003-.012.003-.012.003-.012.003-.012.002-.013.002-.012.002-.013.001-.013.002h-.012l-.013.001h-.013-15-.013l-.013-.001h-.012l-.013-.002-.013-.001-.012-.002-.013-.002-.012-.002-.012-.003-.012-.003-.012-.003-.012-.003-.011-.004-.012-.004-.011-.005-.012-.004-.011-.005-.011-.005-.011-.006-.01-.005-.011-.006-.01-.006-.01-.007-.011-.006-.009-.007-.01-.007-.01-.008-.009-.007-.009-.008-.009-.008-.009-.008-.009-.008-.008-.009-.008-.009-.008-.009-.008-.009-.007-.009-.008-.01-.007-.01-.007-.009-.006-.011-.007-.01-.006-.01-.006-.011-.005-.01-.006-.011-.005-.011-.005-.011-.004-.012-.005-.011-.004-.012-.004-.011-.003-.012-.003-.012-.003-.012-.003-.012-.002-.012-.002-.013-.002-.012-.001-.013-.002-.013v-.012l-.001-.013v-.013-15-.013l.001-.013v-.012l.002-.013.001-.013.002-.012.002-.013.002-.012.003-.012.003-.012.003-.012.003-.012.004-.011.004-.012.005-.011.004-.012.005-.011.005-.011.006-.011.005-.01.006-.011.006-.01.007-.01.006-.011.007-.009.007-.01.008-.01.007-.009.008-.009.008-.009.008-.009.008-.009.009-.008.009-.008.009-.008.009-.008.009-.007.01-.008.01-.007.009-.007.011-.006.01-.007.01-.006.011-.006.01-.005.011-.006.011-.005.011-.005.012-.004.011-.005.012-.004.011-.004.012-.003.012-.003.012-.003.012-.003.012-.002.013-.002.012-.002.013-.001.013-.002h.012l.013-.001h.013zm-14.5 1v14h14v-14z" transform="matrix(4 0 0 4 432 116)"/><circle cx="452" cy="133" r="4" stroke-width="4"/></g><path d="m3 9s.624-1.871.886-2.658c.068-.204.259-.342.474-.342h1.28c.215 0 .406.138.474.342.262.787.886 2.658.886 2.658" fill="none" stroke="#58a706" transform="matrix(4 0 0 4 432 116)"/><path d="m4 6s-.368 3.678-.473 4.725c-.007.07.016.14.064.193.047.052.115.082.185.082h2.448c.07 0 .138-.03.185-.082.048-.053.071-.123.064-.193-.105-1.047-.473-4.725-.473-4.725z" fill="#58a706" transform="matrix(4 0 0 4 432 116)"/><path d="m4.5 9-.25 3.75" fill="none" stroke="#58a706" transform="matrix(4 0 0 4 432 116)"/><path d="m5.5 9 .25 3.75" fill="none" stroke="#58a706" transform="matrix(4 0 0 4 432 116)"/><circle cx="476" cy="133" fill="#58a706" r="4" stroke-width="4"/><path d="m3 9s.731-2.193.943-2.829c.034-.102.13-.171.237-.171h1.64c.107 0 .203.069.237.171.212.636.943 2.829.943 2.829" fill="none" stroke="#58a706" transform="matrix(4 0 0 4 456 116)"/><path d="m472 140h8v16h-8z" fill="#58a706" stroke-width="4"/><path d="m4.5 7.5-.5 5.25" fill="none" stroke="#58a706" transform="matrix(4 0 0 4 456 116)"/><path d="m5.5 7.5.5 5.25" fill="none" stroke="#58a706" transform="matrix(4 0 0 4 456 116)"/><g transform="translate(104 270)"><path d="m15.5 0h.013l.013.001h.012l.013.002.013.001.012.002.013.002.012.002.012.003.012.003.012.003.012.003.011.004.012.004.011.005.012.004.011.005.011.005.011.006.01.005.011.006.01.006.01.007.011.006.009.007.01.007.01.008.009.007.009.008.009.008.009.008.009.008.008.009.008.009.008.009.008.009.007.009.008.01.007.01.007.009.006.011.007.01.006.01.006.011.005.01.006.011.005.011.005.011.004.012.005.011.004.012.004.011.003.012.003.012.003.012.003.012.002.012.002.013.002.012.001.013.002.013v.012l.001.013v.013 15 .013l-.001.013v.012l-.002.013-.001.013-.002.012-.002.013-.002.012-.003.012-.003.012-.003.012-.003.012-.004.011-.004.012-.005.011-.004.012-.005.011-.005.011-.006.011-.005.01-.006.011-.006.01-.007.01-.006.011-.007.009-.007.01-.008.01-.007.009-.008.009-.008.009-.008.009-.008.009-.009.008-.009.008-.009.008-.009.008-.009.007-.01.008-.01.007-.009.007-.011.006-.01.007-.01.006-.011.006-.01.005-.011.006-.011.005-.011.005-.012.004-.011.005-.012.004-.011.004-.012.003-.012.003-.012.003-.012.003-.012.002-.013.002-.012.002-.013.001-.013.002h-.012l-.013.001h-.013-15-.013l-.013-.001h-.012l-.013-.002-.013-.001-.012-.002-.013-.002-.012-.002-.012-.003-.012-.003-.012-.003-.012-.003-.011-.004-.012-.004-.011-.005-.012-.004-.011-.005-.011-.005-.011-.006-.01-.005-.011-.006-.01-.006-.01-.007-.011-.006-.009-.007-.01-.007-.01-.008-.009-.007-.009-.008-.009-.008-.009-.008-.009-.008-.008-.009-.008-.009-.008-.009-.008-.009-.007-.009-.008-.01-.007-.01-.007-.009-.006-.011-.007-.01-.006-.01-.006-.011-.005-.01-.006-.011-.005-.011-.005-.011-.004-.012-.005-.011-.004-.012-.004-.011-.003-.012-.003-.012-.003-.012-.003-.012-.002-.012-.002-.013-.002-.012-.001-.013-.002-.013v-.012l-.001-.013v-.013-15-.013l.001-.013v-.012l.002-.013.001-.013.002-.012.002-.013.002-.012.003-.012.003-.012.003-.012.003-.012.004-.011.004-.012.005-.011.004-.012.005-.011.005-.011.006-.011.005-.01.006-.011.006-.01.007-.01.006-.011.007-.009.007-.01.008-.01.007-.009.008-.009.008-.009.008-.009.008-.009.009-.008.009-.008.009-.008.009-.008.009-.007.01-.008.01-.007.009-.007.011-.006.01-.007.01-.006.011-.006.01-.005.011-.006.011-.005.011-.005.012-.004.011-.005.012-.004.011-.004.012-.003.012-.003.012-.003.012-.003.012-.002.013-.002.012-.002.013-.001.013-.002h.012l.013-.001h.013zm-14.5 1v14h14v-14z" fill="#58a706" transform="scale(4)"/><path d="m34.741 10.381c.881-1.428 2.459-2.381 4.259-2.381 2.76 0 5 2.24 5 5 0 1.8-.953 3.378-2.381 4.259.248.871.381 1.791.381 2.741 0 2.789-1.144 5.313-2.989 7.128.184.044.367.096.549.147.587.162 1.167.346 1.74.552 1.668.599 3.269 1.38 4.768 2.324.429.271.85.555 1.262.852.361.26.714.53 1.07.797.089.069.089.069.176.14.113.098.223.198.326.307.283.299.52.641.699 1.012.228.471.362.987.392 1.51.028.486-.033.976-.18 1.439-.113.357-.276.697-.483 1.009-.312.467-.721.867-1.196 1.166-.475.3-1.013.497-1.568.577-.408.058-.824.053-1.23-.015-.405-.069-.8-.2-1.166-.388-.061-.031-.12-.064-.179-.099.006.18.009.361.009.542 0 1.37-.169 2.695-.484 3.947 2.083 1.213 3.484 3.471 3.484 6.053 0 3.863-3.137 7-7 7-2.47 0-4.643-1.282-5.889-3.216-.685.142-1.391.216-2.111.216s-1.426-.074-2.111-.216c-1.246 1.934-3.419 3.216-5.889 3.216-3.863 0-7-3.137-7-7 0-2.582 1.401-4.84 3.484-6.053-.315-1.252-.484-2.577-.484-3.947 0-.182.003-.362.009-.542-.091.053-.184.103-.279.149-.371.178-.77.298-1.177.355-.371.051-.748.051-1.119-.002-.555-.08-1.093-.277-1.568-.577-.475-.299-.884-.699-1.196-1.166-.228-.343-.402-.72-.515-1.116-.134-.468-.182-.959-.14-1.444.045-.522.193-1.034.434-1.499.19-.365.436-.701.727-.991.106-.106.219-.204.335-.298.342-.264.688-.521 1.036-.777.657-.477 1.334-.924 2.034-1.336 1.396-.82 2.875-1.502 4.406-2.03.479-.165.964-.316 1.453-.451.182-.051.365-.103.549-.147-1.845-1.815-2.989-4.339-2.989-7.128 0-.95.133-1.87.381-2.741-1.428-.881-2.381-2.459-2.381-4.259 0-2.76 2.24-5 5-5 1.8 0 3.378.953 4.259 2.381.871-.248 1.791-.381 2.741-.381s1.87.133 2.741.381zm-.743 20.992c-.633-.243-1.304-.373-1.998-.373-.701 0-1.379.133-2.018.38-.125.049-.249.102-.371.159h-.002l-.034.017-.003.001-.034.016-.003.002-.034.017h-.002c-.096.048-.191.098-.285.15l-.003.002-.032.018-.005.003-.031.017-.005.003-.031.018-.004.003-.032.019-.003.001c-.069.042-.138.084-.207.129l-.031.02-.005.003-.029.02-.007.004-.028.019-.007.005-.028.018-.007.005-.028.019-.006.005-.029.02-.004.003c-.055.038-.11.078-.164.119h-.001l-.029.022-.006.004-.026.021-.008.006-.025.019-.009.007-.025.02-.009.007-.025.019-.009.007-.025.02-.007.006-.027.022-.004.003c-.042.035-.083.069-.125.105l-.027.023-.007.006-.024.021-.009.008-.023.02-.01.009-.022.02-.011.009-.022.02-.01.009-.022.021-.01.009-.023.021-.008.007-.024.023-.003.003c-.039.036-.077.073-.115.11l-.007.007-.022.022-.009.009-.022.022-.01.01-.021.021-.01.011-.021.021-.01.01-.021.022-.01.01-.021.022-.009.01-.022.023-.007.007c-.035.038-.071.077-.106.116l-.006.006-.021.024-.009.01-.02.022-.01.012-.019.022-.011.012-.019.022-.01.012-.019.022-.01.012-.019.023-.01.011-.02.024-.008.01-.021.025-.004.005c-.026.032-.052.064-.078.096l-.002.002-.021.027-.007.009-.019.025-.009.011-.019.024-.01.013-.018.023-.009.013-.019.024-.009.012-.018.025-.009.012-.019.025-.008.01-.019.027-.006.007c-.032.045-.064.089-.096.134l-.004.006-.019.028-.007.01-.019.027-.008.012-.018.026-.008.012-.018.027-.007.011-.018.027-.008.012-.018.027-.007.01-.019.03-.004.007c-.039.06-.077.12-.115.182l-.003.005-.02.032-.005.008-.018.031-.006.009-.018.031-.006.009-.018.031-.005.009-.019.032-.004.008-.02.033-.002.005c-.045.078-.088.157-.131.237l-.001.001-.02.038-.002.004-.019.037-.003.005-.019.036-.003.005-.019.038-.002.003-.019.039c-.709 1.407-1.12 3.083-1.12 4.882 0 .718.066 1.416.189 2.086l.003.015c.008.04.015.081.023.12l.01.05c.008.038.016.077.024.115l.011.051c.008.038.017.075.025.113l.012.05.009.039.009.037.01.041.011.045.011.042c.009.035.018.07.027.105l.016.057c.009.034.018.067.028.101l.012.043.015.053.01.032.012.042.014.044.013.043.008.028.013.04.014.044.014.044c.011.031.021.062.031.093l.015.043.015.044.014.04.015.042.015.044.016.043.009.023.015.04.016.044.017.043.015.039.009.023.017.043.017.043.009.023.016.038.017.043.018.043.009.021.017.04.018.041.018.042.02.044.013.03.012.027.019.042.02.043.009.019.018.038.02.041.02.042.009.019.018.038.021.041.02.041.01.018.019.039.02.039.022.041.03.058.02.037.022.04.023.041.008.017.021.036.022.04.023.04.009.016.022.037.022.038.023.04.01.016.025.041.02.033.023.039.034.053.022.036.024.038.026.039.009.014.023.035.024.037.025.038.01.014.029.043.02.029.025.036.036.051.024.034.026.036.036.05.025.034.026.035.027.036.01.013.025.033.027.034.027.035.011.014.028.036.025.03.027.034.039.047.026.032.028.033.039.046.027.031.028.032.029.034.011.012.034.037.022.025.029.032.041.044.027.029.03.031.041.044.028.028.03.031.03.031.012.011.028.028.03.03.031.029.012.012.035.033.024.023.031.029.044.041.029.026.031.028.032.028.013.012.029.025.031.027.032.027.014.012.03.025.031.026.032.026.046.038.03.023.032.026.034.026.014.011.029.022.033.025.033.025.015.011.03.022.033.024.033.024.016.011.032.022.031.022.033.023.035.023.022.015.024.016.033.022.034.022.018.011.03.019.033.021.034.021.035.021.032.019.035.021.034.02.033.019.031.017.034.02.034.019c.024.012.048.025.072.038l.034.018.035.018.031.016.033.017.035.017.032.016.022.01.032.016.035.016.034.015.078.036.034.015.011.004c.026.012.053.023.08.034l.044.018.026.01.031.013.033.012.035.014.031.011c.029.011.058.022.087.032l.041.014c.029.01.058.02.088.03l.04.013c.03.009.061.019.091.028l.037.011c.042.012.084.024.126.035l.004.001c.042.011.085.022.128.033l.034.008c.044.01.088.02.132.029h.001c.044.01.088.018.132.027.327.06.661.091 1.001.091s.674-.031 1.001-.091c.044-.009.088-.017.132-.027h.001c.055-.011.11-.024.164-.037h.002c.043-.011.086-.022.129-.033l.003-.001c.042-.011.084-.023.126-.035l.004-.001.031-.009v-.001c.032-.009.063-.019.094-.029l.004-.001.03-.009.004-.002c.03-.01.061-.02.091-.03l.003-.002.029-.01.006-.002c.03-.01.061-.021.091-.033h.001l.028-.011.007-.002.028-.011.002-.001c.03-.011.059-.023.088-.035l.008-.003.027-.01.006-.003.084-.036.008-.003.025-.011.009-.004c.027-.012.055-.024.082-.037l.007-.003.025-.011.009-.005.025-.012.005-.002.027-.013.026-.012.005-.003.025-.012.01-.005.024-.012.008-.004c.026-.013.052-.026.078-.04l.011-.005.023-.012.01-.006c.026-.013.051-.027.076-.041l.011-.006.022-.012.011-.006.023-.013.006-.003.024-.014.022-.013.01-.006.022-.012.012-.007.021-.013.011-.006.021-.013.022-.013.008-.005.022-.013.012-.008.021-.013.012-.007c.023-.015.047-.03.07-.045l.013-.008.02-.013.013-.009.02-.013.008-.005.021-.014.02-.013.012-.009.02-.013.013-.009.02-.014.012-.008.018-.013.018-.012.013-.009.019-.014.013-.009.019-.014.014-.01.018-.013.016-.011.013-.01.018-.014.014-.01.018-.014.014-.01.018-.014.02-.015.008-.007.018-.013.014-.011.018-.014.014-.011.018-.014.015-.012.014-.011.016-.013.014-.012.018-.014.014-.012.017-.014.015-.012.015-.013.013-.011.016-.013.017-.014.014-.013.017-.014.015-.013.016-.014.006-.005.021-.019.016-.014.015-.013.016-.014.015-.014.016-.014.021-.019.006-.006.015-.014.015-.014.016-.014.015-.014.016-.015.016-.015.012-.011.013-.012.015-.016.016-.014.014-.015.016-.015.015-.015.014-.013.009-.009.018-.018.015-.015.015-.014.015-.016.014-.015.015-.015.026-.026.014-.015.015-.016.015-.015.014-.016.015-.015.019-.02.007-.008.013-.014.015-.016.015-.016.014-.016.014-.015.016-.018.011-.012.01-.012.017-.018.014-.016.014-.016.014-.016.015-.017.013-.015.002-.003.023-.026.014-.016.014-.016.014-.017.013-.016.014-.017.024-.029.013-.016.015-.017.013-.017.014-.017.013-.016.016-.02.009-.012.011-.013.015-.019.013-.017.014-.017.013-.017.014-.018.012-.015.007-.01.017-.022.013-.017.013-.017.013-.018.013-.018.013-.017.023-.031.013-.017.012-.018.014-.018.012-.017.013-.018.016-.023.007-.01.012-.016.012-.018.013-.019.012-.017.013-.019.013-.019.011-.015.01-.015.013-.019.012-.019.012-.017.013-.02.012-.018.012-.018.006-.009.015-.024.013-.019.011-.017.013-.02.011-.018.013-.019.018-.029.002-.004.012-.02.012-.018.012-.02.011-.017.012-.02.012-.019.009-.016.011-.019.011-.017.012-.021.011-.018.012-.02.01-.018.011-.019.01-.017.011-.018.012-.022.01-.017.012-.021.01-.018.012-.021.008-.015.011-.019.012-.022.009-.017.012-.022.01-.017.012-.022.008-.017.011-.019.011-.021.009-.017.012-.023.009-.017.011-.023.009-.015.011-.022.011-.021.007-.016.012-.023.009-.017.011-.023.008-.016.012-.023.011-.024.006-.012.012-.025.008-.016.012-.024.007-.016c.014-.028.027-.057.04-.085l.007-.015.012-.026.007-.015.011-.026.006-.011.011-.026.011-.025.007-.014.011-.026.007-.015.011-.026.006-.013.011-.026.012-.028.004-.01.011-.027.006-.015.012-.026.005-.014c.013-.031.025-.061.038-.092l.005-.014.011-.027.006-.014c.012-.031.024-.063.036-.094l.005-.012.011-.029.005-.014.011-.029.003-.007.011-.031.012-.031.003-.009.011-.029.004-.013.011-.03.004-.01c.011-.033.023-.066.034-.1l.004-.012.011-.03.004-.011c.011-.034.022-.067.033-.101l.003-.01.01-.032.004-.011c.011-.035.022-.07.033-.104l.002-.008.01-.032.003-.011.01-.033.002-.005c.011-.036.021-.072.032-.108l.003-.01.009-.033.002-.008c.01-.036.02-.072.03-.108l.003-.009.009-.034.002-.008c.01-.037.019-.074.029-.111l.001-.006.009-.034.002-.009c.013-.051.025-.102.037-.153l.002-.008.008-.036.001-.003c.009-.039.018-.077.026-.116l.002-.007.008-.037.001-.005c.008-.039.016-.078.024-.117l.001-.004.007-.038.002-.006c.008-.04.015-.08.023-.121l.003-.015c.123-.67.189-1.368.189-2.086 0-1.799-.411-3.475-1.119-4.881l-.02-.04-.002-.003-.019-.038-.003-.004-.019-.037-.002-.005-.02-.037-.002-.003c-.049-.094-.1-.187-.152-.278l-.002-.003-.02-.035-.004-.006-.019-.033-.005-.008-.018-.032-.005-.008-.019-.032-.005-.008-.02-.032-.003-.007-.021-.034-.001-.002c-.039-.062-.078-.124-.117-.185l-.004-.006-.02-.03-.005-.009-.019-.029-.007-.01-.019-.028-.007-.011-.019-.027-.007-.011-.019-.028-.007-.01-.019-.028-.006-.008-.021-.03-.002-.003c-.032-.046-.065-.092-.098-.137l-.004-.007-.02-.027-.008-.01-.019-.025-.008-.012-.019-.025-.009-.012-.018-.024-.01-.013-.018-.023-.01-.013-.018-.024-.009-.011-.02-.025-.007-.009-.021-.027-.002-.002c-.025-.031-.051-.063-.076-.094l-.006-.007-.02-.024-.009-.011-.019-.023-.011-.012-.018-.022-.011-.013-.018-.021-.012-.014-.018-.021-.011-.013-.019-.021-.011-.012-.019-.022-.01-.011-.02-.023-.008-.009c-.025-.028-.051-.055-.076-.083l-.005-.005-.021-.022-.01-.011-.019-.02-.012-.013-.019-.019-.012-.013-.019-.019-.012-.013-.019-.019-.012-.013-.019-.019-.013-.013-.019-.019-.012-.012-.02-.019-.01-.011-.021-.021-.006-.005c-.026-.025-.053-.051-.079-.075l-.009-.009-.021-.02-.012-.011-.02-.018-.013-.012-.019-.018-.013-.012-.02-.017-.013-.012-.02-.018-.013-.011-.02-.018-.012-.011-.021-.018-.012-.01-.022-.019-.008-.007c-.028-.024-.056-.048-.085-.071l-.004-.004-.024-.019-.01-.009-.022-.018-.012-.01-.022-.017-.012-.01-.022-.017-.012-.01-.022-.017-.013-.009-.021-.017-.012-.009-.023-.018-.011-.008-.024-.018-.008-.006c-.041-.03-.081-.06-.122-.089l-.006-.004-.026-.018-.009-.007-.025-.017-.011-.008-.024-.016-.011-.008-.024-.016-.011-.008-.025-.016-.01-.007-.025-.017-.01-.006-.026-.017-.007-.004c-.055-.036-.11-.07-.165-.104l-.005-.002-.029-.018-.007-.004-.028-.017-.009-.005-.027-.016-.009-.005-.028-.015-.008-.005-.028-.016-.007-.004-.03-.017-.005-.002c-.07-.039-.141-.076-.212-.112h-.001l-.033-.017-.004-.002-.033-.016-.005-.002-.032-.015-.005-.003-.033-.015-.003-.002-.034-.016h-.001c-.111-.051-.222-.098-.335-.142zm1.12-5.869c.552-.685.882-1.556.882-2.504 0-2.208-1.792-4-4-4s-4 1.792-4 4c0 .948.33 1.819.882 2.504l.027.034.007.008.025.03.007.009.025.029.034.039.035.039.026.028.008.008.027.029.038.039.034.035.028.027.007.008.029.027.038.036.037.034.029.026.008.007.03.027.04.034.031.025.008.007.03.025.008.006.032.025.041.032.032.025.008.006.032.023.041.03.043.03.033.023.008.005.034.022.045.03.041.026.035.021.008.005.035.021.044.026.044.025.036.02.008.004.037.02.046.024.045.022.037.019.046.021.047.022.046.021.038.016.048.02.048.019.034.013.025.01.025.009.025.009.025.009.031.011.029.01.026.008.025.009.026.008.025.008.026.007.033.01.028.008.026.007.026.007.026.007.026.007.031.007.03.008.028.006.027.006.026.006.027.005.026.005.033.007.03.005.027.005.027.005.027.004.027.005.027.004.036.005.028.003.028.004.027.003.028.003.027.003.032.003.032.003.029.003.028.002.027.002.028.001.028.002.035.001.03.002h.029l.028.001.028.001h.028.028.028.009.019l.011-.001h.017.011l.017-.001h.011.018l.01-.001.02-.001h.008l.027-.001.006-.001.022-.001h.01l.018-.001.01-.001.017-.001.011-.001.017-.001.011-.001.018-.002.01-.001.022-.002h.005l.027-.003.008-.001.019-.002.011-.001.017-.002.01-.001.017-.002.011-.001.017-.003.01-.001.018-.002.009-.002.027-.003.001-.001.026-.003.009-.002.018-.003.01-.001.017-.003.01-.002.017-.003.01-.002.017-.003.01-.001.02-.004.007-.001.026-.006.005-.001.021-.004.01-.002.017-.003.01-.003.016-.003.011-.002.016-.004.01-.002.018-.004.008-.003.022-.005.005-.001.026-.006.007-.002.019-.005.009-.002.017-.005.01-.002.016-.005.01-.003.016-.004.01-.003.018-.005.007-.002.026-.008.026-.007.007-.003.018-.005.009-.003.017-.005.009-.003.016-.006.01-.003.016-.005.009-.003.02-.007.005-.002.026-.009.004-.001.021-.008.008-.003.017-.006.009-.003.016-.006.009-.003.016-.007.009-.003.017-.007.008-.003.006-.002.038-.016.004-.001.04-.017.008-.003.038-.016.007-.004.039-.017.005-.002.037-.017.005-.003.038-.018.008-.003.037-.019.007-.003.038-.019.004-.002.036-.019.006-.003.037-.02.008-.004.036-.02.007-.004.037-.021.002-.001.036-.021.006-.004.035-.021.008-.005.035-.021.007-.005.034-.021.003-.002.035-.023.007-.005.034-.022.008-.005.033-.023.007-.005.032-.022.004-.003.033-.024.008-.006.032-.023.008-.006.032-.025.006-.004.03-.024.005-.004.032-.025.008-.006.03-.025.008-.007.031-.025.006-.005.028-.024.006-.005.03-.027.008-.007.029-.026.007-.007.03-.027.005-.005.027-.025.006-.006.029-.027.007-.008.028-.027.007-.008.027-.027.002-.002.004-.003.025-.027.007-.007.027-.029.008-.008.026-.028.007-.008.024-.027.004-.004.002-.003.025-.028.007-.008.025-.029.007-.009.025-.03.007-.008.022-.027.005-.006zm-7.105-9.504h-.013c-.024 0-.047.001-.071.002l-.006.001-.013.001c-.029.003-.058.006-.087.012l-.012.002c-.008.001-.016.003-.025.005-.032.007-.064.016-.095.026l-.012.004c-.017.006-.034.012-.052.019-.042.017-.084.037-.124.06-.033.019-.066.041-.097.064-.011.008-.023.017-.033.026l-.009.006-.018.015c-.088.077-.162.168-.22.271-.029.052-.053.107-.073.164-.007.021-.014.042-.019.064-.008.028-.014.057-.019.086l-.001.007-.001.005c-.002.013-.004.025-.006.037-.004.04-.007.08-.007.121v.002.02l.001.017.001.018.001.018.001.016.002.019.002.016.002.016.003.019.002.016.003.017.004.017.003.016.005.018.004.016.004.014.005.019.005.015.005.016.006.016.006.015.005.013.01.025.009.021.011.023.01.021.012.022.012.021c.173.299.496.5.866.5.552 0 1-.448 1-1 0-.267-.105-.509-.275-.689l-.003-.002-.014-.015-.002-.002-.016-.015-.001-.002-.017-.015v-.001l-.017-.014-.001-.001-.017-.014-.002-.002-.016-.013-.003-.002-.016-.013-.003-.002-.017-.012-.003-.002-.017-.012-.003-.002-.017-.012-.003-.001-.018-.012-.002-.001-.019-.011-.002-.001-.019-.011h-.001l-.02-.011-.001-.001-.02-.01-.002-.001-.02-.009-.003-.001-.019-.009-.003-.001-.02-.008-.005-.002-.005-.002-.006-.002-.006-.002-.006-.003-.006-.002-.006-.002-.005-.002-.007-.002-.005-.002-.007-.002-.005-.002-.007-.002-.006-.001-.007-.002-.005-.002-.008-.002-.004-.001-.011-.003h-.001l-.012-.004h-.004l-.009-.003-.005-.001-.007-.001-.006-.001-.007-.002-.005-.001-.007-.001-.006-.001-.007-.002-.006-.001-.007-.001-.006-.001-.006-.001-.006-.001-.007-.001h-.006l-.007-.001-.006-.001-.007-.001-.006-.001h-.007l-.006-.001h-.007l-.006-.001h-.007l-.006-.001h-.007l-.006-.001h-.008-.005-.008l-.006-.001h-.008zm7.974 0h-.005-.008l-.006.001h-.008-.005-.008l-.006.001h-.007l-.006.001h-.007l-.006.001h-.007l-.006.001h-.007l-.006.001-.007.001-.006.001-.007.001h-.006l-.007.001-.006.001-.006.001-.006.001-.007.001-.006.001-.007.002-.006.001-.007.001-.005.001-.007.002-.006.001-.007.001-.005.001-.009.003h-.004l-.012.004h-.001l-.011.003-.004.001-.008.002-.005.002-.007.002-.006.001-.007.002-.005.002-.007.002-.005.002-.007.002-.005.002-.006.002-.006.002-.006.003-.006.002-.006.002-.005.002-.005.002-.02.008-.003.001-.019.009-.003.001-.02.009-.002.001-.02.01-.001.001-.02.011h-.001l-.019.011-.002.001-.019.011-.002.001-.018.012-.003.001-.017.012-.003.002-.017.012-.003.002-.017.012-.003.002-.016.013-.003.002-.016.013-.002.002-.017.014-.001.001-.017.014v.001l-.017.015-.001.002-.016.015-.002.002-.014.015-.003.002c-.17.18-.275.422-.275.689 0 .552.448 1 1 1 .37 0 .693-.201.866-.5l.003-.005.009-.016.002-.003.01-.019.002-.005.008-.016.002-.004.009-.019.002-.005.007-.016.002-.005.008-.02.005-.013.002-.003.004-.012.001-.004.005-.012v-.002l.005-.014.001-.004.004-.011.001-.004.004-.015v-.001l.004-.013.001-.005.003-.011.001-.004.004-.014v-.004l.003-.012.001-.004.003-.013v-.002l.003-.015v-.004l.002-.012.001-.004.002-.015v-.001l.002-.015.001-.004.001-.012.001-.004.001-.015v-.004l.001-.012.001-.005v-.013l.001-.003v-.015-.004l.001-.013v-.004-.016c0-.01 0-.021 0-.031-.001-.032-.004-.065-.008-.096l-.002-.013c-.001-.009-.002-.018-.004-.027-.002-.013-.005-.026-.007-.039-.005-.023-.011-.045-.017-.068-.012-.041-.026-.082-.043-.121l-.007-.016-.006-.012-.005-.01-.005-.011c-.061-.124-.148-.233-.252-.321l-.008-.007-.007-.005c-.021-.017-.043-.034-.066-.049-.021-.015-.044-.029-.066-.042-.036-.021-.074-.039-.113-.055-.017-.008-.035-.015-.053-.021-.027-.009-.054-.017-.081-.024l-.012-.004-.006-.001c-.011-.003-.023-.005-.035-.008-.017-.003-.033-.006-.05-.008-.007-.001-.013-.002-.02-.003l-.012-.001c-.007-.001-.014-.002-.021-.003h-.004l-.013-.001-.006-.001c-.015-.001-.029-.001-.044-.002-.005 0-.009 0-.014 0h-.013z" fill="#58a706"/><path d="m29.942 24.942c.628-.284 1.325-.442 2.058-.442s1.43.158 2.058.442" fill="none" stroke="#58a706" transform="matrix(1 0 0 -1 0 49.4423)"/><ellipse cx="32.5" cy="23" fill="#58a706" rx="1.5" ry="1" transform="matrix(1.33333 0 0 1.25 -11.3333 -7)"/><path d="m32 22v2" fill="none" stroke="#58a706" stroke-width=".88" transform="matrix(1 0 0 1.25 0 -5.5)"/></g><path d="m15.5 0h.013l.013.001h.012l.013.002.013.001.012.002.013.002.012.002.012.003.012.003.012.003.012.003.011.004.012.004.011.005.012.004.011.005.011.005.011.006.01.005.011.006.01.006.01.007.011.006.009.007.01.007.01.008.009.007.009.008.009.008.009.008.009.008.008.009.008.009.008.009.008.009.007.009.008.01.007.01.007.009.006.011.007.01.006.01.006.011.005.01.006.011.005.011.005.011.004.012.005.011.004.012.004.011.003.012.003.012.003.012.003.012.002.012.002.013.002.012.001.013.002.013v.012l.001.013v.013 15 .013l-.001.013v.012l-.002.013-.001.013-.002.012-.002.013-.002.012-.003.012-.003.012-.003.012-.003.012-.004.011-.004.012-.005.011-.004.012-.005.011-.005.011-.006.011-.005.01-.006.011-.006.01-.007.01-.006.011-.007.009-.007.01-.008.01-.007.009-.008.009-.008.009-.008.009-.008.009-.009.008-.009.008-.009.008-.009.008-.009.007-.01.008-.01.007-.009.007-.011.006-.01.007-.01.006-.011.006-.01.005-.011.006-.011.005-.011.005-.012.004-.011.005-.012.004-.011.004-.012.003-.012.003-.012.003-.012.003-.012.002-.013.002-.012.002-.013.001-.013.002h-.012l-.013.001h-.013-15-.013l-.013-.001h-.012l-.013-.002-.013-.001-.012-.002-.013-.002-.012-.002-.012-.003-.012-.003-.012-.003-.012-.003-.011-.004-.012-.004-.011-.005-.012-.004-.011-.005-.011-.005-.011-.006-.01-.005-.011-.006-.01-.006-.01-.007-.011-.006-.009-.007-.01-.007-.01-.008-.009-.007-.009-.008-.009-.008-.009-.008-.009-.008-.008-.009-.008-.009-.008-.009-.008-.009-.007-.009-.008-.01-.007-.01-.007-.009-.006-.011-.007-.01-.006-.01-.006-.011-.005-.01-.006-.011-.005-.011-.005-.011-.004-.012-.005-.011-.004-.012-.004-.011-.003-.012-.003-.012-.003-.012-.003-.012-.002-.012-.002-.013-.002-.012-.001-.013-.002-.013v-.012l-.001-.013v-.013-15-.013l.001-.013v-.012l.002-.013.001-.013.002-.012.002-.013.002-.012.003-.012.003-.012.003-.012.003-.012.004-.011.004-.012.005-.011.004-.012.005-.011.005-.011.006-.011.005-.01.006-.011.006-.01.007-.01.006-.011.007-.009.007-.01.008-.01.007-.009.008-.009.008-.009.008-.009.008-.009.009-.008.009-.008.009-.008.009-.008.009-.007.01-.008.01-.007.009-.007.011-.006.01-.007.01-.006.011-.006.01-.005.011-.006.011-.005.011-.005.012-.004.011-.005.012-.004.011-.004.012-.003.012-.003.012-.003.012-.003.012-.002.013-.002.012-.002.013-.001.013-.002h.012l.013-.001h.013zm-14.5 1v14h14v-14z" fill="#58a706" transform="matrix(4 0 0 4 268 270)"/><g fill="#58a706" transform="translate(267.484831 269.75005)"><path d="m25 13.361c0-.588-.259-1.146-.707-1.526-.449-.38-1.042-.544-1.622-.447-.667.111-1.381.23-2 .333-.964.161-1.671.996-1.671 1.973v.612c0 .977.707 1.812 1.671 1.973.619.103 1.333.222 2 .333.58.097 1.173-.067 1.622-.447.448-.38.707-.938.707-1.526 0-.42 0-.858 0-1.278z" transform="translate(-4 -1)"/><path d="m25 13.361c0-.588-.259-1.146-.707-1.526-.449-.38-1.042-.544-1.622-.447-.667.111-1.381.23-2 .333-.964.161-1.671.996-1.671 1.973v.612c0 .977.707 1.812 1.671 1.973.619.103 1.333.222 2 .333.58.097 1.173-.067 1.622-.447.448-.38.707-.938.707-1.526 0-.42 0-.858 0-1.278z" transform="matrix(-1 0 0 1 54 -1)"/><path d="m34.673 12.503c.27.011.538.034.804.075.558.088 1.104.248 1.62.477.575.254 1.112.591 1.59.999.768.654 1.378 1.487 1.77 2.417.349.824.524 1.718.512 2.613-.007.565-.089 1.129-.242 1.674-.063.228-.141.45-.228.67-1.88 4.565-3.831 9.1-5.746 13.649-.164.379-.344.748-.552 1.104-.439.751-.982 1.44-1.608 2.043-.784.756-1.698 1.375-2.69 1.822-.792.357-1.632.604-2.491.733-1.223.184-2.48.126-3.682-.169-1.619-.399-3.122-1.229-4.323-2.386-.626-.603-1.169-1.292-1.608-2.043-.179-.306-.337-.623-.484-.946-1.981-4.584-3.912-9.189-5.814-13.807-.099-.251-.186-.506-.255-.767-.144-.546-.217-1.111-.216-1.676.002-.628.095-1.256.276-1.857.3-.998.842-1.919 1.57-2.665.624-.641 1.381-1.149 2.209-1.486.524-.212 1.076-.356 1.637-.427.235-.029.47-.044.707-.049l.096-.001h2.475l.124.005c.109.014.137.014.244.041.161.041.314.108.452.198.385.251.637.675.675 1.132.01.124.005.249-.015.371-.028.163-.082.321-.161.467-.079.145-.181.278-.303.39-.213.196-.483.328-.769.376-.109.018-.137.015-.247.02-.86 0-1.72-.018-2.579.002-.433.017-.858.106-1.256.275-.312.132-.604.31-.865.525-.432.358-.776.819-.994 1.336-.18.427-.274.89-.276 1.354-.001.433.082.859.234 1.264 1.823 4.632 3.82 9.194 5.794 13.763.101.221.209.438.331.648.3.513.671.984 1.099 1.397.822.792 1.851 1.36 2.959 1.633.783.192 1.601.237 2.401.132.589-.077 1.168-.236 1.714-.471.685-.294 1.318-.706 1.864-1.213.435-.404.814-.868 1.123-1.375.147-.242.276-.493.393-.751 1.974-4.569 3.971-9.131 5.794-13.763.152-.405.235-.831.234-1.264-.002-.464-.096-.927-.276-1.354-.218-.517-.562-.978-.994-1.336-.261-.215-.553-.393-.865-.525-.398-.169-.823-.258-1.256-.275-.859-.02-1.719-.002-2.579-.002-.11-.005-.138-.002-.247-.02-.163-.028-.321-.082-.467-.161-.145-.079-.278-.181-.39-.303-.084-.091-.156-.193-.215-.302-.219-.404-.239-.896-.055-1.317.067-.151.158-.291.27-.413.197-.213.455-.367.736-.438.122-.031.242-.041.368-.046.891 0 1.782-.018 2.673.003z" fill-rule="nonzero" transform="translate(-1 -1)"/><path d="m49.981 42.879c-.251.953-.588 1.884-.997 2.779-.272.594-.576 1.173-.912 1.734-.274.458-.568.904-.883 1.335-1.649 2.26-3.885 4.167-6.539 5.124-.385.139-.778.257-1.176.353-.518.125-1.044.211-1.575.257-.776.067-1.559.047-2.33-.059-.467-.065-.929-.161-1.384-.286-.338-.092-.671-.201-.999-.325-2.527-.956-4.666-2.771-6.27-4.921-.283-.38-.551-.772-.802-1.175-.347-.553-.663-1.126-.946-1.715-.36-.748-.668-1.52-.919-2.311-.372-1.176-.619-2.393-.71-3.623-.021-.29-.034-.581-.038-.872-.001-.077-.003-.201.003-.282.008-.118.031-.234.067-.346.144-.454.505-.82.956-.97.15-.049.306-.075.464-.076.157-.001.314.023.463.071.188.059.363.156.513.282.21.178.37.413.457.674.037.114.056.228.071.346.008.179.007.358.013.538.016.371.046.741.095 1.11.199 1.49.667 2.943 1.333 4.29.732 1.483 1.712 2.854 2.916 3.991.857.809 1.835 1.501 2.914 1.984.703.315 1.449.538 2.213.644.508.07 1.023.088 1.534.052.34-.023.677-.07 1.01-.139 1.895-.391 3.583-1.478 4.931-2.839.202-.205.397-.416.586-.633.222-.257.435-.522.639-.795.293-.393.566-.802.818-1.224.305-.509.578-1.035.819-1.577.263-.591.487-1.199.669-1.82.591.346 1.28.545 2.015.545.339 0 .667-.042.981-.121z"/><path d="m48.052 31 .051.001.052.002.051.002.051.003.051.004.05.004.051.005.05.005.05.006.05.007.05.007.049.008.05.009.049.009.049.009.048.011.049.011.048.011.048.012.048.013.048.013.047.014.047.014.047.015.046.015.047.016.046.017.046.017.045.018.045.018.045.019.045.019.045.02.044.02.044.021.043.021.043.022.043.022.043.023.042.023.042.024.042.025.041.024.042.026.04.026.041.026.04.027.04.027.039.027.039.029.039.028.038.029.038.03.038.03.037.03.037.031.036.031.036.032.036.032.035.032.035.033.035.033.034.034.034.034.033.035.033.035.032.035.032.036.032.036.031.036.031.037.03.037.03.038.03.038.029.038.028.039.029.039.027.039.027.04.027.04.026.041.026.04.026.042.024.041.025.042.024.042.023.042.023.043.022.043.022.043.021.043.021.044.02.044.02.045.019.045.019.045.018.045.018.045.017.046.017.046.016.047.015.046.015.047.014.047.014.047.013.048.013.048.012.048.011.048.011.049.011.048.009.049.009.049.009.05.008.049.007.05.007.05.006.05.005.05.005.051.004.05.004.051.003.051.002.051.002.052.001.051v.052.052l-.001.051-.002.052-.002.051-.003.051-.004.051-.004.05-.005.051-.005.05-.006.05-.007.05-.007.05-.008.049-.009.05-.009.049-.009.049-.011.048-.011.049-.011.048-.012.048-.013.048-.013.048-.014.047-.014.047-.015.047-.015.046-.016.047-.017.046-.017.046-.018.045-.018.045-.019.045-.019.045-.02.045-.02.044-.021.044-.021.043-.022.043-.022.043-.023.043-.023.042-.024.042-.025.042-.024.041-.026.042-.026.04-.026.041-.027.04-.027.04-.027.039-.029.039-.028.039-.029.038-.03.038-.03.038-.03.037-.031.037-.031.036-.032.036-.032.036-.032.035-.033.035-.033.035-.034.034-.034.034-.035.033-.035.033-.035.032-.036.032-.036.032-.036.031-.037.031-.037.03-.038.03-.038.03-.038.029-.039.028-.039.029-.039.027-.04.027-.04.027-.041.026-.04.026-.042.026-.041.024-.042.025-.042.024-.042.023-.043.023-.043.022-.043.022-.043.021-.044.021-.044.02-.045.02-.045.019-.045.019-.045.018-.045.018-.046.017-.046.017-.047.016-.046.015-.047.015-.047.014-.047.014-.048.013-.048.013-.048.012-.048.011-.049.011-.048.011-.049.009-.049.009-.05.009-.049.008-.05.007-.05.007-.05.006-.05.005-.051.005-.05.004-.051.004-.051.003-.051.002-.052.002-.051.001h-.052-.052l-.051-.001-.052-.002-.051-.002-.051-.003-.051-.004-.05-.004-.051-.005-.05-.005-.05-.006-.05-.007-.05-.007-.049-.008-.05-.009-.049-.009-.049-.009-.048-.011-.049-.011-.048-.011-.048-.012-.048-.013-.048-.013-.047-.014-.047-.014-.047-.015-.046-.015-.047-.016-.046-.017-.046-.017-.045-.018-.045-.018-.045-.019-.045-.019-.045-.02-.044-.02-.044-.021-.043-.021-.043-.022-.043-.022-.043-.023-.042-.023-.042-.024-.042-.025-.041-.024-.042-.026-.04-.026-.041-.026-.04-.027-.04-.027-.039-.027-.039-.029-.039-.028-.038-.029-.038-.03-.038-.03-.037-.03-.037-.031-.036-.031-.036-.032-.036-.032-.035-.032-.035-.033-.035-.033-.034-.034-.034-.034-.033-.035-.033-.035-.032-.035-.032-.036-.032-.036-.031-.036-.031-.037-.03-.037-.03-.038-.03-.038-.029-.038-.028-.039-.029-.039-.027-.039-.027-.04-.027-.04-.026-.041-.026-.04-.026-.042-.024-.041-.025-.042-.024-.042-.023-.042-.023-.043-.022-.043-.022-.043-.021-.043-.021-.044-.02-.044-.02-.045-.019-.045-.019-.045-.018-.045-.018-.045-.017-.046-.017-.046-.016-.047-.015-.046-.015-.047-.014-.047-.014-.047-.013-.048-.013-.048-.012-.048-.011-.048-.011-.049-.011-.048-.009-.049-.009-.049-.009-.05-.008-.049-.007-.05-.007-.05-.006-.05-.005-.05-.005-.051-.004-.05-.004-.051-.003-.051-.002-.051-.002-.052-.001-.051v-.052-.052l.001-.051.002-.052.002-.051.003-.051.004-.051.004-.05.005-.051.005-.05.006-.05.007-.05.007-.05.008-.049.009-.05.009-.049.009-.049.011-.048.011-.049.011-.048.012-.048.013-.048.013-.048.014-.047.014-.047.015-.047.015-.046.016-.047.017-.046.017-.046.018-.045.018-.045.019-.045.019-.045.02-.045.02-.044.021-.044.021-.043.022-.043.022-.043.023-.043.023-.042.024-.042.025-.042.024-.041.026-.042.026-.04.026-.041.027-.04.027-.04.027-.039.029-.039.028-.039.029-.038.03-.038.03-.038.03-.037.031-.037.031-.036.032-.036.032-.036.032-.035.033-.035.033-.035.034-.034.034-.034.035-.033.035-.033.035-.032.036-.032.036-.032.036-.031.037-.031.037-.03.038-.03.038-.03.038-.029.039-.028.039-.029.039-.027.04-.027.04-.027.041-.026.04-.026.042-.026.041-.024.042-.025.042-.024.042-.023.043-.023.043-.022.043-.022.043-.021.044-.021.044-.02.045-.02.045-.019.045-.019.045-.018.045-.018.046-.017.046-.017.047-.016.046-.015.047-.015.047-.014.047-.014.048-.013.048-.013.048-.012.048-.011.049-.011.048-.011.049-.009.049-.009.05-.009.049-.008.05-.007.05-.007.05-.006.05-.005.051-.005.05-.004.051-.004.051-.003.051-.002.052-.002.051-.001h.052zm-.087 1.334h-.034l-.035.001-.034.002-.034.002-.034.002-.034.003-.034.003-.033.004-.034.004-.033.004-.033.005-.033.005-.033.006-.033.006-.032.007-.032.006-.033.008-.032.007-.032.008-.031.009-.032.008-.031.01-.032.009-.031.01-.031.01-.03.011-.031.011-.03.011-.031.012-.03.012-.03.012-.029.013-.03.013-.029.014-.029.014-.029.014-.029.015-.029.014-.028.016-.028.015-.029.016-.027.016-.028.017-.027.017-.027.017-.027.017-.027.018-.027.018-.026.019-.026.019-.026.019-.026.019-.025.02-.025.02-.025.02-.025.021-.024.021-.024.021-.024.021-.024.022-.023.022-.023.022-.023.023-.023.023-.022.023-.022.023-.022.024-.021.024-.021.024-.021.024-.021.025-.02.025-.02.025-.02.026-.019.025-.019.026-.019.026-.019.026-.018.027-.018.026-.017.027-.017.028-.017.027-.017.028-.016.028-.016.028-.015.028-.016.028-.015.029-.014.029-.014.029-.014.029-.014.029-.013.03-.013.029-.012.03-.012.03-.012.031-.011.03-.011.031-.011.03-.01.031-.01.031-.009.032-.01.031-.008.032-.009.031-.008.032-.007.032-.008.032-.006.033-.007.032-.006.033-.006.033-.005.033-.005.033-.004.033-.004.034-.004.033-.003.034-.003.034-.002.034-.002.034-.002.034-.001.035v.034l-.001.035.001.035v.034l.001.035.002.034.002.034.002.034.003.034.003.034.004.033.004.034.004.033.005.033.005.033.006.033.006.033.007.032.006.032.008.033.007.032.008.032.009.031.008.032.01.031.009.032.01.031.01.031.011.03.011.031.011.03.012.031.012.03.012.03.013.029.013.03.014.029.014.029.014.029.014.029.015.029.016.028.015.028.016.028.016.028.017.028.017.027.017.028.017.026.018.027.018.027.019.026.019.026.019.026.019.025.02.026.02.025.02.025.021.025.021.024.021.024.021.024.022.024.022.023.022.023.023.023.023.023.023.022.023.022.024.022.024.021.024.021.024.021.025.021.025.02.025.02.025.02.026.019.026.019.026.019.026.019.027.018.027.018.027.017.027.017.027.017.028.017.028.016.028.016.028.015.028.016.029.015.029.014.029.014.029.014.029.014.03.013.029.013.03.012.03.012.031.012.03.011.031.011.03.011.031.01.031.01.032.009.031.01.032.008.031.009.032.008.032.007.032.008.033.006.032.007.033.006.033.006.033.005.033.005.033.004.034.004.033.004.034.003.034.003.034.002.034.002.034.002.035.001h.034l.035.001.035-.001h.034l.035-.001.034-.002.034-.002.034-.002.034-.003.034-.003.033-.004.034-.004.033-.004.033-.005.033-.005.033-.006.033-.006.032-.007.033-.006.032-.008.032-.007.032-.008.031-.009.032-.008.031-.01.032-.009.031-.01.03-.01.031-.011.031-.011.03-.011.031-.012.03-.012.03-.012.029-.013.03-.013.029-.014.029-.014.03-.014.028-.014.029-.015.028-.016.028-.015.028-.016.028-.016.028-.017.027-.017.027-.017.027-.017.027-.018.027-.018.026-.019.026-.019.026-.019.025-.019.026-.02.025-.02.025-.02.025-.021.024-.021.024-.021.024-.021.024-.022.023-.022.023-.022.023-.023.023-.023.022-.023.022-.023.022-.024.021-.024.021-.024.021-.024.021-.025.02-.025.02-.025.02-.026.019-.025.019-.026.019-.026.018-.026.019-.027.018-.027.017-.026.017-.028.017-.027.017-.028.016-.027.016-.029.016-.028.015-.028.014-.029.015-.029.014-.029.014-.029.014-.029.013-.03.012-.029.013-.03.012-.031.012-.03.011-.03.011-.031.011-.03.01-.031.01-.032.009-.031.01-.031.008-.032.009-.032.008-.031.007-.032.008-.033.006-.032.007-.033.006-.032.006-.033.005-.033.005-.033.004-.033.004-.034.004-.033.003-.034.003-.034.002-.034.002-.034.002-.034.001-.035v-.034l.001-.035-.001-.035v-.034l-.001-.035-.002-.034-.002-.034-.002-.034-.003-.034-.003-.034-.004-.033-.004-.034-.004-.033-.005-.033-.005-.033-.006-.033-.006-.032-.007-.033-.006-.033-.008-.032-.007-.032-.008-.031-.009-.032-.008-.032-.01-.031-.009-.031-.01-.032-.01-.031-.011-.03-.011-.031-.011-.03-.012-.03-.012-.031-.013-.03-.012-.029-.013-.03-.014-.029-.014-.029-.014-.029-.015-.029-.014-.029-.015-.028-.016-.028-.016-.029-.016-.027-.017-.028-.017-.027-.017-.027-.017-.027-.018-.027-.018-.027-.019-.026-.019-.026-.019-.026-.019-.025-.02-.026-.02-.025-.02-.025-.021-.025-.021-.024-.021-.024-.021-.024-.022-.024-.022-.023-.022-.023-.023-.023-.023-.023-.023-.022-.023-.022-.024-.022-.024-.021-.024-.021-.024-.021-.025-.021-.025-.02-.025-.02-.025-.02-.026-.019-.026-.019-.026-.019-.026-.019-.027-.018-.027-.018-.027-.017-.027-.017-.027-.017-.028-.017-.027-.016-.029-.016-.028-.015-.028-.016-.029-.015-.028-.014-.03-.014-.029-.014-.029-.014-.03-.013-.029-.013-.03-.012-.03-.012-.031-.012-.03-.011-.031-.011-.03-.011-.031-.01-.031-.01-.032-.009-.031-.01-.032-.008-.031-.009-.032-.008-.032-.007-.033-.008-.032-.006-.032-.007-.033-.006-.033-.006-.033-.005-.033-.005-.033-.004-.034-.004-.033-.004-.034-.003-.034-.003-.034-.002-.034-.002-.034-.002-.035-.001h-.034l-.035-.001z" transform="matrix(1.5 0 0 1.5 -23 -13.5)"/><circle cx="49" cy="39" r="2" stroke-width="2"/></g><g transform="translate(432 270)"><path d="m15.5 0h.013l.013.001h.012l.013.002.013.001.012.002.013.002.012.002.012.003.012.003.012.003.012.003.011.004.012.004.011.005.012.004.011.005.011.005.011.006.01.005.011.006.01.006.01.007.011.006.009.007.01.007.01.008.009.007.009.008.009.008.009.008.009.008.008.009.008.009.008.009.008.009.007.009.008.01.007.01.007.009.006.011.007.01.006.01.006.011.005.01.006.011.005.011.005.011.004.012.005.011.004.012.004.011.003.012.003.012.003.012.003.012.002.012.002.013.002.012.001.013.002.013v.012l.001.013v.013 15 .013l-.001.013v.012l-.002.013-.001.013-.002.012-.002.013-.002.012-.003.012-.003.012-.003.012-.003.012-.004.011-.004.012-.005.011-.004.012-.005.011-.005.011-.006.011-.005.01-.006.011-.006.01-.007.01-.006.011-.007.009-.007.01-.008.01-.007.009-.008.009-.008.009-.008.009-.008.009-.009.008-.009.008-.009.008-.009.008-.009.007-.01.008-.01.007-.009.007-.011.006-.01.007-.01.006-.011.006-.01.005-.011.006-.011.005-.011.005-.012.004-.011.005-.012.004-.011.004-.012.003-.012.003-.012.003-.012.003-.012.002-.013.002-.012.002-.013.001-.013.002h-.012l-.013.001h-.013-15-.013l-.013-.001h-.012l-.013-.002-.013-.001-.012-.002-.013-.002-.012-.002-.012-.003-.012-.003-.012-.003-.012-.003-.011-.004-.012-.004-.011-.005-.012-.004-.011-.005-.011-.005-.011-.006-.01-.005-.011-.006-.01-.006-.01-.007-.011-.006-.009-.007-.01-.007-.01-.008-.009-.007-.009-.008-.009-.008-.009-.008-.009-.008-.008-.009-.008-.009-.008-.009-.008-.009-.007-.009-.008-.01-.007-.01-.007-.009-.006-.011-.007-.01-.006-.01-.006-.011-.005-.01-.006-.011-.005-.011-.005-.011-.004-.012-.005-.011-.004-.012-.004-.011-.003-.012-.003-.012-.003-.012-.003-.012-.002-.012-.002-.013-.002-.012-.001-.013-.002-.013v-.012l-.001-.013v-.013-15-.013l.001-.013v-.012l.002-.013.001-.013.002-.012.002-.013.002-.012.003-.012.003-.012.003-.012.003-.012.004-.011.004-.012.005-.011.004-.012.005-.011.005-.011.006-.011.005-.01.006-.011.006-.01.007-.01.006-.011.007-.009.007-.01.008-.01.007-.009.008-.009.008-.009.008-.009.008-.009.009-.008.009-.008.009-.008.009-.008.009-.007.01-.008.01-.007.009-.007.011-.006.01-.007.01-.006.011-.006.01-.005.011-.006.011-.005.011-.005.012-.004.011-.005.012-.004.011-.004.012-.003.012-.003.012-.003.012-.003.012-.002.013-.002.012-.002.013-.001.013-.002h.012l.013-.001h.013zm-14.5 1v14h14v-14z" fill="#58a706" transform="scale(4)"/><circle cx="32" cy="13" fill="#58a706" r="4"/><g fill="none" stroke="#58a706"><path d="m30 26-3 16" stroke-width="6" transform="translate(1 -5)"/><path d="m30 18.5s-4.14 0-6.463 0c-.907 0-1.699.609-1.933 1.485-.583 2.186-1.604 6.015-1.604 6.015" stroke-width="3" transform="translate(1 1)"/><path d="m27 41h13l4 11" stroke-width="4" transform="translate(1 -3)"/></g><path d="m47.042 46.501.042.001.042.003.042.004.042.006.041.006.042.008.041.009.041.01.04.011.041.012.039.013.04.015.039.015.039.017.038.018.037.018.038.02.036.021.036.022.035.023.035.024.034.024.033.026.033.027.032.028.03.028.031.029.029.031.028.03.028.032.027.033.026.033.024.034.024.035.023.035.022.036.021.036.02.038.018.037.018.038.017.039.015.039.015.04.013.039.012.041.011.04.01.041.009.041.008.042.006.041.006.042.004.042.003.042.001.042.001.042-.001.042-.001.042-.003.042-.004.042-.006.042-.006.041-.008.042-.009.041-.01.041-.011.04-.012.041-.013.039-.015.04-.015.039-.017.039-.018.038-.018.037-.02.038-.021.036-.022.036-.023.035-.024.035-.024.034-.026.033-.027.033-.028.032-.028.03-.029.031-.031.029-.03.028-.032.028-.033.027-.033.026-.034.024-.035.024-.035.023-.036.022-.036.021-.038.02-.037.018-.038.018-.039.017-.039.015-.04.015-.039.013-.041.012-.04.011-.041.01-.041.009-.042.008-.041.006-.042.006-.042.004-.042.003-.042.001-.042.001h-3l-.042-.001-.042-.001-.042-.003-.042-.004-.042-.006-.041-.006-.042-.008-.041-.009-.041-.01-.04-.011-.041-.012-.039-.013-.04-.015-.039-.015-.039-.017-.038-.018-.037-.018-.038-.02-.036-.021-.036-.022-.035-.023-.035-.024-.034-.024-.033-.026-.033-.027-.032-.028-.03-.028-.031-.029-.029-.031-.028-.03-.028-.032-.027-.033-.026-.033-.024-.034-.024-.035-.023-.035-.022-.036-.021-.036-.02-.038-.018-.037-.018-.038-.017-.039-.015-.039-.015-.04-.013-.039-.012-.041-.011-.04-.01-.041-.009-.041-.008-.042-.006-.041-.006-.042-.004-.042-.003-.042-.001-.042-.001-.042.001-.042.001-.042.003-.042.004-.042.006-.042.006-.041.008-.042.009-.041.01-.041.011-.04.012-.041.013-.039.015-.04.015-.039.017-.039.018-.038.018-.037.02-.038.021-.036.022-.036.023-.035.024-.035.024-.034.026-.033.027-.033.028-.032.028-.03.029-.031.031-.029.03-.028.032-.028.033-.027.033-.026.034-.024.035-.024.035-.023.036-.022.036-.021.038-.02.037-.018.038-.018.039-.017.039-.015.04-.015.039-.013.041-.012.04-.011.041-.01.041-.009.042-.008.041-.006.042-.006.042-.004.042-.003.042-.001.042-.001h3z" fill="#58a706" transform="translate(1 1.5)"/><path d="m23.902 30.039c.068-.028.146-.018.203.029.058.046.085.12.072.192-.145.77-.478 2.549-.592 3.154-.025.131-.1.246-.211.321-1.344.92-2.462 2.165-3.225 3.61-.438.829-.757 1.72-.946 2.638-.229 1.122-.265 2.284-.106 3.418.142 1.015.443 2.007.888 2.93.524 1.086 1.245 2.074 2.118 2.906.903.861 1.966 1.552 3.12 2.025 1.197.489 2.485.738 3.777.738s2.58-.249 3.777-.738c1.154-.473 2.217-1.164 3.12-2.025.873-.832 1.594-1.82 2.118-2.906.291-.603.52-1.235.683-1.884.021-.086.095-.148.183-.153s.169.048.199.131c.331.911.924 2.541 1.206 3.315.101.279.074.588-.075.845-.614 1.038-1.371 1.991-2.244 2.824-1.173 1.118-2.554 2.016-4.055 2.63-1.556.636-3.232.961-4.912.961s-3.356-.325-4.912-.961c-1.501-.614-2.882-1.512-4.055-2.63-1.133-1.081-2.07-2.365-2.75-3.775-.58-1.203-.972-2.495-1.157-3.817-.198-1.418-.163-2.87.107-4.277.23-1.201.632-2.368 1.19-3.456.666-1.3 1.553-2.485 2.61-3.493 1.02-.973 2.198-1.779 3.476-2.376.13-.061.261-.119.393-.176z" fill="#58a706"/></g></svg>