<svg width="600" height="450" version="1.1" xmlns="http://www.w3.org/2000/svg" xmlns:xlink="http://www.w3.org/1999/xlink" xml:space="preserve" xmlns:serif="http://www.serif.com/" fill-rule="evenodd" clip-rule="evenodd" stroke-linejoin="round" stroke-miterlimit="1.414"><g transform="matrix(2,0,0,2,73.461,161)"><path id="Logo" d="M53.205,22.82C53.254,22.612 53.431,22.459 53.644,22.44C53.857,22.422 54.058,22.542 54.143,22.738C55.34,25.588 56,28.717 56,32C56,45.246 45.246,56 32,56C18.754,56 8,45.246 8,32C8,29.837 8.287,27.74 8.825,25.745C8.917,25.415 9.173,25.155 9.502,25.057C9.831,24.96 10.187,25.039 10.445,25.266C13.033,27.529 18.252,32.128 19,33C20.161,34.354 19.6,36.159 22,40C22.833,41.333 24,42.833 25,44C25.92,45.074 27,46.167 28,47C28.923,47.769 30.218,48.578 31,49C31.916,49.495 32.652,49.596 33,49C33.232,48.602 32.974,48.109 32.5,47.5C32.094,46.978 31.74,46.78 31,46C29.283,44.19 27.625,42.35 28,42C28.431,41.598 31.965,44.75 34,46.5C35.476,47.77 36.081,48.221 36.5,48.5C37.166,48.944 38.42,49.297 39,48.5C39.344,48.027 39.078,47.202 38.5,46.5C38.13,46.05 37.495,45.37 36.5,44.5C34.985,43.176 32.645,41.45 33,41C33.324,40.588 34.841,41.68 37,43C38.749,44.069 40.577,45.106 41.5,45.5C42.423,45.894 43.048,45.961 43.5,45.5C43.8,45.195 43.836,44.592 43.5,44C43.235,43.534 42.028,42.583 40.5,41.5C38.158,39.84 35.025,38.032 35.5,37.5C35.824,37.138 37.827,38.133 40,39C41.425,39.569 42.399,39.88 43,40C43.988,40.198 44.688,40.075 45,39.5C45.272,38.999 45.183,38.329 44,37.5C42.64,36.548 35.234,32.666 33.407,31.713C33.18,31.595 32.9,31.667 32.759,31.88C32.467,32.328 31.956,33.066 31.5,33.5C30.444,34.506 29.511,35.042 28,35C27.225,34.979 26.587,34.848 26.149,34.726C26.102,34.71 26.073,34.662 26.083,34.613C26.092,34.564 26.137,34.53 26.186,34.533C27.058,34.551 28.562,34.498 29.5,34C30.679,33.374 31.314,32.767 32,31.5C32.47,30.632 32.635,29.96 33,30C34.139,30.124 35.775,32.432 39.5,31.5C40.832,31.167 42.061,29.805 40,29C39.178,28.679 37.702,28.515 36,28C33.601,27.274 31.228,26.014 30,26C29.936,25.999 29.872,26 29.81,26.002C29.649,26.005 29.498,26.086 29.407,26.22C29.184,26.525 28.762,27.079 28.49,27.329C27.947,27.826 27.316,28.207 26.665,28.544C26.009,28.883 25.326,29.182 24.602,29.337C24.086,29.448 23.561,29.479 23.035,29.499C22.897,29.505 22.758,29.503 22.619,29.495C21.9,29.45 21.13,29.211 20.668,28.626C20.599,28.539 20.539,28.446 20.488,28.347C20.421,28.218 20.372,28.081 20.341,27.939C20.303,27.766 20.293,27.588 20.31,27.413C20.337,27.129 20.433,26.856 20.57,26.607C20.645,26.472 20.733,26.344 20.826,26.22C20.939,26.068 21.055,25.918 21.173,25.769C21.582,25.253 22.004,24.747 22.428,24.243C22.615,24.021 22.802,23.799 22.99,23.577C23.077,23.475 23.119,23.343 23.107,23.209C23.095,23.076 23.03,22.953 22.927,22.868C21.75,21.706 18.008,17.986 15.76,15.75C15.567,15.559 15.46,15.298 15.464,15.026C15.468,14.755 15.582,14.496 15.78,14.311C20.056,10.394 25.75,8 32,8C36.861,8 41.386,9.448 45.167,11.936C45.296,12.022 45.378,12.163 45.388,12.317C45.399,12.472 45.337,12.622 45.221,12.725C43.989,13.799 42.511,14.686 40,15C36.876,15.391 35.1,14.156 32,16C30.052,17.159 29.137,18.296 27.5,20C25.915,21.65 21.984,26.242 21.5,27C20.872,27.984 21.843,28.543 23,28.5C24.19,28.456 24.873,28.381 26.5,27.5C28.913,26.194 28.674,24.975 30,23.5C30.577,22.858 31.172,22.45 31.561,22.225C31.803,22.099 32.1,22.191 32.228,22.431C32.71,23.274 33.959,25.134 36,26C40.27,27.812 44,27 44,27C44,27 42.692,29.131 43,32C43.211,33.964 43.922,35.027 44.437,35.553C44.762,35.798 45.206,35.811 45.544,35.584C46.545,34.926 48.626,33.321 50.5,31C52.49,28.534 52.997,26.308 53,25C53.002,24.133 53.076,23.427 53.205,22.82ZM26.34,47.538C26.522,47.337 26.833,47.318 27.038,47.497C27.239,47.67 27.443,47.84 27.651,48.004C28.173,48.413 28.72,48.792 29.281,49.146C29.416,49.231 29.503,49.375 29.514,49.534C29.526,49.693 29.46,49.848 29.339,49.951C28.816,50.391 28.318,50.772 28,51C27.081,51.658 25.859,52.072 25,51C24.624,50.531 24.611,49.546 25.5,48.5C25.684,48.283 25.982,47.934 26.34,47.538ZM22.74,43.664C22.835,43.567 22.967,43.516 23.102,43.523C23.237,43.53 23.363,43.594 23.448,43.699C23.449,43.699 23.449,43.699 23.449,43.699C24.045,44.437 24.666,45.155 25.32,45.842C25.414,45.94 25.464,46.071 25.459,46.206C25.454,46.341 25.395,46.468 25.295,46.559C24.366,47.396 23.449,48.151 23,48.5C21.594,49.591 20.628,49.594 20,49C19.015,48.068 19.802,46.797 21,45.5C21.364,45.106 22.015,44.401 22.74,43.664ZM19.414,38.664C19.531,38.561 19.69,38.518 19.843,38.549C19.996,38.58 20.126,38.68 20.194,38.821C20.595,39.63 21.058,40.407 21.56,41.158C21.699,41.364 21.666,41.64 21.483,41.807C20.487,42.711 19.533,43.53 19,44C17.652,45.189 16.355,45.5 15.5,44.5C14.737,43.608 15.606,42.521 16.5,41.5C17.043,40.879 18.199,39.746 19.414,38.664ZM16.827,32.994C16.917,32.888 17.047,32.824 17.186,32.818C17.324,32.811 17.46,32.863 17.559,32.96C17.58,32.981 17.601,33.002 17.623,33.023C17.764,33.162 17.905,33.301 18.043,33.442C18.149,33.55 18.253,33.656 18.341,33.779C18.504,34.005 18.611,34.263 18.701,34.525C18.742,34.648 18.779,34.772 18.816,34.897C18.888,35.153 18.956,35.411 19.026,35.668C19.073,35.839 19.026,36.022 18.903,36.149C18.126,36.947 17.4,37.639 17,38C15.481,39.371 14.6,39.348 14,39C13.662,38.804 13.196,38.334 13.5,37.5C13.667,37.041 15.238,34.88 16.827,32.994Z" fill="url(#_Linear1)"/><g id="STEPHAN-JAKOB" serif:id="STEPHAN JAKOB"><path d="M78.275,19.483C78.765,19.945 79.325,20.319 79.955,20.606C80.585,20.893 81.222,21.037 81.866,21.037C82.636,21.037 83.227,20.876 83.64,20.554C84.053,20.232 84.26,19.805 84.26,19.273C84.26,18.993 84.207,18.755 84.102,18.559C83.997,18.363 83.85,18.191 83.661,18.044C83.472,17.897 83.245,17.761 82.979,17.635C82.713,17.509 82.426,17.383 82.118,17.257L80.249,16.438C79.913,16.298 79.577,16.123 79.241,15.913C78.905,15.703 78.607,15.451 78.348,15.157C78.089,14.863 77.879,14.52 77.718,14.128C77.557,13.736 77.477,13.288 77.477,12.784C77.477,12.238 77.592,11.73 77.823,11.261C78.054,10.792 78.373,10.383 78.779,10.033C79.185,9.683 79.668,9.41 80.228,9.214C80.788,9.018 81.404,8.92 82.076,8.92C82.888,8.92 83.665,9.077 84.407,9.392C85.149,9.707 85.786,10.131 86.318,10.663L85.058,12.217C84.624,11.853 84.165,11.566 83.682,11.356C83.199,11.146 82.664,11.041 82.076,11.041C81.418,11.041 80.896,11.184 80.511,11.471C80.126,11.758 79.934,12.154 79.934,12.658C79.934,12.924 79.993,13.151 80.112,13.34C80.231,13.529 80.392,13.697 80.595,13.844C80.798,13.991 81.033,14.124 81.299,14.243C81.565,14.362 81.838,14.478 82.118,14.59L83.966,15.367C84.372,15.535 84.746,15.731 85.089,15.955C85.432,16.179 85.726,16.438 85.971,16.732C86.216,17.026 86.405,17.365 86.538,17.75C86.671,18.135 86.738,18.58 86.738,19.084C86.738,19.644 86.626,20.169 86.402,20.659C86.178,21.149 85.852,21.579 85.425,21.95C84.998,22.321 84.48,22.615 83.871,22.832C83.262,23.049 82.573,23.158 81.803,23.158C80.879,23.158 79.99,22.983 79.136,22.633C78.282,22.283 77.526,21.786 76.868,21.142L78.275,19.483Z" transform="matrix(1,0,0,1,-12.8677,2.75363)" fill="url(#_Linear2)" fill-rule="nonzero"/><path d="M92.072,11.23L88.103,11.23L88.103,9.172L98.456,9.172L98.456,11.23L94.508,11.23L94.508,22.906L92.072,22.906L92.072,11.23Z" transform="matrix(1,0,0,1,-12.8677,2.75363)" fill="url(#_Linear3)" fill-rule="nonzero"/><path d="M101.228,9.172L109.481,9.172L109.481,11.23L103.664,11.23L103.664,14.737L108.599,14.737L108.599,16.795L103.664,16.795L103.664,20.848L109.691,20.848L109.691,22.906L101.228,22.906L101.228,9.172Z" transform="matrix(1,0,0,1,-12.8677,2.75363)" fill="url(#_Linear4)" fill-rule="nonzero"/><path d="M112.967,9.172L117.587,9.172C118.343,9.172 119.039,9.242 119.676,9.382C120.313,9.522 120.863,9.76 121.325,10.096C121.787,10.432 122.147,10.869 122.406,11.408C122.665,11.947 122.795,12.616 122.795,13.414C122.795,14.17 122.662,14.828 122.396,15.388C122.13,15.948 121.762,16.413 121.293,16.784C120.824,17.155 120.271,17.428 119.634,17.603C118.997,17.778 118.315,17.866 117.587,17.866L115.403,17.866L115.403,22.906L112.967,22.906L112.967,9.172ZM117.377,15.913C118.413,15.913 119.176,15.706 119.666,15.293C120.156,14.88 120.401,14.254 120.401,13.414C120.401,12.546 120.149,11.947 119.645,11.618C119.141,11.289 118.385,11.125 117.377,11.125L115.403,11.125L115.403,15.913L117.377,15.913Z" transform="matrix(1,0,0,1,-12.8677,2.75363)" fill="url(#_Linear5)" fill-rule="nonzero"/><path d="M125.84,9.172L128.276,9.172L128.276,14.695L133.82,14.695L133.82,9.172L136.256,9.172L136.256,22.906L133.82,22.906L133.82,16.816L128.276,16.816L128.276,22.906L125.84,22.906L125.84,9.172Z" transform="matrix(1,0,0,1,-12.8677,2.75363)" fill="url(#_Linear6)" fill-rule="nonzero"/><path d="M146.042,17.278L145.559,15.598C145.349,14.87 145.139,14.121 144.929,13.351C144.719,12.581 144.516,11.818 144.32,11.062L144.236,11.062C144.04,11.832 143.844,12.598 143.648,13.361C143.452,14.124 143.242,14.87 143.018,15.598L142.535,17.278L146.042,17.278ZM146.588,19.189L141.989,19.189L140.918,22.906L138.419,22.906L142.913,9.172L145.769,9.172L150.242,22.906L147.659,22.906L146.588,19.189Z" transform="matrix(1,0,0,1,-12.8677,2.75363)" fill="url(#_Linear7)" fill-rule="nonzero"/><path d="M152.405,9.172L154.904,9.172L159.167,16.9L160.595,19.819L160.679,19.819C160.609,19.105 160.539,18.338 160.469,17.519C160.399,16.7 160.364,15.906 160.364,15.136L160.364,9.172L162.674,9.172L162.674,22.906L160.175,22.906L155.912,15.178L154.484,12.259L154.4,12.259C154.47,12.987 154.54,13.75 154.61,14.548C154.68,15.346 154.715,16.13 154.715,16.9L154.715,22.906L152.405,22.906L152.405,9.172Z" transform="matrix(1,0,0,1,-12.8677,2.75363)" fill="url(#_Linear8)" fill-rule="nonzero"/><path d="M171.893,19.588C172.173,20.092 172.495,20.459 172.859,20.69C173.223,20.921 173.615,21.037 174.035,21.037C174.679,21.037 175.165,20.841 175.494,20.449C175.823,20.057 175.988,19.371 175.988,18.391L175.988,9.172L178.424,9.172L178.424,18.601C178.424,19.231 178.343,19.822 178.182,20.375C178.021,20.928 177.776,21.411 177.447,21.824C177.118,22.237 176.695,22.563 176.177,22.801C175.659,23.039 175.043,23.158 174.329,23.158C173.363,23.158 172.547,22.962 171.882,22.57C171.217,22.178 170.661,21.597 170.213,20.827L171.893,19.588Z" transform="matrix(1,0,0,1,-12.8677,2.75363)" fill="url(#_Linear9)" fill-rule="nonzero"/><path d="M188.126,17.278L187.643,15.598C187.433,14.87 187.223,14.121 187.013,13.351C186.803,12.581 186.6,11.818 186.404,11.062L186.32,11.062C186.124,11.832 185.928,12.598 185.732,13.361C185.536,14.124 185.326,14.87 185.102,15.598L184.619,17.278L188.126,17.278ZM188.672,19.189L184.073,19.189L183.002,22.906L180.503,22.906L184.997,9.172L187.853,9.172L192.326,22.906L189.743,22.906L188.672,19.189Z" transform="matrix(1,0,0,1,-12.8677,2.75363)" fill="url(#_Linear10)" fill-rule="nonzero"/><path d="M194.489,9.172L196.925,9.172L196.925,15.409L196.988,15.409L201.881,9.172L204.569,9.172L200.348,14.527L205.283,22.906L202.595,22.906L198.899,16.438L196.925,18.895L196.925,22.906L194.489,22.906L194.489,9.172Z" transform="matrix(1,0,0,1,-12.8677,2.75363)" fill="url(#_Linear11)" fill-rule="nonzero"/><path d="M212.108,23.158C211.212,23.158 210.393,22.993 209.651,22.664C208.909,22.335 208.268,21.859 207.729,21.236C207.19,20.613 206.774,19.861 206.48,18.979C206.186,18.097 206.039,17.096 206.039,15.976C206.039,14.87 206.186,13.879 206.48,13.004C206.774,12.129 207.19,11.391 207.729,10.789C208.268,10.187 208.909,9.725 209.651,9.403C210.393,9.081 211.212,8.92 212.108,8.92C213.004,8.92 213.823,9.081 214.565,9.403C215.307,9.725 215.944,10.187 216.476,10.789C217.008,11.391 217.421,12.129 217.715,13.004C218.009,13.879 218.156,14.87 218.156,15.976C218.156,17.096 218.009,18.097 217.715,18.979C217.421,19.861 217.008,20.613 216.476,21.236C215.944,21.859 215.307,22.335 214.565,22.664C213.823,22.993 213.004,23.158 212.108,23.158ZM212.108,21.037C212.64,21.037 213.126,20.918 213.567,20.68C214.008,20.442 214.383,20.102 214.691,19.661C214.999,19.22 215.237,18.688 215.405,18.065C215.573,17.442 215.657,16.746 215.657,15.976C215.657,14.436 215.335,13.228 214.691,12.353C214.047,11.478 213.186,11.041 212.108,11.041C211.016,11.041 210.148,11.478 209.504,12.353C208.86,13.228 208.538,14.436 208.538,15.976C208.538,16.746 208.622,17.442 208.79,18.065C208.958,18.688 209.199,19.22 209.514,19.661C209.829,20.102 210.204,20.442 210.638,20.68C211.072,20.918 211.562,21.037 212.108,21.037Z" transform="matrix(1,0,0,1,-12.8677,2.75363)" fill="url(#_Linear12)" fill-rule="nonzero"/><path d="M221.39,9.172L225.779,9.172C226.479,9.172 227.13,9.231 227.732,9.35C228.334,9.469 228.852,9.658 229.286,9.917C229.72,10.176 230.059,10.523 230.304,10.957C230.549,11.391 230.672,11.923 230.672,12.553C230.672,13.211 230.483,13.82 230.105,14.38C229.727,14.94 229.132,15.325 228.32,15.535L228.32,15.619C229.314,15.787 230.077,16.14 230.609,16.679C231.141,17.218 231.407,17.95 231.407,18.874C231.407,19.56 231.274,20.155 231.008,20.659C230.742,21.163 230.374,21.583 229.905,21.919C229.436,22.255 228.88,22.503 228.236,22.664C227.592,22.825 226.892,22.906 226.136,22.906L221.39,22.906L221.39,9.172ZM225.548,14.863C226.514,14.863 227.21,14.688 227.637,14.338C228.064,13.988 228.278,13.491 228.278,12.847C228.278,12.217 228.057,11.762 227.616,11.482C227.175,11.202 226.507,11.062 225.611,11.062L223.826,11.062L223.826,14.863L225.548,14.863ZM225.884,21.016C226.892,21.016 227.665,20.827 228.204,20.449C228.743,20.071 229.013,19.49 229.013,18.706C229.013,17.992 228.747,17.463 228.215,17.12C227.683,16.777 226.906,16.606 225.884,16.606L223.826,16.606L223.826,21.016L225.884,21.016Z" transform="matrix(1,0,0,1,-12.8677,2.75363)" fill="url(#_Linear13)" fill-rule="nonzero"/></g><g id="Facharzt-für-Kinder--und-Jugendpsychiatrie-und--psychotherapie" serif:id="Facharzt für Kinder- und Jugendpsychiatrie und -psychotherapie" transform="matrix(1,0,0,1,-68.688,-4.88815)"><path d="M133.228,37.376L136.783,37.376L136.783,38.258L134.272,38.258L134.272,39.923L136.405,39.923L136.405,40.805L134.272,40.805L134.272,43.262L133.228,43.262L133.228,37.376Z" fill="gray" fill-rule="nonzero"/><path d="M137.188,42.074C137.188,41.6 137.395,41.234 137.809,40.976C138.223,40.718 138.883,40.538 139.789,40.436C139.789,40.322 139.774,40.212 139.744,40.107C139.714,40.002 139.667,39.909 139.604,39.828C139.541,39.747 139.46,39.684 139.361,39.639C139.262,39.594 139.138,39.572 138.988,39.572C138.766,39.572 138.551,39.614 138.344,39.698C138.137,39.782 137.938,39.884 137.746,40.004L137.368,39.311C137.614,39.155 137.888,39.02 138.191,38.906C138.494,38.792 138.823,38.735 139.177,38.735C139.735,38.735 140.149,38.898 140.419,39.225C140.689,39.552 140.824,40.025 140.824,40.643L140.824,43.262L139.978,43.262L139.897,42.776L139.87,42.776C139.672,42.944 139.46,43.085 139.235,43.199C139.01,43.313 138.766,43.37 138.502,43.37C138.112,43.37 137.795,43.251 137.552,43.014C137.309,42.777 137.188,42.464 137.188,42.074ZM138.196,41.993C138.196,42.191 138.254,42.335 138.371,42.425C138.488,42.515 138.64,42.56 138.826,42.56C139.006,42.56 139.171,42.518 139.321,42.434C139.471,42.35 139.627,42.23 139.789,42.074L139.789,41.084C139.489,41.12 139.237,41.168 139.033,41.228C138.829,41.288 138.665,41.355 138.542,41.43C138.419,41.505 138.331,41.591 138.277,41.687C138.223,41.783 138.196,41.885 138.196,41.993Z" fill="gray" fill-rule="nonzero"/><path d="M141.796,41.057C141.796,40.691 141.856,40.364 141.976,40.076C142.096,39.788 142.258,39.545 142.462,39.347C142.666,39.149 142.901,38.997 143.168,38.892C143.435,38.787 143.716,38.735 144.01,38.735C144.298,38.735 144.548,38.784 144.761,38.883C144.974,38.982 145.156,39.104 145.306,39.248L144.811,39.905C144.691,39.803 144.571,39.723 144.451,39.666C144.331,39.609 144.202,39.581 144.064,39.581C143.704,39.581 143.413,39.714 143.191,39.981C142.969,40.248 142.858,40.607 142.858,41.057C142.858,41.501 142.967,41.856 143.186,42.123C143.405,42.39 143.689,42.524 144.037,42.524C144.217,42.524 144.383,42.486 144.536,42.411C144.689,42.336 144.826,42.248 144.946,42.146L145.378,42.803C145.168,42.989 144.937,43.13 144.685,43.226C144.433,43.322 144.181,43.37 143.929,43.37C143.629,43.37 143.348,43.319 143.087,43.217C142.826,43.115 142.6,42.965 142.408,42.767C142.216,42.569 142.066,42.326 141.958,42.038C141.85,41.75 141.796,41.423 141.796,41.057Z" fill="gray" fill-rule="nonzero"/><path d="M146.242,36.908L147.277,36.908L147.277,38.546L147.241,39.401C147.427,39.227 147.632,39.072 147.857,38.937C148.082,38.802 148.348,38.735 148.654,38.735C149.128,38.735 149.473,38.886 149.689,39.189C149.905,39.492 150.013,39.926 150.013,40.49L150.013,43.262L148.978,43.262L148.978,40.625C148.978,40.259 148.924,40.001 148.816,39.851C148.708,39.701 148.531,39.626 148.285,39.626C148.093,39.626 147.923,39.672 147.776,39.765C147.629,39.858 147.463,39.995 147.277,40.175L147.277,43.262L146.242,43.262L146.242,36.908Z" fill="gray" fill-rule="nonzero"/><path d="M151.075,42.074C151.075,41.6 151.282,41.234 151.696,40.976C152.11,40.718 152.77,40.538 153.676,40.436C153.676,40.322 153.661,40.212 153.631,40.107C153.601,40.002 153.554,39.909 153.491,39.828C153.428,39.747 153.347,39.684 153.248,39.639C153.149,39.594 153.025,39.572 152.875,39.572C152.653,39.572 152.438,39.614 152.231,39.698C152.024,39.782 151.825,39.884 151.633,40.004L151.255,39.311C151.501,39.155 151.775,39.02 152.078,38.906C152.381,38.792 152.71,38.735 153.064,38.735C153.622,38.735 154.036,38.898 154.306,39.225C154.576,39.552 154.711,40.025 154.711,40.643L154.711,43.262L153.865,43.262L153.784,42.776L153.757,42.776C153.559,42.944 153.347,43.085 153.122,43.199C152.897,43.313 152.653,43.37 152.389,43.37C151.999,43.37 151.682,43.251 151.439,43.014C151.196,42.777 151.075,42.464 151.075,42.074ZM152.083,41.993C152.083,42.191 152.141,42.335 152.258,42.425C152.375,42.515 152.527,42.56 152.713,42.56C152.893,42.56 153.058,42.518 153.208,42.434C153.358,42.35 153.514,42.23 153.676,42.074L153.676,41.084C153.376,41.12 153.124,41.168 152.92,41.228C152.716,41.288 152.552,41.355 152.429,41.43C152.306,41.505 152.218,41.591 152.164,41.687C152.11,41.783 152.083,41.885 152.083,41.993Z" fill="gray" fill-rule="nonzero"/><path d="M155.971,38.843L156.826,38.843L156.898,39.626L156.934,39.626C157.09,39.338 157.279,39.117 157.501,38.964C157.723,38.811 157.951,38.735 158.185,38.735C158.395,38.735 158.563,38.765 158.689,38.825L158.509,39.725C158.431,39.701 158.359,39.683 158.293,39.671C158.227,39.659 158.146,39.653 158.05,39.653C157.876,39.653 157.693,39.72 157.501,39.855C157.309,39.99 157.144,40.226 157.006,40.562L157.006,43.262L155.971,43.262L155.971,38.843Z" fill="gray" fill-rule="nonzero"/><path d="M158.887,42.704L160.975,39.662L159.121,39.662L159.121,38.843L162.271,38.843L162.271,39.392L160.192,42.434L162.343,42.434L162.343,43.262L158.887,43.262L158.887,42.704Z" fill="gray" fill-rule="nonzero"/><path d="M163.378,39.662L162.748,39.662L162.748,38.888L163.432,38.843L163.558,37.637L164.422,37.637L164.422,38.843L165.547,38.843L165.547,39.662L164.422,39.662L164.422,41.768C164.422,42.284 164.629,42.542 165.043,42.542C165.121,42.542 165.2,42.533 165.281,42.515C165.362,42.497 165.436,42.473 165.502,42.443L165.682,43.208C165.562,43.25 165.425,43.287 165.272,43.32C165.119,43.353 164.956,43.37 164.782,43.37C164.524,43.37 164.306,43.331 164.129,43.253C163.952,43.175 163.808,43.065 163.697,42.924C163.586,42.783 163.505,42.615 163.454,42.42C163.403,42.225 163.378,42.008 163.378,41.768L163.378,39.662Z" fill="gray" fill-rule="nonzero"/><path d="M170.578,37.727C170.416,37.655 170.254,37.619 170.092,37.619C169.72,37.619 169.534,37.868 169.534,38.366L169.534,38.843L170.398,38.843L170.398,39.662L169.534,39.662L169.534,43.262L168.499,43.262L168.499,39.662L167.905,39.662L167.905,38.888L168.499,38.843L168.499,38.384C168.499,38.156 168.526,37.944 168.58,37.749C168.634,37.554 168.721,37.386 168.841,37.245C168.961,37.104 169.112,36.995 169.295,36.917C169.478,36.839 169.702,36.8 169.966,36.8C170.122,36.8 170.27,36.815 170.411,36.845C170.552,36.875 170.674,36.911 170.776,36.953L170.578,37.727Z" fill="gray" fill-rule="nonzero"/><path d="M171.1,38.843L172.135,38.843L172.135,41.48C172.135,41.846 172.19,42.104 172.301,42.254C172.412,42.404 172.588,42.479 172.828,42.479C173.02,42.479 173.188,42.431 173.332,42.335C173.476,42.239 173.635,42.083 173.809,41.867L173.809,38.843L174.844,38.843L174.844,43.262L173.989,43.262L173.917,42.614L173.881,42.614C173.689,42.842 173.48,43.025 173.255,43.163C173.03,43.301 172.765,43.37 172.459,43.37C171.985,43.37 171.64,43.218 171.424,42.915C171.208,42.612 171.1,42.179 171.1,41.615L171.1,38.843ZM172.162,38.051C172.006,38.051 171.878,38 171.779,37.898C171.68,37.796 171.631,37.667 171.631,37.511C171.631,37.361 171.68,37.235 171.779,37.133C171.878,37.031 172.006,36.98 172.162,36.98C172.318,36.98 172.447,37.031 172.549,37.133C172.651,37.235 172.702,37.361 172.702,37.511C172.702,37.667 172.651,37.796 172.549,37.898C172.447,38 172.318,38.051 172.162,38.051ZM173.836,38.051C173.68,38.051 173.551,38 173.449,37.898C173.347,37.796 173.296,37.667 173.296,37.511C173.296,37.361 173.347,37.235 173.449,37.133C173.551,37.031 173.68,36.98 173.836,36.98C173.992,36.98 174.119,37.031 174.218,37.133C174.317,37.235 174.367,37.361 174.367,37.511C174.367,37.667 174.317,37.796 174.218,37.898C174.119,38 173.992,38.051 173.836,38.051Z" fill="gray" fill-rule="nonzero"/><path d="M176.158,38.843L177.013,38.843L177.085,39.626L177.121,39.626C177.277,39.338 177.466,39.117 177.688,38.964C177.91,38.811 178.138,38.735 178.372,38.735C178.582,38.735 178.75,38.765 178.876,38.825L178.696,39.725C178.618,39.701 178.546,39.683 178.48,39.671C178.414,39.659 178.333,39.653 178.237,39.653C178.063,39.653 177.88,39.72 177.688,39.855C177.496,39.99 177.331,40.226 177.193,40.562L177.193,43.262L176.158,43.262L176.158,38.843Z" fill="gray" fill-rule="nonzero"/><path d="M181.441,37.376L182.485,37.376L182.485,40.049L182.512,40.049L184.609,37.376L185.761,37.376L183.952,39.671L186.067,43.262L184.915,43.262L183.331,40.49L182.485,41.543L182.485,43.262L181.441,43.262L181.441,37.376Z" fill="gray" fill-rule="nonzero"/><path d="M187.228,38.069C187.042,38.069 186.889,38.015 186.769,37.907C186.649,37.799 186.589,37.658 186.589,37.484C186.589,37.31 186.649,37.167 186.769,37.056C186.889,36.945 187.042,36.89 187.228,36.89C187.414,36.89 187.567,36.945 187.687,37.056C187.807,37.167 187.867,37.31 187.867,37.484C187.867,37.658 187.807,37.799 187.687,37.907C187.567,38.015 187.414,38.069 187.228,38.069ZM186.706,38.843L187.741,38.843L187.741,43.262L186.706,43.262L186.706,38.843Z" fill="gray" fill-rule="nonzero"/><path d="M189.064,38.843L189.919,38.843L189.991,39.437L190.027,39.437C190.225,39.245 190.439,39.08 190.67,38.942C190.901,38.804 191.17,38.735 191.476,38.735C191.95,38.735 192.295,38.886 192.511,39.189C192.727,39.492 192.835,39.926 192.835,40.49L192.835,43.262L191.8,43.262L191.8,40.625C191.8,40.259 191.746,40.001 191.638,39.851C191.53,39.701 191.353,39.626 191.107,39.626C190.915,39.626 190.745,39.672 190.598,39.765C190.451,39.858 190.285,39.995 190.099,40.175L190.099,43.262L189.064,43.262L189.064,38.843Z" fill="gray" fill-rule="nonzero"/><path d="M193.834,41.057C193.834,40.697 193.886,40.373 193.991,40.085C194.096,39.797 194.236,39.554 194.41,39.356C194.584,39.158 194.783,39.005 195.008,38.897C195.233,38.789 195.466,38.735 195.706,38.735C195.958,38.735 196.171,38.778 196.345,38.865C196.519,38.952 196.693,39.071 196.867,39.221L196.831,38.51L196.831,36.908L197.866,36.908L197.866,43.262L197.011,43.262L196.939,42.785L196.903,42.785C196.741,42.947 196.552,43.085 196.336,43.199C196.12,43.313 195.892,43.37 195.652,43.37C195.094,43.37 194.651,43.167 194.324,42.762C193.997,42.357 193.834,41.789 193.834,41.057ZM194.905,41.048C194.905,41.528 194.99,41.892 195.161,42.141C195.332,42.39 195.58,42.515 195.904,42.515C196.234,42.515 196.543,42.35 196.831,42.02L196.831,39.959C196.675,39.821 196.523,39.725 196.376,39.671C196.229,39.617 196.081,39.59 195.931,39.59C195.643,39.59 195.4,39.716 195.202,39.968C195.004,40.22 194.905,40.58 194.905,41.048Z" fill="gray" fill-rule="nonzero"/><path d="M198.892,41.057C198.892,40.697 198.949,40.373 199.063,40.085C199.177,39.797 199.328,39.554 199.517,39.356C199.706,39.158 199.924,39.005 200.17,38.897C200.416,38.789 200.668,38.735 200.926,38.735C201.226,38.735 201.49,38.786 201.718,38.888C201.946,38.99 202.136,39.134 202.289,39.32C202.442,39.506 202.558,39.728 202.636,39.986C202.714,40.244 202.753,40.526 202.753,40.832C202.753,41.036 202.738,41.198 202.708,41.318L199.9,41.318C199.948,41.72 200.087,42.029 200.318,42.245C200.549,42.461 200.845,42.569 201.205,42.569C201.397,42.569 201.575,42.54 201.74,42.483C201.905,42.426 202.069,42.347 202.231,42.245L202.582,42.893C202.372,43.031 202.138,43.145 201.88,43.235C201.622,43.325 201.352,43.37 201.07,43.37C200.764,43.37 200.479,43.317 200.215,43.212C199.951,43.107 199.72,42.956 199.522,42.758C199.324,42.56 199.169,42.318 199.058,42.033C198.947,41.748 198.892,41.423 198.892,41.057ZM201.853,40.661C201.853,40.307 201.779,40.031 201.632,39.833C201.485,39.635 201.259,39.536 200.953,39.536C200.689,39.536 200.458,39.63 200.26,39.819C200.062,40.008 199.939,40.289 199.891,40.661L201.853,40.661Z" fill="gray" fill-rule="nonzero"/><path d="M203.743,38.843L204.598,38.843L204.67,39.626L204.706,39.626C204.862,39.338 205.051,39.117 205.273,38.964C205.495,38.811 205.723,38.735 205.957,38.735C206.167,38.735 206.335,38.765 206.461,38.825L206.281,39.725C206.203,39.701 206.131,39.683 206.065,39.671C205.999,39.659 205.918,39.653 205.822,39.653C205.648,39.653 205.465,39.72 205.273,39.855C205.081,39.99 204.916,40.226 204.778,40.562L204.778,43.262L203.743,43.262L203.743,38.843Z" fill="gray" fill-rule="nonzero"/><rect x="206.587" y="40.616" width="2.142" height=".756" fill="gray" fill-rule="nonzero"/><path d="M211.573,38.843L212.608,38.843L212.608,41.48C212.608,41.846 212.663,42.104 212.774,42.254C212.885,42.404 213.061,42.479 213.301,42.479C213.493,42.479 213.661,42.431 213.805,42.335C213.949,42.239 214.108,42.083 214.282,41.867L214.282,38.843L215.317,38.843L215.317,43.262L214.462,43.262L214.39,42.614L214.354,42.614C214.162,42.842 213.953,43.025 213.728,43.163C213.503,43.301 213.238,43.37 212.932,43.37C212.458,43.37 212.113,43.218 211.897,42.915C211.681,42.612 211.573,42.179 211.573,41.615L211.573,38.843Z" fill="gray" fill-rule="nonzero"/><path d="M216.631,38.843L217.486,38.843L217.558,39.437L217.594,39.437C217.792,39.245 218.006,39.08 218.237,38.942C218.468,38.804 218.737,38.735 219.043,38.735C219.517,38.735 219.862,38.886 220.078,39.189C220.294,39.492 220.402,39.926 220.402,40.49L220.402,43.262L219.367,43.262L219.367,40.625C219.367,40.259 219.313,40.001 219.205,39.851C219.097,39.701 218.92,39.626 218.674,39.626C218.482,39.626 218.312,39.672 218.165,39.765C218.018,39.858 217.852,39.995 217.666,40.175L217.666,43.262L216.631,43.262L216.631,38.843Z" fill="gray" fill-rule="nonzero"/><path d="M221.401,41.057C221.401,40.697 221.453,40.373 221.558,40.085C221.663,39.797 221.803,39.554 221.977,39.356C222.151,39.158 222.35,39.005 222.575,38.897C222.8,38.789 223.033,38.735 223.273,38.735C223.525,38.735 223.738,38.778 223.912,38.865C224.086,38.952 224.26,39.071 224.434,39.221L224.398,38.51L224.398,36.908L225.433,36.908L225.433,43.262L224.578,43.262L224.506,42.785L224.47,42.785C224.308,42.947 224.119,43.085 223.903,43.199C223.687,43.313 223.459,43.37 223.219,43.37C222.661,43.37 222.218,43.167 221.891,42.762C221.564,42.357 221.401,41.789 221.401,41.057ZM222.472,41.048C222.472,41.528 222.557,41.892 222.728,42.141C222.899,42.39 223.147,42.515 223.471,42.515C223.801,42.515 224.11,42.35 224.398,42.02L224.398,39.959C224.242,39.821 224.09,39.725 223.943,39.671C223.796,39.617 223.648,39.59 223.498,39.59C223.21,39.59 222.967,39.716 222.769,39.968C222.571,40.22 222.472,40.58 222.472,41.048Z" fill="gray" fill-rule="nonzero"/><path d="M133.408,53.84C133.528,54.056 133.666,54.213 133.822,54.312C133.978,54.411 134.146,54.461 134.326,54.461C134.602,54.461 134.81,54.377 134.951,54.209C135.092,54.041 135.163,53.747 135.163,53.327L135.163,49.376L136.207,49.376L136.207,53.417C136.207,53.687 136.172,53.94 136.103,54.177C136.034,54.414 135.929,54.621 135.788,54.798C135.647,54.975 135.466,55.115 135.244,55.217C135.022,55.319 134.758,55.37 134.452,55.37C134.038,55.37 133.688,55.286 133.403,55.118C133.118,54.95 132.88,54.701 132.688,54.371L133.408,53.84Z" fill="gray" fill-rule="nonzero"/><path d="M137.53,50.843L138.565,50.843L138.565,53.48C138.565,53.846 138.62,54.104 138.731,54.254C138.842,54.404 139.018,54.479 139.258,54.479C139.45,54.479 139.618,54.431 139.762,54.335C139.906,54.239 140.065,54.083 140.239,53.867L140.239,50.843L141.274,50.843L141.274,55.262L140.419,55.262L140.347,54.614L140.311,54.614C140.119,54.842 139.91,55.025 139.685,55.163C139.46,55.301 139.195,55.37 138.889,55.37C138.415,55.37 138.07,55.218 137.854,54.915C137.638,54.612 137.53,54.179 137.53,53.615L137.53,50.843Z" fill="gray" fill-rule="nonzero"/><path d="M143.155,55.91C143.155,56.108 143.255,56.262 143.456,56.373C143.657,56.484 143.935,56.54 144.289,56.54C144.649,56.54 144.938,56.469 145.157,56.328C145.376,56.187 145.486,56.021 145.486,55.829C145.486,55.655 145.418,55.538 145.283,55.478C145.148,55.418 144.955,55.388 144.703,55.388L144.1,55.388C143.86,55.388 143.659,55.367 143.497,55.325C143.269,55.499 143.155,55.694 143.155,55.91ZM142.291,56.063C142.291,55.877 142.345,55.704 142.453,55.545C142.561,55.386 142.717,55.244 142.921,55.118L142.921,55.082C142.807,55.01 142.712,54.914 142.637,54.794C142.562,54.674 142.525,54.524 142.525,54.344C142.525,54.17 142.574,54.012 142.673,53.871C142.772,53.73 142.885,53.615 143.011,53.525L143.011,53.489C142.861,53.375 142.727,53.217 142.61,53.016C142.493,52.815 142.435,52.583 142.435,52.319C142.435,52.067 142.483,51.842 142.579,51.644C142.675,51.446 142.802,51.279 142.961,51.144C143.12,51.009 143.305,50.907 143.515,50.838C143.725,50.769 143.947,50.735 144.181,50.735C144.301,50.735 144.416,50.745 144.527,50.766C144.638,50.787 144.739,50.813 144.829,50.843L146.413,50.843L146.413,51.608L145.603,51.608C145.675,51.692 145.735,51.798 145.783,51.927C145.831,52.056 145.855,52.199 145.855,52.355C145.855,52.601 145.811,52.817 145.724,53.003C145.637,53.189 145.519,53.345 145.369,53.471C145.219,53.597 145.042,53.693 144.838,53.759C144.634,53.825 144.415,53.858 144.181,53.858C144.085,53.858 143.986,53.849 143.884,53.831C143.782,53.813 143.68,53.783 143.578,53.741C143.512,53.801 143.459,53.861 143.42,53.921C143.381,53.981 143.362,54.062 143.362,54.164C143.362,54.29 143.414,54.389 143.519,54.461C143.624,54.533 143.812,54.569 144.082,54.569L144.865,54.569C145.399,54.569 145.802,54.654 146.075,54.825C146.348,54.996 146.485,55.274 146.485,55.658C146.485,55.874 146.429,56.078 146.318,56.27C146.207,56.462 146.05,56.627 145.846,56.765C145.642,56.903 145.394,57.012 145.103,57.093C144.812,57.174 144.487,57.215 144.127,57.215C143.863,57.215 143.618,57.191 143.393,57.143C143.168,57.095 142.975,57.023 142.813,56.927C142.651,56.831 142.523,56.711 142.43,56.567C142.337,56.423 142.291,56.255 142.291,56.063ZM144.181,53.21C144.391,53.21 144.571,53.133 144.721,52.98C144.871,52.827 144.946,52.607 144.946,52.319C144.946,52.043 144.872,51.828 144.725,51.675C144.578,51.522 144.397,51.446 144.181,51.446C143.965,51.446 143.782,51.521 143.632,51.671C143.482,51.821 143.407,52.037 143.407,52.319C143.407,52.607 143.482,52.827 143.632,52.98C143.782,53.133 143.965,53.21 144.181,53.21Z" fill="gray" fill-rule="nonzero"/><path d="M146.836,53.057C146.836,52.697 146.893,52.373 147.007,52.085C147.121,51.797 147.272,51.554 147.461,51.356C147.65,51.158 147.868,51.005 148.114,50.897C148.36,50.789 148.612,50.735 148.87,50.735C149.17,50.735 149.434,50.786 149.662,50.888C149.89,50.99 150.08,51.134 150.233,51.32C150.386,51.506 150.502,51.728 150.58,51.986C150.658,52.244 150.697,52.526 150.697,52.832C150.697,53.036 150.682,53.198 150.652,53.318L147.844,53.318C147.892,53.72 148.031,54.029 148.262,54.245C148.493,54.461 148.789,54.569 149.149,54.569C149.341,54.569 149.519,54.54 149.684,54.483C149.849,54.426 150.013,54.347 150.175,54.245L150.526,54.893C150.316,55.031 150.082,55.145 149.824,55.235C149.566,55.325 149.296,55.37 149.014,55.37C148.708,55.37 148.423,55.317 148.159,55.212C147.895,55.107 147.664,54.956 147.466,54.758C147.268,54.56 147.113,54.318 147.002,54.033C146.891,53.748 146.836,53.423 146.836,53.057ZM149.797,52.661C149.797,52.307 149.723,52.031 149.576,51.833C149.429,51.635 149.203,51.536 148.897,51.536C148.633,51.536 148.402,51.63 148.204,51.819C148.006,52.008 147.883,52.289 147.835,52.661L149.797,52.661Z" fill="gray" fill-rule="nonzero"/><path d="M151.687,50.843L152.542,50.843L152.614,51.437L152.65,51.437C152.848,51.245 153.062,51.08 153.293,50.942C153.524,50.804 153.793,50.735 154.099,50.735C154.573,50.735 154.918,50.886 155.134,51.189C155.35,51.492 155.458,51.926 155.458,52.49L155.458,55.262L154.423,55.262L154.423,52.625C154.423,52.259 154.369,52.001 154.261,51.851C154.153,51.701 153.976,51.626 153.73,51.626C153.538,51.626 153.368,51.672 153.221,51.765C153.074,51.858 152.908,51.995 152.722,52.175L152.722,55.262L151.687,55.262L151.687,50.843Z" fill="gray" fill-rule="nonzero"/><path d="M156.457,53.057C156.457,52.697 156.509,52.373 156.614,52.085C156.719,51.797 156.859,51.554 157.033,51.356C157.207,51.158 157.406,51.005 157.631,50.897C157.856,50.789 158.089,50.735 158.329,50.735C158.581,50.735 158.794,50.778 158.968,50.865C159.142,50.952 159.316,51.071 159.49,51.221L159.454,50.51L159.454,48.908L160.489,48.908L160.489,55.262L159.634,55.262L159.562,54.785L159.526,54.785C159.364,54.947 159.175,55.085 158.959,55.199C158.743,55.313 158.515,55.37 158.275,55.37C157.717,55.37 157.274,55.167 156.947,54.762C156.62,54.357 156.457,53.789 156.457,53.057ZM157.528,53.048C157.528,53.528 157.613,53.892 157.784,54.141C157.955,54.39 158.203,54.515 158.527,54.515C158.857,54.515 159.166,54.35 159.454,54.02L159.454,51.959C159.298,51.821 159.146,51.725 158.999,51.671C158.852,51.617 158.704,51.59 158.554,51.59C158.266,51.59 158.023,51.716 157.825,51.968C157.627,52.22 157.528,52.58 157.528,53.048Z" fill="gray" fill-rule="nonzero"/><path d="M162.838,55.622L162.838,57.008L161.803,57.008L161.803,50.843L162.658,50.843L162.73,51.311L162.766,51.311C162.952,51.155 163.159,51.02 163.387,50.906C163.615,50.792 163.852,50.735 164.098,50.735C164.374,50.735 164.618,50.787 164.831,50.892C165.044,50.997 165.226,51.149 165.376,51.347C165.526,51.545 165.64,51.782 165.718,52.058C165.796,52.334 165.835,52.643 165.835,52.985C165.835,53.363 165.782,53.7 165.677,53.997C165.572,54.294 165.433,54.543 165.259,54.744C165.085,54.945 164.884,55.1 164.656,55.208C164.428,55.316 164.191,55.37 163.945,55.37C163.753,55.37 163.561,55.328 163.369,55.244C163.177,55.16 162.991,55.04 162.811,54.884L162.838,55.622ZM162.838,54.146C163,54.284 163.156,54.38 163.306,54.434C163.456,54.488 163.597,54.515 163.729,54.515C164.023,54.515 164.269,54.387 164.467,54.132C164.665,53.877 164.764,53.498 164.764,52.994C164.764,52.55 164.689,52.205 164.539,51.959C164.389,51.713 164.146,51.59 163.81,51.59C163.498,51.59 163.174,51.755 162.838,52.085L162.838,54.146Z" fill="gray" fill-rule="nonzero"/><path d="M166.888,54.092C167.086,54.248 167.282,54.369 167.477,54.456C167.672,54.543 167.884,54.587 168.112,54.587C168.352,54.587 168.529,54.537 168.643,54.438C168.757,54.339 168.814,54.212 168.814,54.056C168.814,53.966 168.787,53.886 168.733,53.817C168.679,53.748 168.607,53.687 168.517,53.633C168.427,53.579 168.325,53.529 168.211,53.484C168.097,53.439 167.983,53.393 167.869,53.345C167.725,53.291 167.578,53.228 167.428,53.156C167.278,53.084 167.144,52.997 167.027,52.895C166.91,52.793 166.814,52.674 166.739,52.539C166.664,52.404 166.627,52.244 166.627,52.058C166.627,51.668 166.771,51.35 167.059,51.104C167.347,50.858 167.74,50.735 168.238,50.735C168.544,50.735 168.82,50.789 169.066,50.897C169.312,51.005 169.525,51.128 169.705,51.266L169.228,51.896C169.072,51.782 168.914,51.69 168.755,51.621C168.596,51.552 168.43,51.518 168.256,51.518C168.034,51.518 167.87,51.564 167.765,51.657C167.66,51.75 167.608,51.866 167.608,52.004C167.608,52.088 167.633,52.161 167.684,52.224C167.735,52.287 167.803,52.344 167.887,52.395C167.971,52.446 168.068,52.493 168.179,52.535C168.29,52.577 168.406,52.619 168.526,52.661C168.676,52.715 168.826,52.776 168.976,52.845C169.126,52.914 169.262,53 169.385,53.102C169.508,53.204 169.607,53.328 169.682,53.475C169.757,53.622 169.795,53.798 169.795,54.002C169.795,54.194 169.757,54.372 169.682,54.537C169.607,54.702 169.498,54.846 169.354,54.969C169.21,55.092 169.03,55.19 168.814,55.262C168.598,55.334 168.352,55.37 168.076,55.37C167.77,55.37 167.468,55.311 167.171,55.194C166.874,55.077 166.618,54.932 166.402,54.758L166.888,54.092Z" fill="gray" fill-rule="nonzero"/><path d="M170.632,56.18C170.674,56.192 170.723,56.205 170.78,56.22C170.837,56.235 170.893,56.243 170.947,56.243C171.181,56.243 171.368,56.172 171.509,56.031C171.65,55.89 171.757,55.709 171.829,55.487L171.91,55.208L170.173,50.843L171.226,50.843L171.991,53.012C172.057,53.204 172.121,53.406 172.184,53.619C172.247,53.832 172.312,54.044 172.378,54.254L172.414,54.254C172.468,54.05 172.523,53.841 172.58,53.628C172.637,53.415 172.693,53.21 172.747,53.012L173.413,50.843L174.412,50.843L172.81,55.46C172.72,55.712 172.621,55.937 172.513,56.135C172.405,56.333 172.28,56.502 172.139,56.643C171.998,56.784 171.836,56.892 171.653,56.967C171.47,57.042 171.259,57.08 171.019,57.08C170.899,57.08 170.794,57.072 170.704,57.057C170.614,57.042 170.527,57.02 170.443,56.99L170.632,56.18Z" fill="gray" fill-rule="nonzero"/><path d="M174.835,53.057C174.835,52.691 174.895,52.364 175.015,52.076C175.135,51.788 175.297,51.545 175.501,51.347C175.705,51.149 175.94,50.997 176.207,50.892C176.474,50.787 176.755,50.735 177.049,50.735C177.337,50.735 177.587,50.784 177.8,50.883C178.013,50.982 178.195,51.104 178.345,51.248L177.85,51.905C177.73,51.803 177.61,51.723 177.49,51.666C177.37,51.609 177.241,51.581 177.103,51.581C176.743,51.581 176.452,51.714 176.23,51.981C176.008,52.248 175.897,52.607 175.897,53.057C175.897,53.501 176.006,53.856 176.225,54.123C176.444,54.39 176.728,54.524 177.076,54.524C177.256,54.524 177.422,54.486 177.575,54.411C177.728,54.336 177.865,54.248 177.985,54.146L178.417,54.803C178.207,54.989 177.976,55.13 177.724,55.226C177.472,55.322 177.22,55.37 176.968,55.37C176.668,55.37 176.387,55.319 176.126,55.217C175.865,55.115 175.639,54.965 175.447,54.767C175.255,54.569 175.105,54.326 174.997,54.038C174.889,53.75 174.835,53.423 174.835,53.057Z" fill="gray" fill-rule="nonzero"/><path d="M179.281,48.908L180.316,48.908L180.316,50.546L180.28,51.401C180.466,51.227 180.671,51.072 180.896,50.937C181.121,50.802 181.387,50.735 181.693,50.735C182.167,50.735 182.512,50.886 182.728,51.189C182.944,51.492 183.052,51.926 183.052,52.49L183.052,55.262L182.017,55.262L182.017,52.625C182.017,52.259 181.963,52.001 181.855,51.851C181.747,51.701 181.57,51.626 181.324,51.626C181.132,51.626 180.962,51.672 180.815,51.765C180.668,51.858 180.502,51.995 180.316,52.175L180.316,55.262L179.281,55.262L179.281,48.908Z" fill="gray" fill-rule="nonzero"/><path d="M184.825,50.069C184.639,50.069 184.486,50.015 184.366,49.907C184.246,49.799 184.186,49.658 184.186,49.484C184.186,49.31 184.246,49.167 184.366,49.056C184.486,48.945 184.639,48.89 184.825,48.89C185.011,48.89 185.164,48.945 185.284,49.056C185.404,49.167 185.464,49.31 185.464,49.484C185.464,49.658 185.404,49.799 185.284,49.907C185.164,50.015 185.011,50.069 184.825,50.069ZM184.303,50.843L185.338,50.843L185.338,55.262L184.303,55.262L184.303,50.843Z" fill="gray" fill-rule="nonzero"/><path d="M186.472,54.074C186.472,53.6 186.679,53.234 187.093,52.976C187.507,52.718 188.167,52.538 189.073,52.436C189.073,52.322 189.058,52.212 189.028,52.107C188.998,52.002 188.951,51.909 188.888,51.828C188.825,51.747 188.744,51.684 188.645,51.639C188.546,51.594 188.422,51.572 188.272,51.572C188.05,51.572 187.835,51.614 187.628,51.698C187.421,51.782 187.222,51.884 187.03,52.004L186.652,51.311C186.898,51.155 187.172,51.02 187.475,50.906C187.778,50.792 188.107,50.735 188.461,50.735C189.019,50.735 189.433,50.898 189.703,51.225C189.973,51.552 190.108,52.025 190.108,52.643L190.108,55.262L189.262,55.262L189.181,54.776L189.154,54.776C188.956,54.944 188.744,55.085 188.519,55.199C188.294,55.313 188.05,55.37 187.786,55.37C187.396,55.37 187.079,55.251 186.836,55.014C186.593,54.777 186.472,54.464 186.472,54.074ZM187.48,53.993C187.48,54.191 187.538,54.335 187.655,54.425C187.772,54.515 187.924,54.56 188.11,54.56C188.29,54.56 188.455,54.518 188.605,54.434C188.755,54.35 188.911,54.23 189.073,54.074L189.073,53.084C188.773,53.12 188.521,53.168 188.317,53.228C188.113,53.288 187.949,53.355 187.826,53.43C187.703,53.505 187.615,53.591 187.561,53.687C187.507,53.783 187.48,53.885 187.48,53.993Z" fill="gray" fill-rule="nonzero"/><path d="M191.521,51.662L190.891,51.662L190.891,50.888L191.575,50.843L191.701,49.637L192.565,49.637L192.565,50.843L193.69,50.843L193.69,51.662L192.565,51.662L192.565,53.768C192.565,54.284 192.772,54.542 193.186,54.542C193.264,54.542 193.343,54.533 193.424,54.515C193.505,54.497 193.579,54.473 193.645,54.443L193.825,55.208C193.705,55.25 193.568,55.287 193.415,55.32C193.262,55.353 193.099,55.37 192.925,55.37C192.667,55.37 192.449,55.331 192.272,55.253C192.095,55.175 191.951,55.065 191.84,54.924C191.729,54.783 191.648,54.615 191.597,54.42C191.546,54.225 191.521,54.008 191.521,53.768L191.521,51.662Z" fill="gray" fill-rule="nonzero"/><path d="M194.617,50.843L195.472,50.843L195.544,51.626L195.58,51.626C195.736,51.338 195.925,51.117 196.147,50.964C196.369,50.811 196.597,50.735 196.831,50.735C197.041,50.735 197.209,50.765 197.335,50.825L197.155,51.725C197.077,51.701 197.005,51.683 196.939,51.671C196.873,51.659 196.792,51.653 196.696,51.653C196.522,51.653 196.339,51.72 196.147,51.855C195.955,51.99 195.79,52.226 195.652,52.562L195.652,55.262L194.617,55.262L194.617,50.843Z" fill="gray" fill-rule="nonzero"/><path d="M198.496,50.069C198.31,50.069 198.157,50.015 198.037,49.907C197.917,49.799 197.857,49.658 197.857,49.484C197.857,49.31 197.917,49.167 198.037,49.056C198.157,48.945 198.31,48.89 198.496,48.89C198.682,48.89 198.835,48.945 198.955,49.056C199.075,49.167 199.135,49.31 199.135,49.484C199.135,49.658 199.075,49.799 198.955,49.907C198.835,50.015 198.682,50.069 198.496,50.069ZM197.974,50.843L199.009,50.843L199.009,55.262L197.974,55.262L197.974,50.843Z" fill="gray" fill-rule="nonzero"/><path d="M200.044,53.057C200.044,52.697 200.101,52.373 200.215,52.085C200.329,51.797 200.48,51.554 200.669,51.356C200.858,51.158 201.076,51.005 201.322,50.897C201.568,50.789 201.82,50.735 202.078,50.735C202.378,50.735 202.642,50.786 202.87,50.888C203.098,50.99 203.288,51.134 203.441,51.32C203.594,51.506 203.71,51.728 203.788,51.986C203.866,52.244 203.905,52.526 203.905,52.832C203.905,53.036 203.89,53.198 203.86,53.318L201.052,53.318C201.1,53.72 201.239,54.029 201.47,54.245C201.701,54.461 201.997,54.569 202.357,54.569C202.549,54.569 202.727,54.54 202.892,54.483C203.057,54.426 203.221,54.347 203.383,54.245L203.734,54.893C203.524,55.031 203.29,55.145 203.032,55.235C202.774,55.325 202.504,55.37 202.222,55.37C201.916,55.37 201.631,55.317 201.367,55.212C201.103,55.107 200.872,54.956 200.674,54.758C200.476,54.56 200.321,54.318 200.21,54.033C200.099,53.748 200.044,53.423 200.044,53.057ZM203.005,52.661C203.005,52.307 202.931,52.031 202.784,51.833C202.637,51.635 202.411,51.536 202.105,51.536C201.841,51.536 201.61,51.63 201.412,51.819C201.214,52.008 201.091,52.289 201.043,52.661L203.005,52.661Z" fill="gray" fill-rule="nonzero"/><path d="M206.704,50.843L207.739,50.843L207.739,53.48C207.739,53.846 207.794,54.104 207.905,54.254C208.016,54.404 208.192,54.479 208.432,54.479C208.624,54.479 208.792,54.431 208.936,54.335C209.08,54.239 209.239,54.083 209.413,53.867L209.413,50.843L210.448,50.843L210.448,55.262L209.593,55.262L209.521,54.614L209.485,54.614C209.293,54.842 209.084,55.025 208.859,55.163C208.634,55.301 208.369,55.37 208.063,55.37C207.589,55.37 207.244,55.218 207.028,54.915C206.812,54.612 206.704,54.179 206.704,53.615L206.704,50.843Z" fill="gray" fill-rule="nonzero"/><path d="M211.762,50.843L212.617,50.843L212.689,51.437L212.725,51.437C212.923,51.245 213.137,51.08 213.368,50.942C213.599,50.804 213.868,50.735 214.174,50.735C214.648,50.735 214.993,50.886 215.209,51.189C215.425,51.492 215.533,51.926 215.533,52.49L215.533,55.262L214.498,55.262L214.498,52.625C214.498,52.259 214.444,52.001 214.336,51.851C214.228,51.701 214.051,51.626 213.805,51.626C213.613,51.626 213.443,51.672 213.296,51.765C213.149,51.858 212.983,51.995 212.797,52.175L212.797,55.262L211.762,55.262L211.762,50.843Z" fill="gray" fill-rule="nonzero"/><path d="M216.532,53.057C216.532,52.697 216.584,52.373 216.689,52.085C216.794,51.797 216.934,51.554 217.108,51.356C217.282,51.158 217.481,51.005 217.706,50.897C217.931,50.789 218.164,50.735 218.404,50.735C218.656,50.735 218.869,50.778 219.043,50.865C219.217,50.952 219.391,51.071 219.565,51.221L219.529,50.51L219.529,48.908L220.564,48.908L220.564,55.262L219.709,55.262L219.637,54.785L219.601,54.785C219.439,54.947 219.25,55.085 219.034,55.199C218.818,55.313 218.59,55.37 218.35,55.37C217.792,55.37 217.349,55.167 217.022,54.762C216.695,54.357 216.532,53.789 216.532,53.057ZM217.603,53.048C217.603,53.528 217.688,53.892 217.859,54.141C218.03,54.39 218.278,54.515 218.602,54.515C218.932,54.515 219.241,54.35 219.529,54.02L219.529,51.959C219.373,51.821 219.221,51.725 219.074,51.671C218.927,51.617 218.779,51.59 218.629,51.59C218.341,51.59 218.098,51.716 217.9,51.968C217.702,52.22 217.603,52.58 217.603,53.048Z" fill="gray" fill-rule="nonzero"/><rect x="223.444" y="52.616" width="2.142" height=".756" fill="gray" fill-rule="nonzero"/><path d="M227.656,55.622L227.656,57.008L226.621,57.008L226.621,50.843L227.476,50.843L227.548,51.311L227.584,51.311C227.77,51.155 227.977,51.02 228.205,50.906C228.433,50.792 228.67,50.735 228.916,50.735C229.192,50.735 229.436,50.787 229.649,50.892C229.862,50.997 230.044,51.149 230.194,51.347C230.344,51.545 230.458,51.782 230.536,52.058C230.614,52.334 230.653,52.643 230.653,52.985C230.653,53.363 230.6,53.7 230.495,53.997C230.39,54.294 230.251,54.543 230.077,54.744C229.903,54.945 229.702,55.1 229.474,55.208C229.246,55.316 229.009,55.37 228.763,55.37C228.571,55.37 228.379,55.328 228.187,55.244C227.995,55.16 227.809,55.04 227.629,54.884L227.656,55.622ZM227.656,54.146C227.818,54.284 227.974,54.38 228.124,54.434C228.274,54.488 228.415,54.515 228.547,54.515C228.841,54.515 229.087,54.387 229.285,54.132C229.483,53.877 229.582,53.498 229.582,52.994C229.582,52.55 229.507,52.205 229.357,51.959C229.207,51.713 228.964,51.59 228.628,51.59C228.316,51.59 227.992,51.755 227.656,52.085L227.656,54.146Z" fill="gray" fill-rule="nonzero"/><path d="M231.706,54.092C231.904,54.248 232.1,54.369 232.295,54.456C232.49,54.543 232.702,54.587 232.93,54.587C233.17,54.587 233.347,54.537 233.461,54.438C233.575,54.339 233.632,54.212 233.632,54.056C233.632,53.966 233.605,53.886 233.551,53.817C233.497,53.748 233.425,53.687 233.335,53.633C233.245,53.579 233.143,53.529 233.029,53.484C232.915,53.439 232.801,53.393 232.687,53.345C232.543,53.291 232.396,53.228 232.246,53.156C232.096,53.084 231.962,52.997 231.845,52.895C231.728,52.793 231.632,52.674 231.557,52.539C231.482,52.404 231.445,52.244 231.445,52.058C231.445,51.668 231.589,51.35 231.877,51.104C232.165,50.858 232.558,50.735 233.056,50.735C233.362,50.735 233.638,50.789 233.884,50.897C234.13,51.005 234.343,51.128 234.523,51.266L234.046,51.896C233.89,51.782 233.732,51.69 233.573,51.621C233.414,51.552 233.248,51.518 233.074,51.518C232.852,51.518 232.688,51.564 232.583,51.657C232.478,51.75 232.426,51.866 232.426,52.004C232.426,52.088 232.451,52.161 232.502,52.224C232.553,52.287 232.621,52.344 232.705,52.395C232.789,52.446 232.886,52.493 232.997,52.535C233.108,52.577 233.224,52.619 233.344,52.661C233.494,52.715 233.644,52.776 233.794,52.845C233.944,52.914 234.08,53 234.203,53.102C234.326,53.204 234.425,53.328 234.5,53.475C234.575,53.622 234.613,53.798 234.613,54.002C234.613,54.194 234.575,54.372 234.5,54.537C234.425,54.702 234.316,54.846 234.172,54.969C234.028,55.092 233.848,55.19 233.632,55.262C233.416,55.334 233.17,55.37 232.894,55.37C232.588,55.37 232.286,55.311 231.989,55.194C231.692,55.077 231.436,54.932 231.22,54.758L231.706,54.092Z" fill="gray" fill-rule="nonzero"/><path d="M235.45,56.18C235.492,56.192 235.541,56.205 235.598,56.22C235.655,56.235 235.711,56.243 235.765,56.243C235.999,56.243 236.186,56.172 236.327,56.031C236.468,55.89 236.575,55.709 236.647,55.487L236.728,55.208L234.991,50.843L236.044,50.843L236.809,53.012C236.875,53.204 236.939,53.406 237.002,53.619C237.065,53.832 237.13,54.044 237.196,54.254L237.232,54.254C237.286,54.05 237.341,53.841 237.398,53.628C237.455,53.415 237.511,53.21 237.565,53.012L238.231,50.843L239.23,50.843L237.628,55.46C237.538,55.712 237.439,55.937 237.331,56.135C237.223,56.333 237.098,56.502 236.957,56.643C236.816,56.784 236.654,56.892 236.471,56.967C236.288,57.042 236.077,57.08 235.837,57.08C235.717,57.08 235.612,57.072 235.522,57.057C235.432,57.042 235.345,57.02 235.261,56.99L235.45,56.18Z" fill="gray" fill-rule="nonzero"/><path d="M239.653,53.057C239.653,52.691 239.713,52.364 239.833,52.076C239.953,51.788 240.115,51.545 240.319,51.347C240.523,51.149 240.758,50.997 241.025,50.892C241.292,50.787 241.573,50.735 241.867,50.735C242.155,50.735 242.405,50.784 242.618,50.883C242.831,50.982 243.013,51.104 243.163,51.248L242.668,51.905C242.548,51.803 242.428,51.723 242.308,51.666C242.188,51.609 242.059,51.581 241.921,51.581C241.561,51.581 241.27,51.714 241.048,51.981C240.826,52.248 240.715,52.607 240.715,53.057C240.715,53.501 240.824,53.856 241.043,54.123C241.262,54.39 241.546,54.524 241.894,54.524C242.074,54.524 242.24,54.486 242.393,54.411C242.546,54.336 242.683,54.248 242.803,54.146L243.235,54.803C243.025,54.989 242.794,55.13 242.542,55.226C242.29,55.322 242.038,55.37 241.786,55.37C241.486,55.37 241.205,55.319 240.944,55.217C240.683,55.115 240.457,54.965 240.265,54.767C240.073,54.569 239.923,54.326 239.815,54.038C239.707,53.75 239.653,53.423 239.653,53.057Z" fill="gray" fill-rule="nonzero"/><path d="M244.099,48.908L245.134,48.908L245.134,50.546L245.098,51.401C245.284,51.227 245.489,51.072 245.714,50.937C245.939,50.802 246.205,50.735 246.511,50.735C246.985,50.735 247.33,50.886 247.546,51.189C247.762,51.492 247.87,51.926 247.87,52.49L247.87,55.262L246.835,55.262L246.835,52.625C246.835,52.259 246.781,52.001 246.673,51.851C246.565,51.701 246.388,51.626 246.142,51.626C245.95,51.626 245.78,51.672 245.633,51.765C245.486,51.858 245.32,51.995 245.134,52.175L245.134,55.262L244.099,55.262L244.099,48.908Z" fill="gray" fill-rule="nonzero"/><path d="M248.833,53.057C248.833,52.691 248.89,52.364 249.004,52.076C249.118,51.788 249.272,51.545 249.467,51.347C249.662,51.149 249.886,50.997 250.138,50.892C250.39,50.787 250.654,50.735 250.93,50.735C251.206,50.735 251.471,50.787 251.726,50.892C251.981,50.997 252.205,51.149 252.397,51.347C252.589,51.545 252.743,51.788 252.86,52.076C252.977,52.364 253.036,52.691 253.036,53.057C253.036,53.423 252.977,53.75 252.86,54.038C252.743,54.326 252.589,54.569 252.397,54.767C252.205,54.965 251.981,55.115 251.726,55.217C251.471,55.319 251.206,55.37 250.93,55.37C250.654,55.37 250.39,55.319 250.138,55.217C249.886,55.115 249.662,54.965 249.467,54.767C249.272,54.569 249.118,54.326 249.004,54.038C248.89,53.75 248.833,53.423 248.833,53.057ZM249.895,53.057C249.895,53.501 249.986,53.856 250.169,54.123C250.352,54.39 250.606,54.524 250.93,54.524C251.254,54.524 251.509,54.39 251.695,54.123C251.881,53.856 251.974,53.501 251.974,53.057C251.974,52.607 251.881,52.248 251.695,51.981C251.509,51.714 251.254,51.581 250.93,51.581C250.606,51.581 250.352,51.714 250.169,51.981C249.986,52.248 249.895,52.607 249.895,53.057Z" fill="gray" fill-rule="nonzero"/><path d="M254.215,51.662L253.585,51.662L253.585,50.888L254.269,50.843L254.395,49.637L255.259,49.637L255.259,50.843L256.384,50.843L256.384,51.662L255.259,51.662L255.259,53.768C255.259,54.284 255.466,54.542 255.88,54.542C255.958,54.542 256.037,54.533 256.118,54.515C256.199,54.497 256.273,54.473 256.339,54.443L256.519,55.208C256.399,55.25 256.262,55.287 256.109,55.32C255.956,55.353 255.793,55.37 255.619,55.37C255.361,55.37 255.143,55.331 254.966,55.253C254.789,55.175 254.645,55.065 254.534,54.924C254.423,54.783 254.342,54.615 254.291,54.42C254.24,54.225 254.215,54.008 254.215,53.768L254.215,51.662Z" fill="gray" fill-rule="nonzero"/><path d="M257.311,48.908L258.346,48.908L258.346,50.546L258.31,51.401C258.496,51.227 258.701,51.072 258.926,50.937C259.151,50.802 259.417,50.735 259.723,50.735C260.197,50.735 260.542,50.886 260.758,51.189C260.974,51.492 261.082,51.926 261.082,52.49L261.082,55.262L260.047,55.262L260.047,52.625C260.047,52.259 259.993,52.001 259.885,51.851C259.777,51.701 259.6,51.626 259.354,51.626C259.162,51.626 258.992,51.672 258.845,51.765C258.698,51.858 258.532,51.995 258.346,52.175L258.346,55.262L257.311,55.262L257.311,48.908Z" fill="gray" fill-rule="nonzero"/><path d="M262.045,53.057C262.045,52.697 262.102,52.373 262.216,52.085C262.33,51.797 262.481,51.554 262.67,51.356C262.859,51.158 263.077,51.005 263.323,50.897C263.569,50.789 263.821,50.735 264.079,50.735C264.379,50.735 264.643,50.786 264.871,50.888C265.099,50.99 265.289,51.134 265.442,51.32C265.595,51.506 265.711,51.728 265.789,51.986C265.867,52.244 265.906,52.526 265.906,52.832C265.906,53.036 265.891,53.198 265.861,53.318L263.053,53.318C263.101,53.72 263.24,54.029 263.471,54.245C263.702,54.461 263.998,54.569 264.358,54.569C264.55,54.569 264.728,54.54 264.893,54.483C265.058,54.426 265.222,54.347 265.384,54.245L265.735,54.893C265.525,55.031 265.291,55.145 265.033,55.235C264.775,55.325 264.505,55.37 264.223,55.37C263.917,55.37 263.632,55.317 263.368,55.212C263.104,55.107 262.873,54.956 262.675,54.758C262.477,54.56 262.322,54.318 262.211,54.033C262.1,53.748 262.045,53.423 262.045,53.057ZM265.006,52.661C265.006,52.307 264.932,52.031 264.785,51.833C264.638,51.635 264.412,51.536 264.106,51.536C263.842,51.536 263.611,51.63 263.413,51.819C263.215,52.008 263.092,52.289 263.044,52.661L265.006,52.661Z" fill="gray" fill-rule="nonzero"/><path d="M266.896,50.843L267.751,50.843L267.823,51.626L267.859,51.626C268.015,51.338 268.204,51.117 268.426,50.964C268.648,50.811 268.876,50.735 269.11,50.735C269.32,50.735 269.488,50.765 269.614,50.825L269.434,51.725C269.356,51.701 269.284,51.683 269.218,51.671C269.152,51.659 269.071,51.653 268.975,51.653C268.801,51.653 268.618,51.72 268.426,51.855C268.234,51.99 268.069,52.226 267.931,52.562L267.931,55.262L266.896,55.262L266.896,50.843Z" fill="gray" fill-rule="nonzero"/><path d="M269.812,54.074C269.812,53.6 270.019,53.234 270.433,52.976C270.847,52.718 271.507,52.538 272.413,52.436C272.413,52.322 272.398,52.212 272.368,52.107C272.338,52.002 272.291,51.909 272.228,51.828C272.165,51.747 272.084,51.684 271.985,51.639C271.886,51.594 271.762,51.572 271.612,51.572C271.39,51.572 271.175,51.614 270.968,51.698C270.761,51.782 270.562,51.884 270.37,52.004L269.992,51.311C270.238,51.155 270.512,51.02 270.815,50.906C271.118,50.792 271.447,50.735 271.801,50.735C272.359,50.735 272.773,50.898 273.043,51.225C273.313,51.552 273.448,52.025 273.448,52.643L273.448,55.262L272.602,55.262L272.521,54.776L272.494,54.776C272.296,54.944 272.084,55.085 271.859,55.199C271.634,55.313 271.39,55.37 271.126,55.37C270.736,55.37 270.419,55.251 270.176,55.014C269.933,54.777 269.812,54.464 269.812,54.074ZM270.82,53.993C270.82,54.191 270.878,54.335 270.995,54.425C271.112,54.515 271.264,54.56 271.45,54.56C271.63,54.56 271.795,54.518 271.945,54.434C272.095,54.35 272.251,54.23 272.413,54.074L272.413,53.084C272.113,53.12 271.861,53.168 271.657,53.228C271.453,53.288 271.289,53.355 271.166,53.43C271.043,53.505 270.955,53.591 270.901,53.687C270.847,53.783 270.82,53.885 270.82,53.993Z" fill="gray" fill-rule="nonzero"/><path d="M275.743,55.622L275.743,57.008L274.708,57.008L274.708,50.843L275.563,50.843L275.635,51.311L275.671,51.311C275.857,51.155 276.064,51.02 276.292,50.906C276.52,50.792 276.757,50.735 277.003,50.735C277.279,50.735 277.523,50.787 277.736,50.892C277.949,50.997 278.131,51.149 278.281,51.347C278.431,51.545 278.545,51.782 278.623,52.058C278.701,52.334 278.74,52.643 278.74,52.985C278.74,53.363 278.687,53.7 278.582,53.997C278.477,54.294 278.338,54.543 278.164,54.744C277.99,54.945 277.789,55.1 277.561,55.208C277.333,55.316 277.096,55.37 276.85,55.37C276.658,55.37 276.466,55.328 276.274,55.244C276.082,55.16 275.896,55.04 275.716,54.884L275.743,55.622ZM275.743,54.146C275.905,54.284 276.061,54.38 276.211,54.434C276.361,54.488 276.502,54.515 276.634,54.515C276.928,54.515 277.174,54.387 277.372,54.132C277.57,53.877 277.669,53.498 277.669,52.994C277.669,52.55 277.594,52.205 277.444,51.959C277.294,51.713 277.051,51.59 276.715,51.59C276.403,51.59 276.079,51.755 275.743,52.085L275.743,54.146Z" fill="gray" fill-rule="nonzero"/><path d="M280.306,50.069C280.12,50.069 279.967,50.015 279.847,49.907C279.727,49.799 279.667,49.658 279.667,49.484C279.667,49.31 279.727,49.167 279.847,49.056C279.967,48.945 280.12,48.89 280.306,48.89C280.492,48.89 280.645,48.945 280.765,49.056C280.885,49.167 280.945,49.31 280.945,49.484C280.945,49.658 280.885,49.799 280.765,49.907C280.645,50.015 280.492,50.069 280.306,50.069ZM279.784,50.843L280.819,50.843L280.819,55.262L279.784,55.262L279.784,50.843Z" fill="gray" fill-rule="nonzero"/><path d="M281.854,53.057C281.854,52.697 281.911,52.373 282.025,52.085C282.139,51.797 282.29,51.554 282.479,51.356C282.668,51.158 282.886,51.005 283.132,50.897C283.378,50.789 283.63,50.735 283.888,50.735C284.188,50.735 284.452,50.786 284.68,50.888C284.908,50.99 285.098,51.134 285.251,51.32C285.404,51.506 285.52,51.728 285.598,51.986C285.676,52.244 285.715,52.526 285.715,52.832C285.715,53.036 285.7,53.198 285.67,53.318L282.862,53.318C282.91,53.72 283.049,54.029 283.28,54.245C283.511,54.461 283.807,54.569 284.167,54.569C284.359,54.569 284.537,54.54 284.702,54.483C284.867,54.426 285.031,54.347 285.193,54.245L285.544,54.893C285.334,55.031 285.1,55.145 284.842,55.235C284.584,55.325 284.314,55.37 284.032,55.37C283.726,55.37 283.441,55.317 283.177,55.212C282.913,55.107 282.682,54.956 282.484,54.758C282.286,54.56 282.131,54.318 282.02,54.033C281.909,53.748 281.854,53.423 281.854,53.057ZM284.815,52.661C284.815,52.307 284.741,52.031 284.594,51.833C284.447,51.635 284.221,51.536 283.915,51.536C283.651,51.536 283.42,51.63 283.222,51.819C283.024,52.008 282.901,52.289 282.853,52.661L284.815,52.661Z" fill="gray" fill-rule="nonzero"/></g></g><defs><linearGradient id="_Linear1" x1="0" y1="0" x2="1" y2="0" gradientUnits="userSpaceOnUse" gradientTransform="matrix(2.93915e-15,48,-48,2.93915e-15,32,8)"><stop offset="0" stop-color="#57a708" stop-opacity="1"/><stop offset=".58" stop-color="#549e0f" stop-opacity="1"/><stop offset=".8" stop-color="#4c8b1d" stop-opacity="1"/><stop offset="1" stop-color="#45792a" stop-opacity="1"/></linearGradient><linearGradient id="_Linear2" x1="0" y1="0" x2="1" y2="0" gradientUnits="userSpaceOnUse" gradientTransform="matrix(9.56694e-16,15.624,-15.624,9.56694e-16,161.477,7.65987)"><stop offset="0" stop-color="#58a706" stop-opacity="1"/><stop offset=".58" stop-color="#549e0d" stop-opacity="1"/><stop offset=".8" stop-color="#4c8b1c" stop-opacity="1"/><stop offset="1" stop-color="#45792a" stop-opacity="1"/></linearGradient><linearGradient id="_Linear3" x1="0" y1="0" x2="1" y2="0" gradientUnits="userSpaceOnUse" gradientTransform="matrix(9.56694e-16,15.624,-15.624,9.56694e-16,161.477,7.65987)"><stop offset="0" stop-color="#58a706" stop-opacity="1"/><stop offset=".58" stop-color="#549e0d" stop-opacity="1"/><stop offset=".8" stop-color="#4c8b1c" stop-opacity="1"/><stop offset="1" stop-color="#45792a" stop-opacity="1"/></linearGradient><linearGradient id="_Linear4" x1="0" y1="0" x2="1" y2="0" gradientUnits="userSpaceOnUse" gradientTransform="matrix(9.56694e-16,15.624,-15.624,9.56694e-16,161.477,7.65987)"><stop offset="0" stop-color="#58a706" stop-opacity="1"/><stop offset=".58" stop-color="#549e0d" stop-opacity="1"/><stop offset=".8" stop-color="#4c8b1c" stop-opacity="1"/><stop offset="1" stop-color="#45792a" stop-opacity="1"/></linearGradient><linearGradient id="_Linear5" x1="0" y1="0" x2="1" y2="0" gradientUnits="userSpaceOnUse" gradientTransform="matrix(9.56694e-16,15.624,-15.624,9.56694e-16,161.477,7.65987)"><stop offset="0" stop-color="#58a706" stop-opacity="1"/><stop offset=".58" stop-color="#549e0d" stop-opacity="1"/><stop offset=".8" stop-color="#4c8b1c" stop-opacity="1"/><stop offset="1" stop-color="#45792a" stop-opacity="1"/></linearGradient><linearGradient id="_Linear6" x1="0" y1="0" x2="1" y2="0" gradientUnits="userSpaceOnUse" gradientTransform="matrix(9.56694e-16,15.624,-15.624,9.56694e-16,161.477,7.65987)"><stop offset="0" stop-color="#58a706" stop-opacity="1"/><stop offset=".58" stop-color="#549e0d" stop-opacity="1"/><stop offset=".8" stop-color="#4c8b1c" stop-opacity="1"/><stop offset="1" stop-color="#45792a" stop-opacity="1"/></linearGradient><linearGradient id="_Linear7" x1="0" y1="0" x2="1" y2="0" gradientUnits="userSpaceOnUse" gradientTransform="matrix(9.56694e-16,15.624,-15.624,9.56694e-16,161.477,7.65987)"><stop offset="0" stop-color="#58a706" stop-opacity="1"/><stop offset=".58" stop-color="#549e0d" stop-opacity="1"/><stop offset=".8" stop-color="#4c8b1c" stop-opacity="1"/><stop offset="1" stop-color="#45792a" stop-opacity="1"/></linearGradient><linearGradient id="_Linear8" x1="0" y1="0" x2="1" y2="0" gradientUnits="userSpaceOnUse" gradientTransform="matrix(9.56694e-16,15.624,-15.624,9.56694e-16,161.477,7.65987)"><stop offset="0" stop-color="#58a706" stop-opacity="1"/><stop offset=".58" stop-color="#549e0d" stop-opacity="1"/><stop offset=".8" stop-color="#4c8b1c" stop-opacity="1"/><stop offset="1" stop-color="#45792a" stop-opacity="1"/></linearGradient><linearGradient id="_Linear9" x1="0" y1="0" x2="1" y2="0" gradientUnits="userSpaceOnUse" gradientTransform="matrix(9.56694e-16,15.624,-15.624,9.56694e-16,161.477,7.65987)"><stop offset="0" stop-color="#58a706" stop-opacity="1"/><stop offset=".58" stop-color="#549e0d" stop-opacity="1"/><stop offset=".8" stop-color="#4c8b1c" stop-opacity="1"/><stop offset="1" stop-color="#45792a" stop-opacity="1"/></linearGradient><linearGradient id="_Linear10" x1="0" y1="0" x2="1" y2="0" gradientUnits="userSpaceOnUse" gradientTransform="matrix(9.56694e-16,15.624,-15.624,9.56694e-16,161.477,7.65987)"><stop offset="0" stop-color="#58a706" stop-opacity="1"/><stop offset=".58" stop-color="#549e0d" stop-opacity="1"/><stop offset=".8" stop-color="#4c8b1c" stop-opacity="1"/><stop offset="1" stop-color="#45792a" stop-opacity="1"/></linearGradient><linearGradient id="_Linear11" x1="0" y1="0" x2="1" y2="0" gradientUnits="userSpaceOnUse" gradientTransform="matrix(9.56694e-16,15.624,-15.624,9.56694e-16,161.477,7.65987)"><stop offset="0" stop-color="#58a706" stop-opacity="1"/><stop offset=".58" stop-color="#549e0d" stop-opacity="1"/><stop offset=".8" stop-color="#4c8b1c" stop-opacity="1"/><stop offset="1" stop-color="#45792a" stop-opacity="1"/></linearGradient><linearGradient id="_Linear12" x1="0" y1="0" x2="1" y2="0" gradientUnits="userSpaceOnUse" gradientTransform="matrix(9.56694e-16,15.624,-15.624,9.56694e-16,161.477,7.65987)"><stop offset="0" stop-color="#58a706" stop-opacity="1"/><stop offset=".58" stop-color="#549e0d" stop-opacity="1"/><stop offset=".8" stop-color="#4c8b1c" stop-opacity="1"/><stop offset="1" stop-color="#45792a" stop-opacity="1"/></linearGradient><linearGradient id="_Linear13" x1="0" y1="0" x2="1" y2="0" gradientUnits="userSpaceOnUse" gradientTransform="matrix(9.56694e-16,15.624,-15.624,9.56694e-16,161.477,7.65987)"><stop offset="0" stop-color="#58a706" stop-opacity="1"/><stop offset=".58" stop-color="#549e0d" stop-opacity="1"/><stop offset=".8" stop-color="#4c8b1c" stop-opacity="1"/><stop offset="1" stop-color="#45792a" stop-opacity="1"/></linearGradient></defs></svg>