<?xml version="1.0" encoding="utf-8"?>
<!-- Generator: Adobe Illustrator 16.0.4, SVG Export Plug-In . SVG Version: 6.00 Build 0)  -->
<!DOCTYPE svg PUBLIC "-//W3C//DTD SVG 1.1//EN" "http://www.w3.org/Graphics/SVG/1.1/DTD/svg11.dtd" [
	<!ENTITY ns_flows "http://ns.adobe.com/Flows/1.0/">
	<!ENTITY ns_extend "http://ns.adobe.com/Extensibility/1.0/">
	<!ENTITY ns_ai "http://ns.adobe.com/AdobeIllustrator/10.0/">
	<!ENTITY ns_graphs "http://ns.adobe.com/Graphs/1.0/">
]>
<svg version="1.1" id="Layer" xmlns:x="&ns_extend;" xmlns:i="&ns_ai;" xmlns:graph="&ns_graphs;"
	 xmlns="http://www.w3.org/2000/svg" xmlns:xlink="http://www.w3.org/1999/xlink" xmlns:a="http://ns.adobe.com/AdobeSVGViewerExtensions/3.0/"
	 x="0px" y="0px" width="240px" height="144px" viewBox="0 0 240 144" enable-background="new 0 0 240 144" xml:space="preserve">
<path id="_x35_00px" fill="#FFFFFF" d="M192.613,62.623l7.256-7.257c0.264-0.264,0.88-0.882-0.368-2.167
	c-0.535-0.552-1.024-0.833-1.451-0.837h-0.008c-0.367,0-0.615,0.197-0.809,0.392l-7.273,7.272l-7.262-7.306
	c-0.586-0.587-1.273-0.45-2.16,0.436c-0.9,0.905-1.048,1.601-0.464,2.188l7.263,7.306l-7.113,7.113l-0.05,0.05
	c-0.173,0.167-0.435,0.421-0.438,0.833c-0.003,0.426,0.28,0.928,0.844,1.49c0.475,0.476,0.925,0.717,1.338,0.717h0.001
	c0.466,0,0.763-0.299,0.932-0.467l7.139-7.14l7.301,7.301c0.093,0.093,0.35,0.304,0.763,0.304h0.015
	c0.462-0.006,0.947-0.273,1.444-0.796c0.82-0.859,0.957-1.576,0.406-2.13L192.613,62.623L192.613,62.623z M166.399,52.199
	c-5.377,0.408-9.589,5.138-9.589,10.767v17.798c0,1.03,0.784,1.241,1.961,1.241c1.176,0,1.96-0.211,1.96-1.241v-17.84
	c0-3.507,2.551-6.518,5.808-6.855c1.869-0.19,3.666,0.395,5.064,1.655c1.372,1.237,2.159,3.016,2.159,4.879
	c0,0.533-0.261,2.271-1.453,3.884c-0.901,1.218-2.609,2.67-5.639,2.67c-0.017,0-0.039,0-0.058,0c-0.777,0-1.44,0.036-1.568,1.878
	c-0.086,1.238-0.078,1.793,0.992,1.941c1.908,0.266,3.855-0.108,5.784-1.11c3.294-1.714,5.501-4.961,5.761-8.476
	c0.225-3.052-0.876-6.029-3.021-8.17C172.408,53.072,169.435,51.973,166.399,52.199L166.399,52.199z M55.072,63.994
	c-3.853-0.553-7.61,0.472-10.67,2.828V56.222h17.962c0.624,0,1.072-0.112,1.072-1.955c0-1.798-0.725-1.87-1.203-1.87h-19.89
	c-1.155,0-1.766,0.935-1.766,1.971v17.396c0,0.912,0.578,1.221,1.655,1.434c0.942,0.187,1.489,0.078,1.901-0.379l0.043-0.066
	c1.895-2.731,6.018-5.377,9.937-4.897c4.678,0.572,8.444,4.304,8.959,8.872c0.329,2.916-0.561,5.718-2.503,7.892
	c-1.917,2.146-4.663,3.376-7.53,3.376c-4.248,0-7.961-2.73-9.507-6.693c-0.229-0.587-0.616-1.021-2.289-0.413
	c-1.538,0.56-1.627,1.206-1.415,1.792c2.013,5.543,7.321,9.267,13.209,9.267c3.988,0,7.805-1.709,10.472-4.691
	c2.702-3.02,3.929-6.913,3.477-10.963C66.279,69.953,61.372,64.896,55.072,63.994L55.072,63.994z M132.732,87.735
	c-8.677,0-15.736-7.059-15.736-15.735s7.059-15.735,15.736-15.735c8.675,0,15.733,7.059,15.733,15.735
	S141.407,87.735,132.732,87.735L132.732,87.735z M132.732,52c-11.029,0-20.001,8.972-20.001,20s8.972,20,20.001,20
	c11.027,0,19.999-8.972,19.999-20S143.76,52,132.732,52L132.732,52z M89.448,87.735c-8.676,0-15.735-7.059-15.735-15.735
	s7.059-15.735,15.735-15.735c8.676,0,15.734,7.059,15.734,15.735S98.124,87.735,89.448,87.735L89.448,87.735z M89.448,52
	c-11.028,0-20.001,8.972-20.001,20s8.973,20,20.001,20c11.028,0,20-8.972,20-20S100.476,52,89.448,52L89.448,52z"/>
</svg>
