<?xml version="1.0" encoding="utf-8"?>
<!-- Generator: Adobe Illustrator 16.0.4, SVG Export Plug-In . SVG Version: 6.00 Build 0)  -->
<!DOCTYPE svg PUBLIC "-//W3C//DTD SVG 1.1//EN" "http://www.w3.org/Graphics/SVG/1.1/DTD/svg11.dtd" [
	<!ENTITY ns_flows "http://ns.adobe.com/Flows/1.0/">
	<!ENTITY ns_extend "http://ns.adobe.com/Extensibility/1.0/">
	<!ENTITY ns_ai "http://ns.adobe.com/AdobeIllustrator/10.0/">
	<!ENTITY ns_graphs "http://ns.adobe.com/Graphs/1.0/">
]>
<svg version="1.1" id="Layer" xmlns:x="&ns_extend;" xmlns:i="&ns_ai;" xmlns:graph="&ns_graphs;"
	 xmlns="http://www.w3.org/2000/svg" xmlns:xlink="http://www.w3.org/1999/xlink" xmlns:a="http://ns.adobe.com/AdobeSVGViewerExtensions/3.0/"
	 x="0px" y="0px" width="240px" height="144px" viewBox="0 0 240 144" enable-background="new 0 0 240 144" xml:space="preserve">
<linearGradient id="Background_1_" gradientUnits="userSpaceOnUse" x1="120.0005" y1="144" x2="120.0005" y2="4.882812e-04">
	<stop  offset="0" style="stop-color:#005DFF"/>
	<stop  offset="1" style="stop-color:#0096FF"/>
	<a:midPointStop  offset="0" style="stop-color:#005DFF"/>
	<a:midPointStop  offset="0.5" style="stop-color:#005DFF"/>
	<a:midPointStop  offset="1" style="stop-color:#0096FF"/>
</linearGradient>
<rect id="Background" fill="url(#Background_1_)" width="240" height="144"/>
<g id="Behance">
	<path fill="#FFFFFF" d="M52.821,57c1.407,0,2.679,0.122,3.841,0.374c1.155,0.245,2.142,0.653,2.975,1.214
		c0.821,0.561,1.462,1.306,1.922,2.246c0.448,0.926,0.674,2.085,0.674,3.456c0,1.482-0.337,2.72-1.009,3.71
		c-0.678,0.989-1.674,1.799-3.004,2.429c1.812,0.521,3.154,1.438,4.044,2.742c0.895,1.314,1.332,2.887,1.332,4.729
		c0,1.493-0.286,2.779-0.856,3.86c-0.577,1.095-1.362,1.98-2.33,2.666c-0.975,0.691-2.095,1.198-3.35,1.526
		c-1.241,0.331-2.53,0.496-3.849,0.496H38.937V57H52.821 M51.981,68.896c1.148,0,2.101-0.271,2.853-0.825
		c0.746-0.545,1.108-1.443,1.108-2.678c0-0.687-0.12-1.252-0.362-1.691c-0.249-0.44-0.58-0.783-0.999-1.024
		c-0.415-0.25-0.883-0.423-1.428-0.517c-0.533-0.104-1.093-0.146-1.667-0.146H45.42v6.88H51.981z M52.34,81.434
		c0.639,0,1.247-0.057,1.818-0.186c0.579-0.128,1.093-0.327,1.528-0.626c0.434-0.286,0.793-0.677,1.053-1.175
		c0.263-0.492,0.388-1.134,0.388-1.908c0-1.518-0.427-2.595-1.276-3.25c-0.851-0.645-1.986-0.966-3.382-0.966H45.42v8.11H52.34z"/>
	<path fill="#FFFFFF" d="M72.838,81.334c0.877,0.857,2.146,1.287,3.788,1.287c1.181,0,2.202-0.297,3.058-0.893
		c0.849-0.594,1.366-1.229,1.564-1.889h5.159c-0.829,2.564-2.087,4.397-3.804,5.5C80.909,86.447,78.84,87,76.43,87
		c-1.679,0-3.191-0.272-4.549-0.809c-1.355-0.541-2.489-1.301-3.443-2.291c-0.929-0.996-1.65-2.172-2.165-3.554
		c-0.508-1.374-0.766-2.897-0.766-4.544c0-1.596,0.268-3.085,0.788-4.463c0.532-1.38,1.268-2.571,2.234-3.572
		c0.97-1.004,2.117-1.797,3.455-2.378c1.339-0.577,2.814-0.868,4.447-0.868c1.804,0,3.385,0.346,4.739,1.055
		c1.349,0.697,2.455,1.642,3.325,2.827c0.87,1.179,1.487,2.531,1.875,4.046c0.382,1.511,0.516,3.092,0.406,4.745H71.388
		C71.388,78.882,71.958,80.479,72.838,81.334 M79.568,70.131c-0.697-0.769-1.876-1.187-3.313-1.187
		c-0.936,0-1.712,0.158-2.331,0.479c-0.606,0.316-1.104,0.71-1.484,1.174c-0.377,0.472-0.635,0.97-0.785,1.503
		c-0.149,0.517-0.24,0.989-0.268,1.403h9.53C80.778,72.012,80.267,70.908,79.568,70.131z"/>
	<path fill="#FFFFFF" d="M95.093,57v11.104h0.134c0.744-1.235,1.685-2.133,2.839-2.69c1.156-0.561,2.282-0.838,3.379-0.838
		c1.563,0,2.845,0.205,3.847,0.63c1.002,0.431,1.794,1.014,2.374,1.774c0.571,0.756,0.973,1.679,1.209,2.766
		c0.231,1.085,0.351,2.281,0.351,3.601v13.103h-5.886V74.41c0-1.758-0.273-3.078-0.819-3.941c-0.546-0.864-1.518-1.298-2.917-1.298
		c-1.583,0-2.728,0.481-3.438,1.426c-0.722,0.948-1.072,2.508-1.072,4.676v11.174H89.21V57H95.093"/>
	<path fill="#FFFFFF" d="M113.408,68.246c0.596-0.908,1.364-1.642,2.298-2.191c0.935-0.554,1.98-0.945,3.154-1.178
		c1.169-0.242,2.339-0.354,3.527-0.354c1.067,0,2.148,0.075,3.261,0.227c1.096,0.151,2.096,0.446,3.004,0.889
		c0.907,0.442,1.646,1.049,2.22,1.843c0.578,0.773,0.873,1.819,0.873,3.117v11.113c0,0.968,0.059,1.885,0.161,2.764
		c0.115,0.888,0.417,1.553,0.701,1.989l-5.983-0.017c-0.175-0.256-0.319-0.652-0.389-1c-0.068-0.34-0.117-0.689-0.144-1.051
		c-0.932,0.966-2.024,1.643-3.297,2.029c-1.262,0.383-2.55,0.574-3.872,0.574c-1.013,0-1.956-0.129-2.84-0.375
		c-0.87-0.249-1.642-0.633-2.3-1.154c-0.662-0.53-1.171-1.187-1.542-1.983c-0.369-0.8-0.56-1.752-0.56-2.854
		c0-1.214,0.218-2.215,0.649-2.997c0.418-0.783,0.963-1.413,1.645-1.878c0.669-0.47,1.439-0.824,2.31-1.056
		c0.863-0.232,1.74-0.424,2.609-0.559c0.882-0.135,1.742-0.244,2.599-0.33c0.86-0.084,1.604-0.205,2.27-0.371
		c0.656-0.163,1.182-0.411,1.568-0.726c0.38-0.315,0.562-0.773,0.535-1.386c0-0.629-0.111-1.134-0.313-1.51
		c-0.204-0.369-0.479-0.655-0.816-0.862c-0.346-0.208-0.733-0.344-1.184-0.417c-0.455-0.066-0.938-0.103-1.454-0.103
		c-1.145,0-2.053,0.255-2.696,0.745c-0.661,0.504-1.041,1.333-1.158,2.491h-5.876C112.452,70.294,112.792,69.151,113.408,68.246
		 M124.936,76.543c-0.365,0.121-0.768,0.223-1.184,0.311c-0.43,0.08-0.879,0.147-1.344,0.206c-0.461,0.056-0.935,0.118-1.395,0.202
		c-0.438,0.088-0.877,0.193-1.294,0.334c-0.425,0.138-0.798,0.32-1.103,0.554c-0.318,0.237-0.571,0.533-0.765,0.885
		c-0.188,0.357-0.288,0.82-0.288,1.365c0,0.521,0.101,0.961,0.288,1.321c0.193,0.359,0.447,0.639,0.778,0.847
		c0.331,0.205,0.719,0.352,1.151,0.429c0.438,0.09,0.892,0.122,1.355,0.122c1.151,0,2.039-0.19,2.672-0.575
		c0.63-0.386,1.104-0.846,1.4-1.382c0.301-0.539,0.483-1.078,0.544-1.623c0.076-0.551,0.111-0.993,0.111-1.325v-2.191
		C125.61,76.247,125.312,76.419,124.936,76.543z"/>
	<path fill="#FFFFFF" d="M140.528,65.131v2.972h0.131c0.741-1.235,1.697-2.133,2.886-2.69c1.178-0.561,2.396-0.838,3.633-0.838
		c1.571,0,2.86,0.205,3.856,0.63c1.016,0.431,1.804,1.014,2.375,1.774c0.586,0.756,0.988,1.679,1.223,2.766
		c0.237,1.085,0.354,2.281,0.354,3.601v13.103H149.1V74.41c0-1.758-0.275-3.078-0.825-3.941c-0.558-0.864-1.519-1.417-2.928-1.417
		c-1.594,0-2.754,0.601-3.468,1.546c-0.719,0.948-1.073,2.508-1.073,4.676v11.174h-5.824V65.131H140.528"/>
	<path fill="#FFFFFF" d="M168.02,68.944c-0.942,0-1.719,0.207-2.346,0.639c-0.637,0.432-1.158,0.978-1.557,1.654
		c-0.398,0.671-0.674,1.415-0.846,2.229c-0.161,0.813-0.249,1.618-0.249,2.42c0,0.773,0.088,1.558,0.249,2.357
		c0.172,0.797,0.434,1.517,0.805,2.171c0.376,0.642,0.877,1.169,1.512,1.588c0.628,0.413,1.396,0.619,2.304,0.619
		c1.409,0,2.49-0.394,3.248-1.17c0.753-0.787,1.22-1.838,1.416-3.158h5.657c-0.39,2.827-1.489,4.988-3.3,6.478
		C173.097,86.25,170.769,87,167.936,87c-1.601,0-3.057-0.272-4.398-0.809c-1.339-0.541-2.478-1.287-3.415-2.25
		c-0.936-0.967-1.662-2.118-2.195-3.451c-0.521-1.338-0.782-2.805-0.782-4.399c0-1.651,0.244-3.188,0.725-4.609
		c0.48-1.417,1.188-2.642,2.135-3.672c0.936-1.035,2.08-1.839,3.435-2.42c1.348-0.577,2.889-0.868,4.62-0.868
		c1.266,0,2.481,0.173,3.655,0.491c1.166,0.328,2.213,0.831,3.132,1.509c0.921,0.672,1.676,1.51,2.256,2.508
		c0.571,0.999,0.896,2.196,0.987,3.563h-5.742C171.966,70.159,170.522,68.944,168.02,68.944"/>
	<rect x="70.19" y="58.975" fill="#FFFFFF" width="11.937" height="2.908"/>
	<path fill="#FFFFFF" d="M187.019,81.334c0.879,0.857,2.209,1.287,3.864,1.287c1.178,0,2.197-0.297,3.048-0.893
		c0.85-0.594,1.377-1.229,1.566-1.889h5.157c-0.824,2.564-2.09,4.397-3.795,5.5c-1.702,1.107-3.762,1.66-6.182,1.66
		c-1.684,0-3.201-0.272-4.549-0.809c-1.354-0.541-2.488-1.301-3.437-2.291c-0.94-0.996-1.661-2.172-2.172-3.554
		c-0.51-1.374-0.762-2.897-0.762-4.544c0-1.596,0.261-3.085,0.783-4.463c0.527-1.38,1.277-2.571,2.238-3.572
		c0.975-1.004,2.112-1.797,3.447-2.378c1.339-0.577,2.825-0.868,4.45-0.868c1.802,0,3.39,0.346,4.729,1.055
		c1.354,0.697,2.466,1.642,3.328,2.827c0.869,1.179,1.494,2.531,1.877,4.046c0.378,1.511,0.524,3.092,0.416,4.745h-15.454
		C185.574,78.882,186.137,80.479,187.019,81.334 M193.821,70.131c-0.706-0.769-1.895-1.187-3.315-1.187
		c-0.935,0-1.711,0.158-2.342,0.479c-0.606,0.316-1.162,0.71-1.534,1.174c-0.372,0.472-0.639,0.97-0.795,1.503
		c-0.14,0.517-0.236,0.989-0.261,1.403h9.601C195.018,72.012,194.52,70.908,193.821,70.131z"/>
</g>
</svg>
