<?xml version="1.0" encoding="UTF-8" standalone="no"?>
<!DOCTYPE svg PUBLIC "-//W3C//DTD SVG 1.1//EN" "http://www.w3.org/Graphics/SVG/1.1/DTD/svg11.dtd">
<svg width="200px" height="150px" version="1.1" xmlns="http://www.w3.org/2000/svg" xmlns:xlink="http://www.w3.org/1999/xlink" xml:space="preserve" style="fill-rule:evenodd;clip-rule:evenodd;stroke-linejoin:round;stroke-miterlimit:1.41421;">
    <g id="Background" transform="matrix(0.5,0,0,0.5,0,0)">
        <rect x="0" y="0" width="400" height="300" style="fill:#fff;"/>
    </g>
    <g id="bullgit" transform="matrix(0.0333475,1.15556e-33,2.6963e-33,0.0333475,93.3305,22.8945)">
        <g id="Circle" transform="matrix(4.16667,0,0,4.16667,-1362.5,0)">
            <path d="M575,357.556C575,468.014 485.457,557.556 374.998,557.556C264.543,557.556 175,468.014 175,357.556C175,247.097 264.543,157.555 374.998,157.555C485.457,157.555 575,247.097 575,357.556" style="fill:#1d92d1;fill-rule:nonzero;"/>
        </g>
        <g id="bull" transform="matrix(4.16667,0,0,4.16667,-1362.5,-1.95259)">
            <path d="M441.341,231.307C515.064,275.54 502.089,304.147 528.04,305.031C553.989,305.915 563.425,243.398 597.337,218.922C609.372,210.236 624.175,209.487 624.175,209.487C624.175,209.487 607.548,239.289 608.786,260.035C610.439,287.717 619.144,335.474 576.402,361.355C535.736,385.98 524.687,384.043 524.687,384.043C524.687,384.043 531.47,396.033 550.558,421.001C586.696,468.274 589.011,472.761 587.114,478.07C639.667,510.22 609.702,612.438 518.064,554.978C494.782,567.857 468.954,568.442 428.896,544.196C379.999,514.6 365.287,489.442 311.355,481.473C279.186,476.719 249.587,462.349 233.286,436.737C216.779,410.803 215.424,391.34 215.424,391.34C215.424,391.34 166,401.14 140.049,398.191C114.099,395.242 128.472,377.176 145.063,356.021C170.557,323.515 225.01,298.348 225.01,298.348C225.01,298.348 160.359,280.133 152.515,237.428C144.301,192.711 168.506,152.771 206.569,131.629C252.755,105.976 288.039,95.367 318.543,69.221C342.616,48.587 352.533,29.566 359.505,15.622C367.974,27.885 383.907,65.3 316.799,128.486C297.364,146.786 267.731,170.493 267.558,183.393C267.421,193.64 275.865,203.166 305.278,208.677C322.008,204.013 333.02,202.893 349.631,203.293C384.224,204.127 421.392,219.337 441.341,231.307" style="fill:#231f20;fill-rule:nonzero;"/>
            <path d="M264.686,309.133C301.231,318.435 263.306,328.851 248.685,328.851C238.504,339.131 216.104,363.002 189.212,370.194C162.32,377.386 150.438,372.383 150.438,372.383C150.438,372.383 165.13,350.452 183.972,335.166C202.813,319.88 239.906,302.358 239.906,302.358C239.906,302.358 251.404,305.752 264.686,309.133" style="fill:#fff;fill-rule:nonzero;"/>
            <path d="M376.059,324.296C370.648,333.502 369.011,339.61 371.135,349.662C374.26,364.456 382.58,375.287 401.3,377.9C412.314,379.437 419.501,378.899 426.935,374.174C413.677,357.95 394.945,337.342 376.059,324.296" style="fill:#fff;fill-rule:nonzero;"/>
            <path d="M586.455,506.904C586.559,509.052 586.482,515.584 584.664,520.016C583.088,523.85 580.519,527.223 577.258,529.78C575.396,531.239 573.33,532.426 571.135,533.311C570.228,533.675 569.307,533.99 568.369,534.255C568.484,534.221 563.768,535.172 566.088,534.819C550.625,537.162 536.937,529.3 527.992,516.971C528.025,517.067 528.053,517.162 528.076,517.259C526.084,513.574 524.344,510.01 523.084,506.009C522.404,503.055 519.676,498.013 515.98,501.133C511.484,504.929 512.525,515.603 513.713,520.737C519.269,543.297 541.033,557.74 563.449,559.251C580.412,560.394 598.307,551.122 603.994,534.529C609.824,517.521 601.379,498.794 586.943,489.102C585.732,488.289 583.621,486.514 582.051,486.876C580.519,487.23 579.771,489.153 580.6,490.469C581.166,491.519 586.162,500.783 586.455,506.904" style="fill:#fff;fill-rule:nonzero;"/>
            <path d="M359.07,33.488C346.606,58.693 318.891,92.728 245.655,122.884C226.836,130.633 208.739,140.827 193.897,154.842C161.385,185.539 160.396,211.117 162.51,229.981C163.04,234.708 164.585,239.065 166.766,243.058C166.058,240.64 165.557,238.177 165.314,235.711C162.28,204.937 176.03,162.675 280.395,115.018C289.923,110.667 298.03,107.1 311.593,98.032C275.956,125.215 207.979,160.103 216.29,214.718C219.585,236.373 265.723,254.849 285.462,263.156C289.529,251.414 292.493,240.232 292.824,235.458C293.382,227.408 291.556,219.711 283.643,215.953C265.535,209.105 257.937,204.006 254.216,194.557C241.677,162.707 303.508,133.201 324.606,107.814C357.572,68.145 362.559,49.251 359.07,33.488" style="fill:#fff;fill-rule:nonzero;"/>
            <path d="M610.134,221.541C571.318,238.025 569.681,295.606 542.321,313.436C530.677,321.024 525.515,320.951 508.519,314.483C508.519,320.577 515.138,326.75 526.943,327.901C582.45,333.315 588.169,280.889 588.169,280.889C588.169,280.889 590.464,306.347 582.206,336.164C593.447,326.99 602.964,301.071 601.277,278.422C600.279,265.039 595.364,244.055 610.134,221.541" style="fill:#fff;fill-rule:nonzero;"/>
            <path d="M498.466,363.314C491.755,352.637 506.044,337.612 506.044,337.612C506.044,337.612 497.415,283.58 453.288,254.373C392.278,213.99 337.663,216.605 337.663,216.605C337.663,216.605 353.964,238.388 358.094,252.598C360.863,262.126 359.065,275.133 356.117,285.22C367.148,290.118 398.661,302.794 433.798,348.301C457.378,378.841 513.626,438.534 529.8,457.356C540.739,453.036 552.835,451.807 565.216,453.405C543.556,425.282 506.603,376.256 498.466,363.314" style="fill:#fff;fill-rule:nonzero;"/>
            <path d="M550.496,459.562C491.246,468.064 493.514,506.329 503.014,508.815C502.365,508.645 503.1,502.547 503.197,501.911C503.553,499.583 504.17,497.294 505.389,495.262C507.428,491.865 510.666,489.653 514.391,488.458C518.939,486.997 524.832,486.032 526.803,491.652C528.406,496.22 527.012,501.736 531.771,504.726C538.125,508.718 547.252,509.498 554.346,507.331C561.762,505.064 569.619,500.407 570.392,491.939C570.662,488.983 569.455,484.466 571.1,481.827C573.842,477.43 576.816,475.981 580.475,475.382C579.808,474.594 576.486,455.833 550.496,459.562" style="fill:#fff;fill-rule:nonzero;"/>
            <path d="M438.791,301.239C417.209,301.239 396.201,298.759 375.243,293.648C354.656,288.628 333.306,281.715 316.169,268.823C300.615,257.122 291.145,239.811 296.149,220.111C300.031,204.83 312.832,194.892 327.965,192.099C329.861,191.749 331.779,191.508 333.703,191.386C335.867,191.25 335.269,188.798 335.717,186.89C336.482,183.632 337.951,180.542 340.123,177.984C347.902,168.815 361.768,168.603 372.716,169.924C372.409,160.474 379.821,152.531 389.293,152.76C388.16,144.241 390.648,134.339 396.857,128.158C402.26,122.781 409.9,120.398 417.279,119.38C426.285,118.137 434.967,119.492 443.939,119.492C451.588,119.492 455.711,115.818 460.75,110.779C460.068,115.36 459.783,120.271 457.191,124.26C454.064,129.075 448.641,131.047 443.639,133.291C440.191,134.838 430.305,138.964 434.367,144.141C436.605,146.995 440.699,147.997 443.869,149.428C447.379,151.012 450.865,152.649 454.264,154.46C460.535,157.801 466.887,161.799 471.248,167.529C473.215,170.113 474.699,173.064 475.385,176.25C475.871,178.512 482.52,180.887 484.674,182.489C496.41,191.214 500.736,206.029 495.568,219.761C509.555,222.424 521.781,234.39 524.102,248.604C525.914,259.711 522.977,274.036 515.768,282.842C507.865,292.496 495.295,296.69 483.422,298.82C468.764,301.449 453.639,301.239 438.791,301.239" style="fill:#231f20;fill-rule:nonzero;"/>
            <path d="M358.999,214.503C346.139,208.847 340.082,197.799 340.082,197.799C340.082,197.799 308.128,196.224 306.694,226.814C304.832,266.552 383.435,280.887 403.113,283.916C422.789,286.946 449.798,285.824 449.798,285.824C506.214,286.529 510.242,269.93 512.359,258.753C514.474,247.575 513.263,239.372 504.345,230.838C492.673,219.671 476.818,225.814 461.109,227.503C443.437,229.402 429.359,226.253 429.359,226.253C429.359,226.253 493.08,231.449 487.16,201.054C485.187,190.928 478.869,182.107 457.554,187.042C451.197,188.513 443.505,187.806 443.505,187.806C443.505,187.806 465.052,187.613 465.115,175.951C465.154,168.608 455.697,162.585 440.187,155.585C424.675,148.584 422.843,142.345 423.005,138.91C423.166,135.475 426.222,132.102 436.525,126.578C436.525,126.578 406.906,121.01 400.859,137.503C395.359,152.503 401.111,158.061 408.109,161.253C396.529,156.124 385.298,155.055 383.359,164.753C381.609,173.503 398.406,181.246 417.599,184.202C393.601,181.083 385.994,178.566 376.02,177.03C366.172,175.514 349.81,174.588 346.549,187.675C341.358,208.503 391.609,222.003 391.609,222.003C391.609,222.003 370.983,219.774 358.999,214.503" style="fill:#fff;fill-rule:nonzero;"/>
        </g>
        <g id="bullgit1" transform="matrix(4.16667,0,0,4.16667,-1362.5,-1.95259)">
            <path d="M183.972,686.873C187.719,689.848 192.236,691.355 197.408,691.355C203.786,691.355 208.825,689.058 212.81,684.332C217.039,679.321 219.183,672.308 219.183,663.484C219.183,654.184 217.293,647.12 213.566,642.49C210.264,638.291 205.768,636.254 199.813,636.254C194.013,636.254 188.685,638.459 183.972,642.81L183.972,686.873ZM194.97,703.619C187.969,703.619 180.9,702.013 173.96,698.846C171.679,697.838 169.682,696.647 168.035,695.311C167.801,695.122 167.665,694.837 167.665,694.535L167.665,606.769C167.665,603.192 167.215,602.015 166.948,601.632C166.224,600.529 164.944,600.006 163.019,600.006C162.065,600.006 161.164,600.096 160.343,600.272C159.818,600.385 159.377,600.438 158.993,600.438C158.504,600.438 158.108,600.35 157.783,600.167C157.315,599.903 156.909,599.542 156.572,599.09C155.298,597.152 156.459,594.883 159.99,592.297C164.846,588.721 169.73,586.906 174.503,586.906C179.871,586.906 183.055,589.941 183.709,595.684C183.884,597.31 183.972,599.029 183.972,600.803L183.972,629.956C190.13,624.803 197.013,622.193 204.465,622.193C213.442,622.193 220.857,625.347 226.505,631.566C232.636,638.223 235.747,647.603 235.747,659.441C235.747,672.747 231.503,683.692 223.132,691.975C215.229,699.703 205.755,703.619 194.97,703.619" style="fill:#1d92d1;fill-rule:nonzero;"/>
            <path d="M270.068,703.619C267.356,703.619 264.672,703.239 262.09,702.489C259.457,701.724 257.136,700.466 255.195,698.749C251.055,695.104 248.955,689.456 248.955,681.961L248.955,644.301C248.955,641.958 248.781,640.063 248.439,638.668C248.081,637.217 247.461,637.217 247.196,637.217C246.336,637.217 245.86,637.323 245.611,637.413L244.117,638.038C244.082,638.053 244.045,638.065 244.007,638.076C243.868,638.116 243.723,638.137 243.577,638.137C243.028,638.137 242.49,637.866 241.934,637.308C240.906,636.174 240.422,635.146 240.422,634.131C240.422,633.204 240.717,632.235 241.299,631.25C241.832,630.346 242.61,629.353 243.677,628.218C244.735,627.092 245.955,626.089 247.303,625.235C250.344,623.221 253.185,622.193 255.73,622.193C258.345,622.193 260.19,622.667 261.371,623.64C262.484,624.561 263.339,625.778 263.912,627.258C264.819,629.531 265.262,632.821 265.262,637.306L265.262,677.471C265.262,684.212 267.138,687.857 270.999,688.614C272.256,688.857 273.779,688.98 275.522,688.98C277.258,688.98 279.149,688.752 281.14,688.3C283.144,687.846 285.088,687.235 286.917,686.488C290.281,685.103 293.307,683.336 295.919,681.231L295.919,644.301C295.919,639.714 294.981,638.143 294.194,637.634C293.764,637.358 293.146,637.217 292.363,637.217C291.547,637.217 290.914,637.33 290.48,637.555C289.849,637.881 289.344,638.109 288.94,638.251C288.668,638.347 288.397,638.396 288.139,638.396C287.793,638.396 287.468,638.309 287.175,638.14C286.844,637.947 286.494,637.666 286.136,637.306C285.292,636.35 284.883,635.394 284.883,634.42C284.883,633.501 285.207,632.531 285.843,631.538C286.431,630.623 287.336,629.613 288.61,628.452C289.85,627.322 291.29,626.277 292.886,625.346C296.493,623.253 300.158,622.193 303.783,622.193C307.064,622.193 311.146,623.896 311.964,632.011C312.137,633.713 312.226,635.495 312.226,637.306L312.226,675.289C312.226,683.331 312.62,686.263 312.949,687.306C313.5,689.048 314.051,689.708 314.417,689.955C314.98,690.336 315.678,690.521 316.55,690.521C317.457,690.521 318.192,690.384 318.735,690.113L320.709,689.256C320.764,689.232 320.821,689.213 320.881,689.199C321.047,689.161 321.214,689.141 321.38,689.141C321.929,689.141 322.727,689.358 323.414,690.39C324.819,692.463 324.413,694.069 323.824,695.05C323.115,696.231 322.021,697.367 320.572,698.423C319.174,699.445 317.589,700.346 315.86,701.098C312.124,702.739 308.845,703.572 306.117,703.572C303.137,703.572 300.723,702.596 298.943,700.669C297.442,699.051 296.484,696.651 296.085,693.522C290.171,697.838 284.053,700.895 277.877,702.621C275.396,703.284 272.772,703.619 270.068,703.619" style="fill:#1d92d1;fill-rule:nonzero;"/>
            <path d="M368.198,702.721C368.118,702.721 368.037,702.711 367.957,702.692C367.18,702.498 365.88,702.401 364.092,702.401L343.626,702.401C336.449,702.401 332.809,700.553 332.809,696.91C332.809,695.108 333.205,693.691 333.985,692.699C334.178,692.452 334.47,692.317 334.771,692.317C334.878,692.317 334.984,692.333 335.089,692.368C336.005,692.675 336.87,692.83 337.659,692.83C339.637,692.83 342.286,692.233 342.433,687.066L342.433,606.77C342.433,603.013 341.941,601.939 341.73,601.652C340.931,600.541 339.643,600.006 337.787,600.006C336.874,600.006 335.982,600.096 335.138,600.274C334.603,600.385 334.154,600.439 333.76,600.439C333.271,600.439 332.872,600.354 332.542,600.18C332.016,599.901 331.597,599.511 331.293,599.021C330.119,597.085 331.288,594.826 334.76,592.295C339.615,588.721 344.499,586.907 349.271,586.907C354.639,586.907 357.823,589.942 358.477,595.684C358.652,597.309 358.74,599.029 358.74,600.803L358.74,687.35C358.851,690.214 359.824,691.932 361.714,692.562C362.329,692.755 363.099,692.94 363.986,693.105C364.939,693.282 365.83,693.495 366.632,693.742C367.506,694.008 368.185,694.315 368.706,694.679C369.725,695.457 370.224,696.631 370.224,698.194C370.224,699.917 369.805,701.314 368.978,702.346C368.786,702.586 368.497,702.721 368.198,702.721" style="fill:#1d92d1;fill-rule:nonzero;"/>
            <path d="M414.07,702.721C413.99,702.721 413.909,702.711 413.829,702.692C413.053,702.498 411.754,702.401 409.965,702.401L389.498,702.401C382.321,702.401 378.682,700.553 378.682,696.91C378.682,695.106 379.078,693.689 379.859,692.698C380.051,692.452 380.343,692.317 380.644,692.317C380.751,692.317 380.857,692.333 380.962,692.368C381.877,692.675 382.741,692.83 383.531,692.83C385.51,692.83 388.159,692.233 388.305,687.066L388.305,606.77C388.305,603.013 387.813,601.939 387.602,601.652C386.803,600.541 385.516,600.006 383.66,600.006C382.747,600.006 381.855,600.096 381.01,600.274C380.476,600.385 380.026,600.439 379.633,600.439C379.143,600.439 378.744,600.354 378.414,600.18C377.887,599.9 377.468,599.51 377.164,599.019C375.991,597.085 377.16,594.825 380.632,592.295C385.487,588.721 390.371,586.907 395.144,586.907C400.511,586.907 403.695,589.942 404.349,595.684C404.525,597.315 404.613,599.034 404.613,600.803L404.613,687.35C404.723,690.214 405.696,691.932 407.586,692.562C408.203,692.755 408.973,692.94 409.859,693.105C410.812,693.282 411.702,693.495 412.504,693.742C413.376,694.007 414.055,694.314 414.579,694.678C415.598,695.458 416.097,696.632 416.097,698.194C416.097,699.916 415.677,701.313 414.85,702.346C414.658,702.586 414.369,702.721 414.07,702.721" style="fill:#1d92d1;fill-rule:nonzero;"/>
            <path d="M453.336,633.047C446.512,633.047 442.224,635.728 440.226,641.241C439.542,643.131 439.195,645.52 439.195,648.342C439.195,651.163 439.616,653.723 440.446,655.949C441.27,658.156 442.401,659.988 443.81,661.397C445.219,662.806 446.857,663.861 448.679,664.534C450.521,665.217 452.529,665.563 454.651,665.563C456.782,665.563 458.815,665.256 460.696,664.65C462.552,664.051 464.174,663.164 465.519,662.017C468.435,659.54 469.852,656.097 469.852,651.486C469.852,646.349 468.519,642.022 465.89,638.626C462.905,634.875 458.796,633.047 453.336,633.047M443.334,699.462C438.288,702.992 435.731,706.988 435.731,711.346C435.731,715.14 437.93,717.968 442.452,719.991C446.204,721.724 450.898,722.6 456.416,722.6C461.442,722.6 466.155,721.759 470.425,720.101C475.822,717.982 478.448,714.655 478.448,709.934C478.448,703.655 473.298,700.604 462.703,700.604L457.005,700.668C451.36,700.668 446.768,700.263 443.334,699.462M453.336,735.315C448.288,735.315 443.805,734.907 440.009,734.106C436.178,733.294 432.724,732.015 429.742,730.305C423.149,726.494 419.809,720.936 419.809,713.783C419.809,707.715 422.85,702.228 428.849,697.474C430.282,696.355 431.801,695.323 433.381,694.396C431.525,692.403 430.587,689.867 430.587,686.838C430.587,681.94 432.79,677.713 437.142,674.252C430.397,671.22 425.859,666.152 423.641,659.168C422.885,656.678 422.503,653.882 422.503,650.846C422.503,647.792 422.986,644.874 423.939,642.172C424.892,639.471 426.218,637.023 427.88,634.896C429.535,632.776 431.492,630.898 433.697,629.31C435.888,627.734 438.263,626.401 440.758,625.35C445.643,623.256 450.849,622.193 456.224,622.193C464.421,622.193 471.194,624.136 476.385,627.97C476.69,626.391 476.845,624.769 476.845,623.129C476.845,621.083 476.408,619.419 475.548,618.183C475.288,617.811 475.313,617.311 475.606,616.964C477.466,614.772 480.227,613.66 483.811,613.66C485.942,613.66 487.682,614.267 488.98,615.464C491.314,617.471 492.51,619.572 492.51,621.686C492.51,623.625 492.204,625.352 491.601,626.815C491.012,628.237 490.236,629.595 489.294,630.851C487.816,632.928 485.903,634.859 483.61,636.587C485.131,639.749 485.901,643.386 485.901,647.412C485.901,651.769 484.925,655.872 482.999,659.61C481.085,663.33 478.483,666.535 475.266,669.137C468.696,674.437 460.498,677.123 450.898,677.123C449.704,677.123 448.257,677.031 446.593,676.852C445.387,678.151 444.776,679.393 444.776,680.549C444.776,681.8 445.107,682.699 445.785,683.296C446.569,683.986 447.629,684.531 448.935,684.916C451.039,685.483 453.434,685.774 456.03,685.774L461.548,685.774C475.783,685.774 485.324,689.292 489.906,696.231C491.635,698.868 492.51,702.107 492.51,705.86C492.51,709.553 491.877,712.852 490.628,715.665C489.387,718.455 487.702,720.959 485.619,723.109C483.553,725.24 481.124,727.102 478.4,728.641C475.699,730.164 472.809,731.421 469.808,732.379C463.971,734.325 458.425,735.315 453.336,735.315" style="fill:#231f20;fill-rule:nonzero;"/>
            <path d="M516.596,612.26C515.03,612.26 513.565,612.013 512.241,611.525C510.898,611.03 509.713,610.299 508.72,609.353C506.641,607.368 505.587,604.686 505.587,601.379C505.587,598.189 506.821,595.457 509.253,593.26C511.559,591.092 514.38,589.987 517.622,589.987C520.876,589.987 523.532,590.991 525.515,592.973C527.497,594.955 528.502,597.654 528.502,600.994C528.502,604.177 527.317,606.906 524.979,609.102C522.694,611.2 519.876,612.26 516.596,612.26M537.254,702.721C537.177,702.721 537.1,702.712 537.024,702.694C536.203,702.499 534.9,702.401 533.149,702.401L512.682,702.401C505.462,702.401 501.802,700.553 501.802,696.91C501.802,695.147 502.221,693.728 503.047,692.693C503.241,692.45 503.53,692.317 503.828,692.317C503.935,692.317 504.041,692.333 504.146,692.368C505.061,692.675 505.905,692.83 506.652,692.83C508.139,692.83 509.239,692.448 510.013,691.659C511.035,690.619 511.533,688.809 511.49,686.277L511.49,643.274C511.49,639.825 510.909,638.284 510.423,637.598C509.79,636.706 508.565,636.254 506.78,636.254C505.304,636.254 503.954,636.435 502.768,636.79C502.71,636.808 502.652,636.82 502.592,636.826C502.506,636.835 502.421,636.84 502.339,636.84C501.511,636.84 500.408,636.399 499.847,634.293C499.467,632.834 499.695,631.526 500.52,630.398C501.231,629.425 502.281,628.449 503.729,627.415C505.128,626.416 506.687,625.531 508.361,624.782C511.964,623.068 515.066,622.194 517.558,622.194C520.119,622.194 521.999,622.576 523.304,623.363C524.591,624.142 525.589,625.203 526.273,626.518C527.301,628.576 527.797,631.702 527.797,636.088L527.797,687.35C527.908,690.25 528.875,691.965 530.753,692.556C531.357,692.758 532.109,692.941 533.007,693.105C533.983,693.281 534.877,693.496 535.662,693.743C536.514,694.011 537.181,694.317 537.699,694.679C538.718,695.458 539.217,696.632 539.217,698.194C539.217,699.958 538.821,701.354 538.038,702.342C537.846,702.584 537.556,702.721 537.254,702.721" style="fill:#231f20;fill-rule:nonzero;"/>
            <path d="M570.972,703.619C567.525,703.619 564.669,703.42 562.487,703.027C560.2,702.616 558.219,701.773 556.599,700.524C553.275,697.939 551.591,693.249 551.591,686.58L551.591,637.088L546.24,637.088C544.572,637.088 543.325,636.513 542.532,635.377C541.384,633.898 540.812,632.606 540.812,631.469C540.812,629.454 541.438,628.285 542.673,627.993C549.195,626.885 553.66,622.156 556.385,613.525C557.174,610.906 557.81,607.744 558.271,604.139C558.327,603.701 558.663,603.351 559.099,603.279C561.222,602.926 562.797,602.754 563.914,602.754C565.297,602.754 566.488,603.433 567.452,604.773C568.347,606.014 568.788,607.468 568.764,609.094C568.742,610.513 568.71,611.845 568.666,613.091C568.623,614.33 568.581,615.676 568.539,617.127L568.312,625.08L589.482,625.08C589.843,625.08 590.176,625.274 590.353,625.589C590.992,626.723 591.316,627.946 591.316,629.224L591.316,631.213C591.316,633.381 590.178,635.149 587.935,636.47C585.864,637.688 583.545,638.306 581.044,638.306C578.659,638.306 577.002,638.274 575.976,638.209C574.961,638.143 573.98,638.069 573.031,637.982L570.163,637.593C569.538,637.539 568.864,637.483 568.154,637.427L568.09,657.647L568.026,674.523C568.026,683.523 568.641,686.079 569.008,686.801C569.601,687.969 570.255,688.661 570.954,688.857C571.844,689.11 573.026,689.238 574.468,689.238C575.942,689.238 577.294,689.125 578.488,688.901C579.69,688.679 580.839,688.378 581.906,688.01C582.981,687.638 584.03,687.218 585.023,686.763L588.19,685.405C588.45,685.31 588.657,685.274 588.867,685.274C590.291,685.274 591.286,686.895 591.91,688.114C592.235,688.708 592.406,689.419 592.406,690.205C592.406,690.997 592.117,691.935 591.523,693.074C590.944,694.183 589.89,695.383 588.302,696.74C586.771,698.051 584.965,699.228 582.936,700.242C578.544,702.481 574.516,703.619 570.972,703.619" style="fill:#231f20;fill-rule:nonzero;"/>
        </g>
    </g>
</svg>
