<svg width="200" height="150" xmlns="http://www.w3.org/2000/svg" fill-rule="evenodd" clip-rule="evenodd" stroke-linejoin="round" stroke-miterlimit="1.414"><path fill="#fff" d="M0 0h200v150H0z"/><path d="M127.79 72.576c0 15.348-12.442 27.79-27.79 27.79-15.348 0-27.79-12.442-27.79-27.79 0-15.348 12.442-27.79 27.79-27.79 15.348 0 27.79 12.442 27.79 27.79" fill="#1d92d1" fill-rule="nonzero"/><g fill-rule="nonzero"><path d="M109.218 54.969c10.244 6.146 8.44 10.121 12.047 10.244 3.605.123 4.916-8.564 9.628-11.965 1.673-1.207 3.73-1.31 3.73-1.31s-2.31 4.14-2.139 7.023c.23 3.846 1.44 10.482-4.5 14.078-5.65 3.422-7.185 3.152-7.185 3.152s.942 1.666 3.594 5.136c5.022 6.568 5.343 7.192 5.08 7.93 7.302 4.466 3.138 18.67-9.594 10.685-3.235 1.79-6.824 1.871-12.39-1.498-6.794-4.112-8.839-7.608-16.332-8.715-4.47-.66-8.583-2.657-10.848-6.216-2.293-3.603-2.482-6.308-2.482-6.308s-6.867 1.362-10.473.952c-3.606-.41-1.609-2.92.697-5.86 3.542-4.516 11.108-8.013 11.108-8.013s-8.983-2.53-10.073-8.464c-1.141-6.214 2.222-11.763 7.51-14.701 6.418-3.564 11.321-5.039 15.56-8.671 3.344-2.868 4.722-5.51 5.691-7.448 1.177 1.704 3.39 6.903-5.934 15.682-2.7 2.543-6.818 5.837-6.842 7.63-.019 1.423 1.154 2.747 5.241 3.513 2.325-.648 3.855-.804 6.163-.748 4.807.115 9.971 2.229 12.743 3.892" fill="#231f20"/><path d="M84.672 65.783c5.078 1.292-.192 2.74-2.223 2.74-1.415 1.428-4.527 4.745-8.264 5.744-3.736 1-5.387.304-5.387.304s2.041-3.047 4.66-5.171c2.617-2.124 7.771-4.559 7.771-4.559s1.598.472 3.443.942M100.147 67.89c-.752 1.279-.98 2.128-.684 3.524.434 2.056 1.59 3.56 4.191 3.924 1.53.213 2.53.139 3.562-.518-1.842-2.254-4.445-5.118-7.069-6.93M129.381 93.263c.015.298.004 1.206-.249 1.822a3.345 3.345 0 0 1-1.029 1.356 3.504 3.504 0 0 1-1.235.622c.016-.005-.639.127-.317.078-2.148.326-4.05-.766-5.293-2.48a.422.422 0 0 1 .012.04c-.277-.512-.519-1.007-.694-1.563-.094-.41-.474-1.11-.987-.677-.625.527-.48 2.01-.315 2.724.772 3.134 3.796 5.141 6.91 5.351 2.358.159 4.844-1.13 5.634-3.435.81-2.363-.363-4.965-2.369-6.312-.168-.113-.461-.36-.68-.31-.212.05-.316.317-.201.5.078.146.773 1.433.813 2.284M97.787 27.482c-1.732 3.503-5.583 8.232-15.76 12.422-2.614 1.077-5.129 2.493-7.19 4.44-4.518 4.266-4.656 7.82-4.362 10.44a4.92 4.92 0 0 0 .591 1.818 5.593 5.593 0 0 1-.201-1.021c-.422-4.276 1.489-10.148 15.99-16.77 1.324-.605 2.45-1.1 4.335-2.36-4.952 3.777-14.397 8.624-13.242 16.213.457 3.009 6.868 5.576 9.61 6.73.566-1.631.978-3.185 1.024-3.848.077-1.119-.176-2.188-1.276-2.71-2.516-.952-3.572-1.66-4.089-2.973-1.742-4.426 6.85-8.526 9.78-12.053 4.581-5.512 5.274-8.137 4.79-10.328M132.671 53.612c-5.393 2.29-5.62 10.291-9.422 12.769-1.618 1.054-2.335 1.044-4.697.145 0 .847.92 1.705 2.56 1.865 7.713.752 8.507-6.533 8.507-6.533s.32 3.538-.828 7.68c1.562-1.274 2.884-4.875 2.65-8.022-.139-1.86-.822-4.776 1.23-7.904M117.155 73.311c-.932-1.483 1.053-3.571 1.053-3.571s-1.199-7.508-7.33-11.566c-8.477-5.611-16.066-5.248-16.066-5.248s2.265 3.027 2.839 5.001c.385 1.324.135 3.132-.275 4.533 1.533.68 5.912 2.442 10.794 8.765 3.276 4.244 11.092 12.538 13.34 15.153 1.52-.6 3.2-.77 4.92-.549-3.01-3.908-8.144-10.72-9.275-12.518" fill="#fff"/><path d="M124.385 86.685c-8.233 1.181-7.918 6.498-6.598 6.843-.09-.023.012-.87.026-.96.05-.323.135-.64.304-.923.284-.472.734-.78 1.251-.945.632-.203 1.45-.337 1.725.443.223.635.029 1.402.69 1.817.883.555 2.151.663 3.137.362 1.03-.315 2.122-.962 2.23-2.139.037-.41-.13-1.038.098-1.405.38-.61.794-.812 1.302-.895-.092-.11-.554-2.717-4.165-2.198" fill="#fff"/><path d="M108.864 64.686c-3 0-5.918-.345-8.83-1.055-2.86-.697-5.827-1.658-8.208-3.45-2.162-1.625-3.477-4.03-2.782-6.768.54-2.123 2.318-3.504 4.42-3.892.264-.048.53-.082.798-.099.3-.019.217-.36.28-.625a2.95 2.95 0 0 1 .612-1.237c1.08-1.274 3.007-1.304 4.529-1.12-.043-1.313.987-2.417 2.303-2.385-.157-1.184.188-2.56 1.051-3.418.75-.747 1.812-1.079 2.838-1.22 1.251-.173 2.457.016 3.704.016 1.063 0 1.636-.51 2.336-1.211-.095.636-.135 1.319-.495 1.873-.434.67-1.188.943-1.883 1.255-.479.215-1.852.788-1.288 1.507.31.397.88.536 1.32.735.488.22.972.448 1.445.7.871.464 1.754 1.019 2.36 1.815.273.36.479.77.574 1.212.068.314.992.644 1.291.867 1.63 1.212 2.232 3.27 1.514 5.179 1.943.37 3.642 2.032 3.964 4.007.252 1.544-.156 3.534-1.158 4.758-1.098 1.341-2.844 1.924-4.494 2.22-2.037.365-4.138.336-6.201.336" fill="#231f20"/><path d="M97.777 52.634c-1.787-.786-2.629-2.32-2.629-2.32s-4.44-.22-4.639 4.03c-.259 5.522 10.663 7.514 13.397 7.935 2.734.421 6.487.265 6.487.265 7.839.098 8.399-2.208 8.693-3.761.294-1.554.125-2.693-1.114-3.88-1.622-1.55-3.825-.697-6.007-.463-2.456.264-4.412-.173-4.412-.173s8.854.722 8.031-3.502c-.274-1.407-1.152-2.632-4.113-1.946-.884.204-1.952.106-1.952.106s2.994-.027 3.002-1.648c.006-1.02-1.308-1.857-3.463-2.83-2.156-.972-2.41-1.84-2.388-2.316.023-.478.447-.946 1.879-1.714 0 0-4.116-.774-4.956 1.518-.764 2.084.035 2.857 1.007 3.3-1.609-.712-3.17-.861-3.438.486-.244 1.216 2.09 2.292 4.757 2.703-3.334-.433-4.391-.783-5.777-.997-1.369-.21-3.642-.339-4.095 1.48-.721 2.893 6.26 4.77 6.26 4.77s-2.865-.31-4.53-1.043" fill="#fff"/></g><g fill-rule="nonzero"><path d="M73.457 118.269c.52.413 1.148.623 1.867.623.886 0 1.586-.32 2.14-.976.588-.696.886-1.67.886-2.897 0-1.292-.263-2.274-.78-2.917-.46-.583-1.084-.866-1.912-.866-.806 0-1.546.306-2.2.91v6.123zm1.528 2.327c-.973 0-1.955-.223-2.92-.663a3.645 3.645 0 0 1-.822-.492.139.139 0 0 1-.052-.107v-12.195c0-.497-.062-.66-.1-.714-.1-.153-.278-.226-.545-.226-.133 0-.258.013-.372.037a.898.898 0 0 1-.188.023.336.336 0 0 1-.168-.038.54.54 0 0 1-.168-.15c-.177-.269-.016-.584.475-.943.675-.497 1.353-.75 2.016-.75.746 0 1.189.423 1.28 1.22.024.226.036.465.036.712v4.05c.856-.715 1.812-1.078 2.848-1.078 1.247 0 2.277.438 3.062 1.302.852.925 1.284 2.229 1.284 3.873 0 1.85-.59 3.37-1.753 4.52-1.098 1.075-2.414 1.619-3.913 1.619M85.42 120.596c-.377 0-.75-.053-1.109-.157a2.472 2.472 0 0 1-.958-.52c-.575-.506-.867-1.291-.867-2.332v-5.233a3.43 3.43 0 0 0-.071-.783c-.05-.202-.136-.202-.173-.202a.668.668 0 0 0-.22.028l-.208.087a.216.216 0 0 1-.075.014c-.076 0-.151-.038-.228-.116-.143-.157-.21-.3-.21-.441a.79.79 0 0 1 .122-.4 2.46 2.46 0 0 1 .33-.422 2.6 2.6 0 0 1 .504-.414c.422-.28.817-.423 1.17-.423.364 0 .62.066.785.2.154.129.273.298.353.504.126.315.187.773.187 1.396v5.58c0 .937.26 1.444.797 1.549a3.553 3.553 0 0 0 1.41-.044 5.123 5.123 0 0 0 2.053-.982v-5.131c0-.638-.13-.856-.24-.927a.473.473 0 0 0-.254-.058.584.584 0 0 0-.262.047 1.757 1.757 0 0 1-.214.097.336.336 0 0 1-.111.02.265.265 0 0 1-.134-.035.725.725 0 0 1-.144-.116.604.604 0 0 1-.175-.401c0-.128.045-.263.134-.4.082-.128.207-.268.384-.43.173-.156.373-.302.594-.431.502-.29 1.01-.438 1.515-.438.455 0 1.023.237 1.136 1.364.024.237.037.484.037.736v5.277c0 1.118.054 1.525.1 1.67.077.242.153.334.204.368a.513.513 0 0 0 .297.079.688.688 0 0 0 .303-.057l.274-.119a.31.31 0 0 1 .093-.016c.077 0 .188.03.283.174.195.288.14.51.057.647a1.65 1.65 0 0 1-.452.469 3.423 3.423 0 0 1-.654.372c-.52.228-.975.343-1.354.343-.414 0-.75-.135-.997-.403-.208-.225-.342-.558-.397-.993-.822.6-1.672 1.024-2.53 1.264-.345.092-.71.139-1.085.139M99.055 120.471a2.495 2.495 0 0 0-.57-.044H95.64c-.998 0-1.503-.257-1.503-.763 0-.25.055-.448.163-.585a.138.138 0 0 1 .153-.046c.128.042.248.064.358.064.274 0 .642-.083.663-.801v-11.157c0-.522-.068-.671-.098-.711-.11-.155-.29-.229-.548-.229-.126 0-.25.013-.368.037a.95.95 0 0 1-.191.023.357.357 0 0 1-.17-.036.448.448 0 0 1-.173-.16c-.163-.27 0-.584.482-.935.674-.497 1.353-.749 2.016-.749.746 0 1.188.422 1.28 1.22.024.225.036.464.036.71v12.026c.015.398.15.637.413.725.085.026.192.052.316.075.132.025.256.054.367.088.122.037.216.08.289.13.141.109.21.272.21.49 0 .238-.058.433-.173.576a.139.139 0 0 1-.108.052M105.429 120.471a2.492 2.492 0 0 0-.57-.044h-2.844c-.998 0-1.503-.257-1.503-.763 0-.251.055-.448.163-.586a.138.138 0 0 1 .153-.045c.128.042.248.064.357.064.275 0 .643-.083.664-.801v-11.157c0-.522-.069-.671-.098-.711-.111-.155-.29-.229-.548-.229-.127 0-.25.013-.368.037a.95.95 0 0 1-.191.023.357.357 0 0 1-.17-.036.448.448 0 0 1-.173-.161c-.163-.269 0-.583.482-.934.674-.497 1.353-.749 2.016-.749.746 0 1.188.422 1.279 1.22.024.226.037.465.037.71v12.026c.015.398.15.637.413.725.086.026.193.052.316.075.132.025.256.054.367.088.121.037.216.08.288.13.142.109.211.272.211.49 0 .238-.058.432-.173.576a.139.139 0 0 1-.108.052" fill="#1d92d1"/><path d="M110.885 110.79c-.949 0-1.544.373-1.822 1.139-.095.262-.143.594-.143.986s.058.748.174 1.057c.114.307.271.561.467.757.196.196.423.343.677.436.256.095.535.143.83.143.295 0 .578-.043.84-.127.257-.083.483-.206.67-.366.405-.344.602-.822.602-1.463 0-.714-.186-1.315-.551-1.787-.415-.521-.986-.775-1.744-.775m-1.39 9.228c-.701.49-1.057 1.046-1.057 1.652 0 .527.306.92.934 1.2.522.242 1.174.363 1.94.363.699 0 1.354-.117 1.947-.347.75-.294 1.115-.757 1.115-1.413 0-.872-.716-1.296-2.188-1.296l-.792.009c-.784 0-1.422-.056-1.9-.168m1.39 4.982a9.09 9.09 0 0 1-1.851-.168 4.907 4.907 0 0 1-1.427-.528c-.916-.53-1.38-1.302-1.38-2.296 0-.843.423-1.605 1.256-2.266.2-.155.41-.299.63-.428-.258-.277-.388-.629-.388-1.05 0-.68.306-1.268.91-1.749-.937-.42-1.567-1.125-1.875-2.096a3.986 3.986 0 0 1-.159-1.156c0-.424.068-.83.2-1.205.132-.375.317-.716.548-1.011a3.96 3.96 0 0 1 .808-.776 5.02 5.02 0 0 1 .981-.55 5.424 5.424 0 0 1 2.149-.44c1.139 0 2.08.27 2.801.804.043-.22.064-.445.064-.673 0-.284-.06-.516-.18-.687a.139.139 0 0 1 .008-.17c.258-.304.642-.459 1.14-.459.296 0 .538.085.718.25.325.28.49.572.49.865 0 .27-.042.51-.125.713-.082.198-.19.386-.321.56a3.681 3.681 0 0 1-.79.798c.212.44.319.945.319 1.504 0 .605-.136 1.176-.404 1.695a4.108 4.108 0 0 1-1.074 1.324c-.913.736-2.052 1.11-3.386 1.11-.166 0-.367-.013-.598-.038-.168.18-.253.353-.253.513 0 .174.046.3.14.382.11.096.257.172.438.225.293.079.625.12.986.12h.767c1.978 0 3.303.488 3.94 1.452.24.367.362.817.362 1.338 0 .513-.088.972-.262 1.363a3.559 3.559 0 0 1-.696 1.034 4.425 4.425 0 0 1-1.003.769 6.392 6.392 0 0 1-1.194.519c-.81.27-1.581.408-2.288.408M119.675 107.902c-.218 0-.422-.035-.606-.102a1.411 1.411 0 0 1-.489-.302c-.289-.276-.435-.649-.435-1.108 0-.443.171-.823.51-1.128.32-.302.712-.455 1.162-.455.452 0 .821.14 1.097.415.275.275.415.65.415 1.114 0 .443-.165.822-.49 1.127-.317.291-.709.439-1.164.439m2.87 12.57a2.569 2.569 0 0 0-.57-.044l-2.844-.001c-1.004 0-1.512-.257-1.512-.763 0-.245.058-.442.173-.586a.139.139 0 0 1 .153-.045c.127.042.244.064.348.064.206 0 .36-.053.467-.163.142-.144.211-.396.205-.748v-5.975c0-.48-.08-.693-.148-.789-.088-.124-.258-.186-.506-.186a1.95 1.95 0 0 0-.582.08.34.34 0 0 1-.035.001c-.116 0-.269-.061-.347-.354a.614.614 0 0 1 .094-.541c.099-.135.244-.27.446-.415a3.73 3.73 0 0 1 .643-.365c.5-.239.932-.36 1.278-.36.356 0 .617.053.799.162.178.109.317.256.412.439.143.286.212.72.212 1.33v7.122c.015.403.15.642.41.724.085.028.189.053.314.076.135.024.26.054.369.089.118.037.21.08.283.13.141.108.21.271.21.488 0 .245-.054.44-.163.576a.14.14 0 0 1-.11.053M127.23 120.596a6.91 6.91 0 0 1-1.179-.082 1.862 1.862 0 0 1-.818-.348c-.462-.36-.696-1.011-.696-1.938v-6.876h-.743c-.232 0-.406-.08-.516-.238-.16-.206-.239-.385-.239-.543 0-.28.087-.443.259-.483.906-.154 1.526-.811 1.905-2.01.11-.364.198-.804.262-1.305a.139.139 0 0 1 .115-.12c.295-.048.514-.072.67-.072.191 0 .357.094.49.28a.978.978 0 0 1 .183.6c-.003.198-.007.383-.013.556l-.018.561-.032 1.105h2.942c.05 0 .096.027.12.07.09.158.135.328.135.506v.276c0 .301-.158.547-.47.73-.288.17-.61.256-.958.256-.33 0-.561-.005-.704-.014-.14-.009-.277-.02-.409-.031l-.398-.054c-.087-.008-.18-.016-.28-.023l-.008 2.81-.01 2.344c0 1.25.086 1.606.137 1.706.082.162.173.258.27.286.124.035.288.053.489.053a3.056 3.056 0 0 0 1.033-.171c.15-.052.295-.11.433-.173l.44-.189a.264.264 0 0 1 .094-.018c.198 0 .337.225.423.394a.602.602 0 0 1 .07.291c0 .11-.041.24-.124.399-.08.154-.226.32-.447.509a3.661 3.661 0 0 1-.746.487c-.61.31-1.17.469-1.662.469" fill="#231f20"/></g></svg>