<svg width="200" height="150" xmlns="http://www.w3.org/2000/svg" fill-rule="evenodd" clip-rule="evenodd" stroke-linejoin="round" stroke-miterlimit="1.414"><path fill="#662483" d="M0 0h200v150H0z"/><path d="M160.65 57.103v.098c0 1.487.91 2.69 2.042 2.69h1.446c1.13 0 2.044-1.203 2.044-2.69 0-.231-.022-.457-.066-.673l-5.466.575zM159.282 61.48c-1.623.049-2.58-.319-2.58-.319s1.174 1.573 2.58 1.573c1.407 0 2.578-1.573 2.578-1.573s-.955.368-2.578.32zM157.915 57.2c0-.033 0-.063-.004-.097l-5.469-.575a3.5 3.5 0 0 0-.064.673c0 1.487.915 2.69 2.044 2.69h1.446c1.13 0 2.047-1.203 2.047-2.69z" fill="#fff" fill-rule="nonzero"/><path d="M159.28 40.012c-8.681 0-15.717 7.037-15.717 15.718 0 8.68 7.036 15.719 15.717 15.719 8.682 0 15.72-7.038 15.72-15.72 0-8.68-7.038-15.717-15.72-15.717zm9.23 16.441c-2.51 8.43-6.638 8.553-9.188 8.555h-.114c-2.547-.002-6.676-.126-9.187-8.555-.42-1.959 1.156-3.434 3.105-3.942.914-.373 1.369-.921 1.305-1.818a1.912 1.912 0 0 0-.567-1.221 1.64 1.64 0 0 1-.767-1.269 1.635 1.635 0 1 1 2.685 1.132c-.273.355-.42.812-.39 1.29.068.9.762 1.59 1.621 1.694h4.534a1.836 1.836 0 0 0 1.62-1.694 1.873 1.873 0 0 0-.39-1.29 1.642 1.642 0 0 1-.575-1.365 1.64 1.64 0 0 1 1.747-1.514c.9.064 1.576.845 1.514 1.747-.04.54-.337 1-.765 1.269a1.88 1.88 0 0 0-.565 1.22c-.07.954.448 1.512 1.473 1.886 1.894.58 3.41 2.07 2.905 3.875zM33.761 87.971c1.222 1.797 2.988 2.692 5.298 2.692s4.59-.82 6.845-2.461l2.462 4.41c-2.711 2.213-6.11 3.32-10.194 3.32-4.085 0-7.302-1.29-9.65-3.865C26.174 89.49 25 85.682 25 80.64c0-5.04 1.345-8.828 4.038-11.367 2.691-2.54 5.727-3.81 9.106-3.81 3.379 0 6.518.784 9.42 2.35v7.443l-5.268.403v-2.75c0-1.03-.372-1.671-1.117-1.919a7.285 7.285 0 0 0-2.32-.37c-4.62 0-6.93 3.265-6.93 9.792 0 3.244.61 5.764 1.832 7.558zM62.224 54.298v36.079l3.265.17v4.584h-13.63v-4.354l1.89-.171c1.107-.115 1.66-.726 1.66-1.834V60.54c0-.838-.477-1.297-1.431-1.373l-2.005-.115v-4.753h10.251zM79.405 66.324v24.053l3.264.17v4.584h-13.63v-4.354l1.89-.171c1.107-.115 1.66-.726 1.66-1.834v-15.92c0-.65-.105-1.087-.314-1.316-.21-.23-.583-.345-1.117-.345l-2.005-.115v-4.752h10.252zm-7.216-4.953c-.802-.783-1.203-1.785-1.203-3.008 0-1.22.401-2.242 1.203-3.063.802-.82 1.852-1.232 3.15-1.232 1.297 0 2.357.41 3.178 1.232.82.82 1.232 1.842 1.232 3.063 0 1.223-.411 2.225-1.232 3.008-.821.782-1.88 1.172-3.178 1.172s-2.348-.39-3.15-1.172zM89.54 88.717v-27.89c0-.611-.105-1.032-.315-1.26-.21-.23-.582-.362-1.116-.4l-2.005-.116v-4.753h10.194v24.797c2.1-.191 3.932-.84 5.498-1.948 1.565-1.106 2.635-2.557 3.207-4.351.114-.383.173-.686.173-.916 0-.649-.364-.974-1.09-.974l-2.175-.115v-4.467h11.856v4.638l-2.75.114c-.497 3.895-2.176 6.97-5.041 9.221l5.613 10.08 3.493.17v4.584h-8.361l-6.529-11.914c-1.26.344-2.558.611-3.894.804v6.355h.057l3.265.171v4.584H85.99v-4.355l1.89-.17c.572-.078.992-.238 1.26-.486.266-.248.4-.718.4-1.403zM121.383 88.717V72.85c0-.609-.106-1.038-.316-1.286-.21-.249-.581-.393-1.115-.43l-2.405-.174v-4.637h9.677v4.295c.69-1.49 1.756-2.72 3.21-3.693 1.448-.974 3.119-1.462 5.01-1.462 1.89 0 3.692.422 5.41 1.26v8.533l-5.325.403v-2.635c0-.763-.192-1.241-.573-1.434-.42-.189-.935-.286-1.547-.286-1.527 0-2.776.545-3.75 1.634-.974 1.087-1.46 2.473-1.46 4.152v13.285l4.982.23v4.525h-15.349v-4.354l1.891-.171c.572-.077.993-.238 1.26-.486.265-.248.4-.718.4-1.403z" fill="#fff" fill-rule="nonzero"/></svg>