<?xml version="1.0" standalone="no"?>
<!DOCTYPE svg PUBLIC "-//W3C//DTD SVG 1.1//EN" "http://www.w3.org/Graphics/SVG/1.1/DTD/svg11.dtd">
<svg width="32px" height="32px" version="1.1" xmlns="http://www.w3.org/2000/svg" xmlns:xlink="http://www.w3.org/1999/xlink" xml:space="preserve" style="fill-rule:evenodd;clip-rule:evenodd;stroke-linejoin:round;stroke-miterlimit:1.41421;">
    <g transform="matrix(0.489716,0,0,0.489716,-124.998,-3.04187)">
        <path d="M290.761,41.738C290.761,41.807 290.761,41.871 290.761,41.94C290.761,45.031 292.654,47.533 295.007,47.533L298.011,47.533C300.361,47.533 302.261,45.031 302.261,41.94C302.261,41.46 302.214,40.991 302.124,40.542L290.761,41.738Z" style="fill:rgb(102,36,131);fill-rule:nonzero;"/>
        <path d="M287.919,50.836C284.544,50.936 282.556,50.172 282.556,50.172C282.556,50.172 284.997,53.441 287.919,53.441C290.843,53.441 293.278,50.172 293.278,50.172C293.278,50.172 291.292,50.936 287.919,50.836Z" style="fill:rgb(102,36,131);fill-rule:nonzero;"/>
        <path d="M285.077,41.94C285.077,41.871 285.077,41.807 285.069,41.738L273.702,40.542C273.614,40.991 273.569,41.46 273.569,41.94C273.569,45.031 275.471,47.533 277.817,47.533L280.823,47.533C283.171,47.533 285.077,45.031 285.077,41.94Z" style="fill:rgb(102,36,131);fill-rule:nonzero;"/>
        <path d="M287.915,6.212C269.87,6.212 255.245,20.839 255.245,38.883C255.245,56.927 269.87,71.555 287.915,71.555C305.96,71.555 320.589,56.927 320.589,38.883C320.589,20.839 305.96,6.212 287.915,6.212ZM307.101,40.387C301.882,57.907 293.302,58.165 288.001,58.168L287.765,58.168C282.47,58.165 273.888,57.906 268.669,40.387C267.798,36.315 271.071,33.248 275.122,32.192C277.022,31.418 277.968,30.278 277.835,28.413C277.761,27.423 277.319,26.521 276.657,25.875C275.768,25.317 275.147,24.36 275.063,23.239C274.934,21.364 276.342,19.74 278.209,19.607C280.082,19.477 281.707,20.883 281.84,22.753C281.922,23.879 281.445,24.917 280.643,25.591C280.077,26.329 279.77,27.279 279.834,28.272C279.975,30.142 281.416,31.579 283.203,31.793L292.627,31.793C294.416,31.579 295.857,30.143 295.992,28.272C296.066,27.279 295.758,26.33 295.183,25.591C294.388,24.917 293.912,23.879 293.988,22.753C294.129,20.883 295.752,19.477 297.619,19.607C299.488,19.74 300.894,21.364 300.765,23.239C300.681,24.36 300.066,25.317 299.175,25.875C298.509,26.521 298.066,27.423 298.001,28.413C297.855,30.394 298.933,31.554 301.064,32.331C304.999,33.537 308.151,36.633 307.101,40.387Z" style="fill:rgb(102,36,131);fill-rule:nonzero;"/>
    </g>
</svg>
