<?xml version="1.0" encoding="UTF-8" standalone="no"?>
<!DOCTYPE svg PUBLIC "-//W3C//DTD SVG 1.1//EN" "http://www.w3.org/Graphics/SVG/1.1/DTD/svg11.dtd">
<svg width="200px" height="150px" version="1.1" xmlns="http://www.w3.org/2000/svg" xmlns:xlink="http://www.w3.org/1999/xlink" xml:space="preserve" style="fill-rule:evenodd;clip-rule:evenodd;stroke-linejoin:round;stroke-miterlimit:1.41421;">
    <g id="Background" transform="matrix(0.5,0,0,0.5,0,0)">
        <rect x="0" y="0" width="400" height="300" style="fill:#662483;"/>
    </g>
    <g id="clikr">
        <g transform="matrix(0.481107,0,0,0.481107,20.7624,37.0229)">
            <path d="M290.761,41.738C290.761,41.807 290.761,41.871 290.761,41.94C290.761,45.031 292.654,47.533 295.007,47.533L298.011,47.533C300.361,47.533 302.261,45.031 302.261,41.94C302.261,41.46 302.214,40.991 302.124,40.542L290.761,41.738Z" style="fill:#fff;fill-rule:nonzero;"/>
        </g>
        <g transform="matrix(0.481107,0,0,0.481107,20.7624,37.0229)">
            <path d="M287.919,50.836C284.544,50.936 282.556,50.172 282.556,50.172C282.556,50.172 284.997,53.441 287.919,53.441C290.843,53.441 293.278,50.172 293.278,50.172C293.278,50.172 291.292,50.936 287.919,50.836Z" style="fill:#fff;fill-rule:nonzero;"/>
        </g>
        <g transform="matrix(0.481107,0,0,0.481107,20.7624,37.0229)">
            <path d="M285.077,41.94C285.077,41.871 285.077,41.807 285.069,41.738L273.702,40.542C273.614,40.991 273.569,41.46 273.569,41.94C273.569,45.031 275.471,47.533 277.817,47.533L280.823,47.533C283.171,47.533 285.077,45.031 285.077,41.94Z" style="fill:#fff;fill-rule:nonzero;"/>
        </g>
        <g transform="matrix(0.481107,0,0,0.481107,20.7624,37.0229)">
            <path d="M287.915,6.212C269.87,6.212 255.245,20.839 255.245,38.883C255.245,56.927 269.87,71.555 287.915,71.555C305.96,71.555 320.589,56.927 320.589,38.883C320.589,20.839 305.96,6.212 287.915,6.212ZM307.101,40.387C301.882,57.907 293.302,58.165 288.001,58.168L287.765,58.168C282.47,58.165 273.888,57.906 268.669,40.387C267.798,36.315 271.071,33.248 275.122,32.192C277.022,31.418 277.968,30.278 277.835,28.413C277.761,27.423 277.319,26.521 276.657,25.875C275.768,25.317 275.147,24.36 275.063,23.239C274.934,21.364 276.342,19.74 278.209,19.607C280.082,19.477 281.707,20.883 281.84,22.753C281.922,23.879 281.445,24.917 280.643,25.591C280.077,26.329 279.77,27.279 279.834,28.272C279.975,30.142 281.416,31.579 283.203,31.793L292.627,31.793C294.416,31.579 295.857,30.143 295.992,28.272C296.066,27.279 295.758,26.33 295.183,25.591C294.388,24.917 293.912,23.879 293.988,22.753C294.129,20.883 295.752,19.477 297.619,19.607C299.488,19.74 300.894,21.364 300.765,23.239C300.681,24.36 300.066,25.317 299.175,25.875C298.509,26.521 298.066,27.423 298.001,28.413C297.855,30.394 298.933,31.554 301.064,32.331C304.999,33.537 308.151,36.633 307.101,40.387Z" style="fill:#fff;fill-rule:nonzero;"/>
        </g>
        <g transform="matrix(0.481107,0,0,0.481107,20.7624,37.0217)">
            <path d="M27.019,105.901C29.558,109.635 33.228,111.495 38.031,111.495C42.832,111.495 47.572,109.792 52.257,106.38L57.376,115.546C51.74,120.146 44.677,122.448 36.187,122.448C27.695,122.448 21.01,119.768 16.128,114.413C11.248,109.059 8.808,101.142 8.808,90.665C8.808,80.188 11.604,72.315 17.201,67.038C22.795,61.76 29.104,59.12 36.128,59.12C43.151,59.12 49.677,60.748 55.709,64.003L55.709,79.474L44.758,80.312L44.758,74.597C44.758,72.454 43.985,71.122 42.437,70.607C40.889,70.091 39.282,69.836 37.616,69.836C28.013,69.836 23.212,76.623 23.212,90.19C23.21,96.934 24.479,102.172 27.019,105.901Z" style="fill:#fff;fill-rule:nonzero;"/>
        </g>
        <g transform="matrix(0.481107,0,0,0.481107,20.7624,37.0217)">
            <path d="M86.18,35.909L86.18,110.901L92.966,111.256L92.966,120.783L64.634,120.783L64.634,111.732L68.563,111.377C70.864,111.139 72.016,109.869 72.016,107.566L72.016,48.882C72.016,47.14 71.022,46.185 69.039,46.028L64.873,45.789L64.873,35.91L86.18,35.91L86.18,35.909Z" style="fill:#fff;fill-rule:nonzero;"/>
        </g>
        <g transform="matrix(0.481107,0,0,0.481107,20.7624,37.0217)">
            <path d="M121.891,60.906L121.891,110.901L128.675,111.256L128.675,120.783L100.345,120.783L100.345,111.732L104.274,111.377C106.574,111.139 107.725,109.869 107.725,107.566L107.725,74.473C107.725,73.125 107.506,72.215 107.07,71.739C106.633,71.26 105.859,71.022 104.749,71.022L100.582,70.784L100.582,60.907L121.891,60.907L121.891,60.906ZM106.893,50.61C105.226,48.984 104.392,46.901 104.392,44.359C104.392,41.821 105.226,39.698 106.893,37.992C108.56,36.286 110.741,35.431 113.439,35.431C116.136,35.431 118.338,36.285 120.046,37.992C121.751,39.698 122.605,41.821 122.605,44.359C122.605,46.901 121.751,48.984 120.046,50.61C118.338,52.236 116.136,53.048 113.439,53.048C110.741,53.049 108.559,52.236 106.893,50.61Z" style="fill:#fff;fill-rule:nonzero;"/>
        </g>
        <g transform="matrix(0.481107,0,0,0.481107,20.7624,37.0217)">
            <path d="M142.958,107.45L142.958,49.479C142.958,48.21 142.739,47.336 142.303,46.86C141.866,46.382 141.092,46.108 139.982,46.028L135.815,45.789L135.815,35.91L157.004,35.91L157.004,87.452C161.368,87.054 165.177,85.704 168.432,83.401C171.684,81.104 173.909,78.087 175.098,74.358C175.334,73.563 175.457,72.932 175.457,72.454C175.457,71.106 174.701,70.429 173.191,70.429L168.67,70.191L168.67,60.907L193.313,60.907L193.313,70.546L187.596,70.784C186.565,78.88 183.075,85.272 177.119,89.95L188.787,110.901L196.047,111.256L196.047,120.783L178.668,120.783L165.098,96.019C162.48,96.734 159.781,97.289 157.004,97.689L157.004,110.9L157.123,110.9L163.908,111.255L163.908,120.782L135.577,120.782L135.577,111.731L139.506,111.376C140.696,111.216 141.569,110.882 142.125,110.366C142.679,109.852 142.958,108.875 142.958,107.45Z" style="fill:#fff;fill-rule:nonzero;"/>
        </g>
        <g transform="matrix(0.481107,0,0,0.481107,20.7624,37.0217)">
            <path d="M209.144,107.45L209.144,74.473C209.144,73.207 208.923,72.315 208.488,71.799C208.05,71.283 207.279,70.983 206.17,70.904L201.17,70.545L201.17,60.906L221.285,60.906L221.285,69.834C222.717,66.736 224.935,64.179 227.955,62.157C230.967,60.132 234.439,59.119 238.369,59.119C242.297,59.119 246.045,59.996 249.615,61.738L249.615,79.473L238.547,80.311L238.547,74.834C238.547,73.248 238.147,72.254 237.356,71.854C236.483,71.461 235.413,71.26 234.141,71.26C230.967,71.26 228.371,72.393 226.346,74.656C224.321,76.914 223.311,79.795 223.311,83.285L223.311,110.9L233.666,111.377L233.666,120.783L201.764,120.783L201.764,111.732L205.694,111.377C206.883,111.217 207.757,110.883 208.313,110.367C208.864,109.852 209.144,108.875 209.144,107.45Z" style="fill:#fff;fill-rule:nonzero;"/>
        </g>
    </g>
</svg>
