<?xml version="1.0" encoding="utf-8"?>
<!-- Generator: Adobe Illustrator 16.0.4, SVG Export Plug-In . SVG Version: 6.00 Build 0)  -->
<!DOCTYPE svg PUBLIC "-//W3C//DTD SVG 1.1//EN" "http://www.w3.org/Graphics/SVG/1.1/DTD/svg11.dtd" [
	<!ENTITY ns_flows "http://ns.adobe.com/Flows/1.0/">
	<!ENTITY ns_extend "http://ns.adobe.com/Extensibility/1.0/">
	<!ENTITY ns_ai "http://ns.adobe.com/AdobeIllustrator/10.0/">
	<!ENTITY ns_graphs "http://ns.adobe.com/Graphs/1.0/">
]>
<svg version="1.1" id="Layer" xmlns:x="&ns_extend;" xmlns:i="&ns_ai;" xmlns:graph="&ns_graphs;"
	 xmlns="http://www.w3.org/2000/svg" xmlns:xlink="http://www.w3.org/1999/xlink" xmlns:a="http://ns.adobe.com/AdobeSVGViewerExtensions/3.0/"
	 x="0px" y="0px" width="240px" height="144px" viewBox="0 0 240 144" enable-background="new 0 0 240 144" xml:space="preserve">
<g id="CDEPEN">
	<path fill="#FFFFFF" d="M47.334,64.366c1.866,0,3.576,0.674,4.904,1.789l1.807-2.153c-1.816-1.526-4.157-2.448-6.711-2.448
		c-5.76,0-10.447,4.687-10.447,10.446c0,5.761,4.687,10.445,10.447,10.445c2.554,0,4.895-0.922,6.711-2.447l-1.807-2.152
		c-1.328,1.114-3.039,1.788-4.904,1.788c-4.209,0-7.634-3.425-7.634-7.634S43.125,64.366,47.334,64.366z"/>
	<path fill="#FFFFFF" d="M105.163,62.156h-5.625c-0.776,0-1.406,0.63-1.406,1.406v16.875c0,0.775,0.63,1.405,1.406,1.405h5.625
		c5.428,0,9.844-4.416,9.844-9.844C115.007,66.571,110.59,62.156,105.163,62.156z M105.163,79.031h-4.219V64.969h4.219
		c3.877,0,7.031,3.154,7.031,7.031C112.194,75.878,109.04,79.031,105.163,79.031z"/>
	<path fill="#FFFFFF" d="M122.62,63.562v16.875c0,0.775,0.63,1.405,1.405,1.405h11.721v-2.812h-10.312v-5.625h6.562v-2.812h-6.562
		v-5.625h10.312v-2.812h-11.721C123.25,62.156,122.62,62.786,122.62,63.562z"/>
	<path fill="#FFFFFF" d="M165.188,63.562v16.875c0,0.775,0.631,1.405,1.406,1.405h11.719v-2.812h-10.312v-5.625h6.562v-2.812h-6.562
		v-5.625h10.312v-2.812h-11.719C165.818,62.156,165.188,62.786,165.188,63.562z"/>
	<path fill="#FFFFFF" d="M151.805,62.156h-6.094c-0.775,0-1.406,0.63-1.406,1.406v18.281h2.812v-8.438h4.688
		c3.104,0,5.625-2.522,5.625-5.625C157.43,64.678,154.907,62.156,151.805,62.156z M151.805,70.594h-4.688v-5.625h4.688
		c1.553,0,2.812,1.262,2.812,2.812C154.617,69.331,153.355,70.594,151.805,70.594z"/>
	<path fill="#FFFFFF" d="M200.299,62.156v14.398l-11.574-13.894c-0.379-0.455-1.002-0.624-1.56-0.422
		c-0.558,0.202-0.929,0.729-0.929,1.322v18.281h2.812V67.446l11.576,13.892c0.272,0.327,0.671,0.506,1.08,0.506
		c0.161,0,0.321-0.027,0.479-0.083c0.557-0.202,0.926-0.729,0.926-1.323V62.156H200.299z"/>
</g>
<path id="O" fill="#FFFFFF" d="M90.143,67.207c-0.007-0.037-0.013-0.073-0.021-0.108c-0.006-0.021-0.014-0.042-0.02-0.062
	c-0.011-0.032-0.021-0.063-0.035-0.094c-0.008-0.021-0.019-0.042-0.028-0.063c-0.015-0.029-0.028-0.058-0.044-0.085
	c-0.012-0.021-0.023-0.04-0.037-0.06c-0.018-0.027-0.035-0.053-0.055-0.079c-0.014-0.019-0.029-0.037-0.045-0.055
	c-0.021-0.024-0.041-0.048-0.063-0.07c-0.017-0.018-0.034-0.034-0.052-0.051c-0.023-0.021-0.049-0.041-0.073-0.061
	c-0.019-0.016-0.038-0.03-0.058-0.045c-0.008-0.005-0.014-0.011-0.021-0.016l-13.711-9.141c-0.433-0.289-0.997-0.289-1.43,0
	l-13.711,9.141c-0.008,0.005-0.014,0.011-0.021,0.016c-0.02,0.015-0.039,0.029-0.059,0.045c-0.025,0.02-0.05,0.039-0.073,0.061
	c-0.018,0.017-0.035,0.033-0.051,0.051c-0.022,0.022-0.044,0.046-0.064,0.07c-0.015,0.018-0.03,0.036-0.044,0.055
	c-0.02,0.026-0.037,0.052-0.055,0.079c-0.013,0.02-0.025,0.039-0.037,0.06c-0.016,0.027-0.03,0.056-0.044,0.085
	c-0.01,0.021-0.02,0.042-0.028,0.063c-0.013,0.03-0.023,0.062-0.034,0.094c-0.007,0.021-0.014,0.041-0.02,0.062
	c-0.009,0.035-0.016,0.071-0.022,0.108c-0.004,0.019-0.008,0.037-0.011,0.056c-0.007,0.056-0.012,0.111-0.012,0.168v9.14
	c0,0.059,0.004,0.113,0.012,0.17c0.002,0.019,0.007,0.037,0.011,0.056c0.006,0.036,0.013,0.072,0.022,0.108
	c0.006,0.021,0.013,0.041,0.02,0.062c0.01,0.032,0.021,0.063,0.034,0.095c0.008,0.021,0.019,0.043,0.028,0.062
	c0.014,0.029,0.028,0.059,0.044,0.086c0.012,0.021,0.024,0.04,0.037,0.059c0.018,0.027,0.035,0.055,0.055,0.08
	c0.014,0.02,0.029,0.037,0.044,0.055c0.021,0.023,0.042,0.048,0.064,0.07c0.017,0.018,0.033,0.034,0.051,0.051
	c0.023,0.021,0.048,0.041,0.073,0.062c0.02,0.015,0.039,0.028,0.059,0.044c0.007,0.006,0.014,0.012,0.021,0.016l13.711,9.142
	C74.667,86.928,74.916,87,75.165,87c0.25,0,0.499-0.072,0.715-0.217l13.711-9.141c0.008-0.004,0.014-0.011,0.021-0.017
	c0.02-0.015,0.039-0.028,0.058-0.044c0.024-0.021,0.05-0.041,0.073-0.062c0.018-0.016,0.035-0.033,0.052-0.049
	c0.022-0.023,0.043-0.048,0.063-0.07c0.016-0.019,0.031-0.036,0.045-0.057c0.02-0.025,0.037-0.052,0.055-0.078
	c0.014-0.02,0.025-0.039,0.037-0.06c0.016-0.028,0.029-0.058,0.044-0.086c0.01-0.021,0.021-0.041,0.028-0.062
	c0.014-0.031,0.023-0.062,0.035-0.096c0.006-0.021,0.014-0.041,0.02-0.062c0.009-0.035,0.016-0.071,0.021-0.107
	c0.004-0.02,0.008-0.037,0.01-0.057c0.008-0.055,0.012-0.11,0.012-0.168v-9.138c0-0.057-0.004-0.112-0.012-0.168
	C90.151,67.244,90.147,67.226,90.143,67.207z M75.165,75.05L70.605,72l4.559-3.05L79.725,72L75.165,75.05z M73.875,66.711
	l-5.589,3.738l-4.512-3.018l10.101-6.733V66.711z M65.967,72l-3.225,2.157v-4.314L65.967,72z M68.287,73.552l5.589,3.738v6.013
	L63.774,76.57L68.287,73.552z M76.454,77.29l5.589-3.738l4.513,3.019l-10.102,6.732V77.29z M84.362,72l3.226-2.157v4.314L84.362,72z
	 M82.042,70.45l-5.589-3.738v-6.013l10.102,6.733L82.042,70.45z"/>
</svg>
