<?xml version="1.0" encoding="utf-8"?>
<!-- Generator: Adobe Illustrator 16.0.4, SVG Export Plug-In . SVG Version: 6.00 Build 0)  -->
<!DOCTYPE svg PUBLIC "-//W3C//DTD SVG 1.1//EN" "http://www.w3.org/Graphics/SVG/1.1/DTD/svg11.dtd" [
	<!ENTITY ns_flows "http://ns.adobe.com/Flows/1.0/">
	<!ENTITY ns_extend "http://ns.adobe.com/Extensibility/1.0/">
	<!ENTITY ns_ai "http://ns.adobe.com/AdobeIllustrator/10.0/">
	<!ENTITY ns_graphs "http://ns.adobe.com/Graphs/1.0/">
]>
<svg version="1.1" id="CodePencil" xmlns:x="&ns_extend;" xmlns:i="&ns_ai;" xmlns:graph="&ns_graphs;"
	 xmlns="http://www.w3.org/2000/svg" xmlns:xlink="http://www.w3.org/1999/xlink" xmlns:a="http://ns.adobe.com/AdobeSVGViewerExtensions/3.0/"
	 x="0px" y="0px" width="300px" height="300px" viewBox="0 0 300 300" enable-background="new 0 0 300 300" xml:space="preserve">
<rect id="Background" fill="#1D1D1B" width="300" height="300"/>
<g id="CodePen">
	<polygon fill="#FFFFFF" points="91.115,139.775 91.115,160.229 106.405,150.001 	"/>
	<polygon fill="#FFFFFF" points="143.89,124.929 143.89,96.426 96.009,128.344 117.397,142.652 	"/>
	<polygon fill="#FFFFFF" points="203.993,128.344 156.111,96.426 156.111,124.929 182.606,142.652 	"/>
	<polygon fill="#FFFFFF" points="96.009,171.658 143.89,203.578 143.89,175.073 117.397,157.355 	"/>
	<polygon fill="#FFFFFF" points="156.111,175.073 156.111,203.578 203.993,171.658 182.606,157.355 	"/>
	<polygon fill="#FFFFFF" points="149.999,135.544 128.387,150.001 149.999,164.459 171.614,150.001 	"/>
	<path fill="#FFFFFF" d="M149.999,35C86.489,35,35,86.487,35,150.001C35,213.517,86.489,265,149.999,265
		C213.515,265,265,213.517,265,150.001C265,86.487,213.515,35,149.999,35z M221.105,171.666c0,0.27-0.02,0.535-0.054,0.801
		c-0.015,0.086-0.034,0.176-0.049,0.262c-0.032,0.173-0.062,0.345-0.107,0.513c-0.025,0.102-0.063,0.198-0.095,0.295
		c-0.049,0.15-0.097,0.301-0.157,0.449c-0.041,0.101-0.092,0.198-0.137,0.296c-0.065,0.139-0.133,0.273-0.207,0.408
		c-0.055,0.094-0.117,0.187-0.175,0.28c-0.082,0.128-0.167,0.25-0.258,0.37c-0.067,0.094-0.137,0.18-0.211,0.266
		c-0.096,0.113-0.197,0.225-0.304,0.328c-0.08,0.083-0.159,0.165-0.243,0.241c-0.11,0.101-0.229,0.197-0.347,0.29
		c-0.09,0.072-0.18,0.143-0.275,0.21c-0.035,0.022-0.067,0.053-0.104,0.075l-64.993,43.331c-1.026,0.685-2.208,1.027-3.392,1.027
		c-1.18,0-2.362-0.343-3.388-1.027L81.615,176.75c-0.034-0.022-0.066-0.053-0.099-0.075c-0.096-0.067-0.188-0.138-0.277-0.21
		c-0.12-0.093-0.236-0.189-0.346-0.29c-0.083-0.076-0.165-0.158-0.246-0.241c-0.105-0.104-0.206-0.215-0.304-0.328
		c-0.071-0.086-0.143-0.172-0.209-0.266c-0.09-0.12-0.176-0.242-0.257-0.37c-0.062-0.094-0.12-0.187-0.176-0.28
		c-0.075-0.135-0.142-0.27-0.208-0.408c-0.046-0.098-0.093-0.195-0.136-0.296c-0.06-0.148-0.111-0.299-0.158-0.449
		c-0.034-0.097-0.067-0.193-0.095-0.295c-0.045-0.168-0.075-0.34-0.107-0.513c-0.015-0.086-0.038-0.176-0.049-0.262
		c-0.035-0.266-0.056-0.531-0.056-0.801v-43.329c0-0.27,0.021-0.535,0.056-0.797c0.011-0.09,0.034-0.177,0.049-0.266
		c0.032-0.172,0.062-0.345,0.107-0.513c0.028-0.101,0.061-0.197,0.095-0.295c0.047-0.149,0.098-0.299,0.158-0.445
		c0.043-0.102,0.09-0.202,0.136-0.299c0.066-0.138,0.133-0.273,0.208-0.403c0.056-0.098,0.114-0.191,0.176-0.285
		c0.081-0.126,0.167-0.25,0.257-0.37c0.066-0.09,0.138-0.18,0.209-0.266c0.099-0.112,0.199-0.225,0.304-0.33
		c0.081-0.082,0.162-0.165,0.246-0.239c0.11-0.101,0.226-0.198,0.346-0.292c0.09-0.071,0.182-0.142,0.277-0.21
		c0.033-0.021,0.065-0.052,0.099-0.075l64.996-43.33c2.052-1.369,4.726-1.369,6.78,0l64.993,43.33
		c0.036,0.023,0.068,0.053,0.104,0.075c0.096,0.068,0.186,0.139,0.275,0.21c0.118,0.094,0.236,0.19,0.347,0.292
		c0.084,0.075,0.163,0.158,0.243,0.239c0.106,0.105,0.208,0.218,0.304,0.33c0.074,0.086,0.144,0.176,0.211,0.266
		c0.091,0.12,0.176,0.244,0.258,0.37c0.058,0.093,0.12,0.187,0.175,0.285c0.074,0.13,0.142,0.266,0.207,0.403
		c0.045,0.098,0.096,0.198,0.137,0.299c0.061,0.146,0.108,0.296,0.157,0.445c0.031,0.098,0.069,0.195,0.095,0.295
		c0.045,0.168,0.075,0.341,0.107,0.513c0.015,0.089,0.034,0.176,0.049,0.266c0.034,0.262,0.054,0.527,0.054,0.797V171.666z"/>
	<polygon fill="#FFFFFF" points="208.886,160.229 208.886,139.775 193.599,150.001 	"/>
</g>
</svg>
