<?xml version="1.0" encoding="utf-8"?>
<!-- Generator: Adobe Illustrator 16.0.4, SVG Export Plug-In . SVG Version: 6.00 Build 0)  -->
<!DOCTYPE svg PUBLIC "-//W3C//DTD SVG 1.1//EN" "http://www.w3.org/Graphics/SVG/1.1/DTD/svg11.dtd" [
	<!ENTITY ns_flows "http://ns.adobe.com/Flows/1.0/">
	<!ENTITY ns_extend "http://ns.adobe.com/Extensibility/1.0/">
	<!ENTITY ns_ai "http://ns.adobe.com/AdobeIllustrator/10.0/">
	<!ENTITY ns_graphs "http://ns.adobe.com/Graphs/1.0/">
]>
<svg version="1.1" id="Layer" xmlns:x="&ns_extend;" xmlns:i="&ns_ai;" xmlns:graph="&ns_graphs;"
	 xmlns="http://www.w3.org/2000/svg" xmlns:xlink="http://www.w3.org/1999/xlink" xmlns:a="http://ns.adobe.com/AdobeSVGViewerExtensions/3.0/"
	 x="0px" y="0px" width="240px" height="144px" viewBox="0 0 240 144" enable-background="new 0 0 240 144" xml:space="preserve">
<path id="dribbble" fill="#FFFFFF" d="M201.62,83.58c-6.843,11.602-17.681,8.234-20.935,5.6c-1.386,0.939-3.813,3-7.055,2.762
	c-6.896-0.506-9.365-10.362-9.365-10.362c0.049,0.039-2.056,0.726-3.191,0.713c-0.016,2.892-2.514,9.796-9.258,9.708
	c-7.566-0.1-9.105-11.372-9.105-11.372s-0.753,1.045-3.615,2.087c0.146-2.22,0.039,8.947-9.031,9.111
	c-7.17,0.13-9.104-11.373-9.104-11.373s-1.244,1.293-3.654,1.74c0.153-2.256-0.096,9.67-9.167,9.633
	c-6.13-0.025-8.224-7.086-8.062-8.065c0.208-1.247-2.072,8.241-8.025,8.093c-2.458-0.071-4.289-1.851-5.438-4.223
	c-1.539,1.76-3.773,4.223-6.28,4.223c-4.498,0-6.481-3.763-6.146-14.508c0.028-1.275-0.063-1.777-1.331-1.968
	c-0.76-0.127-1.54-0.368-2.364-0.494c-0.264,0.882-2.504,16.685-10.208,16.983c-2.584,0.102-3.998-2.139-5.158-3.801
	c-1.778,2.354-4.127,3.873-7.473,3.873c-5.667,0-9.528-4.58-9.528-10.23s3.861-10.233,9.528-10.233c1.002,0,1.283,0.144,2.199,0.411
	c-1.883-17.14,2.563-19.818,6.453-19.818c3.733,0,10.111,8.666,1.136,30.646c1.993,6.557,6.289,6.188,8.354-7.311
	c0.42-2.743-0.704-6.446,1.044-6.962c3.194-0.944,3.533,1.889,5.031,2.361c1.583,0.499,2.507,0.45,4.028,0.768
	c2.597,0.508,3.611,1.904,3.294,5.011c-0.38,3.934-1.044,9.657,0.983,10.355c1.462,0.506,4.131-2.525,4.599-4.185
	c0.469-1.659,0.566-2.228,0.608-3.442c0.063-2.602,0.143-4.508,0.586-6.475c0.19-0.761,0.406-1.265,1.267-1.3
	c0.708-0.017,2.004-0.231,2.574,0.213c0.76,0.57,0.665,1.149,0.578,2.675c-0.884,21.747,5.92,10.893,7.949,2.198
	c-0.723-9.83-0.227-24.375,5.933-24.619c3.204-0.126,4.62,2.439,4.775,4.355c0.44,5.41-2.027,14.372-5.273,20.399
	c-1.856,12.298,8.111,14.728,9.705,4.912c-2.607-1.239-5.426-6.258-3.132-8.704c1.287-1.372,6.642,0.6,6.73,4.9
	c2.627-0.702,2.979-2.186,3.014-1.94c-0.722-9.83-0.052-23.678,6.108-23.922c3.203-0.126,4.619,2.439,4.773,4.355
	c0.441,5.41-2.025,14.372-5.271,20.399c-1.855,12.298,8.111,14.728,9.705,4.912c-1.932-0.372-6.006-5.709-3.655-8.704
	c1.257-1.599,6.594,1.729,7.19,5.042c2.523-0.714,2.865-2.149,2.902-1.907c-0.723-9.831-0.053-23.68,6.106-23.924
	c3.202-0.127,4.62,2.439,4.774,4.354c0.44,5.411-2.027,14.372-5.271,20.398c-1.855,12.297,8.109,14.729,9.703,4.913
	c-2.651-0.442-6.424-6.077-3.389-8.96c1.213-1.152,5.846,1.84,6.93,5.249c1.508-0.058,2.445-0.577,2.646-0.629
	c-2.405-11.54-0.614-25.385,6.013-25.5c3.58-0.062,7.082,1.937,5.545,12.914c-1.467,10.476-6.74,14.871-6.729,14.938
	c0.307,1.254,3.014,11.756,9.827,6.215c-0.354-0.799-0.707-1.614-0.903-2.604c-1.129-5.758,1.088-12.261,7.118-13.313
	c3.454-0.602,6.71,1.08,7.224,4.872c0.848,6.205-4.756,10.699-6.887,11.674c-0.953-0.543,8.65,5.617,14.35-6.727
	c0.33-0.705,0.729-0.646,1.246-0.281C200.509,79.947,202.585,81.914,201.62,83.58z M51.777,80.186
	c-0.291-0.867-0.886-2.778-1.096-3.605c-1.159-1.008-1.986-1.172-3.474-1.172c-3.306,0-5.252,3.057-5.252,6.354
	s2.12,6.354,5.426,6.354c2.866,0,5.046-1.948,5.711-4.705C52.626,82.333,52.165,81.344,51.777,80.186z M56.224,56.605
	c-2.323,0-3.111,5.542-2.958,10.27c0.135,4.18,1.303,7.859,1.909,9.508c0.154,0.207,0.125,0.072,0.263,0.292
	C59.471,67.838,57.799,56.605,56.224,56.605z M104.602,56.78c-3.003-0.344-2.984,12.163-2.611,14.97
	C103.55,69.254,106.259,57.452,104.602,56.78z M126.527,56.78c-3.004-0.344-2.982,12.163-2.609,14.97
	C125.477,69.254,128.186,57.452,126.527,56.78z M148.279,56.954c-3.002-0.344-2.983,12.164-2.609,14.97
	C147.229,69.429,149.938,57.625,148.279,56.954z M169.684,56.048c-4.677,0.939-3.588,16.537-2.877,19.272
	C172.316,67.751,172.432,55.763,169.684,56.048z M187.217,75.539c-0.236-0.994-1.428-1.525-2.248-1.395
	c-2.349,0.319-4.627,3.246-3.744,7.699c0.195,0.992,0.688,1.904,0.68,1.875C187.16,80.191,187.607,77.414,187.217,75.539z
	 M88.157,68.094c-1.875,0-3.394-1.52-3.394-3.395c0-1.874,1.519-3.394,3.394-3.394c1.874,0,3.394,1.52,3.394,3.394
	C91.55,66.574,90.03,68.094,88.157,68.094z"/>
</svg>
