<?xml version="1.0" encoding="utf-8"?>
<!-- Generator: Adobe Illustrator 16.0.4, SVG Export Plug-In . SVG Version: 6.00 Build 0)  -->
<!DOCTYPE svg PUBLIC "-//W3C//DTD SVG 1.1//EN" "http://www.w3.org/Graphics/SVG/1.1/DTD/svg11.dtd" [
	<!ENTITY ns_flows "http://ns.adobe.com/Flows/1.0/">
	<!ENTITY ns_extend "http://ns.adobe.com/Extensibility/1.0/">
	<!ENTITY ns_ai "http://ns.adobe.com/AdobeIllustrator/10.0/">
	<!ENTITY ns_graphs "http://ns.adobe.com/Graphs/1.0/">
]>
<svg version="1.1" id="Layer" xmlns:x="&ns_extend;" xmlns:i="&ns_ai;" xmlns:graph="&ns_graphs;"
	 xmlns="http://www.w3.org/2000/svg" xmlns:xlink="http://www.w3.org/1999/xlink" xmlns:a="http://ns.adobe.com/AdobeSVGViewerExtensions/3.0/"
	 x="0px" y="0px" width="240px" height="144px" viewBox="0 0 240 144" enable-background="new 0 0 240 144" xml:space="preserve">
<g id="Ball_1_">
	<defs>
		<path id="SVGID_1_" d="M120,242C26.136,242-50.228,165.738-50.228,72c0-93.739,76.364-170,170.228-170
			c93.863,0,170.227,76.261,170.227,170C290.227,165.738,213.863,242,120,242L120,242z M263.56,95.271
			c-4.973-1.57-45.002-13.492-90.566-6.208c19.019,52.191,26.758,94.698,28.248,103.53
			C233.859,170.566,257.081,135.674,263.56,95.271L263.56,95.271z M176.796,205.889c-2.162-12.741-10.604-57.141-31.018-110.115
			c-0.318,0.106-0.64,0.212-0.959,0.322c-82.012,28.541-111.45,85.339-114.068,90.681c24.654,19.197,55.635,30.652,89.249,30.652
			C140.141,217.429,159.34,213.314,176.796,205.889L176.796,205.889z M11.979,169.312c3.293-5.633,43.199-71.615,118.188-95.822
			c1.894-0.612,3.807-1.188,5.729-1.728c-3.648-8.249-7.625-16.508-11.788-24.642C51.495,68.822-18.964,67.915-25.325,67.785
			c-0.045,1.474-0.076,2.952-0.076,4.437C-25.401,109.517-11.244,143.568,11.979,169.312L11.979,169.312z M-22.329,42.481
			c6.503,0.085,66.407,0.346,134.42-17.691C88-17.979,62.017-53.938,58.184-59.188C17.505-40.027-12.901-2.577-22.329,42.481
			L-22.329,42.481z M85.926-68.948c4.019,5.374,30.427,41.288,54.254,85.005c51.702-19.353,73.591-48.733,76.204-52.452
			c-25.676-22.75-59.44-36.59-96.385-36.59C108.269-72.984,96.86-71.579,85.926-68.948L85.926-68.948z M232.548-19.604
			c-3.062,4.142-27.43,35.334-81.188,57.254c3.382,6.916,6.626,13.951,9.646,21.032c1.069,2.51,2.112,5.007,3.132,7.494
			c48.382-6.076,96.452,3.661,101.245,4.674C265.063,36.578,252.799,5.105,232.548-19.604L232.548-19.604z"/>
	</defs>
	<clipPath id="SVGID_2_">
		<use xlink:href="#SVGID_1_"  overflow="visible"/>
	</clipPath>
	
		<radialGradient id="Ball_2_" cx="120" cy="72" r="98.9545" gradientTransform="matrix(1 0 0 0.65 0 25.2)" gradientUnits="userSpaceOnUse">
		<stop  offset="0" style="stop-color:#C61B5F"/>
		<stop  offset="1" style="stop-color:#C61B5F;stop-opacity:0"/>
		<a:midPointStop  offset="0" style="stop-color:#C61B5F"/>
		<a:midPointStop  offset="0.7" style="stop-color:#C61B5F"/>
		<a:midPointStop  offset="1" style="stop-color:#C61B5F;stop-opacity:0"/>
	</radialGradient>
	
		<rect id="Ball" clip-path="url(#SVGID_2_)" fill-rule="evenodd" clip-rule="evenodd" fill="url(#Ball_2_)" width="240" height="144"/>
</g>
</svg>
