<?xml version="1.0" encoding="utf-8"?>
<!-- Generator: Adobe Illustrator 16.0.4, SVG Export Plug-In . SVG Version: 6.00 Build 0)  -->
<!DOCTYPE svg PUBLIC "-//W3C//DTD SVG 1.1//EN" "http://www.w3.org/Graphics/SVG/1.1/DTD/svg11.dtd" [
	<!ENTITY ns_flows "http://ns.adobe.com/Flows/1.0/">
	<!ENTITY ns_extend "http://ns.adobe.com/Extensibility/1.0/">
	<!ENTITY ns_ai "http://ns.adobe.com/AdobeIllustrator/10.0/">
	<!ENTITY ns_graphs "http://ns.adobe.com/Graphs/1.0/">
]>
<svg version="1.1" id="Layer" xmlns:x="&ns_extend;" xmlns:i="&ns_ai;" xmlns:graph="&ns_graphs;"
	 xmlns="http://www.w3.org/2000/svg" xmlns:xlink="http://www.w3.org/1999/xlink" xmlns:a="http://ns.adobe.com/AdobeSVGViewerExtensions/3.0/"
	 x="0px" y="0px" width="240px" height="144px" viewBox="0 0 240 144" enable-background="new 0 0 240 144" xml:space="preserve">
<rect id="Background" fill="#EA4C89" width="240" height="144"/>
<g id="Ball_1_">
	<defs>
		<path id="SVGID_1_" d="M119,241C25.136,241-51.228,164.738-51.228,71c0-93.739,76.364-170,170.228-170
			c93.863,0,170.227,76.261,170.227,170C289.227,164.738,212.863,241,119,241L119,241z M262.56,94.271
			c-4.973-1.57-45.002-13.492-90.566-6.208c19.019,52.191,26.758,94.698,28.248,103.53
			C232.859,169.566,256.081,134.674,262.56,94.271L262.56,94.271z M175.796,204.889c-2.162-12.741-10.604-57.141-31.018-110.115
			c-0.318,0.106-0.64,0.212-0.959,0.322c-82.012,28.541-111.45,85.339-114.068,90.681c24.654,19.197,55.635,30.652,89.249,30.652
			C139.141,216.429,158.34,212.314,175.796,204.889L175.796,204.889z M10.979,168.312c3.293-5.633,43.199-71.615,118.188-95.822
			c1.894-0.612,3.807-1.188,5.729-1.728c-3.648-8.249-7.625-16.508-11.788-24.642C50.495,67.822-19.964,66.915-26.325,66.785
			c-0.045,1.474-0.076,2.952-0.076,4.437C-26.401,108.517-12.244,142.568,10.979,168.312L10.979,168.312z M-23.329,41.481
			c6.503,0.085,66.407,0.346,134.42-17.691C87-18.979,61.017-54.938,57.184-60.188C16.505-41.027-13.901-3.577-23.329,41.481
			L-23.329,41.481z M84.926-69.948c4.019,5.374,30.427,41.288,54.254,85.005c51.702-19.353,73.591-48.733,76.204-52.452
			c-25.676-22.75-59.44-36.59-96.385-36.59C107.269-73.984,95.86-72.579,84.926-69.948L84.926-69.948z M231.548-20.604
			c-3.062,4.142-27.43,35.334-81.188,57.254c3.382,6.916,6.626,13.951,9.646,21.032c1.069,2.51,2.112,5.007,3.132,7.494
			c48.382-6.076,96.452,3.661,101.245,4.674C264.063,35.578,251.799,4.105,231.548-20.604L231.548-20.604z"/>
	</defs>
	<clipPath id="SVGID_2_">
		<use xlink:href="#SVGID_1_"  overflow="visible"/>
	</clipPath>
	
		<radialGradient id="Ball_2_" cx="119" cy="71" r="98.9545" gradientTransform="matrix(1 0 0 0.65 0 24.85)" gradientUnits="userSpaceOnUse">
		<stop  offset="0" style="stop-color:#C61B5F"/>
		<stop  offset="1" style="stop-color:#C61B5F;stop-opacity:0"/>
		<a:midPointStop  offset="0" style="stop-color:#C61B5F"/>
		<a:midPointStop  offset="0.7" style="stop-color:#C61B5F"/>
		<a:midPointStop  offset="1" style="stop-color:#C61B5F;stop-opacity:0"/>
	</radialGradient>
	
		<rect id="Ball" x="-1" y="-1" clip-path="url(#SVGID_2_)" fill-rule="evenodd" clip-rule="evenodd" fill="url(#Ball_2_)" width="240" height="144"/>
</g>
<path id="dribbble" fill="#FFFFFF" d="M199.62,80.58c-6.843,11.602-17.681,8.234-20.935,5.6c-1.387,0.939-3.813,3-7.056,2.762
	c-6.896-0.506-9.364-10.361-9.364-10.361c0.049,0.039-2.057,0.727-3.191,0.713c-0.016,2.893-2.514,9.796-9.258,9.708
	c-7.566-0.101-9.105-11.372-9.105-11.372s-0.753,1.045-3.615,2.087c0.146-2.22,0.039,8.947-9.031,9.111
	c-7.17,0.13-9.104-11.373-9.104-11.373s-1.244,1.293-3.654,1.739c0.153-2.256-0.096,9.67-9.167,9.634
	c-6.13-0.025-8.224-7.086-8.062-8.065c0.208-1.246-2.072,8.241-8.025,8.094c-2.458-0.071-4.289-1.852-5.438-4.224
	c-1.539,1.761-3.773,4.224-6.28,4.224c-4.498,0-6.481-3.764-6.146-14.508c0.028-1.275-0.063-1.777-1.331-1.969
	c-0.76-0.127-1.54-0.368-2.364-0.494C68.23,72.768,65.99,88.57,58.286,88.868c-2.584,0.102-3.998-2.14-5.158-3.802
	c-1.778,2.354-4.127,3.873-7.473,3.873c-5.667,0-9.528-4.58-9.528-10.229s3.861-10.233,9.528-10.233
	c1.002,0,1.283,0.144,2.199,0.411c-1.883-17.14,2.563-19.818,6.453-19.818c3.733,0,10.111,8.666,1.136,30.646
	c1.993,6.558,6.289,6.188,8.354-7.312c0.42-2.742-0.704-6.445,1.044-6.961c3.194-0.944,3.533,1.889,5.031,2.361
	c1.583,0.499,2.507,0.45,4.028,0.768c2.597,0.508,3.611,1.905,3.294,5.011c-0.38,3.935-1.044,9.657,0.983,10.354
	c1.462,0.506,4.131-2.524,4.599-4.185c0.469-1.659,0.566-2.228,0.608-3.442c0.063-2.602,0.143-4.508,0.586-6.475
	c0.19-0.761,0.406-1.265,1.267-1.3c0.708-0.017,2.004-0.231,2.574,0.213c0.76,0.57,0.665,1.149,0.578,2.675
	c-0.884,21.747,5.92,10.893,7.949,2.198c-0.723-9.83-0.227-24.375,5.933-24.619c3.204-0.126,4.62,2.439,4.775,4.355
	c0.44,5.41-2.027,14.372-5.273,20.399c-1.856,12.298,8.111,14.728,9.705,4.912c-2.607-1.239-5.426-6.258-3.132-8.704
	c1.287-1.372,6.642,0.6,6.73,4.9c2.627-0.702,2.979-2.186,3.014-1.94c-0.722-9.83-0.052-23.678,6.108-23.922
	c3.202-0.126,4.618,2.439,4.772,4.355c0.441,5.41-2.025,14.372-5.271,20.399c-1.854,12.298,8.11,14.728,9.704,4.912
	c-1.932-0.372-6.006-5.709-3.654-8.704c1.257-1.599,6.594,1.729,7.189,5.042c2.523-0.714,2.865-2.149,2.902-1.907
	c-0.723-9.831-0.053-23.68,6.106-23.924c3.202-0.127,4.62,2.439,4.774,4.354c0.439,5.411-2.027,14.372-5.271,20.398
	c-1.855,12.297,8.109,14.729,9.703,4.913c-2.651-0.442-6.424-6.077-3.389-8.96c1.213-1.152,5.846,1.84,6.93,5.249
	c1.508-0.058,2.445-0.577,2.646-0.629c-2.405-11.54-0.614-25.385,6.013-25.5c3.58-0.062,7.082,1.937,5.545,12.914
	c-1.467,10.476-6.739,14.871-6.729,14.938c0.307,1.254,3.014,11.756,9.827,6.215c-0.354-0.799-0.707-1.614-0.903-2.604
	c-1.129-5.758,1.088-12.261,7.118-13.313c3.454-0.602,6.71,1.08,7.224,4.873c0.849,6.205-4.756,10.699-6.887,11.674
	c-0.953-0.543,8.65,5.617,14.35-6.727c0.33-0.705,0.729-0.646,1.246-0.281C198.509,76.947,200.585,78.914,199.62,80.58z
	 M49.777,77.186c-0.291-0.867-0.886-2.777-1.096-3.604c-1.159-1.008-1.986-1.172-3.474-1.172c-3.306,0-5.252,3.057-5.252,6.354
	c0,3.297,2.12,6.354,5.426,6.354c2.866,0,5.046-1.948,5.711-4.705C50.626,79.333,50.165,78.344,49.777,77.186z M54.224,53.605
	c-2.323,0-3.111,5.542-2.958,10.27c0.135,4.18,1.303,7.859,1.909,9.508c0.154,0.207,0.125,0.072,0.263,0.292
	C57.471,64.838,55.799,53.605,54.224,53.605z M102.602,53.78c-3.003-0.344-2.984,12.163-2.611,14.97
	C101.55,66.254,104.259,54.452,102.602,53.78z M124.527,53.78c-3.004-0.344-2.982,12.163-2.609,14.97
	C123.477,66.254,126.186,54.452,124.527,53.78z M146.279,53.954c-3.002-0.344-2.983,12.164-2.609,14.97
	C145.229,66.429,147.938,54.625,146.279,53.954z M167.684,53.048c-4.677,0.939-3.588,16.537-2.877,19.272
	C170.316,64.751,170.432,52.763,167.684,53.048z M185.217,72.539c-0.236-0.994-1.428-1.525-2.248-1.395
	c-2.349,0.318-4.627,3.246-3.744,7.698c0.195,0.992,0.688,1.904,0.68,1.875C185.16,77.191,185.607,74.414,185.217,72.539z
	 M86.157,65.094c-1.875,0-3.394-1.52-3.394-3.395c0-1.874,1.519-3.394,3.394-3.394c1.874,0,3.394,1.52,3.394,3.394
	C89.55,63.574,88.03,65.094,86.157,65.094z"/>
</svg>
