<?xml version="1.0" encoding="utf-8"?>
<!-- Generator: Adobe Illustrator 16.0.4, SVG Export Plug-In . SVG Version: 6.00 Build 0)  -->
<!DOCTYPE svg PUBLIC "-//W3C//DTD SVG 1.1//EN" "http://www.w3.org/Graphics/SVG/1.1/DTD/svg11.dtd" [
	<!ENTITY ns_flows "http://ns.adobe.com/Flows/1.0/">
	<!ENTITY ns_extend "http://ns.adobe.com/Extensibility/1.0/">
	<!ENTITY ns_ai "http://ns.adobe.com/AdobeIllustrator/10.0/">
	<!ENTITY ns_graphs "http://ns.adobe.com/Graphs/1.0/">
]>
<svg version="1.1" id="ELG" xmlns:x="&ns_extend;" xmlns:i="&ns_ai;" xmlns:graph="&ns_graphs;"
	 xmlns="http://www.w3.org/2000/svg" xmlns:xlink="http://www.w3.org/1999/xlink" xmlns:a="http://ns.adobe.com/AdobeSVGViewerExtensions/3.0/"
	 x="0px" y="0px" width="300px" height="300px" viewBox="0 0 300 300" enable-background="new 0 0 300 300" xml:space="preserve">
<g id="Icon"  a:adobe-blending-mode="multiply">
	<path fill-rule="evenodd" clip-rule="evenodd" fill="#FFFFFF"  a:adobe-blending-mode="normal" d="M92.5,299
		c-31.749,0-52.724,0-72.135-19.411C1,260.224,1,239.249,1,207.5v-115c0-31.749,0-52.723,19.412-72.135C39.778,1,60.752,1,92.5,1
		h115c31.749,0,52.724,0,72.135,19.412C299,39.776,299,60.751,299,92.5v115c0,31.749,0,52.724-19.411,72.135
		C260.223,299,239.248,299,207.5,299H92.5z"/>
	<path fill="#CCCCCC"  a:adobe-blending-mode="normal" d="M207.5,2c31.499,0,52.31,0,71.428,19.119C298,40.191,298,61,298,92.5v115
		c0,31.499,0,52.31-19.118,71.428C259.809,298,238.999,298,207.5,298h-115c-31.5,0-52.309,0-71.428-19.118
		C2,259.81,2,238.999,2,207.5v-115c0-31.499,0-52.309,19.119-71.428C40.192,2,61.001,2,92.5,2H207.5 M207.5,0h-115
		C59.903,0,39.238,0.126,19.705,19.658C0.124,39.239,0,60.004,0,92.5v115c0,32.598,0.128,53.266,19.658,72.796
		C39.249,299.887,60.005,300,92.5,300h115c32.598,0,53.259-0.122,72.796-19.658C299.873,260.765,300,239.995,300,207.5v-115
		c0-32.597-0.125-53.263-19.658-72.795C260.753,0.115,239.995,0,207.5,0L207.5,0z"/>
</g>
<g id="Schulkreuz">

		<line id="Mitte_horizontal" fill="none" stroke="#7F1734" stroke-width="6.3889" stroke-miterlimit="10" x1="150" y1="35" x2="150" y2="265"/>

		<line id="Mitte_vertikal" fill="none" stroke="#7F1734" stroke-width="6.3889" stroke-miterlimit="10" x1="35" y1="150" x2="265" y2="150"/>

		<rect id="Horizontal" x="38.199" y="94.099" fill="none" stroke="#7F1734" stroke-width="6.3889" stroke-miterlimit="10" width="223.603" height="111.801"/>

		<rect id="Vertikal" x="94.099" y="38.199" fill="none" stroke="#7F1734" stroke-width="6.3889" stroke-miterlimit="10" width="111.801" height="223.603"/>

		<line id="Diagonale_1_außen" fill="none" stroke="#7F1734" stroke-width="6.3889" stroke-miterlimit="10" x1="150" y1="38.199" x2="261.802" y2="150"/>

		<line id="Diagonale_2_außen" fill="none" stroke="#7F1734" stroke-width="6.3889" stroke-miterlimit="10" x1="261.802" y1="150" x2="150" y2="261.802"/>

		<line id="Diagonale_3_außen" fill="none" stroke="#7F1734" stroke-width="6.3889" stroke-miterlimit="10" x1="150" y1="261.802" x2="38.199" y2="150"/>

		<line id="Diagonale_4_außen" fill="none" stroke="#7F1734" stroke-width="6.3889" stroke-miterlimit="10" x1="38.199" y1="150" x2="150" y2="38.199"/>

		<line id="Diagonale_1_innen" fill="none" stroke="#7F1734" stroke-width="6.3889" stroke-miterlimit="10" x1="150" y1="94.099" x2="205.9" y2="150"/>

		<line id="Diagonale_2_innen" fill="none" stroke="#7F1734" stroke-width="6.3889" stroke-miterlimit="10" x1="205.9" y1="150" x2="150" y2="205.9"/>

		<line id="Diagonale_3_innen" fill="none" stroke="#7F1734" stroke-width="6.3889" stroke-miterlimit="10" x1="150" y1="205.9" x2="94.099" y2="150"/>

		<line id="Diagonale_4_innen" fill="none" stroke="#7F1734" stroke-width="6.3889" stroke-miterlimit="10" x1="94.099" y1="150" x2="150" y2="94.099"/>
	<polygon id="Fläche" fill="#7F1734" points="150,205.9 150,150 205.9,150 	"/>
</g>
</svg>
