<svg width="120" height="120" xmlns="http://www.w3.org/2000/svg" fill-rule="evenodd" clip-rule="evenodd" stroke-linejoin="round" stroke-miterlimit="1.414"><path d="M40.854 0h38.3c13.828 0 17.708 0 23.662 2.001a25.53 25.53 0 0 1 15.187 15.187c2.002 5.954 2.002 9.834 2.002 23.663V79.15c0 13.829 0 17.71-2.002 23.663A25.525 25.525 0 0 1 102.816 118c-5.954 2.002-9.834 2.002-23.662 2.002h-38.3c-13.829 0-17.709 0-23.663-2.002a25.525 25.525 0 0 1-15.187-15.187C.003 96.86.003 92.979.003 79.15V40.851c0-13.829 0-17.709 2.001-23.663A25.53 25.53 0 0 1 17.191 2.001C23.145 0 27.025 0 40.854 0z" fill="#fff"/><path d="M20 60h80.001" fill="#ebebeb" stroke="#7f1734" stroke-width="2"/><path d="M60 20v80" fill="#ebebeb" stroke="#7f1734" stroke-width="2.01"/><path d="M101 81H19V39h82v42zM21 41v38h78V41H21z" fill="#7f1734"/><path d="M81 101H39V19h42v82zM41 21v78h38V21H41z" fill="#7f1734"/><path d="M60 20l40 40-40 40-40-40 40-40z" fill="none" stroke="#7f1734" stroke-width="2" stroke-linejoin="bevel"/><path d="M60 40l20 20-20 20-20-20 20-20z" fill="none" stroke="#7f1734" stroke-width="2" stroke-linejoin="miter"/><path d="M60 60h20L60 80V60z" fill="#7f1734"/></svg>