<?xml version="1.0" standalone="no"?><!DOCTYPE svg PUBLIC "-//W3C//DTD SVG 1.1//EN" "http://www.w3.org/Graphics/SVG/1.1/DTD/svg11.dtd"><svg width="100%" height="100%" viewBox="0 0 240 144" version="1.1" xmlns="http://www.w3.org/2000/svg" xmlns:xlink="http://www.w3.org/1999/xlink" xml:space="preserve" style="fill-rule:evenodd;clip-rule:evenodd;stroke-linejoin:round;stroke-miterlimit:1.41421;"><g id="GitHub"><path d="M74.533,69.12l-12.429,0c-0.321,0 -0.581,0.261 -0.581,0.582l0,6.076c0,0.321 0.26,0.582 0.581,0.582l4.848,0l0,7.55c0,0 -1.088,0.371 -4.098,0.371c-3.551,0 -8.512,-1.298 -8.512,-12.206c0,-10.91 5.165,-12.346 10.015,-12.346c4.198,0 6.007,0.739 7.157,1.095c0.362,0.111 0.696,-0.249 0.696,-0.57l1.387,-5.871c0,-0.151 -0.051,-0.331 -0.222,-0.454c-0.468,-0.334 -3.319,-1.929 -10.521,-1.929c-8.298,0 -16.809,3.53 -16.809,20.5c0,16.971 9.745,19.5 17.956,19.5c6.799,0 10.924,-2.906 10.924,-2.906c0.17,-0.093 0.188,-0.331 0.188,-0.44l0,-18.952c0,-0.321 -0.259,-0.582 -0.58,-0.582Z" style="fill:#fff;fill-rule:nonzero;"/><path d="M138.588,54.034c0,-0.324 -0.256,-0.585 -0.577,-0.585l-6.998,0c-0.32,0 -0.58,0.261 -0.58,0.585c0,0.001 0.002,13.524 0.002,13.524l-10.909,0l0,-13.524c0,-0.324 -0.257,-0.585 -0.577,-0.585l-6.998,0c-0.319,0 -0.578,0.261 -0.578,0.585l0,36.62c0,0.323 0.259,0.586 0.578,0.586l6.998,0c0.32,0 0.577,-0.263 0.577,-0.586l0,-15.664l10.909,0c0,0 -0.019,15.663 -0.019,15.664c0,0.323 0.26,0.586 0.579,0.586l7.016,0c0.32,0 0.576,-0.263 0.577,-0.586l0,-36.62Z" style="fill:#fff;fill-rule:nonzero;"/><path d="M87.739,58.839c0,-2.52 -2.02,-4.556 -4.513,-4.556c-2.49,0 -4.512,2.036 -4.512,4.556c0,2.517 2.022,4.559 4.512,4.559c2.493,0 4.513,-2.042 4.513,-4.559Z" style="fill:#fff;fill-rule:nonzero;"/><path d="M87.239,82.929c0,-0.938 0,-16.904 0,-16.904c0,-0.321 -0.259,-0.583 -0.579,-0.583l-6.976,0c-0.32,0 -0.607,0.33 -0.607,0.651c0,0 0,20.341 0,24.218c0,0.712 0.444,0.924 1.018,0.924c0,0 2.977,0 6.285,0c0.69,0 0.859,-0.339 0.859,-0.935c0,-1.298 0,-6.384 0,-7.371Z" style="fill:#fff;fill-rule:nonzero;"/><path d="M165.185,65.497l-6.945,0c-0.318,0 -0.578,0.262 -0.578,0.585l0,17.956c0,0 -1.764,1.291 -4.268,1.291c-2.504,0 -3.169,-1.136 -3.169,-3.588c0,-2.454 0,-15.659 0,-15.659c0,-0.323 -0.258,-0.585 -0.577,-0.585l-7.048,0c-0.319,0 -0.579,0.262 -0.579,0.585c0,0 0,9.563 0,16.845c0,7.283 4.059,9.064 9.643,9.064c4.58,0 8.274,-2.53 8.274,-2.53c0,0 0.176,1.333 0.255,1.492c0.08,0.157 0.287,0.316 0.511,0.316l4.484,-0.019c0.318,0 0.579,-0.263 0.579,-0.585l-0.002,-24.583c0,-0.323 -0.26,-0.585 -0.58,-0.585Z" style="fill:#fff;fill-rule:nonzero;"/><path d="M181.427,85.307c-2.409,-0.073 -4.043,-1.166 -4.043,-1.166l0,-11.597c0,0 1.612,-0.988 3.59,-1.165c2.501,-0.224 4.91,0.532 4.91,6.498c0,6.29 -1.087,7.532 -4.457,7.43ZM184.166,64.674c-3.944,0 -6.627,1.76 -6.627,1.76l0,-12.4c0,-0.324 -0.259,-0.585 -0.578,-0.585l-7.018,0c-0.319,0 -0.578,0.261 -0.578,0.585l0,36.62c0,0.323 0.259,0.586 0.579,0.586c0.001,0 4.868,0 4.869,0c0.22,0 0.386,-0.113 0.508,-0.311c0.121,-0.197 0.296,-1.688 0.296,-1.688c0,0 2.87,2.719 8.302,2.719c6.378,0 10.036,-3.235 10.036,-14.523c0,-11.288 -5.842,-12.763 -9.789,-12.763Z" style="fill:#fff;fill-rule:nonzero;"/><path d="M107.353,65.438l-5.25,0c0,0 -0.008,-6.933 -0.008,-6.935c0,-0.263 -0.135,-0.394 -0.438,-0.394l-7.154,0c-0.279,0 -0.428,0.123 -0.428,0.39l0,7.167c0,0 -3.585,0.865 -3.827,0.935c-0.242,0.07 -0.419,0.293 -0.419,0.558l0,4.504c0,0.324 0.258,0.585 0.578,0.585l3.668,0c0,0 0,4.71 0,10.835c0,8.047 5.645,8.838 9.454,8.838c1.741,0 3.823,-0.559 4.166,-0.686c0.208,-0.077 0.329,-0.292 0.329,-0.525l0.006,-4.955c0,-0.323 -0.273,-0.584 -0.581,-0.584c-0.305,0 -1.088,0.124 -1.894,0.124c-2.578,0 -3.452,-1.199 -3.452,-2.751c0,-1.55 0,-10.296 0,-10.296l5.25,0c0.32,0 0.579,-0.261 0.579,-0.585l0,-5.641c0,-0.323 -0.259,-0.584 -0.579,-0.584Z" style="fill:#fff;fill-rule:nonzero;"/></g></svg>