<?xml version="1.0" encoding="utf-8"?>
<!-- Generator: Adobe Illustrator 16.0.4, SVG Export Plug-In . SVG Version: 6.00 Build 0)  -->
<!DOCTYPE svg PUBLIC "-//W3C//DTD SVG 1.1//EN" "http://www.w3.org/Graphics/SVG/1.1/DTD/svg11.dtd" [
	<!ENTITY ns_flows "http://ns.adobe.com/Flows/1.0/">
	<!ENTITY ns_extend "http://ns.adobe.com/Extensibility/1.0/">
	<!ENTITY ns_ai "http://ns.adobe.com/AdobeIllustrator/10.0/">
	<!ENTITY ns_graphs "http://ns.adobe.com/Graphs/1.0/">
]>
<svg version="1.1" id="Inspiring_Online" xmlns:x="&ns_extend;" xmlns:i="&ns_ai;" xmlns:graph="&ns_graphs;"
	 xmlns="http://www.w3.org/2000/svg" xmlns:xlink="http://www.w3.org/1999/xlink" xmlns:a="http://ns.adobe.com/AdobeSVGViewerExtensions/3.0/"
	 x="0px" y="0px" width="32px" height="32px" viewBox="0 0 32 32" enable-background="new 0 0 32 32" xml:space="preserve">
<path id="Contacts" fill="none" stroke="#000000" stroke-width="0.75" stroke-linejoin="round" stroke-miterlimit="10" d="M13,27.5
	h5.999 M12.5,25.5h7 M12,23.5h8"/>
<path id="Lightbulb" fill-rule="evenodd" clip-rule="evenodd" d="M8.201,16.265c0.123,0.21,0.255,0.417,0.392,0.619
	c0.634,0.937,1.389,1.778,2.108,2.647c0.113,0.137,0.224,0.274,0.334,0.414c0.474,0.607,0.922,1.24,1.241,1.945
	c0.166,0.365,0.294,0.748,0.409,1.134c0.147,0.492,0.27,0.992,0.381,1.494c0.282,1.277,0.489,2.57,0.67,3.865l0.033,0.237L13.818,29
	h4.365c0.038-0.289,0.077-0.579,0.117-0.868c0.04-0.274,0.081-0.549,0.123-0.824c0.18-1.143,0.38-2.283,0.657-3.407
	c0.204-0.828,0.439-1.66,0.845-2.415c0.351-0.652,0.797-1.246,1.263-1.819c0.411-0.506,0.839-0.999,1.253-1.503
	c0.112-0.138,0.224-0.277,0.334-0.417c0.366-0.475,0.717-0.961,1.021-1.478c0.252,0.056,0.512,0.083,0.78,0.083
	c0.109,0,0.219-0.005,0.326-0.014c-0.2,0.381-0.426,0.749-0.667,1.106c-0.65,0.961-1.425,1.826-2.162,2.72
	c-0.108,0.132-0.214,0.264-0.32,0.396c-0.409,0.524-0.8,1.068-1.084,1.672c-0.182,0.387-0.313,0.797-0.431,1.207
	c-0.152,0.526-0.278,1.061-0.391,1.597c-0.309,1.481-0.532,2.979-0.721,4.48l-0.032,0.262L19.069,30h-6.137
	c-0.031-0.276-0.065-0.552-0.1-0.828c-0.039-0.3-0.079-0.599-0.121-0.897c-0.185-1.287-0.395-2.573-0.69-3.84
	c-0.088-0.378-0.184-0.754-0.294-1.125c-0.139-0.465-0.301-0.921-0.531-1.349c-0.321-0.596-0.733-1.138-1.158-1.662
	c-0.412-0.505-0.839-0.998-1.253-1.501c-0.117-0.144-0.232-0.289-0.347-0.435c-0.493-0.637-0.955-1.295-1.332-2.008L7.098,16.34
	c0.097,0.008,0.195,0.012,0.294,0.012C7.669,16.352,7.939,16.323,8.201,16.265L8.201,16.265z M6.251,9.859
	c0.191-0.881,0.502-1.735,0.923-2.532c0.541-1.026,1.263-1.955,2.121-2.735c0.831-0.755,1.789-1.37,2.824-1.808
	c0.794-0.336,1.632-0.568,2.486-0.687c0.377-0.053,0.756-0.082,1.137-0.094C15.87,2.001,15.999,2,16.128,2.001
	c0.423,0.008,0.845,0.037,1.265,0.096c0.935,0.131,1.85,0.396,2.708,0.785c1.205,0.544,2.298,1.331,3.198,2.299
	c0.847,0.91,1.524,1.979,1.98,3.136c0.197,0.501,0.354,1.017,0.467,1.542h-1.025c-0.156-0.647-0.386-1.276-0.682-1.872
	c-0.935-1.877-2.528-3.398-4.449-4.239c-0.71-0.31-1.459-0.527-2.224-0.644c-0.338-0.052-0.679-0.082-1.021-0.097
	C16.192,3.002,16.037,3,15.883,3.001c-0.344,0.006-0.686,0.028-1.027,0.071c-0.734,0.094-1.457,0.279-2.145,0.55
	c-1.109,0.438-2.126,1.099-2.979,1.932c-0.851,0.831-1.536,1.832-2,2.928C7.543,8.928,7.391,9.389,7.277,9.859H6.251L6.251,9.859z"
	/>
<path id="Globe" fill-rule="evenodd" clip-rule="evenodd" d="M22.684,16.396c-0.316,0.479-0.685,0.926-1.096,1.327
	c-0.714,0.697-1.557,1.26-2.475,1.647c-0.951,0.403-1.979,0.615-3.012,0.628c-1.036,0.013-2.072-0.174-3.036-0.554
	c-0.929-0.366-1.786-0.908-2.517-1.588c-0.47-0.438-0.887-0.932-1.239-1.469c0.048-0.024,0.096-0.051,0.144-0.078
	c0.169-0.098,0.332-0.208,0.484-0.331c0.288,0.437,0.622,0.842,0.996,1.208c0.647,0.631,1.411,1.141,2.243,1.492
	c0.862,0.364,1.793,0.558,2.728,0.568c0.939,0.012,1.878-0.157,2.752-0.502c0.842-0.331,1.619-0.823,2.28-1.439
	c0.424-0.394,0.799-0.838,1.116-1.32c0.126,0.1,0.26,0.192,0.396,0.276C22.527,16.311,22.605,16.354,22.684,16.396L22.684,16.396z
	 M22.742,9.331c-0.085-0.215-0.181-0.425-0.286-0.631c-0.718-1.402-1.896-2.552-3.314-3.235c-0.615-0.297-1.273-0.505-1.947-0.617
	c-0.334-0.055-0.67-0.085-1.009-0.096c-0.093-0.001-0.187-0.002-0.281-0.001c-0.339,0.006-0.676,0.031-1.011,0.083
	c-0.677,0.103-1.338,0.303-1.958,0.593c-1.374,0.641-2.53,1.718-3.27,3.041C9.505,8.756,9.364,9.054,9.244,9.361
	c-0.266,0.002-0.533,0.001-0.799,0c0.12-0.344,0.263-0.679,0.429-1.003c0.778-1.518,2.042-2.768,3.569-3.526
	c0.675-0.336,1.398-0.574,2.14-0.707c0.366-0.065,0.735-0.103,1.107-0.119C15.827,4.002,15.965,4,16.102,4.001
	c0.374,0.007,0.746,0.035,1.115,0.091c0.747,0.114,1.479,0.336,2.163,0.655c1.545,0.722,2.839,1.941,3.653,3.44
	c0.201,0.368,0.372,0.753,0.511,1.148C23.277,9.332,23.009,9.331,22.742,9.331L22.742,9.331z"/>
<path id="Equator" fill-rule="evenodd" clip-rule="evenodd" d="M21.024,11.625c-0.117,0.238-0.205,0.491-0.263,0.75h-9.556
	c-0.049-0.214-0.12-0.424-0.21-0.625c-0.019-0.043-0.038-0.084-0.059-0.125H21.024L21.024,11.625z"/>
<line id="Median" fill="none" stroke="#000000" stroke-width="0.75" stroke-linejoin="round" stroke-miterlimit="10" x1="15.999" y1="4.2" x2="15.999" y2="19.8"/>
<path id="Longitudes" fill-rule="evenodd" clip-rule="evenodd" d="M16.057,4.001l0.059,0.002l0.058,0.003L16.23,4.01l0.058,0.006
	l0.057,0.007l0.058,0.009l0.057,0.009l0.056,0.011l0.058,0.012l0.056,0.014l0.056,0.014l0.057,0.016l0.055,0.017l0.055,0.018
	l0.056,0.02l0.055,0.02l0.055,0.022l0.055,0.023l0.054,0.024l0.054,0.025l0.053,0.027l0.055,0.027l0.053,0.029l0.052,0.03
	l0.054,0.031l0.052,0.032l0.052,0.033l0.051,0.034l0.052,0.035l0.051,0.037l0.051,0.037l0.05,0.039l0.05,0.039L17.9,4.748
	l0.049,0.041l0.049,0.043l0.049,0.044l0.048,0.044l0.048,0.046l0.049,0.047l0.047,0.048l0.047,0.048l0.047,0.05l0.046,0.05
	l0.046,0.052l0.045,0.053l0.045,0.053l0.045,0.054l0.044,0.056l0.044,0.056l0.045,0.057l0.043,0.058l0.042,0.059l0.043,0.06
	l0.042,0.061l0.041,0.061l0.041,0.063l0.041,0.063l0.04,0.064l0.04,0.065l0.038,0.066l0.039,0.067l0.038,0.067l0.038,0.069
	l0.038,0.069l0.037,0.069l0.036,0.071l0.036,0.072l0.036,0.072l0.034,0.073l0.035,0.073l0.034,0.075l0.034,0.075l0.065,0.153
	l0.063,0.155l0.062,0.158l0.06,0.161l0.057,0.164l0.056,0.166l0.054,0.169l0.05,0.171l0.049,0.174l0.046,0.176l0.045,0.178
	l0.042,0.181l0.038,0.183l0.036,0.184l0.035,0.187l0.031,0.189l0.029,0.191l0.026,0.192l0.023,0.195l0.021,0.196l0.019,0.197
	l0.016,0.2l0.014,0.201l0.01,0.202l0.007,0.204l0.004,0.205L20.499,12l-0.002,0.206l-0.004,0.205l-0.007,0.204l-0.01,0.202
	l-0.014,0.201l-0.016,0.2l-0.019,0.197l-0.021,0.196l-0.023,0.195l-0.026,0.192l-0.029,0.191l-0.031,0.189l-0.035,0.187
	l-0.036,0.184l-0.038,0.183l-0.042,0.181l-0.045,0.178l-0.046,0.176l-0.049,0.174l-0.05,0.171l-0.054,0.169l-0.056,0.166
	l-0.057,0.164l-0.06,0.161l-0.062,0.158l-0.063,0.155l-0.065,0.152l-0.034,0.075l-0.034,0.075l-0.035,0.073l-0.034,0.073
	l-0.036,0.071l-0.036,0.072l-0.036,0.071l-0.037,0.068l-0.038,0.069l-0.038,0.069l-0.038,0.066l-0.039,0.067l-0.038,0.065
	l-0.04,0.065l-0.04,0.064l-0.041,0.062l-0.041,0.063l-0.041,0.061l-0.042,0.061l-0.043,0.061l-0.042,0.059l-0.043,0.059
	l-0.045,0.057l-0.044,0.056l-0.044,0.057l-0.045,0.054l-0.045,0.053l-0.045,0.054l-0.046,0.052l-0.046,0.05l-0.047,0.05
	l-0.047,0.048l-0.047,0.049l-0.049,0.047l-0.048,0.046l-0.048,0.044l-0.049,0.044l-0.049,0.043L17.9,19.252l-0.051,0.041
	l-0.05,0.039l-0.05,0.039l-0.051,0.037l-0.051,0.037l-0.052,0.034l-0.051,0.034l-0.052,0.033l-0.052,0.032l-0.054,0.03l-0.052,0.03
	l-0.053,0.029l-0.055,0.027l-0.053,0.026l-0.054,0.025l-0.054,0.023l-0.055,0.023l-0.055,0.021l-0.055,0.021l-0.056,0.02
	l-0.055,0.019l-0.055,0.017l-0.057,0.017l-0.056,0.014l-0.056,0.014l-0.058,0.013l-0.056,0.011l-0.057,0.009l-0.058,0.009
	l-0.057,0.007L16.23,19.99l-0.058,0.004l-0.058,0.003l-0.059,0.002h-0.058l-0.058-0.001l-0.058-0.002l-0.058-0.003l-0.057-0.004
	l-0.058-0.007l-0.057-0.007l-0.057-0.009l-0.057-0.009l-0.056-0.011l-0.057-0.013l-0.056-0.014l-0.056-0.014l-0.056-0.017
	l-0.055-0.017l-0.055-0.019l-0.055-0.02l-0.055-0.021l-0.055-0.021l-0.054-0.023l-0.054-0.023l-0.054-0.025l-0.053-0.026
	l-0.054-0.027l-0.053-0.029l-0.052-0.03l-0.053-0.03l-0.052-0.032l-0.052-0.033l-0.051-0.034l-0.051-0.035l-0.051-0.036
	l-0.051-0.037l-0.05-0.039l-0.05-0.039l-0.05-0.041l-0.049-0.041L14,19.167l-0.049-0.044l-0.048-0.044l-0.048-0.046l-0.048-0.047
	l-0.047-0.049l-0.047-0.048l-0.047-0.05l-0.046-0.05l-0.046-0.052l-0.045-0.054l-0.045-0.053l-0.045-0.054l-0.044-0.057
	l-0.044-0.056l-0.044-0.057l-0.043-0.059l-0.043-0.059l-0.042-0.061l-0.042-0.061l-0.041-0.061l-0.041-0.063l-0.041-0.062
	l-0.04-0.064l-0.04-0.065l-0.039-0.065l-0.039-0.067l-0.038-0.066l-0.038-0.069l-0.038-0.069l-0.037-0.068l-0.036-0.071
	l-0.037-0.072l-0.035-0.072l-0.035-0.072l-0.035-0.073l-0.034-0.075l-0.034-0.075l-0.066-0.152l-0.063-0.155l-0.062-0.158
	l-0.06-0.161l-0.057-0.164l-0.055-0.166l-0.054-0.169l-0.05-0.171l-0.049-0.174l-0.046-0.176l-0.044-0.178l-0.042-0.181
	l-0.039-0.183l-0.036-0.184l-0.035-0.187l-0.031-0.189l-0.029-0.191l-0.027-0.192L11.59,13.61l-0.021-0.196l-0.018-0.197l-0.016-0.2
	l-0.013-0.201l-0.01-0.202l-0.007-0.204L11.5,12.205l-0.001-0.206l0.001-0.206l0.005-0.205l0.007-0.204l0.01-0.202l0.013-0.201
	l0.016-0.2l0.018-0.197l0.021-0.196l0.024-0.195l0.027-0.192L11.67,9.81l0.031-0.189l0.035-0.187l0.036-0.184l0.039-0.183
	l0.042-0.181l0.044-0.178l0.046-0.176l0.049-0.174l0.05-0.171l0.054-0.169l0.055-0.166l0.057-0.164l0.06-0.161l0.062-0.158
	l0.063-0.155l0.066-0.153l0.034-0.075l0.034-0.075l0.035-0.073l0.035-0.073l0.035-0.072l0.037-0.072l0.036-0.071l0.037-0.069
	l0.038-0.069l0.038-0.069l0.038-0.067l0.039-0.067l0.039-0.066l0.04-0.065l0.04-0.064l0.041-0.062l0.041-0.063l0.041-0.061
	l0.042-0.061l0.042-0.06l0.043-0.059l0.043-0.058l0.044-0.057l0.044-0.056l0.044-0.056l0.045-0.054l0.045-0.053l0.045-0.053
	l0.046-0.052l0.046-0.05l0.047-0.05L13.76,5.06l0.047-0.048l0.048-0.047l0.048-0.046l0.048-0.044L14,4.831l0.049-0.043l0.049-0.041
	l0.05-0.041l0.05-0.039l0.05-0.039l0.051-0.037l0.051-0.037l0.051-0.035l0.051-0.034l0.052-0.033l0.052-0.032l0.053-0.031
	l0.052-0.03l0.053-0.029l0.054-0.027l0.053-0.027l0.054-0.025l0.054-0.024l0.054-0.023l0.055-0.022l0.055-0.02l0.055-0.02
	l0.055-0.018l0.055-0.017l0.056-0.016l0.056-0.014l0.056-0.014l0.057-0.012l0.056-0.011l0.057-0.009l0.057-0.009l0.057-0.007
	l0.058-0.006l0.057-0.004l0.058-0.003L15.941,4l0.058-0.001h0.058V4.001z M15.958,4.751h-0.041l-0.041,0.002l-0.041,0.003
	l-0.041,0.005l-0.04,0.005l-0.041,0.006l-0.04,0.006l-0.041,0.008l-0.04,0.009l-0.041,0.009l-0.04,0.011L15.47,4.826l-0.04,0.013
	l-0.04,0.013l-0.041,0.014l-0.04,0.016l-0.041,0.016l-0.04,0.017l-0.041,0.018l-0.04,0.019l-0.041,0.02l-0.041,0.021l-0.04,0.022
	l-0.041,0.023l-0.041,0.024l-0.041,0.025l-0.04,0.026L14.821,5.14L14.78,5.168l-0.04,0.029l-0.041,0.03l-0.041,0.032l-0.04,0.032
	l-0.041,0.033l-0.04,0.034l-0.041,0.035l-0.04,0.036l-0.04,0.037l-0.04,0.039l-0.04,0.039l-0.04,0.04l-0.04,0.041l-0.039,0.042
	l-0.04,0.043l-0.039,0.045L14.1,5.8l-0.039,0.046l-0.039,0.047l-0.038,0.048L13.945,5.99l-0.038,0.05L13.87,6.091l-0.038,0.052
	l-0.037,0.052l-0.037,0.054l-0.037,0.055l-0.036,0.055l-0.036,0.057l-0.036,0.057l-0.036,0.058L13.542,6.59l-0.035,0.06
	l-0.035,0.061l-0.034,0.062l-0.034,0.062l-0.033,0.063l-0.034,0.065l-0.032,0.065l-0.033,0.065L13.239,7.16l-0.032,0.067
	l-0.031,0.069l-0.03,0.067l-0.061,0.142l-0.059,0.143L12.97,7.794l-0.055,0.149l-0.053,0.152L12.81,8.249L12.76,8.406l-0.048,0.16
	l-0.045,0.162l-0.043,0.165L12.583,9.06l-0.038,0.169l-0.037,0.172l-0.035,0.174L12.44,9.751l-0.03,0.177l-0.027,0.18l-0.025,0.182
	l-0.022,0.183l-0.02,0.186l-0.018,0.187l-0.015,0.188l-0.012,0.19l-0.01,0.192l-0.006,0.193l-0.005,0.194l-0.001,0.196l0.001,0.196
	l0.005,0.194l0.006,0.193l0.01,0.192l0.012,0.19l0.015,0.188l0.018,0.187l0.02,0.186l0.022,0.183l0.025,0.182l0.027,0.18l0.03,0.177
	l0.032,0.176l0.035,0.174l0.037,0.172l0.038,0.169l0.042,0.167l0.043,0.165l0.045,0.162l0.048,0.16l0.049,0.157l0.052,0.154
	l0.053,0.152l0.055,0.149l0.057,0.146l0.059,0.144l0.061,0.142l0.03,0.067l0.031,0.068l0.032,0.067l0.032,0.067l0.033,0.064
	l0.032,0.065l0.034,0.064l0.033,0.063l0.034,0.062l0.034,0.062l0.035,0.061l0.035,0.061l0.035,0.059l0.036,0.059l0.036,0.057
	l0.036,0.057l0.036,0.056l0.037,0.055l0.037,0.054l0.037,0.053l0.038,0.052l0.038,0.051l0.038,0.05l0.038,0.049l0.038,0.049
	l0.039,0.047l0.039,0.046l0.039,0.045l0.039,0.045l0.04,0.043l0.039,0.042l0.04,0.041l0.04,0.04l0.04,0.039l0.04,0.039l0.04,0.037
	l0.04,0.036l0.041,0.034l0.04,0.034l0.041,0.033l0.04,0.032l0.041,0.031l0.041,0.03l0.04,0.029l0.041,0.028l0.041,0.026l0.04,0.026
	l0.041,0.024l0.041,0.024l0.041,0.023l0.04,0.021l0.041,0.021l0.041,0.02l0.04,0.02l0.041,0.018l0.04,0.017l0.041,0.017l0.04,0.016
	l0.041,0.014l0.04,0.014l0.04,0.013l0.041,0.011l0.04,0.012l0.041,0.009l0.04,0.009l0.041,0.008l0.04,0.006l0.041,0.007l0.04,0.005
	l0.041,0.005l0.041,0.003l0.041,0.002l0.041,0.001h0.041l0.041-0.001l0.041-0.001l0.041-0.002l0.041-0.003l0.041-0.005l0.04-0.006
	l0.041-0.006l0.04-0.006l0.041-0.008l0.04-0.009l0.041-0.009l0.04-0.012l0.039-0.011l0.041-0.013l0.04-0.014l0.041-0.014l0.04-0.016
	l0.041-0.017l0.04-0.017l0.041-0.018l0.04-0.02l0.041-0.02l0.041-0.021l0.04-0.021l0.041-0.023l0.041-0.024l0.04-0.024l0.041-0.026
	l0.041-0.026l0.041-0.028l0.04-0.029l0.041-0.03l0.041-0.031l0.04-0.032l0.041-0.033l0.04-0.034l0.04-0.035l0.041-0.035l0.039-0.037
	l0.04-0.039l0.04-0.039l0.04-0.04l0.04-0.041l0.039-0.042l0.04-0.043l0.039-0.045l0.039-0.045l0.039-0.046l0.038-0.048l0.039-0.048
	l0.038-0.049l0.038-0.05l0.038-0.051l0.037-0.053l0.037-0.052l0.037-0.054l0.037-0.055l0.036-0.056l0.036-0.057l0.036-0.057
	l0.036-0.059l0.034-0.059l0.035-0.061l0.035-0.061l0.034-0.062l0.034-0.062l0.033-0.063l0.033-0.064l0.032-0.065l0.033-0.064
	l0.032-0.067l0.031-0.067l0.031-0.068l0.03-0.067l0.061-0.142l0.06-0.144l0.057-0.146l0.055-0.149l0.054-0.152l0.052-0.154
	l0.049-0.157l0.048-0.16l0.045-0.162l0.043-0.165l0.041-0.167l0.039-0.169l0.037-0.172l0.035-0.174l0.032-0.176l0.03-0.177
	l0.026-0.18l0.025-0.182l0.021-0.183l0.021-0.186l0.018-0.187l0.016-0.188l0.012-0.19l0.009-0.192l0.007-0.193l0.005-0.194
	l0.001-0.196l-0.001-0.196l-0.005-0.194l-0.007-0.193l-0.009-0.192l-0.012-0.19l-0.016-0.188l-0.018-0.187l-0.021-0.186
	l-0.021-0.183l-0.025-0.182l-0.026-0.18l-0.03-0.177l-0.032-0.176L19.49,9.4l-0.037-0.172l-0.039-0.169l-0.041-0.167L19.33,8.727
	l-0.045-0.162l-0.048-0.16l-0.049-0.157l-0.052-0.154l-0.054-0.152l-0.055-0.149l-0.057-0.146l-0.06-0.143l-0.061-0.142l-0.03-0.067
	L18.79,7.226l-0.031-0.067l-0.032-0.067l-0.033-0.065l-0.032-0.065l-0.033-0.065l-0.033-0.063l-0.034-0.062L18.526,6.71
	l-0.035-0.061l-0.035-0.06L18.422,6.53l-0.036-0.058L18.35,6.415l-0.036-0.057l-0.036-0.055L18.24,6.248l-0.037-0.054l-0.037-0.052
	L18.129,6.09l-0.038-0.051l-0.038-0.05L18.015,5.94l-0.039-0.048l-0.038-0.047l-0.039-0.046l-0.039-0.045L17.82,5.709l-0.04-0.043
	l-0.039-0.042l-0.04-0.041l-0.04-0.04l-0.04-0.039l-0.04-0.039l-0.039-0.037l-0.041-0.036l-0.04-0.035l-0.04-0.034L17.38,5.29
	l-0.04-0.032l-0.041-0.032l-0.041-0.03l-0.04-0.029l-0.041-0.028l-0.041-0.027l-0.041-0.026l-0.04-0.025l-0.041-0.024l-0.041-0.023
	l-0.04-0.022l-0.041-0.021l-0.041-0.02l-0.04-0.019L16.77,4.914l-0.04-0.017l-0.041-0.016l-0.04-0.016l-0.041-0.014l-0.04-0.013
	l-0.041-0.013l-0.039-0.011l-0.04-0.011l-0.041-0.009l-0.04-0.009l-0.041-0.008l-0.04-0.006l-0.041-0.006l-0.04-0.005l-0.041-0.005
	l-0.041-0.003L16.081,4.75L16.04,4.749l-0.041-0.001h-0.041V4.751z"/>
<path id="Northern_Latitudes" fill-rule="evenodd" clip-rule="evenodd" d="M16.114,4.001l0.115,0.002l0.114,0.004l0.115,0.006
	l0.114,0.007l0.112,0.009l0.113,0.011l0.113,0.011l0.111,0.014l0.111,0.015l0.111,0.017l0.111,0.018l0.109,0.019l0.11,0.022
	l0.108,0.022l0.108,0.024l0.108,0.026l0.106,0.027l0.107,0.028l0.105,0.03l0.106,0.031l0.104,0.033l0.104,0.034l0.104,0.036
	l0.104,0.036l0.103,0.039l0.102,0.039l0.101,0.041l0.102,0.042l0.099,0.044l0.099,0.045l0.1,0.046l0.097,0.047l0.097,0.049
	l0.097,0.05l0.095,0.051l0.095,0.053l0.093,0.054l0.094,0.055l0.092,0.056l0.091,0.057l0.091,0.059l0.089,0.059l0.089,0.061
	l0.089,0.062l0.087,0.063l0.086,0.065l0.085,0.065l0.084,0.067l0.084,0.068l0.082,0.068l0.082,0.07l0.08,0.071l0.08,0.072
	l0.077,0.073l0.078,0.074l0.077,0.075l0.075,0.076l0.075,0.077l0.073,0.078l0.072,0.079l0.071,0.08l0.071,0.081l0.068,0.082
	l-0.066,0.048l-0.067,0.048l-0.069,0.047l-0.07,0.046l-0.071,0.046l-0.072,0.045l-0.073,0.045l-0.075,0.044l-0.076,0.043
	l-0.076,0.043l-0.078,0.042l-0.08,0.042l-0.08,0.041l-0.081,0.041l-0.082,0.039l-0.083,0.04l-0.084,0.038l-0.085,0.038l-0.087,0.037
	l-0.087,0.037L20.51,7.762l-0.089,0.035l-0.09,0.034L20.24,7.865l-0.092,0.033l-0.093,0.033l-0.093,0.031l-0.095,0.031l-0.096,0.031
	l-0.096,0.029L19.58,8.082L19.481,8.11l-0.098,0.027l-0.1,0.027L19.184,8.19l-0.1,0.025l-0.103,0.024L18.88,8.262l-0.104,0.023
	l-0.103,0.022l-0.105,0.021l-0.104,0.02l-0.106,0.019l-0.105,0.019l-0.108,0.017L18.036,8.42l-0.109,0.016l-0.109,0.015
	l-0.109,0.015l-0.11,0.013l-0.111,0.013l-0.11,0.011l-0.112,0.011l-0.113,0.01l-0.112,0.009l-0.113,0.008l-0.114,0.007l-0.114,0.006
	l-0.115,0.005l-0.116,0.005l-0.116,0.003L16.232,8.57h-0.116h-0.117h-0.117l-0.117-0.001l-0.117-0.003l-0.116-0.003l-0.115-0.005
	l-0.115-0.005l-0.115-0.006L15.073,8.54L14.96,8.532l-0.113-0.009l-0.113-0.01l-0.112-0.011l-0.111-0.011L14.4,8.478l-0.11-0.013
	L14.18,8.45l-0.109-0.015l-0.109-0.016l-0.107-0.017l-0.108-0.017l-0.106-0.019l-0.106-0.019l-0.105-0.02l-0.105-0.021l-0.104-0.022
	l-0.103-0.023l-0.102-0.023l-0.102-0.024l-0.1-0.025l-0.101-0.026l-0.099-0.027l-0.098-0.027l-0.098-0.028l-0.097-0.029
	l-0.096-0.029L12.13,7.992l-0.095-0.031L11.942,7.93l-0.093-0.033l-0.092-0.033l-0.09-0.034l-0.09-0.034l-0.089-0.035L11.4,7.725
	l-0.087-0.037l-0.087-0.037l-0.085-0.038l-0.084-0.038l-0.083-0.04l-0.082-0.039l-0.081-0.041L10.73,7.414l-0.079-0.042L10.573,7.33
	l-0.076-0.043l-0.076-0.043L10.346,7.2l-0.074-0.045L10.2,7.11l-0.071-0.046l-0.071-0.046L9.989,6.971L9.921,6.923L9.855,6.875
	l0.069-0.082l0.071-0.081l0.071-0.08l0.073-0.079l0.073-0.078l0.075-0.077l0.075-0.076l0.077-0.075l0.077-0.074L10.595,6.1
	l0.08-0.072l0.08-0.071l0.082-0.07l0.082-0.068l0.083-0.068l0.085-0.067l0.085-0.065l0.086-0.065l0.087-0.062l0.088-0.062
	l0.089-0.061l0.089-0.059l0.091-0.059l0.091-0.057l0.092-0.056l0.093-0.055l0.093-0.054l0.095-0.053l0.095-0.051l0.096-0.05
	l0.097-0.049l0.097-0.047l0.099-0.046l0.099-0.045l0.099-0.044l0.101-0.042L13.05,4.56l0.101-0.039l0.103-0.039l0.103-0.036
	l0.104-0.036l0.104-0.034l0.105-0.033l0.105-0.031l0.107-0.03l0.106-0.028l0.108-0.027l0.108-0.026l0.108-0.024l0.109-0.022
	l0.11-0.022l0.11-0.019l0.11-0.018l0.112-0.017l0.111-0.015l0.112-0.014l0.113-0.011l0.113-0.011l0.113-0.009l0.114-0.007
	l0.115-0.006l0.114-0.004L15.883,4l0.116-0.001h0.115L16.114,4.001z M15.894,4.751l-0.105,0.002l-0.104,0.004l-0.103,0.005
	l-0.104,0.006l-0.103,0.008l-0.102,0.01l-0.102,0.011l-0.102,0.012l-0.101,0.014l-0.1,0.015l-0.101,0.016l-0.099,0.018l-0.1,0.019
	l-0.098,0.02l-0.099,0.022l-0.097,0.023l-0.098,0.025L14.08,5.007l-0.096,0.027l-0.096,0.028l-0.095,0.03l-0.095,0.03l-0.094,0.033
	l-0.093,0.033l-0.093,0.035l-0.092,0.035l-0.091,0.037l-0.091,0.039l-0.09,0.039l-0.09,0.041l-0.089,0.042l-0.088,0.043
	l-0.088,0.044l-0.087,0.045l-0.086,0.046L12.44,5.682l-0.085,0.049L12.271,5.78l-0.083,0.051l-0.083,0.052l-0.082,0.053
	l-0.081,0.055l-0.081,0.055l-0.079,0.056l-0.079,0.057l-0.078,0.059l-0.077,0.059l-0.077,0.06l-0.075,0.062l-0.075,0.062
	l-0.074,0.063l-0.073,0.065l-0.072,0.065L11.031,6.72l-0.004,0.004l0.049,0.026l0.073,0.037l0.073,0.037l0.075,0.036l0.076,0.035
	L11.45,6.93l0.077,0.035l0.079,0.034l0.08,0.034l0.081,0.033l0.082,0.032l0.083,0.032l0.084,0.031L12.1,7.192l0.086,0.03
	l0.087,0.029L12.36,7.28l0.089,0.028l0.089,0.027l0.09,0.027l0.091,0.026l0.092,0.026l0.093,0.024l0.093,0.024l0.094,0.024
	l0.096,0.022l0.095,0.022l0.097,0.022l0.097,0.02l0.098,0.02l0.099,0.019l0.1,0.018l0.1,0.017l0.101,0.017l0.101,0.016l0.102,0.015
	l0.103,0.014l0.103,0.014l0.104,0.012l0.105,0.012l0.105,0.011l0.106,0.01l0.106,0.009l0.107,0.009l0.107,0.007l0.108,0.007
	l0.108,0.006l0.109,0.005l0.109,0.004l0.11,0.003l0.11,0.003h0.111h0.111h0.111l0.11-0.001l0.11-0.003l0.11-0.003l0.108-0.004
	l0.109-0.005l0.107-0.006l0.108-0.007l0.107-0.007l0.106-0.009l0.106-0.009l0.105-0.01l0.105-0.011l0.104-0.012l0.104-0.012
	l0.103-0.014l0.104-0.014l0.102-0.015l0.102-0.016l0.101-0.017l0.1-0.017l0.101-0.018l0.099-0.019l0.098-0.02l0.098-0.021
	l0.097-0.022l0.095-0.022l0.096-0.022l0.095-0.024l0.093-0.024l0.093-0.024l0.093-0.026l0.091-0.026l0.09-0.027l0.089-0.027
	l0.089-0.028l0.087-0.029l0.088-0.029l0.085-0.03l0.085-0.031l0.084-0.031l0.083-0.032l0.082-0.032l0.08-0.033l0.08-0.034
	l0.078-0.034l0.078-0.035l0.077-0.035l0.076-0.035l0.074-0.036l0.073-0.037l0.072-0.037l0.05-0.026l-0.004-0.004l-0.07-0.066
	l-0.072-0.065l-0.073-0.065L20.677,6.46l-0.075-0.062l-0.074-0.062l-0.077-0.06l-0.077-0.059l-0.078-0.059l-0.079-0.057
	l-0.079-0.056L20.056,5.99l-0.081-0.055l-0.082-0.053L19.81,5.83l-0.083-0.051L19.643,5.73l-0.085-0.049l-0.086-0.048l-0.086-0.046
	l-0.087-0.045l-0.088-0.044l-0.088-0.043l-0.089-0.042l-0.09-0.041l-0.091-0.039l-0.091-0.039l-0.091-0.037L18.58,5.222
	l-0.093-0.035l-0.095-0.033L18.3,5.121l-0.095-0.03l-0.095-0.03l-0.097-0.028l-0.096-0.027L17.822,4.98l-0.099-0.025l-0.097-0.023
	L17.528,4.91L17.43,4.89l-0.1-0.019l-0.099-0.018L17.13,4.837l-0.1-0.015l-0.102-0.014l-0.102-0.012l-0.103-0.011l-0.103-0.01
	L16.52,4.767l-0.104-0.006l-0.104-0.005l-0.104-0.004L16.104,4.75l-0.104-0.001h-0.105V4.751z"/>
<path id="Southern_Latitudes" fill-rule="evenodd" clip-rule="evenodd" d="M16.116,15.429l0.117,0.001l0.115,0.003l0.116,0.003
	l0.116,0.005l0.115,0.005l0.114,0.006l0.114,0.007l0.113,0.008l0.113,0.009l0.112,0.01l0.112,0.011l0.111,0.011l0.11,0.013
	l0.11,0.013l0.11,0.015l0.108,0.015l0.109,0.016l0.106,0.017l0.108,0.017l0.106,0.019l0.105,0.019l0.105,0.02l0.104,0.021
	l0.104,0.022l0.104,0.023l0.103,0.023l0.102,0.024l0.1,0.025l0.101,0.026l0.1,0.027l0.099,0.027l0.098,0.028l0.097,0.029
	l0.097,0.029l0.095,0.031l0.095,0.031l0.093,0.031l0.094,0.032l0.091,0.033l0.091,0.034l0.09,0.034l0.089,0.035l0.088,0.036
	l0.087,0.036l0.088,0.037l0.085,0.038l0.084,0.038l0.083,0.04l0.082,0.039l0.08,0.041l0.08,0.041l0.08,0.042l0.078,0.042
	l0.076,0.043l0.076,0.043l0.075,0.044l0.073,0.045l0.072,0.045l0.071,0.046l0.071,0.047l0.068,0.047l0.067,0.048l0.066,0.048
	l-0.068,0.082l-0.071,0.081l-0.071,0.08l-0.072,0.079l-0.073,0.078l-0.075,0.076l-0.075,0.076l-0.077,0.075l-0.077,0.074
	l-0.078,0.073l-0.08,0.071l-0.08,0.071l-0.082,0.07l-0.082,0.067l-0.084,0.068l-0.084,0.067l-0.085,0.064l-0.086,0.065l-0.087,0.062
	l-0.088,0.062l-0.09,0.061l-0.089,0.06l-0.091,0.059l-0.091,0.057l-0.092,0.057l-0.093,0.055l-0.094,0.054l-0.095,0.054
	l-0.095,0.051l-0.097,0.05l-0.097,0.049l-0.097,0.047l-0.1,0.046l-0.099,0.045l-0.099,0.045l-0.102,0.042l-0.101,0.041l-0.102,0.038
	l-0.103,0.039l-0.104,0.036l-0.104,0.036l-0.104,0.034l-0.104,0.033l-0.106,0.03l-0.105,0.03l-0.107,0.028l-0.106,0.027
	l-0.108,0.025l-0.107,0.024l-0.109,0.021l-0.11,0.022l-0.109,0.019l-0.111,0.019l-0.111,0.017l-0.11,0.015l-0.112,0.015
	l-0.113,0.011l-0.112,0.011l-0.113,0.009l-0.114,0.008l-0.115,0.006l-0.113,0.004l-0.116,0.002h-0.115l-0.116-0.001l-0.115-0.002
	l-0.114-0.004l-0.115-0.006l-0.114-0.008l-0.113-0.009l-0.113-0.011l-0.113-0.011l-0.112-0.015l-0.111-0.015l-0.112-0.017
	l-0.11-0.019l-0.11-0.019l-0.11-0.022l-0.109-0.021l-0.108-0.024l-0.108-0.025l-0.108-0.027l-0.106-0.028l-0.107-0.03l-0.105-0.03
	l-0.105-0.033l-0.104-0.034l-0.104-0.036l-0.103-0.036l-0.103-0.039l-0.101-0.039l-0.101-0.04l-0.101-0.042l-0.099-0.045
	l-0.099-0.045l-0.099-0.046l-0.097-0.047l-0.097-0.049l-0.096-0.05l-0.095-0.051l-0.095-0.054l-0.093-0.054l-0.093-0.055
	l-0.092-0.057l-0.091-0.057l-0.091-0.059l-0.089-0.06l-0.089-0.061l-0.088-0.062l-0.087-0.062l-0.086-0.065l-0.085-0.064
	l-0.085-0.067l-0.083-0.068l-0.082-0.067l-0.082-0.07l-0.08-0.071l-0.08-0.071l-0.079-0.073l-0.077-0.074l-0.077-0.075L10.287,17.6
	l-0.075-0.076l-0.073-0.078l-0.073-0.079l-0.071-0.08l-0.071-0.081l-0.069-0.082l0.066-0.048l0.068-0.048l0.069-0.047l0.071-0.047
	l0.071-0.046l0.072-0.045l0.074-0.045l0.075-0.044l0.076-0.043l0.076-0.043l0.078-0.042l0.079-0.042l0.081-0.041l0.081-0.041
	l0.082-0.039l0.083-0.04l0.084-0.038l0.085-0.038l0.087-0.037l0.087-0.036l0.088-0.036l0.089-0.035l0.09-0.034l0.09-0.034
	l0.092-0.033l0.093-0.032l0.093-0.031l0.095-0.031l0.095-0.031l0.096-0.029l0.097-0.029l0.098-0.028l0.098-0.027l0.099-0.027
	l0.101-0.026l0.1-0.025l0.102-0.024l0.102-0.023l0.103-0.023l0.104-0.022l0.105-0.021l0.105-0.02l0.106-0.019l0.106-0.019
	l0.108-0.017l0.107-0.017l0.109-0.016l0.109-0.015l0.11-0.015l0.11-0.013l0.111-0.013l0.111-0.011l0.112-0.011l0.113-0.01
	l0.113-0.009l0.113-0.008l0.114-0.007l0.115-0.006l0.115-0.005l0.115-0.005l0.116-0.003l0.117-0.003l0.117-0.001h0.117
	L16.116,15.429L16.116,15.429z M15.888,16.179l-0.111,0.001l-0.11,0.003l-0.11,0.003l-0.109,0.005l-0.109,0.005l-0.108,0.006
	l-0.108,0.007l-0.107,0.007l-0.107,0.009l-0.106,0.01l-0.106,0.01l-0.105,0.011l-0.105,0.012l-0.104,0.013l-0.103,0.014
	l-0.103,0.014l-0.102,0.016l-0.102,0.016l-0.1,0.017l-0.1,0.018l-0.1,0.018l-0.099,0.02l-0.098,0.02l-0.097,0.021l-0.097,0.021
	l-0.095,0.022l-0.096,0.021l-0.094,0.024l-0.093,0.023l-0.093,0.024l-0.092,0.026l-0.091,0.025l-0.09,0.027l-0.089,0.027
	L12.36,16.72l-0.087,0.029l-0.087,0.029L12.1,16.808l-0.084,0.031l-0.084,0.031l-0.083,0.032l-0.082,0.031l-0.081,0.033l-0.08,0.034
	l-0.079,0.034L11.45,17.07l-0.077,0.035l-0.076,0.034l-0.075,0.036l-0.073,0.037l-0.073,0.037l-0.049,0.026l0.004,0.004l0.071,0.065
	l0.072,0.065l0.073,0.064l0.074,0.063l0.075,0.062l0.075,0.062l0.077,0.06l0.077,0.06l0.078,0.059l0.079,0.058l0.079,0.056
	l0.081,0.055l0.081,0.056l0.082,0.053l0.083,0.052l0.083,0.051l0.084,0.05l0.085,0.049l0.086,0.048l0.086,0.046l0.087,0.045
	l0.088,0.044l0.088,0.043l0.089,0.042l0.09,0.041l0.09,0.039l0.091,0.039l0.091,0.037l0.092,0.035l0.093,0.035l0.093,0.032
	l0.094,0.033l0.095,0.03l0.095,0.03l0.096,0.027l0.096,0.027l0.096,0.026l0.098,0.024l0.097,0.023l0.099,0.021l0.098,0.021
	l0.1,0.019l0.099,0.019l0.101,0.016l0.1,0.015l0.101,0.015l0.102,0.012l0.102,0.011l0.102,0.01l0.103,0.009l0.104,0.006l0.103,0.005
	l0.104,0.004l0.105,0.002h0.105l0.104-0.001l0.104-0.002l0.104-0.004l0.104-0.005l0.104-0.006l0.103-0.009l0.103-0.01l0.103-0.011
	l0.102-0.012l0.102-0.015l0.1-0.015l0.102-0.016l0.099-0.019l0.1-0.019l0.099-0.021l0.099-0.021l0.097-0.023l0.099-0.025
	l0.096-0.025l0.096-0.027l0.097-0.027l0.095-0.03l0.095-0.03l0.093-0.033l0.095-0.032l0.093-0.035l0.092-0.035l0.091-0.037
	l0.091-0.039l0.091-0.039l0.09-0.041l0.089-0.042l0.088-0.043l0.088-0.044l0.087-0.045l0.086-0.046l0.086-0.048l0.085-0.05
	l0.084-0.049l0.083-0.051l0.083-0.052l0.082-0.053l0.081-0.056l0.081-0.055l0.079-0.056l0.079-0.058l0.078-0.059l0.077-0.06
	l0.077-0.06l0.074-0.062l0.075-0.062l0.074-0.063l0.073-0.064l0.072-0.065l0.07-0.065l0.004-0.004l-0.05-0.026l-0.072-0.037
	l-0.073-0.037l-0.074-0.036l-0.076-0.035l-0.077-0.034l-0.078-0.035L20.392,17l-0.08-0.034l-0.08-0.033l-0.082-0.031l-0.083-0.032
	l-0.084-0.031l-0.085-0.031l-0.085-0.029l-0.088-0.029l-0.087-0.029l-0.089-0.027l-0.089-0.027l-0.09-0.027l-0.091-0.025
	l-0.093-0.026l-0.093-0.024l-0.093-0.023l-0.095-0.024l-0.096-0.021l-0.095-0.022l-0.097-0.021l-0.098-0.021l-0.098-0.02
	l-0.099-0.02l-0.101-0.018l-0.1-0.018l-0.101-0.017l-0.102-0.016l-0.102-0.016l-0.104-0.014l-0.103-0.014l-0.104-0.013l-0.104-0.012
	l-0.105-0.011l-0.105-0.01l-0.106-0.01l-0.106-0.009l-0.107-0.007L16.767,16.2l-0.107-0.006l-0.109-0.005l-0.108-0.005l-0.11-0.003
	l-0.11-0.003l-0.11-0.001h-0.111L15.888,16.179L15.888,16.179z"/>
<path id="Left_Eye" d="M4,10.667V9.859h5.495c0.412,0,0.717-0.087,0.912-0.262c0.196-0.175,0.294-0.397,0.294-0.666
	c0-0.076-0.01-0.152-0.032-0.228c-0.021-0.076-0.049-0.146-0.085-0.211c-0.036-0.066-0.076-0.126-0.12-0.18
	c-0.044-0.055-0.091-0.101-0.142-0.139l0.417-0.525c0.118,0.089,0.221,0.188,0.309,0.297c0.089,0.11,0.161,0.223,0.218,0.341
	c0.057,0.118,0.099,0.239,0.127,0.363c0.027,0.125,0.041,0.246,0.041,0.364c0,0.219-0.037,0.428-0.111,0.628
	c-0.074,0.2-0.188,0.376-0.344,0.527c-0.156,0.152-0.356,0.273-0.6,0.364c-0.244,0.09-0.537,0.135-0.878,0.135
	c0.181,0.144,0.351,0.302,0.508,0.477c0.158,0.175,0.295,0.365,0.411,0.572c0.116,0.206,0.206,0.426,0.272,0.66
	c0.065,0.233,0.097,0.481,0.097,0.742c0,0.484-0.091,0.925-0.274,1.323s-0.43,0.738-0.739,1.02c-0.31,0.282-0.671,0.501-1.083,0.657
	c-0.413,0.156-0.847,0.233-1.301,0.233c-0.451,0-0.88-0.077-1.289-0.233c-0.408-0.156-0.768-0.375-1.08-0.657
	c-0.311-0.282-0.56-0.622-0.745-1.02S4,13.602,4,13.118c0-0.27,0.033-0.523,0.098-0.761c0.065-0.238,0.156-0.459,0.271-0.663
	c0.116-0.205,0.252-0.392,0.408-0.562c0.156-0.171,0.326-0.326,0.511-0.465H4L4,10.667z M4.821,13.118
	c0,0.383,0.074,0.724,0.221,1.023c0.147,0.299,0.342,0.553,0.584,0.761c0.242,0.209,0.517,0.367,0.825,0.477
	c0.307,0.109,0.621,0.164,0.941,0.164c0.315,0,0.627-0.058,0.934-0.174c0.308-0.115,0.582-0.28,0.825-0.492
	c0.242-0.213,0.437-0.469,0.587-0.768c0.149-0.298,0.224-0.629,0.224-0.991c0-0.354-0.076-0.68-0.227-0.979
	c-0.152-0.299-0.349-0.557-0.591-0.774c-0.242-0.217-0.517-0.386-0.824-0.508c-0.307-0.122-0.617-0.183-0.928-0.183
	c-0.312,0-0.621,0.061-0.929,0.183c-0.307,0.122-0.582,0.291-0.824,0.508C5.397,11.582,5.2,11.84,5.048,12.139
	C4.897,12.438,4.821,12.764,4.821,13.118L4.821,13.118z M6.703,13.023c0-0.092,0.018-0.18,0.054-0.262
	c0.036-0.082,0.084-0.154,0.145-0.215s0.133-0.109,0.215-0.145c0.082-0.036,0.171-0.054,0.268-0.054
	c0.093,0,0.181,0.018,0.266,0.054c0.084,0.036,0.157,0.084,0.221,0.145c0.063,0.061,0.112,0.133,0.148,0.215
	c0.036,0.082,0.054,0.17,0.054,0.262c0,0.093-0.018,0.18-0.054,0.262S7.935,13.439,7.872,13.5c-0.064,0.061-0.137,0.109-0.221,0.145
	c-0.085,0.036-0.173,0.054-0.266,0.054c-0.097,0-0.186-0.018-0.268-0.054S6.963,13.561,6.902,13.5s-0.109-0.133-0.145-0.215
	C6.721,13.203,6.703,13.116,6.703,13.023L6.703,13.023z"/>
<path id="Right_Eye" d="M21.183,10.667V9.859h5.495c0.413,0,0.717-0.087,0.913-0.262c0.195-0.175,0.293-0.397,0.293-0.666
	c0-0.076-0.01-0.152-0.031-0.228c-0.021-0.076-0.05-0.146-0.086-0.211c-0.034-0.066-0.074-0.126-0.119-0.18
	c-0.045-0.055-0.092-0.101-0.143-0.139l0.417-0.525c0.118,0.089,0.221,0.188,0.311,0.297c0.088,0.11,0.16,0.223,0.217,0.341
	c0.057,0.118,0.099,0.239,0.127,0.363c0.027,0.125,0.041,0.246,0.041,0.364c0,0.219-0.037,0.428-0.111,0.628
	c-0.073,0.2-0.188,0.376-0.344,0.527c-0.156,0.152-0.356,0.273-0.601,0.364c-0.243,0.09-0.536,0.135-0.878,0.135
	c0.182,0.144,0.352,0.302,0.51,0.477c0.157,0.175,0.294,0.365,0.409,0.572c0.116,0.206,0.206,0.426,0.272,0.66
	c0.065,0.233,0.098,0.481,0.098,0.742c0,0.484-0.092,0.925-0.274,1.323c-0.184,0.398-0.431,0.738-0.739,1.02
	c-0.31,0.282-0.671,0.501-1.083,0.657c-0.413,0.156-0.847,0.233-1.301,0.233c-0.451,0-0.88-0.077-1.289-0.233
	c-0.408-0.156-0.769-0.375-1.08-0.657c-0.312-0.282-0.56-0.622-0.745-1.02c-0.185-0.398-0.278-0.839-0.278-1.323
	c0-0.27,0.033-0.523,0.099-0.761c0.064-0.238,0.156-0.459,0.271-0.663c0.115-0.205,0.251-0.392,0.407-0.562
	c0.156-0.171,0.326-0.326,0.512-0.465H21.183L21.183,10.667z M22.004,13.118c0,0.383,0.074,0.724,0.221,1.023
	c0.148,0.299,0.343,0.553,0.584,0.761c0.243,0.209,0.518,0.367,0.825,0.477c0.308,0.109,0.621,0.164,0.941,0.164
	c0.315,0,0.627-0.058,0.934-0.174c0.309-0.115,0.583-0.28,0.825-0.492c0.242-0.213,0.438-0.469,0.587-0.768
	c0.15-0.298,0.224-0.629,0.224-0.991c0-0.354-0.075-0.68-0.227-0.979c-0.152-0.299-0.349-0.557-0.591-0.774
	c-0.242-0.217-0.517-0.386-0.824-0.508c-0.307-0.122-0.617-0.183-0.928-0.183c-0.312,0-0.621,0.061-0.93,0.183
	c-0.307,0.122-0.581,0.291-0.823,0.508c-0.242,0.217-0.439,0.475-0.59,0.774C22.08,12.438,22.004,12.764,22.004,13.118
	L22.004,13.118z M23.886,13.023c0-0.092,0.019-0.18,0.055-0.262c0.035-0.082,0.084-0.154,0.145-0.215s0.133-0.109,0.215-0.145
	c0.082-0.036,0.172-0.054,0.269-0.054c0.093,0,0.181,0.018,0.266,0.054c0.084,0.036,0.158,0.084,0.221,0.145
	c0.063,0.061,0.112,0.133,0.148,0.215c0.036,0.082,0.054,0.17,0.054,0.262c0,0.093-0.018,0.18-0.054,0.262s-0.085,0.154-0.148,0.215
	c-0.062,0.061-0.137,0.109-0.221,0.145c-0.085,0.036-0.173,0.054-0.266,0.054c-0.097,0-0.187-0.018-0.269-0.054
	s-0.154-0.084-0.215-0.145s-0.109-0.133-0.145-0.215C23.904,13.203,23.886,13.116,23.886,13.023L23.886,13.023z"/>
</svg>
