<?xml version="1.0" encoding="utf-8"?>
<!-- Generator: Adobe Illustrator 16.0.4, SVG Export Plug-In . SVG Version: 6.00 Build 0)  -->
<!DOCTYPE svg PUBLIC "-//W3C//DTD SVG 1.1//EN" "http://www.w3.org/Graphics/SVG/1.1/DTD/svg11.dtd" [
	<!ENTITY ns_flows "http://ns.adobe.com/Flows/1.0/">
	<!ENTITY ns_extend "http://ns.adobe.com/Extensibility/1.0/">
	<!ENTITY ns_ai "http://ns.adobe.com/AdobeIllustrator/10.0/">
	<!ENTITY ns_graphs "http://ns.adobe.com/Graphs/1.0/">
]>
<svg version="1.1" id="Inspiring_Online" xmlns:x="&ns_extend;" xmlns:i="&ns_ai;" xmlns:graph="&ns_graphs;"
	 xmlns="http://www.w3.org/2000/svg" xmlns:xlink="http://www.w3.org/1999/xlink" xmlns:a="http://ns.adobe.com/AdobeSVGViewerExtensions/3.0/"
	 x="0px" y="0px" width="120px" height="120px" viewBox="0 0 120 120" enable-background="new 0 0 120 120" xml:space="preserve">
<polygon fill-rule="evenodd" clip-rule="evenodd" fill="#FFFFFF" points="120,0 0,0 0,120 120,120 120,0 "/>
<path fill="none" stroke="#000000" stroke-width="2.8125" stroke-linejoin="round" stroke-miterlimit="10" d="M48.75,103.125h22.496
	 M46.875,95.625h26.25 M45,88.125h30"/>
<path fill-rule="evenodd" clip-rule="evenodd" d="M30.754,60.992c0.461,0.787,0.956,1.564,1.468,2.322
	c2.379,3.512,5.209,6.668,7.907,9.928c0.423,0.513,0.838,1.029,1.252,1.553c1.776,2.277,3.457,4.65,4.653,7.295
	c0.623,1.369,1.102,2.805,1.534,4.252c0.551,1.846,1.013,3.721,1.428,5.603c1.059,4.79,1.835,9.639,2.512,14.495l0.125,0.89
	l0.183,1.421h16.368c0.144-1.084,0.29-2.172,0.439-3.256c0.15-1.029,0.304-2.058,0.462-3.091c0.674-4.284,1.424-8.562,2.465-12.776
	c0.765-3.105,1.647-6.227,3.167-9.057c1.315-2.446,2.988-4.673,4.735-6.822c1.542-1.897,3.146-3.747,4.698-5.637
	c0.421-0.516,0.839-1.04,1.253-1.563c1.373-1.78,2.688-3.604,3.826-5.541c0.945,0.209,1.92,0.312,2.927,0.312
	c0.41,0,0.82-0.019,1.223-0.051c-0.751,1.428-1.597,2.809-2.501,4.148c-2.439,3.604-5.343,6.852-8.107,10.199
	c-0.407,0.494-0.803,0.988-1.201,1.486c-1.535,1.967-3,4.007-4.065,6.27c-0.681,1.451-1.172,2.988-1.615,4.527
	c-0.571,1.974-1.044,3.977-1.465,5.987c-1.157,5.556-1.995,11.173-2.702,16.802l-0.121,0.981L71.51,112.5H48.496
	c-0.117-1.036-0.244-2.069-0.375-3.105c-0.146-1.124-0.297-2.245-0.454-3.365c-0.694-4.827-1.481-9.65-2.587-14.399
	c-0.33-1.417-0.69-2.827-1.102-4.219c-0.522-1.743-1.13-3.454-1.992-5.058c-1.203-2.234-2.749-4.267-4.342-6.232
	c-1.545-1.894-3.146-3.743-4.698-5.629c-0.439-0.539-0.872-1.084-1.302-1.63c-1.85-2.388-3.582-4.856-4.995-7.525l-0.029-0.062
	c0.362,0.029,0.73,0.044,1.102,0.044C28.759,61.318,29.771,61.212,30.754,60.992L30.754,60.992z M23.441,36.971
	c0.716-3.303,1.882-6.506,3.46-9.494c2.029-3.849,4.737-7.331,7.954-10.257c3.117-2.831,6.709-5.136,10.591-6.779
	c2.977-1.26,6.12-2.131,9.322-2.576c1.414-0.199,2.834-0.308,4.265-0.354c0.479-0.007,0.963-0.011,1.446-0.007
	c1.586,0.029,3.168,0.139,4.743,0.36c3.504,0.491,6.936,1.485,10.154,2.942c4.52,2.04,8.617,4.992,11.994,8.623
	c3.178,3.412,5.716,7.421,7.426,11.759c0.74,1.878,1.326,3.814,1.751,5.782h-3.845c-0.586-2.426-1.447-4.784-2.557-7.02
	c-3.501-7.039-9.481-12.743-16.685-15.896c-2.662-1.163-5.472-1.976-8.339-2.415c-1.267-0.196-2.545-0.308-3.826-0.365
	c-0.575-0.018-1.158-0.025-1.736-0.021c-1.289,0.021-2.573,0.104-3.851,0.265c-2.752,0.354-5.464,1.047-8.044,2.064
	c-4.158,1.642-7.973,4.122-11.171,7.245c-3.191,3.115-5.76,6.868-7.5,10.979c-0.708,1.672-1.278,3.402-1.707,5.164H23.441
	L23.441,36.971z"/>
<path fill-rule="evenodd" clip-rule="evenodd" d="M85.063,61.486c-1.187,1.799-2.567,3.473-4.108,4.978
	c-2.678,2.614-5.838,4.724-9.28,6.178c-3.567,1.513-7.419,2.308-11.294,2.354c-3.884,0.048-7.769-0.651-11.384-2.076
	c-3.482-1.373-6.698-3.406-9.439-5.955c-1.761-1.644-3.325-3.493-4.646-5.508c0.18-0.091,0.359-0.189,0.541-0.293
	c0.633-0.366,1.245-0.779,1.814-1.239c1.08,1.639,2.333,3.159,3.735,4.528c2.426,2.369,5.292,4.281,8.41,5.6
	c3.233,1.365,6.725,2.091,10.23,2.131c3.521,0.044,7.044-0.59,10.322-1.882c3.156-1.241,6.071-3.087,8.551-5.398
	c1.59-1.476,2.996-3.142,4.186-4.949c0.473,0.375,0.971,0.72,1.487,1.035C84.478,61.164,84.771,61.326,85.063,61.486L85.063,61.486z
	 M85.283,34.991c-0.318-0.806-0.674-1.595-1.073-2.365c-2.691-5.259-7.108-9.571-12.429-12.133
	c-2.308-1.113-4.775-1.894-7.303-2.312c-1.252-0.207-2.512-0.319-3.783-0.361c-0.348-0.003-0.7-0.007-1.053-0.003
	c-1.271,0.021-2.534,0.117-3.791,0.311c-2.54,0.386-5.017,1.135-7.342,2.223c-5.153,2.404-9.489,6.443-12.263,11.403
	c-0.604,1.081-1.131,2.199-1.582,3.349c-0.998,0.007-2,0.004-2.998,0c0.451-1.289,0.987-2.545,1.609-3.761
	c2.917-5.693,7.658-10.38,13.383-13.222c2.533-1.26,5.243-2.153,8.026-2.651c1.373-0.244,2.755-0.386,4.151-0.447
	c0.514-0.015,1.031-0.022,1.543-0.018c1.402,0.025,2.798,0.132,4.182,0.34c2.802,0.428,5.545,1.26,8.112,2.458
	c5.793,2.706,10.646,7.278,13.7,12.899c0.754,1.381,1.395,2.824,1.915,4.305C87.29,34.995,86.283,34.991,85.283,34.991
	L85.283,34.991z"/>
<path fill-rule="evenodd" clip-rule="evenodd" d="M78.842,43.594c-0.439,0.892-0.77,1.842-0.985,2.812H42.022
	c-0.183-0.802-0.45-1.589-0.787-2.344c-0.071-0.161-0.143-0.315-0.222-0.469H78.842L78.842,43.594z"/>
<line fill="none" stroke="#000000" stroke-width="2.8125" stroke-linejoin="round" stroke-miterlimit="10" x1="59.996" y1="15.751" x2="59.996" y2="74.249"/>
<path fill-rule="evenodd" clip-rule="evenodd" d="M60.212,15.004l0.22,0.007l0.216,0.011l0.216,0.015l0.216,0.024l0.213,0.025
	l0.216,0.035l0.212,0.033l0.209,0.041l0.217,0.045l0.208,0.053l0.209,0.051l0.212,0.061l0.205,0.064l0.205,0.068l0.209,0.075
	l0.205,0.075l0.205,0.083l0.205,0.086l0.201,0.09l0.202,0.093l0.201,0.103l0.201,0.101l0.198,0.108l0.193,0.113l0.202,0.115
	l0.194,0.121l0.193,0.123l0.19,0.128l0.194,0.132l0.19,0.137l0.19,0.139l0.187,0.146l0.187,0.146l0.191,0.154l0.183,0.154
	l0.183,0.161l0.184,0.165l0.18,0.165l0.18,0.172l0.183,0.177l0.176,0.18l0.176,0.179l0.176,0.188l0.172,0.187l0.173,0.194l0.168,0.2
	l0.168,0.2l0.169,0.201l0.165,0.211l0.164,0.21l0.169,0.212l0.161,0.218l0.157,0.222l0.161,0.225l0.158,0.229l0.153,0.229
	l0.153,0.236l0.154,0.236l0.15,0.24l0.15,0.243l0.146,0.247l0.143,0.251l0.143,0.251l0.143,0.26l0.143,0.258l0.14,0.258l0.136,0.268
	l0.135,0.269l0.136,0.271l0.128,0.272l0.133,0.275l0.128,0.28l0.128,0.282l0.242,0.573l0.241,0.582l0.234,0.592l0.224,0.604
	l0.212,0.615l0.209,0.623l0.201,0.634l0.187,0.641L75.205,32l0.172,0.659l0.165,0.667l0.161,0.679l0.143,0.687l0.136,0.69
	l0.132,0.702l0.117,0.708l0.109,0.716l0.1,0.72l0.088,0.732l0.08,0.734l0.07,0.74l0.059,0.749l0.047,0.754l0.041,0.756l0.025,0.765
	l0.015,0.77L76.871,45l-0.007,0.772l-0.015,0.77l-0.025,0.763l-0.041,0.758l-0.047,0.754l-0.059,0.749l-0.07,0.74l-0.08,0.734
	l-0.088,0.732l-0.1,0.72l-0.109,0.716l-0.117,0.708l-0.132,0.702l-0.136,0.69l-0.143,0.687l-0.161,0.677l-0.165,0.668L75.205,58
	l-0.184,0.654l-0.187,0.641l-0.201,0.634l-0.209,0.621l-0.212,0.615l-0.224,0.604l-0.234,0.594l-0.241,0.582l-0.242,0.571
	l-0.128,0.282l-0.128,0.282l-0.133,0.274l-0.128,0.274l-0.136,0.268l-0.135,0.271l-0.136,0.268l-0.14,0.257l-0.143,0.26l-0.143,0.26
	l-0.143,0.249l-0.143,0.253l-0.146,0.249l-0.15,0.241l-0.15,0.242l-0.154,0.234l-0.153,0.238l-0.153,0.227l-0.158,0.23l-0.161,0.224
	l-0.157,0.22l-0.161,0.22l-0.169,0.212l-0.164,0.213l-0.165,0.209l-0.169,0.201l-0.168,0.197l-0.168,0.202l-0.173,0.194
	l-0.172,0.187l-0.176,0.187l-0.176,0.184l-0.176,0.179l-0.183,0.176l-0.18,0.173l-0.18,0.164l-0.184,0.165l-0.183,0.161
	l-0.183,0.154l-0.191,0.153l-0.187,0.146l-0.187,0.146l-0.19,0.14l-0.19,0.139l-0.194,0.132l-0.19,0.124l-0.193,0.125l-0.194,0.121
	l-0.202,0.117l-0.193,0.109l-0.198,0.11l-0.201,0.103l-0.201,0.099l-0.202,0.095l-0.201,0.092l-0.205,0.084L63.6,74.315
	l-0.205,0.073l-0.209,0.076l-0.205,0.066l-0.205,0.062l-0.212,0.062l-0.209,0.051l-0.208,0.051l-0.217,0.048l-0.209,0.04
	l-0.212,0.033l-0.216,0.033l-0.213,0.029l-0.216,0.021l-0.216,0.016l-0.216,0.011l-0.22,0.007L59.996,75l-0.218-0.004l-0.218-0.007
	l-0.216-0.011l-0.214-0.016l-0.218-0.021l-0.214-0.029l-0.212-0.033l-0.214-0.033l-0.21-0.04l-0.214-0.048l-0.209-0.051l-0.21-0.051
	l-0.21-0.062l-0.205-0.062l-0.207-0.066l-0.207-0.076l-0.205-0.073l-0.207-0.085l-0.202-0.084l-0.203-0.092l-0.203-0.095
	l-0.198-0.099l-0.204-0.103l-0.197-0.11l-0.196-0.109l-0.198-0.117l-0.196-0.121l-0.194-0.125l-0.192-0.124l-0.19-0.132
	l-0.192-0.139l-0.19-0.14l-0.187-0.146l-0.188-0.146l-0.187-0.153l-0.185-0.154L52.5,71.88l-0.183-0.165l-0.181-0.164l-0.18-0.173
	l-0.179-0.176l-0.178-0.179l-0.176-0.184l-0.176-0.187l-0.172-0.187l-0.172-0.194l-0.17-0.202l-0.168-0.197l-0.168-0.201
	l-0.165-0.209l-0.165-0.213l-0.165-0.212l-0.161-0.22l-0.161-0.22l-0.158-0.224l-0.157-0.23l-0.154-0.227l-0.154-0.238l-0.154-0.234
	l-0.15-0.242l-0.15-0.241l-0.146-0.249L48.21,66.46l-0.143-0.249l-0.143-0.26l-0.141-0.26l-0.139-0.257l-0.135-0.268l-0.14-0.271
	l-0.13-0.268l-0.132-0.274l-0.132-0.274l-0.126-0.282l-0.128-0.282l-0.247-0.571l-0.236-0.582l-0.232-0.594l-0.225-0.604
	l-0.214-0.615l-0.205-0.621l-0.204-0.634l-0.187-0.641L44.786,58l-0.172-0.659l-0.165-0.668l-0.157-0.677l-0.146-0.687l-0.136-0.69
	l-0.13-0.702l-0.117-0.708l-0.108-0.716l-0.101-0.72l-0.092-0.732l-0.079-0.734l-0.068-0.74l-0.059-0.749l-0.049-0.754l-0.037-0.758
	l-0.027-0.763l-0.019-0.77L43.121,45l0.004-0.772l0.019-0.77l0.027-0.765l0.037-0.756l0.049-0.754l0.059-0.749l0.068-0.74
	l0.079-0.734l0.092-0.732l0.101-0.72l0.108-0.716l0.117-0.708l0.13-0.702l0.136-0.69l0.146-0.687l0.157-0.679l0.165-0.667L44.786,32
	l0.185-0.654l0.187-0.641l0.204-0.634l0.205-0.623l0.214-0.615l0.225-0.604l0.232-0.592l0.236-0.582l0.247-0.573l0.128-0.282
	l0.126-0.28l0.132-0.275l0.132-0.272l0.13-0.271l0.14-0.269l0.135-0.268l0.139-0.258l0.141-0.258l0.143-0.26l0.143-0.251
	l0.146-0.251l0.146-0.247l0.15-0.243l0.15-0.24l0.154-0.236l0.154-0.236l0.154-0.229l0.157-0.229l0.158-0.225l0.161-0.222
	l0.161-0.218l0.165-0.212l0.165-0.21l0.165-0.211l0.168-0.201l0.168-0.2l0.17-0.2l0.172-0.194l0.172-0.187l0.176-0.188l0.176-0.179
	l0.178-0.18l0.179-0.177l0.18-0.172l0.181-0.165L52.5,18.12l0.183-0.161l0.185-0.154l0.187-0.154l0.188-0.146l0.187-0.146
	l0.19-0.139l0.192-0.137l0.19-0.132l0.192-0.128l0.194-0.123l0.196-0.121l0.198-0.115l0.196-0.113l0.197-0.108l0.204-0.101
	l0.198-0.103l0.203-0.093l0.203-0.09l0.202-0.086l0.207-0.083l0.205-0.075l0.207-0.075l0.207-0.068l0.205-0.064l0.21-0.061
	l0.21-0.051l0.209-0.053l0.214-0.045l0.21-0.041l0.214-0.033l0.212-0.035l0.214-0.025l0.218-0.024l0.214-0.015l0.216-0.011
	l0.218-0.007L59.996,15L60.212,15.004L60.212,15.004z M59.843,17.816l-0.154,0.003l-0.153,0.007l-0.154,0.011l-0.153,0.019
	l-0.15,0.02l-0.154,0.022l-0.15,0.022l-0.154,0.031l-0.15,0.033l-0.154,0.035l-0.15,0.04l-0.152,0.042l-0.15,0.048l-0.15,0.049
	l-0.154,0.053l-0.15,0.059l-0.154,0.061l-0.15,0.064l-0.154,0.068l-0.15,0.071l-0.154,0.075l-0.154,0.079l-0.15,0.083l-0.154,0.086
	l-0.154,0.09l-0.154,0.093l-0.15,0.097l-0.154,0.103l-0.154,0.104l-0.148,0.108l-0.154,0.113l-0.154,0.119l-0.15,0.121l-0.154,0.125
	l-0.15,0.126l-0.154,0.132l-0.15,0.136L54.06,20.5l-0.15,0.146l-0.15,0.146l-0.15,0.15l-0.15,0.154l-0.146,0.157l-0.15,0.161
	l-0.145,0.168l-0.146,0.168l-0.146,0.174l-0.146,0.176l-0.143,0.18l-0.143,0.185l-0.141,0.187l-0.143,0.19l-0.143,0.196
	l-0.139,0.194l-0.14,0.203l-0.139,0.207l-0.134,0.205l-0.136,0.214l-0.135,0.214l-0.134,0.218l-0.132,0.22l-0.132,0.225l-0.13,0.229
	l-0.128,0.232l-0.128,0.232l-0.123,0.236l-0.128,0.243l-0.119,0.244l-0.125,0.244l-0.121,0.253l-0.119,0.25l-0.117,0.258
	l-0.112,0.251l-0.229,0.533l-0.221,0.537l-0.214,0.547l-0.205,0.559l-0.2,0.571l-0.194,0.577l-0.185,0.59l-0.179,0.599l-0.169,0.608
	l-0.161,0.619l-0.157,0.626l-0.143,0.633l-0.14,0.645l-0.13,0.654L46.65,36.57l-0.112,0.665l-0.103,0.674l-0.093,0.683l-0.083,0.687
	l-0.075,0.698l-0.067,0.701l-0.055,0.705l-0.046,0.712l-0.039,0.719l-0.021,0.724l-0.019,0.729L45.934,45l0.004,0.734l0.019,0.729
	l0.021,0.724l0.039,0.719l0.046,0.712l0.055,0.705l0.067,0.701l0.075,0.698l0.083,0.687l0.093,0.683l0.103,0.674l0.112,0.665
	l0.121,0.659l0.13,0.654l0.14,0.645l0.143,0.633l0.157,0.626l0.161,0.619l0.169,0.608l0.179,0.599l0.185,0.59l0.194,0.577l0.2,0.57
	l0.205,0.56l0.214,0.545l0.221,0.539l0.229,0.53l0.112,0.253l0.117,0.26l0.119,0.249l0.121,0.253l0.125,0.242l0.119,0.245
	l0.128,0.241l0.123,0.238l0.128,0.23l0.128,0.234l0.13,0.228l0.132,0.227l0.132,0.22l0.134,0.22l0.135,0.213l0.136,0.212
	l0.134,0.209l0.139,0.205l0.14,0.201l0.139,0.198l0.143,0.194l0.143,0.189l0.141,0.188l0.143,0.183l0.143,0.18l0.146,0.18
	l0.146,0.172l0.146,0.169l0.145,0.168l0.15,0.161l0.146,0.157l0.15,0.154l0.15,0.15l0.15,0.146l0.15,0.146l0.15,0.139l0.15,0.136
	l0.154,0.128l0.15,0.128l0.154,0.125l0.15,0.12l0.154,0.117l0.154,0.114l0.148,0.109l0.154,0.106l0.154,0.099l0.15,0.099
	l0.154,0.092l0.154,0.092l0.154,0.088l0.15,0.08l0.154,0.081l0.154,0.073l0.15,0.073l0.154,0.065l0.15,0.062l0.154,0.062l0.15,0.059
	l0.154,0.051l0.15,0.052l0.15,0.048l0.152,0.04l0.15,0.044l0.154,0.033l0.15,0.033l0.154,0.029l0.15,0.021l0.154,0.025l0.15,0.019
	l0.153,0.019l0.154,0.011l0.153,0.007l0.154,0.004l0.153,0.004l0.154-0.004l0.153-0.004l0.154-0.007l0.153-0.011l0.154-0.019
	l0.15-0.019l0.154-0.025l0.15-0.021l0.153-0.029l0.15-0.033l0.154-0.033l0.149-0.044l0.15-0.04l0.153-0.048l0.15-0.052l0.154-0.051
	l0.15-0.059l0.153-0.062l0.146-0.062l0.153-0.065l0.15-0.073l0.154-0.073l0.153-0.081l0.15-0.08l0.153-0.088l0.154-0.092l0.15-0.092
	l0.153-0.099l0.154-0.099l0.153-0.106l0.15-0.109l0.154-0.114l0.153-0.117l0.15-0.12l0.153-0.125l0.15-0.128l0.15-0.128l0.153-0.136
	l0.15-0.139l0.15-0.146l0.149-0.146l0.15-0.15l0.15-0.154l0.146-0.157l0.15-0.161l0.146-0.168l0.146-0.169l0.143-0.172l0.143-0.18
	l0.146-0.18l0.143-0.183l0.144-0.188l0.143-0.189l0.143-0.194l0.14-0.198l0.139-0.201l0.14-0.205l0.136-0.209l0.131-0.212
	l0.136-0.213l0.136-0.22l0.132-0.22l0.132-0.227l0.132-0.228l0.124-0.234l0.129-0.23l0.124-0.238l0.128-0.241l0.121-0.245
	l0.121-0.242l0.121-0.253l0.121-0.249l0.117-0.26l0.109-0.253l0.23-0.53l0.22-0.539l0.216-0.545l0.205-0.56l0.198-0.57l0.198-0.577
	l0.183-0.59l0.18-0.599l0.168-0.608l0.161-0.619l0.154-0.626l0.146-0.633l0.139-0.645l0.132-0.654l0.117-0.659l0.114-0.665
	l0.102-0.674l0.092-0.683l0.084-0.687l0.074-0.698l0.069-0.701l0.055-0.705l0.044-0.712l0.037-0.719l0.025-0.724l0.018-0.729
	L74.059,45l-0.004-0.734l-0.018-0.729l-0.025-0.724l-0.037-0.719l-0.044-0.712l-0.055-0.705l-0.069-0.701l-0.074-0.698l-0.084-0.687
	l-0.092-0.683l-0.102-0.674l-0.114-0.665l-0.117-0.659l-0.132-0.654l-0.139-0.645l-0.146-0.633l-0.154-0.626l-0.161-0.619
	l-0.168-0.608l-0.18-0.599l-0.183-0.59l-0.198-0.577l-0.198-0.571l-0.205-0.559l-0.216-0.547l-0.22-0.537l-0.23-0.533l-0.109-0.251
	l-0.117-0.258l-0.121-0.25l-0.121-0.253l-0.121-0.244l-0.121-0.244l-0.128-0.243l-0.124-0.236l-0.129-0.232l-0.124-0.232
	l-0.132-0.229l-0.132-0.225l-0.132-0.22l-0.136-0.218l-0.136-0.214L68.68,23.85l-0.136-0.205l-0.14-0.207l-0.139-0.203l-0.14-0.194
	l-0.143-0.196l-0.143-0.19l-0.144-0.187l-0.143-0.185l-0.146-0.18l-0.143-0.176l-0.143-0.174l-0.146-0.168l-0.146-0.168l-0.15-0.161
	l-0.146-0.157l-0.15-0.154l-0.15-0.15l-0.149-0.146l-0.15-0.146l-0.15-0.137l-0.153-0.136l-0.15-0.132l-0.15-0.126l-0.153-0.125
	l-0.15-0.121l-0.153-0.119l-0.154-0.113l-0.15-0.108l-0.153-0.104l-0.154-0.103l-0.153-0.097l-0.15-0.093l-0.154-0.09l-0.153-0.086
	l-0.15-0.083l-0.153-0.079l-0.154-0.075l-0.15-0.071l-0.153-0.068l-0.146-0.064l-0.153-0.061l-0.15-0.059l-0.154-0.053l-0.15-0.049
	l-0.153-0.048l-0.15-0.042l-0.149-0.04l-0.154-0.035l-0.15-0.033L61.22,17.92l-0.15-0.022l-0.154-0.022l-0.15-0.02l-0.154-0.019
	l-0.153-0.011l-0.154-0.007l-0.153-0.003l-0.154-0.004L59.843,17.816L59.843,17.816z"/>
<path fill-rule="evenodd" clip-rule="evenodd" d="M60.429,15.004l0.436,0.007l0.425,0.015l0.432,0.024l0.429,0.026l0.421,0.033
	l0.426,0.042l0.424,0.04l0.422,0.053l0.414,0.057l0.417,0.064l0.417,0.068l0.41,0.07l0.414,0.084l0.406,0.081l0.407,0.091
	l0.406,0.097l0.399,0.101l0.402,0.106l0.396,0.112l0.399,0.115l0.392,0.125l0.392,0.128l0.389,0.133l0.389,0.136l0.384,0.146
	l0.381,0.146l0.378,0.154l0.381,0.157l0.369,0.165l0.37,0.168l0.374,0.172l0.362,0.178l0.362,0.183l0.362,0.187l0.355,0.192
	l0.355,0.198l0.348,0.204l0.352,0.207l0.345,0.209l0.34,0.214l0.341,0.221l0.333,0.222l0.337,0.229l0.33,0.232l0.325,0.236
	l0.322,0.243l0.319,0.244l0.314,0.251l0.315,0.254l0.308,0.256l0.308,0.262l0.3,0.265l0.301,0.271l0.289,0.273l0.293,0.278
	l0.289,0.28l0.282,0.286l0.282,0.289l0.274,0.293l0.271,0.295l0.267,0.3l0.268,0.304l0.257,0.308l-0.25,0.179l-0.252,0.181
	l-0.26,0.176l-0.264,0.172l-0.268,0.172l-0.271,0.17l-0.274,0.168l-0.282,0.165l-0.285,0.161l-0.286,0.161l-0.293,0.158l-0.3,0.158
	l-0.297,0.153l-0.308,0.154l-0.304,0.146l-0.312,0.15l-0.315,0.141l-0.322,0.143l-0.325,0.139l-0.326,0.139l-0.329,0.134
	l-0.334,0.132l-0.337,0.128L75.9,29.495l-0.34,0.123l-0.352,0.125l-0.348,0.116l-0.355,0.117L74.15,30.09l-0.362,0.108l-0.362,0.11
	l-0.367,0.104l-0.369,0.101l-0.374,0.103l-0.377,0.097l-0.374,0.093l-0.381,0.09L70.8,30.983l-0.389,0.086l-0.388,0.083
	l-0.393,0.079l-0.395,0.075l-0.396,0.071l-0.398,0.069l-0.406,0.064l-0.399,0.064l-0.41,0.061l-0.407,0.057l-0.413,0.055
	l-0.414,0.049l-0.414,0.049l-0.417,0.04l-0.422,0.042l-0.421,0.037L63.893,32l-0.425,0.029l-0.429,0.026l-0.428,0.023l-0.433,0.019
	l-0.436,0.018l-0.436,0.011l-0.433,0.011l-0.439,0.004h-0.439h-0.439l-0.438-0.004l-0.439-0.011l-0.434-0.011l-0.433-0.018
	l-0.432-0.019l-0.431-0.023l-0.427-0.026L56.1,32l-0.423-0.035l-0.425-0.037l-0.419-0.042l-0.418-0.04L54,31.796l-0.412-0.049
	l-0.412-0.055l-0.41-0.057l-0.408-0.061l-0.401-0.064l-0.404-0.064l-0.397-0.069l-0.397-0.071l-0.394-0.075l-0.394-0.079
	l-0.39-0.083l-0.386-0.086l-0.383-0.088l-0.383-0.09l-0.375-0.093l-0.379-0.097l-0.372-0.103l-0.366-0.101l-0.368-0.104l-0.364-0.11
	l-0.359-0.108l-0.357-0.115l-0.355-0.117l-0.35-0.116l-0.348-0.125l-0.346-0.123l-0.337-0.128l-0.337-0.128l-0.335-0.132
	l-0.33-0.134l-0.326-0.139l-0.326-0.139l-0.318-0.143l-0.315-0.141l-0.312-0.15l-0.308-0.146l-0.304-0.154l-0.304-0.153
	l-0.296-0.158l-0.292-0.158l-0.285-0.161l-0.286-0.161l-0.28-0.165l-0.278-0.168l-0.269-0.17l-0.268-0.172l-0.266-0.172l-0.26-0.176
	l-0.255-0.181l-0.247-0.179l0.258-0.308l0.267-0.304l0.266-0.3l0.275-0.295l0.273-0.293l0.282-0.289l0.28-0.286l0.289-0.28
	l0.29-0.278l0.296-0.273l0.298-0.271l0.301-0.265l0.308-0.262l0.308-0.256l0.311-0.254l0.319-0.251l0.318-0.244l0.322-0.243
	l0.328-0.236l0.33-0.232l0.333-0.229l0.333-0.222l0.342-0.221l0.341-0.214l0.344-0.209l0.35-0.207l0.348-0.204l0.357-0.198
	l0.355-0.192l0.361-0.187l0.365-0.183l0.362-0.178l0.372-0.172l0.372-0.168l0.372-0.165l0.379-0.157l0.377-0.154l0.379-0.146
	l0.386-0.146l0.386-0.136l0.39-0.133l0.39-0.128l0.394-0.125l0.394-0.115l0.401-0.112l0.397-0.106l0.407-0.101l0.405-0.097
	l0.404-0.091l0.408-0.081l0.412-0.084l0.414-0.07l0.412-0.068l0.419-0.064l0.417-0.057l0.419-0.053l0.425-0.04l0.423-0.042
	l0.423-0.033l0.429-0.026l0.43-0.024l0.429-0.015l0.43-0.007L59.996,15L60.429,15.004L60.429,15.004z M59.603,17.816l-0.394,0.007
	l-0.39,0.015l-0.386,0.019l-0.39,0.024l-0.386,0.029l-0.383,0.039l-0.383,0.04l-0.382,0.046l-0.379,0.051l-0.373,0.057l-0.379,0.061
	l-0.372,0.068l-0.375,0.071l-0.368,0.075l-0.37,0.082l-0.364,0.086l-0.368,0.094L52.8,18.775l-0.361,0.103l-0.359,0.104
	l-0.357,0.112l-0.357,0.114l-0.352,0.123l-0.35,0.125l-0.348,0.132l-0.344,0.13l-0.342,0.139l-0.341,0.146l-0.337,0.146
	l-0.339,0.154l-0.333,0.157l-0.33,0.161l-0.33,0.165l-0.328,0.168l-0.322,0.172l-0.322,0.181l-0.319,0.183l-0.315,0.183
	l-0.311,0.192l-0.312,0.194l-0.308,0.2l-0.304,0.207l-0.304,0.205l-0.294,0.211l-0.297,0.214l-0.293,0.22l-0.289,0.222l-0.288,0.226
	l-0.282,0.232l-0.282,0.232l-0.276,0.236l-0.275,0.243l-0.269,0.244l-0.266,0.248l-0.017,0.016l0.185,0.097l0.273,0.139l0.274,0.139
	l0.28,0.134l0.286,0.132l0.29,0.132l0.287,0.13l0.297,0.128l0.3,0.128l0.304,0.123l0.308,0.121l0.312,0.119l0.315,0.117l0.315,0.115
	l0.322,0.113l0.326,0.108l0.326,0.108l0.335,0.106l0.333,0.101l0.337,0.101l0.341,0.099l0.346,0.097l0.348,0.09l0.35,0.09
	l0.352,0.089l0.36,0.083l0.357,0.083l0.362,0.083l0.364,0.075l0.368,0.075l0.37,0.071l0.375,0.068l0.375,0.064l0.379,0.064
	l0.379,0.061l0.381,0.055l0.386,0.053l0.386,0.053l0.39,0.044l0.394,0.046l0.394,0.04l0.399,0.039l0.397,0.033l0.401,0.035
	l0.401,0.025l0.405,0.026l0.404,0.024l0.41,0.018l0.409,0.015l0.412,0.011l0.412,0.011l0.417,0.004h0.416h0.418l0.414-0.004
	l0.414-0.011l0.414-0.011l0.406-0.015l0.41-0.018l0.403-0.024l0.406-0.026l0.402-0.025l0.399-0.035l0.399-0.033l0.396-0.039
	l0.396-0.04l0.392-0.046l0.392-0.044l0.385-0.053l0.389-0.053l0.381-0.055l0.381-0.061l0.377-0.064l0.373-0.064l0.378-0.068
	l0.37-0.071l0.365-0.075l0.367-0.075l0.362-0.083l0.354-0.083l0.359-0.083l0.355-0.089l0.348-0.09l0.352-0.09l0.344-0.097
	l0.341-0.099l0.337-0.101l0.334-0.101l0.333-0.106l0.325-0.108l0.33-0.108l0.314-0.113l0.322-0.115l0.315-0.117l0.312-0.119
	l0.308-0.121l0.304-0.123l0.297-0.128l0.293-0.128l0.293-0.13l0.289-0.132l0.285-0.132l0.279-0.134l0.274-0.139l0.271-0.139
	l0.188-0.097l-0.016-0.016l-0.264-0.248l-0.271-0.244l-0.274-0.243l-0.278-0.236l-0.282-0.232l-0.278-0.232l-0.289-0.226
	l-0.29-0.222l-0.293-0.22l-0.296-0.214l-0.297-0.211l-0.304-0.205l-0.305-0.207l-0.307-0.2l-0.312-0.194l-0.312-0.192l-0.314-0.183
	l-0.319-0.183l-0.322-0.181l-0.322-0.172l-0.325-0.168l-0.33-0.165l-0.33-0.161l-0.333-0.157l-0.337-0.154l-0.34-0.146l-0.341-0.146
	l-0.341-0.139l-0.344-0.13l-0.349-0.132l-0.354-0.125l-0.349-0.123l-0.354-0.114l-0.355-0.112l-0.363-0.104l-0.358-0.103
	l-0.358-0.097l-0.37-0.094l-0.362-0.086l-0.37-0.082l-0.37-0.075l-0.373-0.071l-0.37-0.068l-0.381-0.061l-0.374-0.057l-0.381-0.051
	l-0.381-0.046l-0.385-0.04l-0.384-0.039l-0.385-0.029l-0.388-0.024l-0.389-0.019l-0.392-0.015l-0.392-0.007l-0.392-0.004
	L59.603,17.816L59.603,17.816z"/>
<path fill-rule="evenodd" clip-rule="evenodd" d="M60.436,57.859l0.439,0.004l0.433,0.011l0.436,0.011l0.436,0.018l0.433,0.019
	l0.428,0.023l0.429,0.026L63.893,58l0.425,0.035l0.421,0.037l0.422,0.042l0.417,0.04l0.414,0.049l0.414,0.049l0.413,0.055
	l0.407,0.057l0.41,0.061l0.399,0.064l0.406,0.062l0.398,0.071l0.396,0.071l0.395,0.075l0.393,0.079l0.388,0.083l0.389,0.086
	l0.384,0.086l0.381,0.092l0.374,0.093l0.377,0.097l0.374,0.101l0.369,0.103l0.367,0.104l0.362,0.108l0.362,0.11l0.355,0.115
	l0.355,0.117l0.348,0.117l0.352,0.121l0.34,0.125l0.341,0.128l0.337,0.128l0.334,0.132l0.329,0.136l0.326,0.135l0.325,0.14
	l0.322,0.143l0.315,0.144l0.312,0.149l0.304,0.146l0.308,0.154l0.297,0.153l0.3,0.158l0.293,0.157l0.286,0.161l0.285,0.161
	l0.282,0.165l0.274,0.168l0.271,0.168l0.268,0.173l0.264,0.176l0.26,0.176l0.252,0.179l0.25,0.18l-0.257,0.308l-0.268,0.304
	l-0.267,0.301l-0.271,0.297l-0.274,0.293l-0.282,0.285l-0.282,0.286l-0.289,0.282l-0.293,0.277l-0.289,0.275l-0.301,0.268
	l-0.3,0.267l-0.308,0.264l-0.308,0.253l-0.315,0.256l-0.314,0.253l-0.319,0.242l-0.322,0.245l-0.325,0.234l-0.33,0.234l-0.337,0.227
	l-0.333,0.224l-0.341,0.22l-0.34,0.213l-0.345,0.212l-0.352,0.205l-0.348,0.202l-0.355,0.201l-0.355,0.19l-0.362,0.187l-0.362,0.184
	l-0.362,0.176l-0.374,0.172l-0.37,0.168l-0.369,0.169l-0.381,0.157l-0.378,0.154l-0.381,0.143l-0.384,0.146l-0.389,0.135
	l-0.389,0.136l-0.392,0.128l-0.392,0.125l-0.399,0.113l-0.396,0.113l-0.402,0.106l-0.399,0.103l-0.406,0.096l-0.407,0.092
	l-0.406,0.08L65.5,74.498l-0.41,0.07l-0.417,0.069l-0.417,0.062l-0.414,0.056L63.42,74.81l-0.424,0.04l-0.426,0.041l-0.421,0.036
	l-0.429,0.025l-0.432,0.022l-0.425,0.015l-0.436,0.007L59.996,75l-0.436-0.004l-0.43-0.007l-0.429-0.015l-0.43-0.022l-0.429-0.025
	l-0.423-0.036l-0.423-0.041l-0.425-0.04l-0.419-0.055l-0.417-0.056l-0.419-0.062l-0.412-0.069l-0.414-0.07l-0.412-0.084l-0.408-0.08
	l-0.404-0.092l-0.405-0.096l-0.407-0.103l-0.397-0.106l-0.401-0.113l-0.394-0.113l-0.394-0.125l-0.39-0.128l-0.39-0.136
	l-0.386-0.135l-0.386-0.146l-0.379-0.143l-0.377-0.154l-0.379-0.157l-0.372-0.169l-0.372-0.168l-0.372-0.172l-0.362-0.176
	l-0.365-0.184l-0.361-0.187l-0.355-0.19l-0.357-0.201l-0.348-0.202l-0.35-0.205l-0.344-0.212l-0.341-0.213l-0.342-0.22l-0.333-0.224
	l-0.333-0.227l-0.33-0.234l-0.328-0.234l-0.322-0.245l-0.318-0.242l-0.319-0.253l-0.311-0.256l-0.308-0.253l-0.308-0.264
	l-0.301-0.267l-0.298-0.268l-0.296-0.275l-0.29-0.277l-0.289-0.282l-0.28-0.286l-0.282-0.285l-0.273-0.293l-0.275-0.297
	l-0.266-0.301l-0.267-0.304l-0.258-0.308l0.247-0.18l0.255-0.179l0.26-0.176l0.266-0.176l0.268-0.173l0.269-0.168l0.278-0.168
	l0.28-0.165l0.286-0.161l0.285-0.161l0.292-0.157l0.296-0.158l0.304-0.153l0.304-0.154l0.308-0.146l0.312-0.149l0.315-0.144
	l0.318-0.143l0.326-0.14l0.326-0.135l0.33-0.136l0.335-0.132l0.337-0.128l0.337-0.128l0.346-0.125l0.348-0.121l0.35-0.117
	l0.355-0.117l0.357-0.115l0.359-0.11l0.364-0.108l0.368-0.104l0.366-0.103l0.372-0.101l0.379-0.097l0.375-0.093l0.383-0.092
	l0.383-0.086l0.386-0.086l0.39-0.083l0.394-0.079l0.394-0.075l0.397-0.071l0.397-0.071l0.404-0.062l0.401-0.064l0.408-0.061
	l0.41-0.057l0.412-0.055L54,58.204l0.416-0.049l0.418-0.04l0.419-0.042l0.425-0.037L56.1,58l0.425-0.029l0.427-0.026l0.431-0.023
	l0.432-0.019l0.433-0.018l0.434-0.011l0.439-0.011l0.438-0.004h0.439H60.436L60.436,57.859z M59.581,60.67l-0.417,0.004
	l-0.412,0.011l-0.412,0.011l-0.409,0.018l-0.41,0.019l-0.404,0.022l-0.405,0.026l-0.401,0.025l-0.401,0.033l-0.397,0.036
	l-0.399,0.037l-0.394,0.04l-0.394,0.044l-0.39,0.048l-0.386,0.051l-0.386,0.052l-0.381,0.059l-0.383,0.059l-0.375,0.062
	l-0.375,0.065l-0.375,0.065l-0.37,0.074l-0.368,0.072l-0.364,0.077l-0.362,0.081l-0.357,0.084l-0.36,0.08l-0.352,0.092l-0.35,0.088
	l-0.348,0.092l-0.346,0.099l-0.341,0.096l-0.337,0.103l-0.333,0.103l-0.335,0.103l-0.326,0.109l-0.326,0.11l-0.322,0.109
	l-0.315,0.117l-0.315,0.117l-0.312,0.121l-0.308,0.117l-0.304,0.124l-0.3,0.129l-0.297,0.128l-0.287,0.132l-0.29,0.132l-0.286,0.128
	l-0.28,0.136l-0.274,0.14l-0.273,0.139l-0.185,0.099l0.017,0.015l0.266,0.246l0.269,0.245l0.275,0.241l0.276,0.238l0.282,0.23
	l0.282,0.234l0.288,0.224l0.289,0.224l0.293,0.22l0.297,0.216l0.294,0.209l0.304,0.205l0.304,0.209l0.308,0.197l0.312,0.194
	l0.311,0.19l0.315,0.183l0.319,0.187l0.322,0.18l0.322,0.172l0.328,0.169l0.33,0.165l0.33,0.161l0.333,0.157l0.339,0.154
	l0.337,0.146l0.341,0.146l0.342,0.139l0.344,0.132l0.348,0.128l0.35,0.125l0.352,0.124l0.357,0.114l0.357,0.109l0.359,0.106
	l0.361,0.103l0.359,0.095l0.368,0.096l0.364,0.088l0.37,0.08l0.368,0.077l0.375,0.069l0.372,0.066l0.379,0.062l0.373,0.056
	l0.379,0.055l0.382,0.044l0.383,0.04l0.383,0.037l0.386,0.032l0.39,0.022l0.386,0.019l0.39,0.015l0.394,0.007l0.394,0.004
	l0.392-0.004l0.392-0.007l0.392-0.015l0.389-0.019l0.388-0.022l0.385-0.032l0.384-0.037l0.385-0.04l0.381-0.044l0.381-0.055
	l0.374-0.056l0.381-0.062l0.37-0.066l0.373-0.069l0.37-0.077l0.37-0.08l0.362-0.088l0.37-0.096l0.358-0.095l0.358-0.103l0.363-0.106
	l0.355-0.109l0.354-0.114l0.349-0.124l0.354-0.125l0.349-0.128l0.344-0.132l0.341-0.139l0.341-0.146l0.34-0.146l0.337-0.154
	l0.333-0.157l0.33-0.161l0.33-0.165l0.325-0.169l0.322-0.172l0.322-0.18l0.319-0.187l0.314-0.183l0.312-0.19l0.312-0.194
	l0.307-0.197l0.305-0.209l0.304-0.205l0.297-0.209l0.296-0.216l0.293-0.22l0.29-0.224l0.289-0.224l0.278-0.234l0.282-0.23
	l0.278-0.238l0.274-0.241l0.271-0.245l0.264-0.246l0.016-0.015l-0.188-0.099l-0.271-0.139l-0.274-0.14l-0.279-0.136l-0.285-0.128
	l-0.289-0.132l-0.293-0.132l-0.293-0.128l-0.297-0.129l-0.304-0.124l-0.308-0.117l-0.312-0.121l-0.315-0.117l-0.322-0.117
	l-0.314-0.109l-0.33-0.11l-0.325-0.109l-0.333-0.103l-0.334-0.103l-0.337-0.103l-0.341-0.096l-0.344-0.099l-0.352-0.092
	l-0.348-0.088l-0.355-0.092l-0.359-0.08l-0.354-0.084l-0.362-0.081l-0.367-0.077l-0.365-0.072l-0.37-0.074l-0.378-0.065
	l-0.373-0.065l-0.377-0.062l-0.381-0.059l-0.381-0.059l-0.389-0.052l-0.385-0.051l-0.392-0.048l-0.392-0.044l-0.396-0.04
	l-0.396-0.037l-0.399-0.036l-0.399-0.033l-0.402-0.025l-0.406-0.026l-0.403-0.022l-0.41-0.019l-0.406-0.018l-0.414-0.011
	l-0.414-0.011l-0.414-0.004h-0.418H59.581L59.581,60.67z"/>
<path d="M15,40.001v-3.03h20.606c1.546,0,2.688-0.326,3.421-0.981c0.734-0.657,1.102-1.488,1.102-2.498
	c0-0.286-0.039-0.571-0.121-0.855c-0.079-0.286-0.184-0.547-0.319-0.791c-0.135-0.249-0.286-0.473-0.451-0.676
	c-0.165-0.207-0.34-0.379-0.533-0.521l1.564-1.969c0.443,0.333,0.829,0.705,1.159,1.113c0.335,0.414,0.604,0.837,0.818,1.28
	c0.214,0.441,0.372,0.895,0.476,1.36c0.101,0.469,0.154,0.923,0.154,1.366c0,0.82-0.139,1.604-0.416,2.355
	c-0.278,0.749-0.707,1.41-1.291,1.976c-0.584,0.569-1.335,1.023-2.25,1.366c-0.916,0.337-2.014,0.505-3.292,0.505
	c0.679,0.541,1.316,1.132,1.904,1.789c0.593,0.656,1.107,1.368,1.542,2.145c0.436,0.772,0.773,1.598,1.02,2.476
	c0.243,0.873,0.364,1.803,0.364,2.783c0,1.814-0.342,3.468-1.027,4.96c-0.687,1.492-1.613,2.769-2.772,3.825
	c-1.163,1.059-2.516,1.879-4.062,2.465c-1.549,0.586-3.175,0.875-4.878,0.875c-1.692,0-3.299-0.289-4.834-0.875
	c-1.531-0.586-2.88-1.406-4.05-2.465c-1.166-1.057-2.1-2.333-2.794-3.825C15.348,52.661,15,51.008,15,49.193
	c0-1.013,0.125-1.961,0.368-2.855c0.243-0.892,0.584-1.721,1.016-2.486c0.434-0.769,0.945-1.47,1.529-2.108
	c0.586-0.641,1.223-1.221,1.917-1.743H15L15,40.001z M18.078,49.193c0,1.436,0.278,2.713,0.829,3.836
	c0.551,1.121,1.282,2.073,2.19,2.853c0.908,0.784,1.939,1.377,3.094,1.789c1.15,0.408,2.327,0.615,3.528,0.615
	c1.181,0,2.351-0.218,3.503-0.652c1.154-0.432,2.183-1.051,3.093-1.846c0.908-0.798,1.639-1.758,2.201-2.88
	c0.561-1.117,0.841-2.358,0.841-3.715c0-1.328-0.286-2.551-0.852-3.671c-0.569-1.123-1.31-2.089-2.216-2.902
	c-0.908-0.815-1.939-1.448-3.091-1.906c-1.15-0.458-2.312-0.687-3.479-0.687c-1.17,0-2.329,0.229-3.484,0.687
	c-1.15,0.458-2.183,1.091-3.089,1.906c-0.908,0.813-1.646,1.78-2.217,2.902C18.364,46.643,18.078,47.866,18.078,49.193
	L18.078,49.193z M25.137,48.836c0-0.344,0.068-0.676,0.201-0.983c0.136-0.306,0.315-0.577,0.544-0.806
	c0.229-0.229,0.5-0.408,0.808-0.543c0.308-0.134,0.641-0.202,1.003-0.202c0.35,0,0.679,0.068,0.998,0.202
	c0.315,0.135,0.589,0.315,0.83,0.543c0.236,0.229,0.419,0.5,0.555,0.806c0.135,0.308,0.203,0.639,0.203,0.983
	c0,0.35-0.068,0.676-0.203,0.983c-0.136,0.308-0.319,0.577-0.555,0.806c-0.24,0.229-0.515,0.408-0.83,0.544
	c-0.319,0.135-0.648,0.203-0.998,0.203c-0.363,0-0.696-0.068-1.003-0.203c-0.308-0.136-0.579-0.315-0.808-0.544
	c-0.229-0.229-0.408-0.498-0.544-0.806C25.205,49.512,25.137,49.186,25.137,48.836L25.137,48.836z"/>
<path d="M79.435,40.001v-3.03h20.606c1.55,0,2.688-0.326,3.425-0.981c0.732-0.657,1.099-1.488,1.099-2.498
	c0-0.286-0.037-0.571-0.113-0.855c-0.081-0.286-0.191-0.547-0.326-0.791c-0.129-0.249-0.278-0.473-0.451-0.676
	c-0.164-0.207-0.34-0.379-0.53-0.521l1.563-1.969c0.443,0.333,0.828,0.705,1.164,1.113c0.33,0.414,0.602,0.837,0.813,1.28
	c0.212,0.441,0.37,0.895,0.476,1.36c0.104,0.469,0.154,0.923,0.154,1.366c0,0.82-0.139,1.604-0.418,2.355
	c-0.274,0.749-0.703,1.41-1.289,1.976c-0.586,0.569-1.336,1.023-2.248,1.366c-0.916,0.337-2.014,0.505-3.296,0.505
	c0.681,0.541,1.318,1.132,1.911,1.789c0.59,0.656,1.103,1.368,1.535,2.145c0.436,0.772,0.772,1.598,1.021,2.476
	c0.242,0.873,0.366,1.803,0.366,2.783c0,1.814-0.345,3.468-1.029,4.96c-0.688,1.492-1.614,2.769-2.772,3.825
	c-1.16,1.059-2.516,1.879-4.061,2.465c-1.549,0.586-3.176,0.875-4.878,0.875c-1.692,0-3.3-0.289-4.834-0.875
	c-1.531-0.586-2.882-1.406-4.051-2.465c-1.168-1.057-2.099-2.333-2.794-3.825c-0.692-1.492-1.044-3.146-1.044-4.96
	c0-1.013,0.125-1.961,0.37-2.855c0.242-0.892,0.586-1.721,1.018-2.486c0.433-0.769,0.941-1.47,1.527-2.108
	c0.586-0.641,1.224-1.221,1.919-1.743H79.435L79.435,40.001z M82.515,49.193c0,1.436,0.278,2.713,0.827,3.836
	c0.557,1.121,1.286,2.073,2.19,2.853c0.912,0.784,1.94,1.377,3.095,1.789c1.153,0.408,2.329,0.615,3.53,0.615
	c1.183,0,2.351-0.218,3.501-0.652c1.157-0.432,2.186-1.051,3.094-1.846c0.908-0.798,1.641-1.758,2.201-2.88
	c0.564-1.117,0.839-2.358,0.839-3.715c0-1.328-0.282-2.551-0.85-3.671c-0.571-1.123-1.308-2.089-2.216-2.902
	c-0.908-0.815-1.938-1.448-3.091-1.906c-1.149-0.458-2.314-0.687-3.479-0.687c-1.172,0-2.329,0.229-3.483,0.687
	c-1.153,0.458-2.182,1.091-3.09,1.906c-0.908,0.813-1.648,1.78-2.213,2.902C82.801,46.643,82.515,47.866,82.515,49.193
	L82.515,49.193z M89.571,48.836c0-0.344,0.069-0.676,0.205-0.983c0.132-0.306,0.315-0.577,0.542-0.806
	c0.23-0.229,0.498-0.408,0.806-0.543c0.308-0.134,0.645-0.202,1.007-0.202c0.349,0,0.678,0.068,0.996,0.202
	c0.315,0.135,0.594,0.315,0.828,0.543c0.238,0.229,0.421,0.5,0.557,0.806c0.136,0.308,0.201,0.639,0.201,0.983
	c0,0.35-0.065,0.676-0.201,0.983s-0.318,0.577-0.557,0.806c-0.234,0.229-0.513,0.408-0.828,0.544
	c-0.318,0.135-0.647,0.203-0.996,0.203c-0.362,0-0.699-0.068-1.007-0.203c-0.308-0.136-0.575-0.315-0.806-0.544
	c-0.227-0.229-0.41-0.498-0.542-0.806C89.641,49.512,89.571,49.186,89.571,48.836L89.571,48.836z"/>
</svg>
