<svg width="200" height="150" xmlns="http://www.w3.org/2000/svg" fill-rule="evenodd" clip-rule="evenodd" stroke-linejoin="round" stroke-miterlimit="1.414"><path fill="#fff" d="M0 0h200v150H0z"/><path d="M13.001 36.5H19m-6.499-2h7m-7.5-2h8" fill="none" stroke-width=".75" stroke="#000" transform="matrix(2.63158 0 0 2.63158 57.895 22.368)"/><path d="M79.479 88.858c.326.55.671 1.095 1.031 1.626 1.669 2.466 3.658 4.68 5.548 6.966.297.36.59.724.879 1.09 1.247 1.597 2.426 3.263 3.266 5.118.44.96.773 1.968 1.076 2.981.387 1.3.71 2.616 1.003 3.937.742 3.358 1.286 6.76 1.763 10.169l.087.623.129 1h11.486c.1-.76.203-1.523.31-2.284.104-.72.211-1.445.322-2.166.474-3.01 1.003-6.013 1.729-8.968.537-2.179 1.158-4.368 2.226-6.358.924-1.713 2.095-3.276 3.324-4.784 1.079-1.332 2.208-2.629 3.295-3.955.294-.364.59-.73.881-1.098.963-1.25 1.884-2.529 2.684-3.887.666.145 1.35.216 2.053.216.287 0 .576-.01.86-.037a31.58 31.58 0 0 1-1.755 2.908c-1.713 2.53-3.752 4.81-5.692 7.16l-.842 1.043c-1.076 1.379-2.103 2.81-2.85 4.4-.481 1.018-.824 2.097-1.137 3.176a58.92 58.92 0 0 0-1.029 4.203c-.81 3.897-1.4 7.84-1.897 11.792l-.082.684-.068.587h-16.15a153.65 153.65 0 0 0-.263-2.179 231.83 231.83 0 0 0-.319-2.363c-.486-3.387-1.04-6.769-1.815-10.1a46.997 46.997 0 0 0-.774-2.96c-.366-1.227-.792-2.427-1.397-3.553-.843-1.569-1.927-2.998-3.048-4.374-1.081-1.329-2.208-2.626-3.295-3.95-.308-.379-.613-.76-.915-1.145-1.298-1.676-2.514-3.408-3.503-5.284l-.024-.04c.256.022.513.032.774.032.729 0 1.44-.079 2.129-.226zm-5.132-16.86a26.14 26.14 0 0 1 2.43-6.664A26.385 26.385 0 0 1 89.788 53.38a26.03 26.03 0 0 1 6.543-1.808 27.74 27.74 0 0 1 2.992-.247c.34-.006.676-.008 1.015-.006a26.077 26.077 0 0 1 10.458 2.318 26.329 26.329 0 0 1 8.414 6.05 26.278 26.278 0 0 1 5.213 8.253 26.694 26.694 0 0 1 1.229 4.058h-2.7a23.443 23.443 0 0 0-1.795-4.926c-2.458-4.94-6.653-8.942-11.708-11.155a23.5 23.5 0 0 0-8.537-1.95 31.42 31.42 0 0 0-1.22-.016c-.906.016-1.806.074-2.704.187a23.642 23.642 0 0 0-5.644 1.447 23.689 23.689 0 0 0-7.837 5.084 23.712 23.712 0 0 0-5.266 7.706 23.468 23.468 0 0 0-1.197 3.623h-2.698z"/><path d="M117.592 89.2a21.064 21.064 0 0 1-2.884 3.495 21.16 21.16 0 0 1-6.513 4.331 21.081 21.081 0 0 1-7.924 1.653 21.12 21.12 0 0 1-7.992-1.458 21.113 21.113 0 0 1-6.624-4.179 21.318 21.318 0 0 1-3.26-3.866 9.79 9.79 0 0 0 1.653-1.074 19.093 19.093 0 0 0 2.623 3.177c1.7 1.66 3.71 3.005 5.9 3.932a19.073 19.073 0 0 0 7.182 1.492 19.096 19.096 0 0 0 7.242-1.321 19.134 19.134 0 0 0 6.002-3.785 19.38 19.38 0 0 0 2.937-3.473c.332.263.682.502 1.042.723.203.13.408.242.616.353zm.153-18.592a19.208 19.208 0 0 0-.753-1.66 19.231 19.231 0 0 0-8.721-8.514 18.94 18.94 0 0 0-8.516-1.879c-.892.016-1.779.082-2.66.219a18.877 18.877 0 0 0-5.153 1.56 19.244 19.244 0 0 0-8.605 8.003 18.96 18.96 0 0 0-1.11 2.35c-.7.005-1.403.002-2.103 0 .315-.905.692-1.787 1.129-2.64a21.224 21.224 0 0 1 9.394-9.279 20.931 20.931 0 0 1 5.63-1.86 22.054 22.054 0 0 1 2.912-.313c.361-.01.724-.016 1.087-.013.982.018 1.963.092 2.932.239 1.968.3 3.892.884 5.692 1.724a21.235 21.235 0 0 1 9.616 9.052c.526.969.976 1.982 1.342 3.021-.705-.007-1.41-.01-2.113-.01zM113.224 76.645a9.014 9.014 0 0 0-.692 1.973H87.384a8.888 8.888 0 0 0-.708-1.973h26.548z"/><path d="M16 13.2v15.6" fill="none" stroke-width=".75" stroke="#000" transform="matrix(2.63158 0 0 2.63158 57.895 22.368)"/><path d="M100.155 56.582l.153.005.153.008.155.01.15.016.15.018.15.024.152.024.153.029.147.031.148.037.15.037.147.042.145.045.147.047.148.053.142.053.144.057.145.06.142.064.142.066.285.142.14.076.136.08.142.08.137.085.137.087.134.09.137.091.268.195.263.205.135.108.129.108.128.113.13.116.126.116.255.245.247.252.124.132.121.132.121.136.237.28.118.141.116.148.119.147.115.15.114.153.113.155.11.158.11.16.109.161.215.332.106.168.105.171.1.174.103.176.1.176.2.364.097.181.097.187.095.19.092.189.092.192.09.192.179.395.173.402.164.408.163.416.158.424.15.431.15.437.14.445.133.45.127.458.12.463.12.468.107.477.103.481.097.485.09.492.081.497.076.503.069.505.063.513.055.516.05.518.042.527.035.529.028.529.019.536.013.54-.029.545-.003.542-.013.54-.018.536-.03.529-.033.529-.042.526-.05.519-.056.515-.063.514-.068.502-.077.503-.081.495-.09.492-.097.487-.103.481-.107.48-.119.467-.121.464-.126.458-.134.452-.14.442-.15.437-.15.432-.158.426-.163.413-.163.408-.174.4-.09.2-.089.195-.09.192-.091.192-.092.19-.095.186-.098.187-.097.18-.1.18-.1.182-.1.174-.103.176-.1.171-.105.171-.105.166-.108.166-.108.166-.108.16-.11.16-.11.161-.114.156-.113.155-.116.15-.118.15-.116.147-.119.142-.118.14-.118.142-.121.137-.122.131-.123.132-.124.129-.124.124-.129.126-.126.12-.126.117-.13.115-.128.114-.129.108-.134.107-.132.103-.131.103-.13.102-.134.098-.136.092-.135.087-.136.086-.137.085-.142.079-.137.081-.14.074-.142.068-.142.071-.142.066-.142.06-.145.061-.145.055-.142.056-.147.055-.147.047-.145.048-.148.042-.15.037-.147.037-.147.034-.153.029-.153.023-.15.024-.15.021-.15.016-.155.01-.152.008-.153.006-.129.002-.153-.002-.152-.006-.153-.008-.15-.01-.153-.016-.15-.02-.15-.025-.15-.023-.147-.03-.15-.033-.147-.037-.148-.037-.147-.042-.145-.048-.144-.047-.145-.055-.145-.056-.145-.055-.142-.06-.142-.06-.142-.067-.14-.07-.139-.07-.14-.073-.139-.081-.137-.08-.14-.084-.133-.086-.137-.087-.134-.092-.135-.098-.134-.097-.131-.103-.132-.102-.132-.108-.129-.108-.129-.113-.128-.116-.127-.116-.126-.12-.126-.127-.124-.124-.124-.129-.123-.131-.122-.132-.12-.137-.119-.142-.118-.14-.119-.142-.116-.147-.115-.15-.116-.15-.113-.155-.11-.155-.114-.16-.11-.161-.108-.161-.108-.166-.108-.166-.106-.165-.105-.171-.102-.171-.103-.177-.1-.173-.1-.182-.1-.182-.097-.179-.095-.186-.095-.187-.095-.19-.092-.192-.092-.192-.09-.195-.089-.2-.17-.4-.17-.408-.162-.413-.158-.426-.15-.432-.145-.436-.14-.443-.134-.452-.129-.458-.12-.463-.117-.469-.11-.479-.103-.481-.094-.487-.09-.492-.084-.495-.076-.503-.071-.502-.061-.513-.058-.516-.047-.519-.042-.526-.035-.529-.026-.529-.018-.537-.01-.54-.006-.546.005-.543.01-.539.02-.537.025-.529.035-.529.042-.526.047-.518.058-.516.06-.513.072-.506.076-.502.084-.498.09-.492.094-.484.103-.482.11-.476.116-.468.121-.463.13-.458.133-.45.14-.445.145-.437.15-.432.158-.423.163-.416.168-.408.171-.403.09-.197.09-.197.091-.192.092-.192.095-.19.095-.19.095-.186.097-.182.1-.181.1-.182.1-.176.103-.177.102-.173.105-.171.106-.169.108-.166.108-.165.107-.16.11-.161.114-.158.11-.156.114-.152.116-.15.115-.148.116-.147.119-.142.118-.14.118-.139.121-.137.122-.131.123-.132.124-.126.124-.127.126-.123.126-.121.127-.116.128-.116.13-.113.128-.108.132-.108.132-.103.131-.102.134-.098.135-.097.134-.092.137-.09.134-.086.14-.085.136-.081.14-.08.139-.075.14-.071.139-.071.142-.066.142-.063.142-.061.145-.058.145-.052.145-.053.144-.047.145-.045.147-.042.148-.037.147-.037.15-.032.147-.029.15-.023.15-.024.15-.018.153-.016.15-.01.153-.009.152-.005.153-.005.155.003zm-.263 1.973l-.108.003-.108.005-.108.008-.107.013-.106.013-.108.016-.105.016-.108.021-.105.024-.108.023-.105.03-.105.028-.108.034-.106.035-.108.037-.105.042-.108.042-.105.044-.108.048-.105.05-.108.052-.108.056-.105.058-.108.06-.108.063-.105.066-.108.069-.108.07-.105.074-.108.077-.108.079-.105.084-.108.084-.108.087-.105.09-.106.091-.108.095-.105.097-.105.103-.105.103-.106.105-.102.108-.105.11-.103.114-.105.118-.103.118-.103.121-.1.124-.102.126-.1.13-.1.131-.1.134-.098.137-.1.137-.097.142-.097.145-.095.144-.095.15-.095.15-.094.153-.092.155-.093.158-.092.16-.09.164-.089.163-.086.166-.087.17-.087.172-.087.171-.084.176-.082.177-.084.181-.079.177-.16.373-.156.377-.15.384-.144.392-.14.4-.137.405-.129.413-.126.421-.118.427-.114.434-.107.44-.103.444-.097.453-.09.458-.087.463-.076.466-.074.473-.066.48-.057.48-.053.49-.047.495-.04.495-.032.497-.023.505-.019.506-.01.513-.005.516.005.513.01.513.019.505.023.505.032.498.04.495.047.494.053.49.057.484.066.479.074.474.076.468.087.463.09.458.097.453.103.447.107.437.114.437.118.426.126.418.13.414.136.405.14.4.144.39.15.384.156.376.16.374.079.176.084.179.082.176.084.176.087.169.174.342.086.163.18.326.091.164.093.158.092.155.284.458.095.144.194.29.1.134.098.14.1.134.2.263.102.124.1.123.103.124.103.118.105.119.103.113.105.11.102.108.106.106.21.205.105.097.108.092.106.093.105.089.108.087.108.084.105.082.108.079.108.076.105.074.216.136.105.066.216.121.105.056.108.055.108.052.105.053.108.047.105.048.108.042.105.042.108.037.106.037.108.034.105.029.105.031.108.024.105.024.108.02.105.017.108.015.106.016.107.013.108.008.108.006.108.002.108-.002.108-.003.108-.003.108-.005.108-.008.107-.013.106-.016.108-.016.108-.015.105-.021.105-.024.108-.024.105-.031.108-.03.103-.034.108-.036.108-.037.102-.042.108-.042.108-.048.108-.047.108-.053.102-.052.108-.056.108-.055.105-.06.108-.061.108-.066.105-.068.108-.069.108-.073.106-.077.107-.079.108-.081.106-.084.107-.087.106-.09.108-.092.105-.092.105-.097.105-.103.106-.103.105-.105.105-.108.103-.11.105-.113.103-.119.102-.118.103-.124.1-.124.1-.123.1-.132.1-.131.1-.135.1-.14.097-.133.098-.145.097-.145.095-.145.095-.152.092-.153.094-.152.093-.156.092-.158.092-.163.087-.163.089-.163.09-.163.086-.171.087-.171.082-.169.084-.176.084-.176.082-.18.076-.176.163-.373.156-.377.152-.384.145-.39.142-.4.137-.405.129-.413.126-.418.119-.427.115-.436.108-.437.103-.448.095-.452.092-.458.081-.463.08-.469.07-.473.063-.48.06-.484.054-.489.047-.495.04-.494.031-.498.029-.505.018-.505.01-.514.011-.507-.002-.514-.01-.513-.02-.505-.028-.505-.032-.498-.04-.494-.047-.495-.052-.49-.06-.481-.064-.48-.07-.473-.08-.466-.081-.463-.093-.458-.094-.452-.103-.445-.108-.44-.116-.434-.118-.426-.126-.421-.13-.416-.136-.405-.142-.4-.145-.392-.153-.384-.155-.377-.163-.373-.076-.177-.082-.181-.084-.177-.084-.176-.082-.171-.087-.171-.087-.171-.09-.166-.089-.163-.086-.163-.092-.16-.093-.159-.092-.155-.094-.153-.093-.15-.094-.15-.095-.144-.097-.145-.098-.142-.097-.137-.1-.137-.1-.134-.1-.132-.1-.129-.1-.126-.1-.124-.108-.12-.103-.119-.102-.118-.106-.114-.102-.11-.105-.108-.106-.105-.105-.103-.105-.103-.105-.097-.106-.095-.108-.092-.105-.09-.108-.086-.105-.084-.108-.084-.108-.08-.105-.076-.108-.073-.108-.071-.105-.069-.108-.066-.108-.063-.105-.06-.108-.058-.108-.056-.103-.052-.108-.05-.107-.048-.108-.044-.108-.042-.103-.042-.108-.037-.108-.035-.102-.034-.108-.029-.105-.029-.108-.023-.106-.024-.105-.021-.108-.016-.105-.016-.108-.013-.108-.013-.108-.008-.108-.005-.107-.003-.111-.002-.108.002z"/><path d="M100.305 56.582l.3.005.303.01.3.016.3.019.297.023.3.03.298.028.294.037.29.04.295.044.289.048.287.05.29.057.284.058.284.064.284.068.282.071.279.074.278.079.277.081.273.087.277.09.27.094.275.095.27.103.269.102.268.108.266.11.263.116.26.119.261.12.256.125.255.129.255.131.25.134.25.14.245.142.247.145.242.147.243.15.473.31.234.161.232.163.229.166.226.171.224.171.224.176.218.18.216.178.216.185.21.186.21.19.209.192.402.392.198.2.197.203.195.205.187.208.189.21.184.214.18.215-.172.127-.179.126-.179.124-.184.12-.19.122-.189.118-.192.119-.197.115-.198.114-.202.113-.206.11-.208.11-.207.109-.216.108-.216.102-.218.105-.222.1-.223.1-.23.098-.23.097-.232.095-.235.092-.236.09-.237.089-.242.087-.248.087-.244.081-.25.082-.25.081-.256.077-.255.076-.258.074-.26.07-.26.072-.267.068-.265.066-.269.063-.271.06-.271.061-.274.058-.273.055-.277.053-.276.05-.279.05-.282.045-.281.045-.287.042-.284.04-.287.039-.292.034-.29.034-.292.029-.294.029-.295.026-.298.024-.297.02-.297.02-.303.015-.303.013-.302.013-.303.008-.308.008-.308.003h-.626l-.308-.003-.305-.008-.305-.008-.306-.013-.302-.013-.3-.016-.303-.018-.297-.021-.298-.024-.297-.026-.295-.03-.292-.028-.292-.034-.29-.034-.289-.04-.287-.04-.284-.041-.284-.045-.282-.045-.281-.05-.28-.05-.276-.053-.276-.055-.27-.058-.272-.06-.271-.06-.266-.064-.266-.066-.263-.068-.263-.071-.258-.071-.258-.074-.255-.076-.253-.077-.25-.081-.247-.082-.247-.081-.245-.087-.24-.087-.239-.09-.237-.089-.234-.092-.232-.095-.229-.097-.226-.098-.226-.1-.221-.1-.219-.105-.215-.102-.214-.108-.21-.108-.208-.11-.205-.111-.203-.113-.2-.114-.197-.115-.192-.119-.193-.118-.186-.121-.185-.121-.181-.124-.18-.126-.175-.127.181-.215.187-.214.187-.21.192-.208.192-.205.197-.203.198-.2.202-.197.206-.195.205-.192.21-.19.211-.186.216-.185.216-.179.22-.179.222-.176.223-.17.227-.172.229-.166.231-.163.234-.16.235-.156.24-.155.239-.15.242-.147.244-.145.248-.142.247-.14.25-.134.253-.131.255-.13.258-.123.258-.121.26-.119.26-.115.267-.11.265-.109.269-.102.268-.103.271-.095.274-.094.274-.09.276-.087.279-.081.279-.08.282-.073.281-.071.284-.068.285-.064.286-.058.29-.057.29-.05.291-.048.293-.045.292-.039.294-.037.298-.029.297-.029.297-.023.3-.019.303-.016.3-.01.305-.005.303-.003.305.003zm-.581 1.973l-.274.006-.274.01-.273.013-.274.016-.268.021-.272.026-.268.03-.268.03-.266.038-.263.04-.266.041-.26.048-.261.05-.26.052-.261.058-.255.06-.256.067-.255.068-.253.071-.252.074-.25.079-.248.079-.247.086-.247.087-.242.092-.245.092-.24.098-.24.102-.236.103-.237.108-.234.11-.232.114-.231.115-.23.119-.225.12-.227.127-.223.13-.222.128-.218.134-.218.137-.216.14-.213.144-.21.145-.211.148-.208.15-.206.155-.202.155-.203.158-.197.163-.198.163-.194.166-.192.171-.19.171-.187.174-.01.01.131.069.19.097.195.098.194.094.2.092.203.092.205.093.416.179.213.086.216.085.218.084.221.081.224.082.224.079.458.153.234.073.234.071.237.071.24.069.242.068.489.126.25.064.25.058.505.115.256.053.257.053.26.05.264.047.263.045.266.044.266.043.268.039.542.074.274.031.276.032.277.029.279.026.279.024.281.023.282.019.284.018.284.016.287.013.29.01.286.009.29.008.292.002h.584l.292-.002.287-.008.287-.008.287-.01.287-.014.281-.016.284-.018.28-.019.28-.023.28-.024.276-.026.276-.03.274-.03.274-.032.27-.037.275-.037.268-.04.271-.042.263-.044.266-.045.263-.047.26-.05.261-.053.255-.053.256-.058.252-.057.253-.058.247-.064.245-.063.245-.063.245-.068.239-.069.237-.07.234-.072.234-.073.23-.077.228-.076.23-.08.22-.08.221-.082.219-.084.215-.085.211-.086.21-.09.208-.09.203-.092.203-.092.2-.092.197-.094.19-.098.192-.097.129-.069-.008-.01-.19-.174-.187-.17-.192-.172-.194-.166-.198-.163-.195-.163-.202-.158-.203-.155-.205-.155-.208-.15-.208-.148-.213-.145-.213-.144-.216-.14-.218-.137-.219-.134-.22-.129-.225-.129-.226-.126-.226-.121-.232-.119-.231-.115-.232-.113-.234-.111-.234-.108-.24-.103-.242-.102-.24-.098-.242-.092-.244-.092-.248-.087-.247-.086-.25-.08-.25-.078-.253-.074-.255-.071-.253-.068-.257-.066-.258-.06-.258-.059-.263-.052-.26-.05-.264-.048-.266-.042-.266-.04-.268-.036-.268-.032-.269-.029-.271-.026-.271-.021-.274-.016-.27-.013-.274-.01-.274-.006-.258-.002-.276.002zM100.308 86.658h.308l.308.01.302.006.303.015.303.011.302.018.298.019.297.02.297.027.295.027.295.028.292.03.29.036.291.034.287.04.285.042.286.042.282.048.282.042.278.052.553.106.547.11.272.06.27.058.269.064.532.131.52.142.259.071.51.153.25.079.25.082.245.078.247.087.242.087.474.18.234.091.232.092.231.098.23.097.223.1.221.1.218.105.216.103.216.108.208.108.208.11.205.11.203.114.197.113.197.116.193.118.189.119.19.123.184.119.179.124.179.128.17.127-.178.216-.185.213-.189.21-.187.206-.195.205-.197.205-.197.197-.203.198-.2.195-.208.189-.21.19-.21.186-.217.182-.208.187-.218.179-.224.173-.223.171-.227.171-.229.164-.231.163-.234.16-.237.156-.237.157-.242.153-.242.145-.248.147-.244.142-.25.14-.25.137-.256.131-.255.13-.255.123-.26.124-.261.118-.263.113-.266.113-.269.108-.268.103-.271.102-.274.093-.27.094-.277.09-.274.087-.276.081-.28.076-.278.074-.282.069-.284.068-.284.063-.284.055-.29.058-.287.05-.29.048-.294.047-.29.042-.294.037-.295.029-.294.029-.298.026-.3.016-.3.018-.302.011-.3.005H100l-.303-.002-.305-.006-.3-.01-.303-.019-.3-.015-.297-.027-.297-.026-.298-.029-.294-.037-.292-.042-.293-.047-.292-.048-.29-.05-.289-.058-.286-.055-.285-.063-.284-.068-.281-.069-.282-.074-.279-.076-.279-.081-.276-.087-.274-.09-.274-.094-.27-.093-.27-.102-.268-.103-.265-.108-.266-.113-.26-.113-.261-.118-.258-.124-.258-.124-.255-.129-.253-.131-.25-.137-.247-.14-.248-.142-.244-.147-.242-.145-.24-.153-.24-.157-.234-.156-.234-.16-.231-.163-.23-.164-.226-.17-.223-.172-.221-.173-.221-.18-.216-.178-.216-.182-.21-.187-.211-.19-.205-.189-.206-.194-.202-.198-.198-.197-.197-.205-.192-.206-.192-.205-.187-.21-.187-.214-.181-.215.176-.127.179-.129.181-.123.185-.119.186-.123.193-.119.192-.118.197-.116.2-.113.203-.113.205-.11.208-.111.21-.108.214-.108.215-.103.219-.105.22-.1.227-.1.226-.097.23-.098.23-.092.235-.092.237-.09.24-.089.239-.087.245-.087.247-.079.247-.081.25-.08.253-.075.255-.077.258-.07.258-.072.263-.07.263-.067.266-.065.266-.064.271-.058.271-.06.271-.055.276-.056.277-.052.279-.053.281-.052.282-.043.284-.047.284-.042.287-.042.29-.04.29-.034.291-.037.292-.029.295-.029.297-.026.298-.026.297-.021.303-.019.3-.018.302-.01.306-.016.305-.006.305-.01h.924v-.008zm-.6 1.974h-.292l-.29.01-.287.005-.289.01-.287.017-.284.015-.284.019-.282.018-.281.027-.28.02-.278.03-.277.029-.276.031-.274.032-.27.04-.272.039-.268.037-.266.044-.266.045-.263.047-.263.048-.26.052-.258.053-.256.053-.252.058-.253.057-.25.056-.25.063-.245.063-.244.06-.243.066-.24.071-.236.069-.234.068-.234.074-.23.076-.228.074-.224.081-.224.08-.22.081-.22.084-.215.082-.213.087-.208.09-.208.089-.205.092-.203.092-.2.092-.194.092-.195.097-.19.098-.131.066.01.01.187.174.19.17.192.172.194.163.395.326.405.316.206.155.208.153.21.147.21.145.214.147.216.14.218.137.218.134.222.132.223.129.227.126.226.12.229.12.231.115.232.113.234.11.237.109.237.102.24.103.239.097.245.092.242.093.247.086.247.085.248.079.25.076.252.074.253.07.255.069.256.063.515.116.26.055.522.1.266.042.263.04.266.04.268.03.268.03.272.029.268.02.274.017.273.013.274.01.274.006H100l.276-.003.274-.005.274-.01.27-.014.274-.016.271-.02.272-.03.268-.029.268-.031.269-.04.266-.04.265-.041.264-.05.26-.05.263-.056.258-.058.255-.057.26-.064.254-.068.255-.071.252-.074.25-.076.25-.079.248-.084.247-.087.245-.092.242-.092.24-.098.242-.102.239-.103.234-.108.234-.11.232-.114.232-.115.229-.119.226-.12.226-.127.224-.129.22-.132.22-.134.218-.137.216-.14.213-.147.213-.144.208-.148.208-.152.205-.156.203-.157.202-.158.195-.163.197-.164.195-.163.192-.17.187-.172.19-.174.007-.01-.129-.066-.192-.097-.19-.098-.197-.092-.2-.092-.202-.092-.203-.092-.208-.09-.21-.089-.21-.087-.217-.081-.218-.085-.221-.081-.221-.08-.229-.08-.229-.074-.229-.077-.234-.073-.234-.069-.237-.068-.24-.071-.244-.066-.245-.06-.245-.064-.247-.063-.253-.055-.252-.058-.256-.058-.255-.053-.26-.052-.261-.053-.263-.047-.266-.048-.263-.044-.271-.045-.269-.037-.273-.04-.271-.039-.274-.031-.274-.032-.276-.029-.276-.029-.28-.021-.28-.026-.28-.019-.284-.018-.282-.016-.286-.016-.287-.01-.287-.006-.287-.01H99.708v.003z"/><path d="M68.424 74.124v-2.127h14.46c1.087 0 1.887-.229 2.403-.69.513-.46.77-1.044.77-1.752 0-.2-.025-.4-.08-.6a2.532 2.532 0 0 0-.227-.555 2.748 2.748 0 0 0-.316-.474 2.04 2.04 0 0 0-.373-.365l1.097-1.382a4.593 4.593 0 0 1 1.387 1.679 4.434 4.434 0 0 1 .442 1.913 4.72 4.72 0 0 1-.292 1.653c-.192.526-.495.99-.906 1.387-.41.4-.936.718-1.578.957-.643.237-1.414.356-2.311.356.476.379.924.794 1.34 1.258.415.457.773.957 1.078 1.502.306.542.543 1.124.716 1.737.171.613.258 1.266.258 1.953 0 1.27-.242 2.434-.724 3.481a8.293 8.293 0 0 1-1.944 2.684 8.84 8.84 0 0 1-2.85 1.73 9.668 9.668 0 0 1-3.424.613 9.485 9.485 0 0 1-3.392-.614 8.975 8.975 0 0 1-2.842-1.729 8.279 8.279 0 0 1-1.96-2.684c-.488-1.047-.732-2.21-.732-3.481a7.549 7.549 0 0 1 .973-3.75c.303-.54.66-1.032 1.071-1.48.41-.45.858-.855 1.348-1.223h-3.392v.003zm2.16 6.45c0 1.008.195 1.905.582 2.69.39.786.9 1.454 1.537 2.004.64.55 1.36.966 2.17 1.256a7.355 7.355 0 0 0 2.477.431c.832 0 1.65-.155 2.458-.458a6.969 6.969 0 0 0 2.17-1.294 6.561 6.561 0 0 0 1.546-2.021c.394-.787.59-1.656.59-2.608 0-.932-.2-1.792-.598-2.577a6.872 6.872 0 0 0-1.556-2.034 7.173 7.173 0 0 0-2.168-1.337 6.524 6.524 0 0 0-2.442-.484c-.821 0-1.634.16-2.445.484a7.153 7.153 0 0 0-2.168 1.337 6.888 6.888 0 0 0-1.553 2.034 5.6 5.6 0 0 0-.6 2.577zm4.953-.25c0-.242.047-.477.142-.692.095-.214.221-.403.381-.566.161-.163.35-.284.566-.384.216-.093.453-.14.706-.14.244 0 .476.047.7.14.22.097.415.22.581.384.166.163.295.352.39.566.094.215.142.45.142.692a1.767 1.767 0 0 1-.532 1.255c-.166.16-.36.287-.581.382a1.728 1.728 0 0 1-.7.144 1.7 1.7 0 0 1-.706-.144 1.788 1.788 0 0 1-1.09-1.637zM113.642 74.124v-2.127h14.46c1.087 0 1.89-.229 2.403-.69.513-.46.771-1.044.771-1.752 0-.2-.026-.4-.081-.6a2.898 2.898 0 0 0-.537-1.029 2.243 2.243 0 0 0-.38-.365l1.098-1.382c.31.234.582.495.819.782.231.289.42.586.573.897a4.425 4.425 0 0 1 .44 1.913 4.72 4.72 0 0 1-.292 1.653c-.192.526-.495.99-.905 1.387-.411.4-.937.718-1.582.957-.64.237-1.41.356-2.31.356.478.379.926.794 1.342 1.258.413.457.776.957 1.076 1.502a7.81 7.81 0 0 1 .716 1.737c.17.613.258 1.266.258 1.953 0 1.27-.243 2.434-.722 3.481a8.332 8.332 0 0 1-1.944 2.684 8.784 8.784 0 0 1-2.85 1.73 9.657 9.657 0 0 1-3.424.613 9.485 9.485 0 0 1-3.392-.614 8.946 8.946 0 0 1-2.842-1.729 8.203 8.203 0 0 1-1.96-2.684c-.488-1.047-.732-2.21-.732-3.481 0-.713.087-1.377.26-2.003a7.472 7.472 0 0 1 .713-1.747c.306-.54.66-1.032 1.071-1.48.411-.45.858-.855 1.348-1.223h-3.395v.003zm2.16 6.45c0 1.008.195 1.905.582 2.69.39.786.905 1.454 1.54 2.004.637.55 1.36.966 2.168 1.256a7.29 7.29 0 0 0 2.476.431c.83 0 1.65-.155 2.46-.458a6.956 6.956 0 0 0 2.17-1.294 6.561 6.561 0 0 0 1.544-2.021c.395-.787.59-1.656.59-2.608 0-.932-.195-1.792-.598-2.577a6.943 6.943 0 0 0-1.552-2.034 7.166 7.166 0 0 0-2.171-1.337 6.524 6.524 0 0 0-2.443-.484c-.82 0-1.634.16-2.444.484a7.122 7.122 0 0 0-2.169 1.337 6.888 6.888 0 0 0-1.552 2.034 5.6 5.6 0 0 0-.6 2.577zm4.953-.25c0-.242.05-.477.145-.692.092-.214.221-.403.382-.566a1.92 1.92 0 0 1 .565-.384c.216-.093.453-.14.71-.14.243 0 .477.047.698.14.221.097.416.22.582.384.166.163.297.352.39.566.094.215.141.45.141.692 0 .244-.047.473-.142.69a1.726 1.726 0 0 1-.39.565c-.162.16-.36.287-.58.382a1.716 1.716 0 0 1-.698.144c-.258 0-.495-.047-.71-.144a1.818 1.818 0 0 1-.566-.382c-.161-.16-.287-.35-.382-.566a1.653 1.653 0 0 1-.145-.69z" fill-rule="nonzero"/><path d="M6.252 11.001L2.01 6.758m8.787 1.285L8.501 2.5m7.5 4.5V1m5.204 7.043L23.501 2.5m2.247 8.501l4.242-4.243" fill="none" stroke-width=".75" stroke-linecap="round" stroke="#000" transform="matrix(2.63158 0 0 2.63158 57.895 22.368)"/></svg>