<?xml version="1.0" encoding="UTF-8" standalone="no"?>
<!DOCTYPE svg PUBLIC "-//W3C//DTD SVG 1.1//EN" "http://www.w3.org/Graphics/SVG/1.1/DTD/svg11.dtd">
<svg width="200px" height="150px" version="1.1" xmlns="http://www.w3.org/2000/svg" xmlns:xlink="http://www.w3.org/1999/xlink" xml:space="preserve" style="fill-rule:evenodd;clip-rule:evenodd;stroke-linejoin:round;stroke-miterlimit:1.41421;">
    <g id="Background" transform="matrix(0.5,0,0,0.5,0,0)">
        <rect x="0" y="0" width="400" height="300" style="fill:#fff;"/>
    </g>
    <g id="Inspiring-Online" transform="matrix(2.63158,-7.78481e-32,-7.78481e-32,2.63158,57.8947,22.3684)">
        <path d="M13.001,36.5L19,36.5M12.501,34.5L19.501,34.5M12.001,32.5L20.001,32.5" style="fill:none;stroke-width:0.75px;stroke:#000;"/>
        <path d="M8.202,25.266C8.326,25.475 8.457,25.682 8.594,25.884C9.228,26.821 9.984,27.662 10.702,28.531C10.815,28.668 10.926,28.806 11.036,28.945C11.51,29.552 11.958,30.185 12.277,30.89C12.444,31.255 12.571,31.638 12.686,32.023C12.833,32.517 12.956,33.017 13.067,33.519C13.349,34.795 13.556,36.088 13.737,37.383L13.77,37.62L13.819,38L18.184,38C18.222,37.711 18.261,37.421 18.302,37.132C18.341,36.858 18.382,36.583 18.424,36.309C18.604,35.165 18.805,34.024 19.081,32.901C19.285,32.073 19.521,31.241 19.927,30.485C20.278,29.834 20.723,29.24 21.19,28.667C21.6,28.161 22.029,27.668 22.442,27.164C22.554,27.026 22.666,26.887 22.777,26.747C23.143,26.272 23.493,25.786 23.797,25.27C24.05,25.325 24.31,25.352 24.577,25.352C24.686,25.352 24.796,25.348 24.904,25.338C24.703,25.719 24.477,26.087 24.237,26.443C23.586,27.404 22.811,28.271 22.074,29.164C21.967,29.296 21.86,29.428 21.754,29.56C21.345,30.084 20.955,30.628 20.671,31.232C20.488,31.619 20.358,32.029 20.239,32.439C20.087,32.965 19.961,33.5 19.848,34.036C19.54,35.517 19.316,37.015 19.127,38.517L19.096,38.777L19.07,39L12.933,39C12.902,38.725 12.868,38.447 12.833,38.172C12.794,37.872 12.754,37.573 12.712,37.274C12.527,35.987 12.317,34.702 12.022,33.436C11.935,33.057 11.839,32.682 11.728,32.311C11.589,31.845 11.427,31.389 11.197,30.961C10.877,30.365 10.465,29.822 10.039,29.299C9.628,28.794 9.2,28.301 8.787,27.798C8.67,27.654 8.554,27.509 8.439,27.363C7.946,26.726 7.484,26.068 7.108,25.355L7.099,25.34C7.196,25.348 7.294,25.352 7.393,25.352C7.67,25.352 7.94,25.322 8.202,25.266ZM6.252,18.859C6.443,17.978 6.754,17.124 7.175,16.327C7.716,15.301 8.438,14.372 9.296,13.592C10.127,12.837 11.085,12.222 12.12,11.784C12.914,11.448 13.752,11.216 14.606,11.097C14.983,11.044 15.362,11.015 15.743,11.003C15.872,11.001 16,11 16.129,11.001C16.552,11.009 16.975,11.038 17.394,11.097C18.329,11.228 19.244,11.493 20.103,11.882C21.307,12.426 22.4,13.213 23.3,14.181C24.149,15.091 24.824,16.16 25.281,17.317C25.477,17.818 25.634,18.334 25.748,18.859L24.722,18.859C24.566,18.212 24.336,17.583 24.04,16.987C23.106,15.11 21.512,13.589 19.591,12.748C18.882,12.438 18.132,12.221 17.367,12.104C17.029,12.052 16.689,12.022 16.347,12.007C16.193,12.002 16.038,12 15.883,12.001C15.539,12.007 15.197,12.029 14.856,12.072C14.122,12.166 13.4,12.351 12.711,12.622C11.602,13.06 10.585,13.721 9.733,14.554C8.881,15.385 8.196,16.386 7.732,17.482C7.543,17.928 7.391,18.389 7.277,18.859L6.252,18.859Z" style="fill:#000;"/>
        <path d="M22.685,25.396C22.37,25.875 22.001,26.322 21.589,26.724C20.875,27.42 20.032,27.982 19.114,28.37C18.163,28.772 17.135,28.985 16.103,28.998C15.066,29.011 14.031,28.824 13.066,28.444C12.137,28.078 11.28,27.536 10.549,26.856C10.08,26.418 9.663,25.924 9.31,25.387C9.358,25.362 9.406,25.336 9.454,25.309C9.624,25.211 9.786,25.102 9.938,24.979C10.226,25.416 10.56,25.821 10.935,26.186C11.581,26.817 12.345,27.328 13.177,27.68C14.039,28.043 14.97,28.237 15.906,28.247C16.845,28.259 17.784,28.09 18.658,27.745C19.5,27.414 20.277,26.922 20.939,26.307C21.362,25.912 21.737,25.468 22.055,24.987C22.181,25.087 22.314,25.178 22.451,25.262C22.528,25.311 22.606,25.354 22.685,25.396ZM22.743,18.331C22.658,18.116 22.562,17.906 22.457,17.7C21.739,16.298 20.562,15.148 19.143,14.465C18.528,14.168 17.87,13.96 17.196,13.848C16.862,13.793 16.526,13.763 16.188,13.752C16.094,13.751 16,13.75 15.907,13.751C15.568,13.757 15.231,13.782 14.896,13.834C14.219,13.937 13.558,14.137 12.938,14.427C11.564,15.068 10.408,16.145 9.668,17.468C9.507,17.756 9.366,18.054 9.246,18.361C8.98,18.363 8.713,18.362 8.447,18.361C8.567,18.017 8.71,17.682 8.876,17.358C9.654,15.84 10.919,14.59 12.446,13.832C13.121,13.496 13.843,13.258 14.585,13.125C14.951,13.06 15.32,13.022 15.692,13.006C15.829,13.002 15.967,13 16.105,13.001C16.478,13.008 16.851,13.036 17.219,13.092C17.967,13.206 18.698,13.428 19.382,13.747C20.927,14.469 22.222,15.688 23.036,17.187C23.236,17.555 23.407,17.94 23.546,18.335C23.278,18.332 23.01,18.331 22.743,18.331Z" style="fill:#000;"/>
        <path d="M21.025,20.625C20.909,20.863 20.82,21.116 20.762,21.375L11.206,21.375C11.157,21.161 11.086,20.951 10.996,20.75C10.977,20.707 10.958,20.666 10.937,20.625L21.025,20.625Z" style="fill:#000;"/>
        <path d="M16,13.2L16,28.8" style="fill:none;stroke-width:0.75px;stroke:#000;"/>
        <path d="M16.059,13.001L16.117,13.003L16.175,13.006L16.234,13.01L16.291,13.016L16.348,13.023L16.405,13.032L16.463,13.041L16.521,13.052L16.577,13.064L16.633,13.078L16.69,13.092L16.746,13.108L16.801,13.125L16.857,13.143L16.913,13.163L16.967,13.183L17.022,13.205L17.077,13.228L17.131,13.252L17.185,13.277L17.293,13.331L17.346,13.36L17.398,13.39L17.452,13.421L17.504,13.453L17.556,13.486L17.607,13.52L17.659,13.555L17.761,13.629L17.861,13.707L17.912,13.748L17.961,13.789L18.01,13.832L18.059,13.876L18.107,13.92L18.204,14.013L18.298,14.109L18.345,14.159L18.391,14.209L18.437,14.261L18.527,14.367L18.572,14.421L18.616,14.477L18.661,14.533L18.705,14.59L18.748,14.648L18.791,14.707L18.833,14.767L18.875,14.828L18.916,14.889L18.998,15.015L19.038,15.079L19.078,15.144L19.116,15.21L19.155,15.277L19.193,15.344L19.269,15.482L19.306,15.551L19.343,15.622L19.379,15.694L19.414,15.766L19.449,15.839L19.483,15.912L19.551,16.062L19.617,16.215L19.679,16.37L19.741,16.528L19.801,16.689L19.858,16.853L19.915,17.019L19.968,17.188L20.019,17.359L20.067,17.533L20.113,17.709L20.158,17.887L20.199,18.068L20.238,18.251L20.275,18.435L20.309,18.622L20.34,18.811L20.369,19.002L20.395,19.194L20.419,19.389L20.44,19.585L20.459,19.782L20.475,19.982L20.488,20.183L20.499,20.384L20.506,20.588L20.511,20.793L20.5,21L20.499,21.206L20.494,21.411L20.487,21.615L20.476,21.816L20.463,22.017L20.447,22.217L20.428,22.414L20.407,22.61L20.383,22.805L20.357,22.996L20.328,23.187L20.297,23.375L20.263,23.562L20.226,23.747L20.187,23.93L20.146,24.112L20.101,24.29L20.055,24.466L20.007,24.64L19.956,24.812L19.903,24.98L19.846,25.146L19.789,25.31L19.729,25.472L19.667,25.629L19.605,25.784L19.539,25.936L19.505,26.012L19.471,26.086L19.437,26.159L19.402,26.232L19.367,26.304L19.331,26.375L19.294,26.446L19.257,26.514L19.219,26.583L19.181,26.652L19.143,26.718L19.104,26.785L19.066,26.85L19.026,26.915L18.986,26.978L18.945,27.041L18.904,27.104L18.863,27.165L18.821,27.226L18.779,27.287L18.736,27.346L18.693,27.405L18.649,27.462L18.604,27.519L18.56,27.575L18.515,27.629L18.47,27.682L18.425,27.736L18.379,27.788L18.333,27.838L18.286,27.888L18.239,27.937L18.192,27.984L18.143,28.032L18.095,28.078L18.047,28.122L17.998,28.166L17.949,28.209L17.9,28.25L17.849,28.291L17.799,28.33L17.749,28.369L17.7,28.408L17.649,28.445L17.597,28.48L17.546,28.513L17.494,28.546L17.442,28.578L17.388,28.608L17.336,28.639L17.283,28.667L17.229,28.693L17.175,28.72L17.121,28.745L17.067,28.768L17.012,28.791L16.957,28.812L16.903,28.833L16.847,28.854L16.791,28.872L16.736,28.89L16.68,28.906L16.623,28.92L16.567,28.934L16.511,28.947L16.453,28.958L16.395,28.967L16.338,28.976L16.281,28.984L16.224,28.99L16.165,28.994L16.107,28.997L16.049,28.999L16,29L15.942,28.999L15.884,28.997L15.826,28.994L15.769,28.99L15.711,28.984L15.654,28.976L15.597,28.967L15.54,28.958L15.484,28.947L15.427,28.934L15.371,28.92L15.315,28.906L15.259,28.89L15.204,28.872L15.149,28.854L15.094,28.833L15.039,28.812L14.984,28.791L14.93,28.768L14.876,28.745L14.822,28.72L14.769,28.693L14.716,28.667L14.663,28.639L14.61,28.608L14.558,28.578L14.505,28.546L14.454,28.513L14.402,28.48L14.351,28.445L14.3,28.408L14.249,28.371L14.199,28.332L14.149,28.293L14.099,28.252L14.05,28.211L14.001,28.168L13.952,28.124L13.904,28.08L13.856,28.034L13.808,27.986L13.761,27.939L13.714,27.89L13.667,27.84L13.621,27.79L13.575,27.738L13.53,27.684L13.485,27.631L13.44,27.577L13.396,27.521L13.352,27.464L13.308,27.407L13.265,27.348L13.223,27.289L13.18,27.228L13.138,27.167L13.097,27.106L13.056,27.043L13.015,26.98L12.975,26.917L12.935,26.852L12.896,26.787L12.857,26.72L12.819,26.654L12.781,26.585L12.743,26.516L12.706,26.448L12.67,26.377L12.634,26.306L12.598,26.234L12.563,26.161L12.528,26.088L12.494,26.014L12.46,25.938L12.395,25.786L12.331,25.631L12.269,25.474L12.209,25.312L12.152,25.148L12.097,24.982L12.044,24.814L11.993,24.642L11.944,24.468L11.898,24.292L11.854,24.114L11.812,23.932L11.773,23.749L11.737,23.564L11.703,23.377L11.671,23.189L11.642,22.998L11.615,22.807L11.592,22.612L11.57,22.416L11.552,22.219L11.536,22.019L11.523,21.818L11.513,21.617L11.506,21.413L11.502,21.208L11.5,21L11.502,20.794L11.506,20.589L11.513,20.385L11.523,20.184L11.536,19.983L11.552,19.783L11.57,19.586L11.592,19.39L11.615,19.195L11.642,19.003L11.671,18.812L11.703,18.623L11.737,18.436L11.773,18.252L11.812,18.069L11.854,17.888L11.898,17.71L11.944,17.534L11.993,17.36L12.044,17.189L12.097,17.02L12.152,16.854L12.209,16.69L12.269,16.529L12.331,16.371L12.395,16.216L12.46,16.063L12.494,15.988L12.528,15.913L12.563,15.84L12.598,15.767L12.634,15.695L12.67,15.623L12.706,15.552L12.743,15.483L12.781,15.414L12.819,15.345L12.857,15.278L12.896,15.211L12.935,15.145L12.975,15.08L13.015,15.016L13.056,14.953L13.097,14.89L13.138,14.829L13.18,14.768L13.223,14.708L13.265,14.649L13.308,14.591L13.352,14.534L13.396,14.478L13.44,14.422L13.485,14.368L13.53,14.315L13.575,14.262L13.621,14.21L13.667,14.16L13.714,14.11L13.761,14.062L13.808,14.014L13.856,13.967L13.904,13.921L13.952,13.877L14.001,13.833L14.05,13.79L14.099,13.749L14.149,13.708L14.199,13.669L14.249,13.63L14.3,13.593L14.351,13.556L14.402,13.521L14.454,13.487L14.505,13.454L14.558,13.422L14.61,13.391L14.663,13.361L14.716,13.332L14.769,13.305L14.822,13.278L14.876,13.253L14.93,13.229L14.984,13.206L15.039,13.184L15.094,13.164L15.149,13.144L15.204,13.126L15.259,13.109L15.315,13.093L15.371,13.079L15.427,13.065L15.484,13.053L15.54,13.042L15.597,13.033L15.654,13.024L15.711,13.017L15.769,13.011L15.826,13.007L15.884,13.004L15.942,13.002L16,13L16.059,13.001ZM15.959,13.751L15.918,13.752L15.877,13.754L15.836,13.757L15.795,13.762L15.755,13.767L15.714,13.773L15.674,13.779L15.633,13.787L15.593,13.796L15.552,13.805L15.512,13.816L15.472,13.827L15.431,13.84L15.391,13.853L15.35,13.867L15.31,13.883L15.269,13.899L15.229,13.916L15.188,13.934L15.148,13.953L15.107,13.973L15.066,13.994L15.026,14.016L14.985,14.039L14.944,14.063L14.904,14.088L14.863,14.114L14.822,14.141L14.782,14.169L14.741,14.198L14.7,14.228L14.66,14.26L14.619,14.292L14.578,14.325L14.538,14.359L14.498,14.394L14.457,14.43L14.417,14.467L14.377,14.506L14.337,14.545L14.297,14.585L14.258,14.626L14.218,14.668L14.179,14.711L14.139,14.756L14.1,14.801L14.061,14.847L14.023,14.894L13.984,14.942L13.946,14.991L13.908,15.041L13.87,15.092L13.833,15.144L13.795,15.196L13.758,15.25L13.721,15.305L13.685,15.36L13.649,15.417L13.613,15.474L13.577,15.532L13.542,15.591L13.507,15.651L13.472,15.712L13.438,15.774L13.404,15.836L13.371,15.899L13.338,15.964L13.305,16.029L13.272,16.094L13.24,16.161L13.209,16.228L13.177,16.297L13.147,16.364L13.086,16.506L13.027,16.649L12.97,16.795L12.915,16.944L12.862,17.096L12.81,17.25L12.761,17.407L12.713,17.567L12.668,17.729L12.625,17.894L12.584,18.061L12.545,18.23L12.508,18.402L12.474,18.576L12.441,18.752L12.412,18.929L12.384,19.109L12.359,19.291L12.337,19.474L12.317,19.66L12.299,19.848L12.284,20.036L12.272,20.225L12.263,20.417L12.256,20.609L12.252,20.804L12.25,21L12.252,21.195L12.256,21.39L12.263,21.582L12.272,21.774L12.284,21.963L12.299,22.151L12.317,22.339L12.337,22.525L12.359,22.709L12.384,22.891L12.412,23.071L12.441,23.249L12.474,23.425L12.508,23.599L12.545,23.771L12.584,23.941L12.625,24.107L12.668,24.273L12.713,24.435L12.761,24.594L12.81,24.751L12.862,24.905L12.915,25.057L12.97,25.205L13.027,25.351L13.086,25.494L13.147,25.636L13.177,25.703L13.209,25.771L13.24,25.838L13.272,25.905L13.305,25.969L13.371,26.099L13.404,26.161L13.472,26.285L13.507,26.347L13.542,26.407L13.577,26.466L13.685,26.64L13.721,26.695L13.795,26.805L13.833,26.856L13.87,26.909L13.908,26.96L13.984,27.06L14.023,27.107L14.061,27.154L14.1,27.201L14.139,27.246L14.179,27.291L14.218,27.334L14.258,27.376L14.297,27.417L14.337,27.457L14.417,27.535L14.457,27.572L14.498,27.607L14.538,27.642L14.578,27.676L14.619,27.709L14.66,27.741L14.7,27.772L14.741,27.802L14.782,27.831L14.822,27.859L14.904,27.911L14.944,27.936L15.026,27.982L15.066,28.003L15.107,28.024L15.148,28.044L15.188,28.064L15.229,28.082L15.269,28.1L15.31,28.116L15.35,28.132L15.391,28.146L15.431,28.16L15.472,28.173L15.512,28.184L15.552,28.196L15.593,28.205L15.633,28.214L15.674,28.222L15.714,28.228L15.755,28.234L15.795,28.24L15.836,28.245L15.877,28.248L15.918,28.25L15.959,28.251L16,28.25L16.041,28.249L16.082,28.248L16.123,28.246L16.164,28.243L16.205,28.238L16.245,28.232L16.286,28.226L16.327,28.22L16.367,28.212L16.407,28.203L16.448,28.194L16.488,28.182L16.529,28.171L16.568,28.158L16.609,28.144L16.65,28.13L16.689,28.114L16.73,28.098L16.771,28.08L16.812,28.062L16.853,28.042L16.892,28.022L16.933,28.001L16.974,27.98L17.014,27.957L17.055,27.934L17.096,27.909L17.136,27.883L17.177,27.857L17.218,27.829L17.258,27.8L17.299,27.77L17.34,27.739L17.38,27.707L17.421,27.674L17.461,27.64L17.502,27.605L17.542,27.57L17.582,27.533L17.622,27.494L17.662,27.455L17.702,27.415L17.742,27.374L17.781,27.332L17.821,27.289L17.86,27.244L17.899,27.199L17.938,27.152L17.976,27.105L18.014,27.058L18.052,27.008L18.09,26.958L18.128,26.907L18.166,26.854L18.203,26.803L18.24,26.748L18.277,26.693L18.313,26.638L18.349,26.58L18.384,26.522L18.42,26.464L18.455,26.405L18.49,26.345L18.525,26.283L18.558,26.221L18.592,26.159L18.626,26.097L18.659,26.032L18.692,25.967L18.723,25.903L18.755,25.836L18.787,25.769L18.818,25.701L18.847,25.634L18.909,25.492L18.968,25.349L19.026,25.203L19.081,25.055L19.135,24.903L19.187,24.749L19.236,24.592L19.284,24.433L19.329,24.271L19.373,24.105L19.414,23.939L19.453,23.769L19.489,23.597L19.524,23.423L19.555,23.247L19.585,23.069L19.612,22.889L19.636,22.707L19.659,22.523L19.679,22.337L19.697,22.149L19.712,21.961L19.724,21.772L19.735,21.58L19.742,21.388L19.746,21.193L19.75,21L19.749,20.805L19.745,20.61L19.738,20.418L19.727,20.226L19.715,20.037L19.7,19.849L19.682,19.661L19.662,19.475L19.639,19.292L19.615,19.11L19.588,18.93L19.558,18.753L19.527,18.577L19.492,18.403L19.456,18.231L19.417,18.062L19.376,17.895L19.332,17.73L19.287,17.568L19.239,17.408L19.19,17.25L19.138,17.096L19.084,16.944L19.029,16.795L18.971,16.649L18.912,16.506L18.85,16.364L18.821,16.297L18.79,16.228L18.758,16.161L18.726,16.094L18.695,16.029L18.662,15.964L18.629,15.899L18.595,15.836L18.561,15.774L18.528,15.712L18.493,15.651L18.458,15.591L18.423,15.532L18.387,15.474L18.352,15.417L18.316,15.36L18.28,15.305L18.243,15.25L18.206,15.196L18.169,15.144L18.131,15.092L18.093,15.041L18.055,14.991L18.017,14.942L17.979,14.894L17.941,14.847L17.9,14.801L17.861,14.756L17.822,14.711L17.782,14.668L17.743,14.626L17.703,14.585L17.663,14.545L17.623,14.506L17.583,14.467L17.543,14.43L17.503,14.394L17.462,14.359L17.422,14.325L17.381,14.292L17.341,14.26L17.3,14.228L17.259,14.198L17.219,14.169L17.178,14.141L17.137,14.114L17.097,14.088L17.056,14.063L17.015,14.039L16.975,14.016L16.934,13.994L16.893,13.973L16.854,13.953L16.813,13.934L16.772,13.916L16.731,13.899L16.69,13.883L16.651,13.867L16.61,13.853L16.569,13.84L16.53,13.827L16.489,13.816L16.449,13.805L16.408,13.796L16.368,13.787L16.328,13.779L16.287,13.773L16.247,13.767L16.206,13.762L16.165,13.757L16.124,13.754L16.083,13.752L16.042,13.751L16,13.75L15.959,13.751Z" style="fill:#000;"/>
        <path d="M16.116,13.001L16.23,13.003L16.345,13.007L16.459,13.013L16.573,13.02L16.686,13.029L16.8,13.04L16.913,13.051L17.025,13.065L17.135,13.08L17.247,13.097L17.357,13.115L17.466,13.134L17.576,13.156L17.684,13.178L17.792,13.202L17.9,13.228L18.007,13.255L18.113,13.283L18.219,13.313L18.324,13.344L18.428,13.377L18.533,13.411L18.636,13.447L18.74,13.483L18.843,13.522L18.945,13.561L19.047,13.602L19.148,13.644L19.248,13.688L19.347,13.733L19.446,13.779L19.543,13.826L19.64,13.875L19.737,13.925L19.832,13.976L19.927,14.029L20.02,14.083L20.114,14.138L20.206,14.194L20.298,14.251L20.478,14.369L20.567,14.43L20.655,14.492L20.742,14.555L20.828,14.62L20.913,14.685L20.998,14.752L21.081,14.82L21.163,14.888L21.245,14.958L21.325,15.029L21.405,15.101L21.484,15.174L21.637,15.323L21.712,15.399L21.787,15.476L21.861,15.554L21.932,15.633L22.004,15.713L22.074,15.794L22.142,15.876L22.077,15.924L22.009,15.972L21.941,16.019L21.871,16.065L21.799,16.111L21.727,16.156L21.654,16.201L21.579,16.245L21.504,16.288L21.427,16.331L21.349,16.373L21.27,16.415L21.191,16.456L21.109,16.497L21.027,16.536L20.944,16.576L20.86,16.614L20.775,16.652L20.688,16.689L20.6,16.726L20.512,16.762L20.423,16.797L20.333,16.831L20.243,16.865L20.151,16.898L20.057,16.931L19.964,16.962L19.869,16.993L19.774,17.024L19.677,17.053L19.58,17.082L19.482,17.11L19.383,17.137L19.284,17.164L19.183,17.19L19.082,17.215L18.98,17.239L18.877,17.262L18.774,17.285L18.67,17.307L18.566,17.328L18.461,17.348L18.356,17.367L18.25,17.386L18.143,17.403L18.036,17.42L17.927,17.436L17.819,17.451L17.71,17.466L17.599,17.479L17.489,17.492L17.378,17.503L17.266,17.514L17.154,17.524L17.041,17.533L16.928,17.541L16.815,17.548L16.7,17.554L16.585,17.559L16.47,17.564L16.355,17.567L16.238,17.57L16.121,17.571L16,17.571L15.883,17.571L15.766,17.57L15.65,17.567L15.534,17.564L15.418,17.559L15.303,17.554L15.189,17.548L15.074,17.541L14.961,17.533L14.848,17.524L14.735,17.514L14.623,17.503L14.512,17.492L14.401,17.479L14.291,17.466L14.181,17.451L14.072,17.436L13.964,17.42L13.856,17.403L13.749,17.386L13.642,17.367L13.536,17.348L13.431,17.328L13.326,17.307L13.223,17.285L13.12,17.262L13.017,17.239L12.916,17.215L12.815,17.19L12.715,17.164L12.615,17.137L12.517,17.11L12.419,17.082L12.322,17.053L12.226,17.024L12.131,16.993L12.037,16.962L11.943,16.931L11.85,16.898L11.759,16.865L11.668,16.831L11.578,16.797L11.489,16.762L11.401,16.726L11.314,16.689L11.228,16.652L11.142,16.614L11.058,16.576L10.975,16.536L10.893,16.497L10.812,16.456L10.732,16.415L10.653,16.373L10.575,16.331L10.498,16.288L10.422,16.245L10.347,16.201L10.274,16.156L10.201,16.111L10.13,16.065L10.06,16.019L9.991,15.972L9.923,15.924L9.856,15.876L9.925,15.794L9.996,15.713L10.067,15.633L10.14,15.554L10.213,15.476L10.288,15.399L10.363,15.323L10.44,15.248L10.518,15.174L10.596,15.101L10.676,15.029L10.756,14.958L10.838,14.888L10.92,14.82L11.004,14.752L11.088,14.685L11.173,14.62L11.259,14.555L11.346,14.492L11.434,14.43L11.523,14.369L11.612,14.31L11.703,14.251L11.794,14.194L11.886,14.138L11.979,14.083L12.073,14.029L12.167,13.976L12.262,13.925L12.358,13.875L12.455,13.826L12.553,13.779L12.651,13.733L12.75,13.688L12.849,13.644L12.95,13.602L13.051,13.561L13.153,13.522L13.255,13.483L13.358,13.447L13.462,13.411L13.566,13.377L13.671,13.344L13.777,13.313L13.883,13.283L13.99,13.255L14.097,13.228L14.205,13.202L14.313,13.178L14.422,13.156L14.532,13.134L14.642,13.115L14.753,13.097L14.864,13.08L14.975,13.065L15.087,13.051L15.2,13.04L15.313,13.029L15.426,13.02L15.54,13.013L15.655,13.007L15.769,13.003L15.885,13.001L16,13L16.116,13.001ZM15.895,13.751L15.791,13.753L15.687,13.757L15.583,13.762L15.479,13.768L15.377,13.776L15.274,13.786L15.172,13.797L15.07,13.809L14.969,13.823L14.869,13.838L14.768,13.854L14.669,13.872L14.57,13.891L14.471,13.911L14.372,13.933L14.275,13.956L14.178,13.981L14.081,14.007L13.985,14.034L13.889,14.062L13.794,14.092L13.7,14.122L13.606,14.155L13.512,14.188L13.42,14.223L13.327,14.258L13.236,14.295L13.145,14.334L13.055,14.373L12.965,14.414L12.876,14.456L12.788,14.499L12.7,14.543L12.613,14.588L12.527,14.634L12.441,14.682L12.356,14.731L12.272,14.78L12.189,14.831L12.106,14.883L12.024,14.936L11.943,14.991L11.863,15.046L11.783,15.102L11.704,15.159L11.626,15.218L11.549,15.277L11.472,15.337L11.397,15.399L11.322,15.461L11.248,15.524L11.175,15.589L11.103,15.654L11.032,15.72L11.028,15.724L11.078,15.75L11.15,15.787L11.224,15.824L11.298,15.86L11.374,15.895L11.451,15.93L11.529,15.965L11.687,16.033L11.768,16.066L11.85,16.098L11.933,16.13L12.017,16.161L12.102,16.192L12.187,16.222L12.361,16.28L12.45,16.308L12.539,16.335L12.629,16.362L12.72,16.388L12.812,16.414L12.998,16.462L13.093,16.486L13.188,16.508L13.38,16.552L13.477,16.572L13.575,16.592L13.674,16.611L13.774,16.629L13.874,16.646L13.975,16.663L14.076,16.679L14.178,16.694L14.384,16.722L14.488,16.734L14.593,16.746L14.698,16.757L14.804,16.767L14.91,16.776L15.017,16.785L15.124,16.792L15.232,16.799L15.34,16.805L15.449,16.81L15.559,16.814L15.668,16.817L15.778,16.82L15.889,16.821L16.111,16.821L16.222,16.82L16.331,16.817L16.44,16.814L16.549,16.81L16.658,16.805L16.765,16.799L16.873,16.792L16.979,16.785L17.086,16.776L17.192,16.767L17.297,16.757L17.402,16.746L17.506,16.734L17.61,16.722L17.713,16.708L17.817,16.694L17.919,16.679L18.022,16.663L18.122,16.646L18.223,16.629L18.323,16.611L18.422,16.592L18.521,16.572L18.618,16.552L18.715,16.53L18.811,16.508L18.907,16.486L19.001,16.462L19.094,16.438L19.187,16.414L19.28,16.388L19.371,16.362L19.461,16.335L19.55,16.308L19.639,16.28L19.726,16.251L19.813,16.222L19.9,16.192L19.984,16.161L20.068,16.13L20.151,16.098L20.233,16.066L20.313,16.033L20.393,15.999L20.472,15.965L20.549,15.93L20.626,15.895L20.702,15.86L20.777,15.824L20.849,15.787L20.922,15.75L20.971,15.724L20.968,15.72L20.896,15.654L20.825,15.589L20.752,15.524L20.678,15.461L20.603,15.399L20.529,15.337L20.452,15.277L20.375,15.218L20.297,15.159L20.218,15.102L20.139,15.046L20.058,14.991L19.977,14.936L19.895,14.883L19.812,14.831L19.729,14.78L19.645,14.731L19.56,14.682L19.474,14.634L19.388,14.588L19.3,14.543L19.212,14.499L19.124,14.456L19.035,14.414L18.946,14.373L18.855,14.334L18.763,14.295L18.672,14.258L18.58,14.223L18.487,14.188L18.393,14.155L18.299,14.122L18.204,14.092L18.109,14.062L18.013,14.034L17.916,14.007L17.82,13.981L17.722,13.956L17.624,13.933L17.526,13.911L17.426,13.891L17.327,13.872L17.227,13.854L17.126,13.838L17.025,13.823L16.923,13.809L16.821,13.797L16.719,13.786L16.616,13.776L16.513,13.768L16.409,13.762L16.306,13.757L16.202,13.753L16.098,13.751L16,13.75L15.895,13.751Z" style="fill:#000;"/>
        <path d="M16.117,24.43L16.234,24.43L16.351,24.434L16.466,24.436L16.581,24.442L16.696,24.446L16.811,24.453L16.924,24.46L17.037,24.468L17.15,24.478L17.262,24.488L17.374,24.499L17.485,24.51L17.595,24.524L17.706,24.537L17.815,24.552L17.923,24.568L18.032,24.584L18.139,24.602L18.246,24.618L18.352,24.638L18.562,24.678L18.77,24.72L18.873,24.743L18.976,24.765L19.078,24.789L19.28,24.839L19.478,24.893L19.576,24.92L19.77,24.978L19.865,25.008L19.96,25.039L20.053,25.069L20.147,25.102L20.239,25.135L20.419,25.203L20.508,25.238L20.596,25.273L20.684,25.31L20.771,25.347L20.856,25.385L20.94,25.423L21.023,25.463L21.105,25.502L21.187,25.543L21.266,25.584L21.345,25.626L21.423,25.668L21.5,25.711L21.575,25.754L21.65,25.798L21.723,25.843L21.795,25.888L21.867,25.935L21.937,25.98L22.005,26.027L22.073,26.076L22.138,26.124L22.07,26.206L22,26.287L21.928,26.367L21.857,26.445L21.783,26.523L21.708,26.601L21.633,26.676L21.556,26.751L21.48,26.825L21.401,26.897L21.321,26.969L21.241,27.04L21.159,27.109L21.08,27.18L20.997,27.248L20.912,27.314L20.827,27.379L20.741,27.444L20.654,27.506L20.566,27.568L20.477,27.629L20.387,27.688L20.297,27.748L20.205,27.806L20.113,27.861L20.019,27.917L19.926,27.971L19.831,28.024L19.736,28.076L19.639,28.126L19.542,28.175L19.445,28.222L19.346,28.269L19.247,28.314L19.147,28.357L19.046,28.4L18.944,28.441L18.842,28.48L18.739,28.519L18.635,28.554L18.532,28.59L18.427,28.624L18.323,28.657L18.218,28.688L18.112,28.717L18.006,28.745L17.899,28.771L17.791,28.797L17.683,28.821L17.575,28.842L17.465,28.864L17.356,28.883L17.246,28.901L17.134,28.919L17.024,28.935L16.912,28.949L16.8,28.96L16.688,28.971L16.575,28.981L16.461,28.987L16.347,28.994L16.232,28.998L16.118,29L16,29L15.885,28.999L15.769,28.997L15.655,28.993L15.54,28.986L15.426,28.98L15.313,28.97L15.2,28.96L15.087,28.949L14.975,28.935L14.864,28.919L14.753,28.901L14.642,28.883L14.532,28.864L14.422,28.842L14.313,28.821L14.205,28.797L14.097,28.771L13.99,28.745L13.883,28.717L13.777,28.688L13.671,28.657L13.566,28.624L13.462,28.59L13.358,28.554L13.255,28.519L13.153,28.48L13.051,28.441L12.95,28.4L12.849,28.357L12.75,28.314L12.651,28.269L12.553,28.222L12.455,28.175L12.358,28.126L12.262,28.076L12.167,28.024L12.073,27.971L11.979,27.917L11.886,27.861L11.794,27.806L11.703,27.748L11.612,27.688L11.523,27.629L11.434,27.568L11.346,27.506L11.259,27.444L11.173,27.379L11.088,27.314L11.004,27.248L10.92,27.18L10.838,27.112L10.756,27.043L10.676,26.972L10.596,26.9L10.518,26.828L10.44,26.754L10.363,26.679L10.288,26.604L10.213,26.526L10.14,26.448L10.067,26.37L9.996,26.29L9.925,26.209L9.856,26.127L9.923,26.079L9.991,26.03L10.06,25.983L10.13,25.938L10.201,25.891L10.274,25.846L10.347,25.801L10.422,25.757L10.498,25.714L10.575,25.671L10.653,25.629L10.732,25.587L10.812,25.546L10.893,25.505L10.975,25.466L11.058,25.426L11.142,25.388L11.228,25.35L11.314,25.313L11.401,25.276L11.489,25.241L11.578,25.206L11.668,25.172L11.759,25.138L11.85,25.105L11.943,25.072L12.037,25.042L12.131,25.011L12.226,24.981L12.322,24.952L12.419,24.923L12.517,24.896L12.615,24.869L12.715,24.842L12.815,24.817L12.916,24.792L13.017,24.768L13.12,24.746L13.223,24.723L13.326,24.702L13.431,24.681L13.536,24.661L13.642,24.641L13.749,24.621L13.856,24.605L13.964,24.587L14.072,24.571L14.181,24.555L14.291,24.54L14.401,24.527L14.512,24.513L14.623,24.502L14.735,24.491L14.848,24.481L14.961,24.471L15.074,24.463L15.189,24.456L15.303,24.449L15.418,24.445L15.534,24.439L15.65,24.437L15.766,24.433L16.117,24.433L16.117,24.43ZM15.889,25.18L15.778,25.18L15.668,25.184L15.559,25.186L15.449,25.19L15.34,25.196L15.232,25.202L15.124,25.209L15.017,25.216L14.91,25.226L14.804,25.234L14.698,25.245L14.593,25.256L14.488,25.268L14.384,25.28L14.281,25.295L14.178,25.31L14.076,25.324L13.975,25.341L13.874,25.358L13.774,25.376L13.674,25.394L13.575,25.414L13.477,25.434L13.38,25.454L13.284,25.476L13.188,25.498L13.093,25.519L12.998,25.543L12.905,25.567L12.812,25.59L12.72,25.615L12.629,25.642L12.539,25.668L12.45,25.694L12.361,25.722L12.274,25.751L12.187,25.779L12.102,25.81L12.017,25.84L11.933,25.871L11.85,25.903L11.768,25.934L11.687,25.967L11.608,26.001L11.529,26.035L11.451,26.07L11.374,26.105L11.298,26.14L11.224,26.175L11.15,26.212L11.078,26.249L11.028,26.274L11.032,26.278L11.103,26.344L11.175,26.409L11.248,26.474L11.322,26.536L11.472,26.66L11.626,26.78L11.704,26.839L11.783,26.897L11.863,26.953L11.943,27.008L12.024,27.064L12.106,27.117L12.189,27.169L12.272,27.22L12.356,27.27L12.441,27.319L12.527,27.367L12.613,27.413L12.7,27.458L12.788,27.502L12.876,27.545L12.965,27.587L13.055,27.628L13.145,27.667L13.236,27.706L13.327,27.743L13.42,27.778L13.512,27.813L13.606,27.846L13.7,27.878L13.794,27.908L13.889,27.937L13.985,27.965L14.081,27.992L14.178,28.018L14.275,28.042L14.471,28.086L14.57,28.107L14.768,28.145L14.869,28.161L14.969,28.176L15.07,28.191L15.172,28.203L15.274,28.214L15.377,28.225L15.479,28.233L15.583,28.239L15.687,28.244L15.791,28.248L15.895,28.25L16,28.25L16.105,28.249L16.209,28.247L16.313,28.243L16.416,28.238L16.52,28.232L16.623,28.224L16.726,28.213L16.828,28.202L16.93,28.19L17.032,28.175L17.133,28.16L17.234,28.144L17.334,28.125L17.433,28.106L17.533,28.085L17.631,28.063L17.728,28.041L17.827,28.017L17.923,27.991L18.02,27.964L18.116,27.936L18.211,27.907L18.306,27.877L18.4,27.845L18.494,27.812L18.587,27.777L18.679,27.742L18.77,27.705L18.862,27.666L18.953,27.627L19.042,27.586L19.131,27.544L19.219,27.501L19.307,27.457L19.394,27.412L19.48,27.366L19.566,27.318L19.651,27.269L19.735,27.219L19.818,27.168L19.901,27.116L19.983,27.063L20.064,27.007L20.145,26.952L20.224,26.896L20.303,26.838L20.381,26.779L20.458,26.719L20.535,26.659L20.609,26.597L20.684,26.535L20.758,26.473L20.831,26.408L20.902,26.343L20.974,26.277L20.977,26.273L20.928,26.248L20.855,26.211L20.783,26.174L20.708,26.139L20.632,26.104L20.555,26.069L20.478,26.034L20.399,26L20.319,25.966L20.239,25.933L20.157,25.902L20.074,25.87L19.99,25.839L19.906,25.809L19.819,25.778L19.732,25.75L19.645,25.721L19.556,25.693L19.467,25.667L19.377,25.641L19.286,25.614L19.193,25.589L19.1,25.566L19.007,25.542L18.913,25.518L18.817,25.497L18.721,25.475L18.624,25.453L18.527,25.433L18.428,25.413L18.329,25.393L18.229,25.375L18.128,25.357L18.028,25.34L17.925,25.323L17.823,25.309L17.719,25.294L17.616,25.279L17.512,25.267L17.408,25.255L17.303,25.244L17.198,25.233L17.092,25.225L16.985,25.215L16.879,25.208L16.771,25.201L16.664,25.195L16.555,25.189L16.446,25.185L16.337,25.183L16.228,25.179L16.117,25.179L16,25.179L15.889,25.179L15.889,25.18Z" style="fill:#000;"/>
        <path d="M4.001,19.667L4.001,18.859L9.496,18.859C9.909,18.859 10.213,18.772 10.409,18.597C10.604,18.422 10.702,18.2 10.702,17.931C10.702,17.855 10.692,17.779 10.671,17.703C10.65,17.627 10.621,17.557 10.585,17.492C10.55,17.426 10.51,17.366 10.465,17.312C10.421,17.257 10.374,17.211 10.323,17.173L10.74,16.648C10.858,16.737 10.961,16.836 11.05,16.945C11.138,17.055 11.211,17.168 11.267,17.286C11.324,17.404 11.366,17.525 11.394,17.649C11.421,17.774 11.435,17.895 11.435,18.013C11.435,18.232 11.398,18.441 11.324,18.641C11.251,18.841 11.136,19.017 10.98,19.168C10.824,19.32 10.624,19.441 10.38,19.532C10.136,19.622 9.843,19.667 9.502,19.667C9.683,19.811 9.853,19.969 10.011,20.145C10.169,20.319 10.305,20.509 10.421,20.716C10.537,20.922 10.627,21.143 10.693,21.376C10.758,21.609 10.791,21.857 10.791,22.118C10.791,22.601 10.699,23.043 10.516,23.441C10.333,23.838 10.086,24.179 9.777,24.461C9.467,24.743 9.106,24.962 8.694,25.118C8.281,25.273 7.847,25.351 7.393,25.351C6.942,25.351 6.513,25.273 6.104,25.118C5.696,24.962 5.336,24.743 5.024,24.461C4.713,24.18 4.464,23.839 4.279,23.441C4.094,23.043 4.001,22.601 4.001,22.118C4.001,21.847 4.034,21.595 4.099,21.357C4.164,21.119 4.255,20.898 4.371,20.693C4.486,20.488 4.622,20.301 4.778,20.131C4.934,19.96 5.104,19.806 5.29,19.666L4.001,19.666L4.001,19.667ZM4.822,22.118C4.822,22.501 4.896,22.842 5.043,23.14C5.191,23.439 5.385,23.693 5.627,23.902C5.87,24.111 6.144,24.269 6.452,24.379C6.759,24.488 7.073,24.543 7.393,24.543C7.709,24.543 8.02,24.484 8.327,24.369C8.635,24.254 8.91,24.089 9.152,23.877C9.394,23.664 9.59,23.408 9.739,23.109C9.889,22.81 9.963,22.48 9.963,22.118C9.963,21.764 9.887,21.437 9.736,21.139C9.584,20.84 9.387,20.582 9.145,20.366C8.903,20.15 8.629,19.979 8.321,19.858C8.014,19.735 7.704,19.674 7.393,19.674C7.081,19.674 6.772,19.735 6.464,19.858C6.157,19.979 5.882,20.149 5.64,20.366C5.398,20.583 5.201,20.841 5.05,21.139C4.898,21.438 4.822,21.764 4.822,22.118ZM6.704,22.023C6.704,21.931 6.722,21.842 6.758,21.76C6.794,21.679 6.842,21.607 6.903,21.545C6.964,21.483 7.036,21.437 7.118,21.399C7.2,21.364 7.29,21.346 7.386,21.346C7.479,21.346 7.567,21.364 7.652,21.399C7.736,21.436 7.81,21.483 7.873,21.545C7.936,21.607 7.985,21.679 8.021,21.76C8.057,21.842 8.075,21.931 8.075,22.023C8.075,22.116 8.057,22.203 8.021,22.285C7.985,22.367 7.936,22.439 7.873,22.5C7.81,22.561 7.736,22.609 7.652,22.645C7.567,22.682 7.479,22.7 7.386,22.7C7.29,22.7 7.2,22.682 7.118,22.645C7.036,22.61 6.964,22.561 6.903,22.5C6.842,22.439 6.794,22.367 6.758,22.285C6.722,22.203 6.704,22.116 6.704,22.023Z" style="fill:#000;fill-rule:nonzero;"/>
        <path d="M21.184,19.667L21.184,18.859L26.679,18.859C27.092,18.859 27.397,18.772 27.592,18.597C27.787,18.422 27.885,18.2 27.885,17.931C27.885,17.855 27.875,17.779 27.854,17.703C27.833,17.627 27.804,17.557 27.769,17.492C27.734,17.426 27.694,17.366 27.65,17.312C27.604,17.257 27.557,17.211 27.506,17.173L27.923,16.648C28.041,16.737 28.144,16.836 28.234,16.945C28.322,17.055 28.394,17.168 28.452,17.286C28.508,17.404 28.551,17.525 28.578,17.649C28.604,17.774 28.619,17.895 28.619,18.013C28.619,18.232 28.582,18.441 28.508,18.641C28.435,18.841 28.32,19.017 28.164,19.168C28.008,19.32 27.808,19.441 27.563,19.532C27.32,19.622 27.027,19.667 26.685,19.667C26.867,19.811 27.037,19.969 27.195,20.145C27.352,20.319 27.49,20.509 27.604,20.716C27.72,20.922 27.811,21.143 27.876,21.376C27.941,21.609 27.974,21.857 27.974,22.118C27.974,22.601 27.882,23.043 27.7,23.441C27.516,23.838 27.27,24.179 26.961,24.461C26.652,24.743 26.291,24.962 25.878,25.118C25.465,25.273 25.032,25.351 24.577,25.351C24.126,25.351 23.697,25.273 23.288,25.118C22.88,24.962 22.519,24.743 22.208,24.461C21.896,24.18 21.647,23.839 21.463,23.441C21.278,23.043 21.185,22.601 21.185,22.118C21.185,21.847 21.218,21.595 21.284,21.357C21.348,21.119 21.439,20.898 21.555,20.693C21.671,20.488 21.806,20.301 21.962,20.131C22.118,19.96 22.288,19.806 22.474,19.666L21.184,19.666L21.184,19.667ZM22.005,22.118C22.005,22.501 22.079,22.842 22.226,23.14C22.374,23.439 22.57,23.693 22.811,23.902C23.053,24.111 23.328,24.269 23.635,24.379C23.942,24.489 24.256,24.543 24.576,24.543C24.891,24.543 25.203,24.484 25.511,24.369C25.819,24.254 26.093,24.089 26.335,23.877C26.577,23.664 26.773,23.408 26.922,23.109C27.072,22.81 27.146,22.48 27.146,22.118C27.146,21.764 27.072,21.437 26.919,21.139C26.766,20.841 26.571,20.582 26.329,20.366C26.086,20.149 25.812,19.979 25.504,19.858C25.197,19.735 24.887,19.674 24.576,19.674C24.264,19.674 23.955,19.735 23.647,19.858C23.339,19.979 23.065,20.149 22.823,20.366C22.581,20.583 22.384,20.841 22.233,21.139C22.081,21.438 22.005,21.764 22.005,22.118ZM23.887,22.023C23.887,21.931 23.906,21.842 23.942,21.76C23.977,21.679 24.026,21.607 24.087,21.545C24.149,21.483 24.22,21.437 24.302,21.399C24.384,21.364 24.474,21.346 24.572,21.346C24.664,21.346 24.753,21.364 24.837,21.399C24.921,21.436 24.995,21.483 25.058,21.545C25.121,21.607 25.171,21.679 25.206,21.76C25.242,21.842 25.26,21.931 25.26,22.023C25.26,22.116 25.242,22.203 25.206,22.285C25.171,22.367 25.121,22.439 25.058,22.5C24.996,22.561 24.921,22.609 24.837,22.645C24.753,22.682 24.664,22.7 24.572,22.7C24.474,22.7 24.384,22.682 24.302,22.645C24.22,22.61 24.149,22.561 24.087,22.5C24.026,22.439 23.978,22.367 23.942,22.285C23.905,22.203 23.887,22.116 23.887,22.023Z" style="fill:#000;fill-rule:nonzero;"/>
        <path d="M6.252,11.001L2.01,6.758M10.797,8.043L8.501,2.5M16.001,7L16.001,1M21.205,8.043L23.501,2.5M25.748,11.001L29.99,6.758" style="fill:none;stroke-width:0.75px;stroke-linecap:round;stroke:#000;"/>
    </g>
</svg>
