<svg width="120" height="120" xmlns="http://www.w3.org/2000/svg" fill-rule="evenodd" clip-rule="evenodd" stroke-linejoin="round" stroke-miterlimit="1.414"><path fill="#007aff" d="M0 0h120v120H0z"/><path d="M100 34c0-2.208-1.793-4-4-4H24c-2.207 0-4 1.792-4 4v52c0 2.208 1.793 4 4 4h72c2.207 0 4-1.792 4-4V34z" fill="#fff"/><path d="M94.548 35.516l-.22.856-3.706 3.584-9.038 8.663-5.541 5.258-5.704 5.354-5.474 5.058-2.53 2.295-1.018.909-.255.193-.282.15-.303.103-.317.054-.149.001-.171-.001-.317-.053-.303-.103-.283-.149-.256-.193-.915-.814-2.304-2.076-4.727-4.332-4.781-4.458-4.708-4.448-8.692-8.327-6.882-6.668-.044-.7.7-.044 7.078 5.649 8.698 7.017 4.6 3.765 4.595 3.816 4.472 3.785 2.155 1.858.001-.014L60 63.333l.009-.008v.013l2.163-1.899 2.374-2.031 5.209-4.369 5.523-4.552 5.46-4.45 9.114-7.352 3.82-3.057.879-.114-.003.002zM46.356 64.356L26.707 84.707h-1.414v-1.414l20.351-19.649 1.063-.351-.351 1.063zM74.353 63.647l20.354 19.646v1.414h-1.414L73.647 64.353l-.354-1.06 1.06.354z" fill="#007aff"/></svg>