<?xml version="1.0" standalone="no"?>
<!DOCTYPE svg PUBLIC "-//W3C//DTD SVG 1.1//EN" "http://www.w3.org/Graphics/SVG/1.1/DTD/svg11.dtd">
<svg width="100%" height="100%" viewBox="0 0 128 128" version="1.1" xmlns="http://www.w3.org/2000/svg" xmlns:xlink="http://www.w3.org/1999/xlink" xml:space="preserve" style="fill-rule:evenodd;clip-rule:evenodd;stroke-linejoin:round;stroke-miterlimit:1.41421;">
    <g id="oben" transform="matrix(1,0,0,1,8.79852e-15,-16)">
        <path d="M13.856,24L27.713,16L124.708,72L41.569,120L27.713,112L96.995,72L13.856,24Z" style="fill:url(#_Linear1);"/>
    </g>
    <path id="vorn" d="M27.713,128L124.708,72L124.708,56L41.569,104L41.569,24L27.713,32L27.713,128Z" style="fill:url(#_Linear2);"/>
    <g id="links" transform="matrix(1,0,0,1,7.08322e-14,16)">
        <path d="M13.856,-8L96.995,40L83.138,48L27.713,16L27.713,112L13.856,104L13.856,-8Z" style="fill:url(#_Linear3);"/>
    </g>
    <defs>
        <linearGradient id="_Linear1" x1="0" y1="0" x2="1" y2="0" gradientUnits="userSpaceOnUse" gradientTransform="matrix(81.359,-49.0274,49.0274,81.359,34.641,116)"><stop offset="0%" style="stop-color:rgb(255,183,77);stop-opacity:1"/><stop offset="100%" style="stop-color:rgb(255,204,128);stop-opacity:1"/></linearGradient>
        <linearGradient id="_Linear2" x1="0" y1="0" x2="1" y2="0" gradientUnits="userSpaceOnUse" gradientTransform="matrix(96.9948,-56,56,96.9948,27.7128,120)"><stop offset="0%" style="stop-color:rgb(239,108,0);stop-opacity:1"/><stop offset="100%" style="stop-color:rgb(245,124,0);stop-opacity:1"/></linearGradient>
        <linearGradient id="_Linear3" x1="0" y1="0" x2="1" y2="0" gradientUnits="userSpaceOnUse" gradientTransform="matrix(76.2102,44,-44,76.2102,13.8564,-4.9738e-14)"><stop offset="0%" style="stop-color:rgb(255,167,38);stop-opacity:1"/><stop offset="100%" style="stop-color:rgb(255,152,0);stop-opacity:1"/></linearGradient>
    </defs>
</svg>
