<svg width="120" height="120" xmlns="http://www.w3.org/2000/svg" fill-rule="evenodd" clip-rule="evenodd" stroke-linejoin="round" stroke-miterlimit="1.414"><path fill="url(#a)" d="M0 0h120v120H0z"/><path d="M50.09 89.485c-2.384 0-1.979-.9-2.8-3.169L40.28 63.25l53.95-32.006-44.14 58.241z" fill="#c8daea" fill-rule="nonzero"/><path d="M50.09 89.485c1.839 0 2.652-.841 3.678-1.84l9.81-9.537-12.236-7.378-1.252 18.755z" fill="#a9c9dd" fill-rule="nonzero"/><path d="M100.04 144.41l48.36 35.729c5.519 3.045 9.501 1.468 10.876-5.123l19.685-92.763c2.015-8.081-3.08-11.745-8.359-9.349l-115.59 44.571c-7.89 3.165-7.844 7.567-1.439 9.528l29.663 9.259 68.673-43.325c3.242-1.966 6.218-.909 3.776 1.258L100.04 144.41z" fill="url(#b)" fill-rule="nonzero" transform="matrix(.61306 0 0 .61306 -9.99 -17.8)"/><defs><linearGradient id="a" x2="1" gradientUnits="userSpaceOnUse" gradientTransform="matrix(0 120 -120 0 60 0)"><stop offset="0%" stop-color="#37aee2"/><stop offset="100%" stop-color="#1e96c8"/></linearGradient><linearGradient id="b" x2="1" gradientUnits="userSpaceOnUse" gradientTransform="matrix(.1915 .3655 -.3655 .1915 .66 .437)"><stop offset="0%" stop-color="#eff7fc"/><stop offset="100%" stop-color="#fff"/></linearGradient></defs></svg>