<?xml version="1.0" encoding="utf-8"?>
<!-- Generator: Adobe Illustrator 16.0.4, SVG Export Plug-In . SVG Version: 6.00 Build 0)  -->
<!DOCTYPE svg PUBLIC "-//W3C//DTD SVG 1.1//EN" "http://www.w3.org/Graphics/SVG/1.1/DTD/svg11.dtd" [
	<!ENTITY ns_flows "http://ns.adobe.com/Flows/1.0/">
	<!ENTITY ns_extend "http://ns.adobe.com/Extensibility/1.0/">
	<!ENTITY ns_ai "http://ns.adobe.com/AdobeIllustrator/10.0/">
	<!ENTITY ns_graphs "http://ns.adobe.com/Graphs/1.0/">
]>
<svg version="1.1" id="Webmontag" xmlns:x="&ns_extend;" xmlns:i="&ns_ai;" xmlns:graph="&ns_graphs;"
	 xmlns="http://www.w3.org/2000/svg" xmlns:xlink="http://www.w3.org/1999/xlink" xmlns:a="http://ns.adobe.com/AdobeSVGViewerExtensions/3.0/"
	 x="0px" y="0px" width="300px" height="300px" viewBox="0 0 300 300" enable-background="new 0 0 300 300" xml:space="preserve">
<g id="Icon"  a:adobe-blending-mode="multiply">
	<linearGradient id="SVGID_1_" gradientUnits="userSpaceOnUse" x1="149.9995" y1="0" x2="149.9995" y2="300.0005">
		<stop  offset="0" style="stop-color:#00BF79"/>
		<stop  offset="1" style="stop-color:#0A7F52"/>
		<a:midPointStop  offset="0" style="stop-color:#00BF79"/>
		<a:midPointStop  offset="0.5" style="stop-color:#00BF79"/>
		<a:midPointStop  offset="1" style="stop-color:#0A7F52"/>
	</linearGradient>
	<path fill-rule="evenodd" clip-rule="evenodd" fill="url(#SVGID_1_)"  a:adobe-blending-mode="normal" d="M207.5,0h-115
		C59.903,0,39.238,0.126,19.705,19.658C0.124,39.239,0,60.004,0,92.5v115c0,32.598,0.128,53.266,19.658,72.796
		C39.249,299.887,60.005,300,92.5,300h115c32.598,0,53.259-0.122,72.796-19.658C299.873,260.765,300,239.995,300,207.5v-115
		c0-32.597-0.125-53.263-19.658-72.795C260.753,0.115,239.995,0,207.5,0z"/>
</g>
<path id="Globe" fill="#FFFFFF" d="M250.64,128h-8.229c1.71,7.17,2.59,14.55,2.59,22c0,52.38-42.62,95-95,95s-95-42.62-95-95
	c0-22.09,7.75-43.61,21.82-60.58c1.55-1.87,3.21-3.72,4.94-5.5C99.81,65.27,124.05,55,150,55c8.65,0,17.12,1.14,25.23,3.36
	c2.079-2.74,5.02-4.79,8.409-5.75C173.09,48.98,161.77,47,150,47c-29.04,0-55.27,12.02-73.99,31.35c-1.86,1.92-3.64,3.9-5.35,5.96
	C55.88,102.14,47,125.04,47,150c0,56.88,46.11,103,103,103c56.89,0,103-46.12,103-103C253,142.45,252.19,135.09,250.64,128z"/>
<line id="Meridian" fill="none" stroke="#FFFFFF" stroke-width="8" x1="150" y1="49" x2="150" y2="251"/>
<line id="Equator" fill="none" stroke="#FFFFFF" stroke-width="8" x1="49" y1="150" x2="251" y2="150"/>
<path id="Length_1" fill="none" stroke="#FFFFFF" stroke-width="8" d="M150,51.25c0,0-55,21.25-55,98.75s55,98.75,55,98.75"/>
<g id="Length_2">
	<path fill="#FFFFFF" d="M173.26,61.78C172.45,63.69,172,65.8,172,68v3.7c-11.99-12.11-23.2-16.63-23.44-16.72l2.88-7.46
		C151.94,47.71,161.79,51.6,173.26,61.78z"/>
	<path fill="#FFFFFF" d="M209,150c0,41.32-15.53,66.93-28.55,81.14c-14.22,15.511-28.41,21.11-29.01,21.341l-2.88-7.461
		c0.12-0.05,13.3-5.31,26.27-19.59C192.2,206.31,201,180.93,201,150c0-7.93-0.6-15.25-1.67-22h8.09C208.43,134.78,209,142.1,209,150
		z"/>
</g>
<g id="Width_1">
	<path fill="#FFFFFF" d="M150,103.25c7.93,0,15.25-0.6,22-1.67v8.1c-6.78,1-14.1,1.57-22,1.57c-39.63,0-64.81-14.29-79.34-26.94
		c1.71-2.06,3.49-4.04,5.35-5.96C94.96,94.87,119.84,103.25,150,103.25z"/>
</g>
<path id="Width_2" fill="#FFFFFF" d="M229.34,215.75c-14.53-12.65-39.71-26.939-79.34-26.939S85.19,203.1,70.66,215.75
	c1.71,2.061,3.49,4.039,5.35,5.959c18.95-16.52,43.83-24.898,73.99-24.898c35.93,0,59.34,12.27,73.93,24.959
	C225.81,219.84,227.61,217.83,229.34,215.75z"/>
<path id="O_White_Space" fill="#FFFFFF" d="M261.25,89.89c0,7.62-3.61,13.56-10.04,13.56c-6.37,0-10.1-5.89-10.1-13.29
	c0-7.5,3.51-13.61,10.1-13.61C257.85,76.55,261.25,83.03,261.25,89.89z"/>
<path id="Label" fill="#FFFFFF" d="M272,60h-84c-4.42,0-8,3.58-8,8v44c0,4.42,3.58,8,8,8h84c4.42,0,8-3.58,8-8V68
	C280,63.58,276.42,60,272,60z M222.75,108.2l-0.7-14.85c-0.22-4.7-0.49-10.37-0.43-15.28h-0.16c-1.19,4.42-2.7,9.34-4.32,13.93
	l-5.3,15.77h-5.13l-4.86-15.56c-1.399-4.64-2.699-9.61-3.67-14.14h-0.109c-0.16,4.75-0.37,10.53-0.641,15.49l-0.81,14.64h-6.21
	l2.42-36.4h8.75l4.76,14.64c1.29,4.26,2.43,8.58,3.34,12.63h0.17c0.971-3.94,2.21-8.42,3.61-12.69l5.03-14.58h8.64l2.101,36.4
	H222.75z M250.83,108.79c-10.26,0-16.74-7.83-16.74-18.52c0-11.18,7.021-19.06,17.28-19.06c10.64,0,16.899,8.04,16.899,18.41
	C268.27,101.83,260.88,108.79,250.83,108.79z"/>
</svg>
