<svg clip-rule="evenodd" fill-rule="evenodd" height="450" stroke-linecap="round" stroke-linejoin="round" stroke-miterlimit="1.5" width="600" xmlns="http://www.w3.org/2000/svg"><path d="m0 0h600v450h-600z" fill="#fafafa"/><path d="m47.813 3.455.121.003.12.003.12.006.121.007.12.008.119.01.12.011.119.013.119.015.119.016.118.017.118.019.118.02.118.022.116.023.117.025.117.026.116.028.116.029.114.031.115.032.115.033.114.035.113.036.113.038.112.039.112.04.112.042.111.043.11.045.11.046.109.047.11.049.108.05.107.051.107.053.106.054.106.056.105.057.105.058.104.059.103.061.102.062.102.063.101.065.101.066.099.068.099.068.098.07.097.071.097.073.095.073.095.075.094.077.093.077.093.079.091.08.091.081.09.083.088.083.088.085.087.086.086.087.085.089.084.089.082.09.082.092.08.092.079.093.078.094.076.095.076.096.074.096.073.098.072.098.07.099.069.1.068.101.067.102.066.102.064.103.063.104.062.104.06.106.06.106.057.106.057.107.055.109.054.109.053.109.051.11.05.11.049.111.047.112.046.113.045.113.044.113.042.114.04.115.04.115.038.116.036.116.035.116.034.117.033.118.031.118.03.118.028.119.027.119.025.119.024.121.023.12.021.12.02.122.019.121.016.121.016.123.014.122.013.122.011.123.009.123.008.123.007.124.005.123.004.124.002.125.001.109v49.12l-.001.109-.002.125-.004.124-.005.123-.007.124-.008.123-.009.123-.011.122-.013.123-.014.122-.016.123-.016.121-.019.121-.02.122-.021.12-.023.12-.024.121-.025.119-.027.119-.028.119-.03.119-.031.117-.033.118-.034.117-.035.116-.036.117-.038.115-.04.115-.04.115-.042.114-.044.113-.044.113-.047.113-.047.112-.049.111-.05.11-.051.11-.053.109-.054.109-.055.109-.057.106-.057.107-.06.106-.06.106-.062.104-.063.104-.064.103-.066.102-.067.102-.068.101-.069.1-.07.099-.072.098-.073.098-.074.096-.076.096-.076.095-.078.094-.079.093-.08.092-.082.092-.082.09-.084.089-.085.089-.086.087-.087.086-.088.085-.088.083-.09.083-.091.081-.091.08-.093.079-.092.077-.095.077-.095.075-.095.073-.097.073-.097.071-.098.07-.099.069-.1.067-.099.065-.102.065-.102.064-.102.062-.103.061-.104.059-.105.058-.105.057-.105.056-.107.054-.107.053-.107.051-.109.05-.109.049-.109.047-.109.046-.111.045-.111.043-.111.042-.113.04-.112.039-.113.038-.113.036-.114.035-.114.033-.116.032-.115.031-.115.029-.116.028-.116.026-.118.025-.117.023-.117.022-.118.02-.118.019-.118.017-.119.016-.118.015-.12.013-.119.011-.121.01-.119.008-.12.007-.121.006-.12.003-.121.003h-.107-35.412-.107l-.121-.003-.12-.003-.121-.006-.12-.007-.119-.008-.121-.01-.119-.011-.12-.013-.118-.015-.119-.016-.118-.017-.118-.019-.119-.02-.116-.022-.117-.023-.118-.025-.116-.026-.116-.028-.115-.029-.115-.031-.116-.032-.114-.033-.114-.035-.113-.036-.113-.038-.112-.039-.113-.04-.111-.042-.111-.043-.111-.045-.109-.046-.109-.047-.109-.049-.108-.05-.108-.051-.107-.053-.107-.054-.105-.056-.106-.057-.104-.058-.103-.059-.103-.061-.103-.062-.102-.064-.102-.065-.099-.065-.1-.067-.099-.069-.098-.07-.097-.071-.097-.073-.095-.073-.095-.076-.095-.076-.092-.077-.093-.079-.091-.08-.091-.081-.09-.083-.088-.083-.088-.085-.087-.086-.086-.087-.085-.089-.083-.089-.083-.09-.082-.092-.08-.092-.079-.093-.078-.094-.076-.095-.076-.095-.074-.097-.073-.098-.072-.098-.07-.099-.069-.1-.069-.101-.066-.102-.066-.102-.064-.103-.063-.104-.062-.104-.06-.106-.059-.106-.058-.106-.057-.108-.055-.108-.054-.109-.053-.109-.051-.11-.05-.11-.049-.112-.047-.111-.047-.113-.044-.112-.044-.114-.042-.114-.04-.114-.04-.116-.038-.115-.036-.116-.035-.117-.034-.117-.033-.118-.031-.117-.03-.119-.028-.119-.027-.119-.025-.119-.024-.12-.023-.121-.021-.121-.02-.121-.019-.121-.016-.122-.016-.122-.014-.122-.013-.122-.011-.123-.009-.123-.009-.123-.006-.124-.005-.123-.004-.124-.002-.125-.001-.11v-49.118l.001-.11.002-.125.004-.124.005-.123.006-.124.009-.123.009-.123.011-.123.013-.122.014-.122.016-.122.016-.122.019-.121.02-.121.021-.121.023-.121.024-.12.025-.119.027-.119.028-.119.03-.118.031-.118.033-.118.034-.117.035-.117.036-.115.038-.116.04-.115.04-.115.042-.114.044-.113.045-.113.046-.113.047-.111.049-.112.05-.11.051-.11.053-.109.054-.109.055-.108.057-.108.058-.106.059-.106.06-.106.062-.104.063-.104.064-.103.066-.102.066-.102.069-.101.069-.1.07-.099.072-.098.073-.098.074-.096.076-.096.076-.095.078-.094.079-.093.08-.092.082-.092.082-.09.084-.089.085-.089.086-.087.087-.086.088-.085.088-.083.09-.083.091-.081.091-.08.093-.079.093-.077.094-.076.095-.075.095-.074.097-.073.097-.071.098-.07.099-.068.1-.068.1-.066.101-.065.102-.063.102-.062.104-.061.103-.059.104-.058.106-.057.106-.056.106-.054.107-.053.108-.051.108-.05.109-.049.109-.047.11-.046.11-.045.111-.043.112-.042.112-.04.112-.039.113-.038.113-.036.114-.035.115-.033.115-.032.114-.031.116-.029.116-.028.117-.026.117-.025.116-.023.118-.022.118-.02.118-.019.118-.017.119-.016.119-.015.119-.013.12-.011.119-.01.12-.008.121-.007.12-.006.12-.003.121-.003h.107 35.412zm-35.505 4.545h-.066l-.066.002-.066.002-.066.003-.065.003-.065.005-.066.005-.065.007-.065.007-.065.008-.065.008-.064.01-.064.01-.065.011-.064.012-.064.013-.063.013-.064.015-.063.015-.063.016-.063.016-.062.018-.063.018-.062.019-.062.02-.061.02-.062.021-.061.022-.061.023-.06.024-.061.024-.059.025-.06.026-.059.027-.059.027-.059.028-.059.029-.058.029-.057.031-.058.031-.057.031-.056.033-.057.033-.055.034-.056.034-.055.036-.055.036-.054.036-.054.038-.053.038-.053.039-.053.039-.052.041-.052.04-.051.042-.051.042-.05.043-.05.044-.05.044-.049.045-.048.046-.048.046-.047.047-.047.048-.047.048-.045.049-.046.049-.044.05-.044.05-.043.051-.042.051-.042.052-.041.052-.041.053-.039.053-.04.053-.038.055-.038.054-.037.055-.036.055-.036.056-.035.056-.034.057-.034.057-.033.057-.032.058-.032.058-.031.059-.03.059-.029.059-.029.06-.028.06-.027.06-.027.061-.026.061-.025.061-.024.062-.024.062-.023.062-.022.062-.022.063-.02.063-.02.064-.02.063-.018.064-.018.064-.017.064-.016.065-.015.065-.015.065-.014.065-.013.065-.012.066-.012.066-.011.066-.01.066-.009.066-.009.067-.007.067-.007.066-.006.067-.005.067-.005.068-.003.067-.003.068-.002.067-.002.068v.068 49.09.068l.002.068.002.067.003.068.003.067.005.068.005.067.006.067.007.066.007.067.009.067.009.066.01.066.011.066.012.066.012.066.013.065.014.065.015.065.015.065.016.065.017.064.018.064.018.064.02.063.02.064.02.063.022.063.022.062.023.062.024.062.024.062.025.061.026.061.027.061.027.06.028.06.029.06.029.059.03.059.031.059.032.058.032.058.033.057.034.057.034.057.035.056.036.056.036.055.037.055.038.054.038.055.04.053.039.053.041.053.041.052.042.052.042.051.043.051.044.05.044.05.046.049.045.049.047.048.047.048.047.047.048.046.048.046.049.045.05.044.05.044.05.043.051.042.051.042.052.04.052.041.053.039.053.039.053.038.054.038.054.036.055.036.055.036.056.034.055.034.057.033.056.033.057.031.058.031.057.031.058.029.059.029.059.028.059.027.059.027.06.026.059.025.061.024.06.024.061.023.061.022.062.021.061.02.062.02.062.019.063.018.062.018.063.016.063.016.063.015.064.015.063.013.064.013.064.012.065.011.064.01.064.01.065.008.065.008.065.007.065.007.066.005.065.005.065.003.066.003.066.002.066.002h.066 35.384.066l.066-.002.066-.002.066-.003.065-.003.065-.005.066-.005.065-.007.065-.007.065-.008.065-.008.064-.01.064-.01.065-.011.064-.012.064-.013.063-.013.064-.015.063-.015.063-.016.063-.016.062-.018.063-.018.062-.019.062-.02.061-.02.062-.021.061-.022.061-.023.06-.024.061-.024.059-.025.06-.026.059-.027.059-.027.059-.028.059-.029.058-.029.057-.031.058-.031.057-.031.056-.033.057-.033.055-.034.056-.034.055-.036.055-.036.054-.036.054-.038.053-.038.053-.039.053-.039.052-.041.052-.04.051-.042.051-.042.05-.043.05-.044.05-.044.049-.045.048-.046.048-.046.047-.047.047-.048.047-.048.045-.049.046-.049.044-.05.044-.05.043-.051.042-.051.042-.052.041-.052.041-.053.039-.053.04-.053.038-.055.038-.054.037-.055.036-.055.036-.056.035-.056.034-.057.034-.057.033-.057.032-.058.032-.058.031-.059.03-.059.029-.059.029-.06.028-.06.027-.06.027-.061.026-.061.025-.061.024-.062.024-.062.023-.062.022-.062.022-.063.02-.063.02-.064.02-.063.018-.064.018-.064.017-.064.016-.065.015-.065.015-.065.014-.065.013-.065.012-.066.012-.066.011-.066.01-.066.009-.066.009-.067.007-.067.007-.066.006-.067.005-.067.005-.068.003-.067.003-.068.002-.067.002-.068v-.068-49.09-.068l-.002-.068-.002-.067-.003-.068-.003-.067-.005-.068-.005-.067-.006-.067-.007-.066-.007-.067-.009-.067-.009-.066-.01-.066-.011-.066-.012-.066-.012-.066-.013-.065-.014-.065-.015-.065-.015-.065-.016-.065-.017-.064-.018-.064-.018-.064-.02-.063-.02-.064-.02-.063-.022-.063-.022-.062-.023-.062-.024-.062-.024-.062-.025-.061-.026-.061-.027-.061-.027-.06-.028-.06-.029-.06-.029-.059-.03-.059-.031-.059-.032-.058-.032-.058-.033-.057-.034-.057-.034-.057-.035-.056-.036-.056-.036-.055-.037-.055-.038-.054-.038-.055-.04-.053-.039-.053-.041-.053-.041-.052-.042-.052-.042-.051-.043-.051-.044-.05-.044-.05-.046-.049-.045-.049-.047-.048-.047-.048-.047-.047-.048-.046-.048-.046-.049-.045-.05-.044-.05-.044-.05-.043-.051-.042-.051-.042-.052-.04-.052-.041-.053-.039-.053-.039-.053-.038-.054-.038-.054-.036-.055-.036-.055-.036-.056-.034-.055-.034-.057-.033-.056-.033-.057-.031-.058-.031-.057-.031-.058-.029-.059-.029-.059-.028-.059-.027-.059-.027-.06-.026-.059-.025-.061-.024-.06-.024-.061-.023-.061-.022-.062-.021-.061-.02-.062-.02-.062-.019-.063-.018-.062-.018-.063-.016-.063-.016-.063-.015-.064-.015-.063-.013-.064-.013-.064-.012-.065-.011-.064-.01-.064-.01-.065-.008-.065-.008-.065-.007-.065-.007-.066-.005-.065-.005-.065-.003-.066-.003-.066-.002-.066-.002h-.066z" fill="#7f1734" transform="matrix(1.1304345 0 0 1.0999995 71.08695 183.19995)"/><path d="m17 17h10" fill="none" stroke="#7f1734" stroke-width="3.02" transform="matrix(1.8 0 0 1.5 56.899995 175.000005)"/><g fill="#7f1734"><path d="m45 29.023c0-1.117-1.007-2.023-2.25-2.023-5.566 0-19.934 0-25.5 0-1.243 0-2.25.906-2.25 2.023v24.954c0 1.117 1.007 2.023 2.25 2.023h25.5c1.243 0 2.25-.906 2.25-2.023 0-5.317 0-19.637 0-24.954z" transform="matrix(1.3333335 0 0 1.482759 64.999995 168.965517)"/><path d="m113.132 13 .122.001.123.002.122.004.122.005.122.007.121.008.122.01.121.011.121.013.12.014.121.016.12.017.12.019.119.02.119.021.119.023.118.025.118.026.118.027.117.029.117.03.116.031.116.033.116.035.115.035.114.037.114.039.114.04.113.041.113.043.112.044.111.045.111.047.11.048.11.049.109.051.109.052.108.054.107.054.107.057.105.057.106.059.104.06.104.061.103.063.103.063.102.066.101.066.1.068.099.069.099.07.098.071.097.073.096.074.095.075.095.077.093.078.093.078.092.081.091.081.09.083.089.083.088.085.088.086.086.088.085.088.083.089.083.09.081.091.081.092.078.093.078.093.077.095.075.095.074.096.073.097.071.098.07.099.069.099.068.1.066.101.066.102.063.103.063.103.061.104.06.104.059.106.057.105.057.107.054.107.054.108.052.109.051.109.049.11.048.11.047.111.045.111.044.112.043.113.041.113.04.114.039.114.037.114.035.115.035.116.033.116.031.116.03.117.029.117.027.118.026.118.025.118.023.119.021.119.02.119.019.12.017.12.016.121.014.12.013.121.011.121.01.122.008.121.007.122.005.122.004.122.002.123.001.122v30.264l-.001.122-.002.123-.004.122-.005.122-.007.122-.008.121-.01.122-.011.121-.013.121-.014.12-.016.121-.017.12-.019.12-.02.119-.021.119-.023.119-.025.118-.026.118-.027.118-.029.117-.03.117-.031.116-.033.116-.035.116-.035.115-.037.114-.039.114-.04.114-.041.113-.043.113-.044.112-.045.111-.047.111-.048.11-.049.11-.051.109-.052.109-.054.108-.054.107-.057.107-.057.105-.059.106-.06.104-.061.104-.063.103-.063.103-.066.102-.066.101-.068.1-.069.099-.07.099-.071.098-.073.097-.074.096-.075.095-.077.095-.078.093-.078.093-.081.092-.081.091-.083.09-.083.089-.085.088-.086.088-.088.086-.088.085-.089.083-.09.083-.091.081-.092.081-.093.078-.093.078-.095.077-.095.075-.096.074-.097.073-.098.071-.099.07-.099.069-.1.068-.101.066-.102.066-.103.063-.103.063-.104.061-.104.06-.106.059-.105.057-.107.057-.107.054-.108.054-.109.052-.109.051-.11.049-.11.048-.111.047-.111.045-.112.044-.113.043-.113.041-.114.04-.114.039-.114.037-.115.035-.116.035-.116.033-.116.031-.117.03-.117.029-.118.027-.118.026-.118.025-.119.023-.119.021-.119.02-.12.019-.12.017-.121.016-.12.014-.121.013-.121.011-.122.01-.121.008-.122.007-.122.005-.122.004-.123.002-.122.001h-30.264l-.122-.001-.123-.002-.122-.004-.122-.005-.122-.007-.121-.008-.122-.01-.121-.011-.121-.013-.12-.014-.121-.016-.12-.017-.12-.019-.119-.02-.119-.021-.119-.023-.118-.025-.118-.026-.118-.027-.117-.029-.117-.03-.116-.031-.116-.033-.116-.035-.115-.035-.114-.037-.114-.039-.114-.04-.113-.041-.113-.043-.112-.044-.111-.045-.111-.047-.11-.048-.11-.049-.109-.051-.109-.052-.108-.054-.107-.054-.107-.057-.105-.057-.106-.059-.104-.06-.104-.061-.103-.063-.103-.063-.102-.066-.101-.066-.1-.068-.099-.069-.099-.07-.098-.071-.097-.073-.096-.074-.095-.075-.095-.077-.093-.078-.093-.078-.092-.081-.091-.081-.09-.083-.089-.083-.088-.085-.088-.086-.086-.088-.085-.088-.083-.089-.083-.09-.081-.091-.081-.092-.078-.093-.078-.093-.077-.095-.075-.095-.074-.096-.073-.097-.071-.098-.07-.099-.069-.099-.068-.1-.066-.101-.066-.102-.063-.103-.063-.103-.061-.104-.06-.104-.059-.106-.057-.105-.057-.107-.054-.107-.054-.108-.052-.109-.051-.109-.049-.11-.048-.11-.047-.111-.045-.111-.044-.112-.043-.113-.041-.113-.04-.114-.039-.114-.037-.114-.035-.115-.035-.116-.033-.116-.031-.116-.03-.117-.029-.117-.027-.118-.026-.118-.025-.118-.023-.119-.021-.119-.02-.119-.019-.12-.017-.12-.016-.121-.014-.12-.013-.121-.011-.121-.01-.122-.008-.121-.007-.122-.005-.122-.004-.122-.002-.123-.001-.122v-30.264l.001-.122.002-.123.004-.122.005-.122.007-.122.008-.121.01-.122.011-.121.013-.121.014-.12.016-.121.017-.12.019-.12.02-.119.021-.119.023-.119.025-.118.026-.118.027-.118.029-.117.03-.117.031-.116.033-.116.035-.116.035-.115.037-.114.039-.114.04-.114.041-.113.043-.113.044-.112.045-.111.047-.111.048-.11.049-.11.051-.109.052-.109.054-.108.054-.107.057-.107.057-.105.059-.106.06-.104.061-.104.063-.103.063-.103.066-.102.066-.101.068-.1.069-.099.07-.099.071-.098.073-.097.074-.096.075-.095.077-.095.078-.093.078-.093.081-.092.081-.091.083-.09.083-.089.085-.088.086-.088.088-.086.088-.085.089-.083.09-.083.091-.081.092-.081.093-.078.093-.078.095-.077.095-.075.096-.074.097-.073.098-.071.099-.07.099-.069.1-.068.101-.066.102-.066.103-.063.103-.063.104-.061.104-.06.106-.059.105-.057.107-.057.107-.054.108-.054.109-.052.109-.051.11-.049.11-.048.111-.047.111-.045.112-.044.113-.043.113-.041.114-.04.114-.039.114-.037.115-.035.116-.035.116-.033.116-.031.117-.03.117-.029.118-.027.118-.026.118-.025.119-.023.119-.021.119-.02.12-.019.12-.017.121-.016.12-.014.121-.013.121-.011.122-.01.121-.008.122-.007.122-.005.122-.004.123-.002.122-.001zm-30.253 3.289-.092.001-.082.002-.082.002-.081.004-.081.004-.081.006-.081.006-.081.008-.081.008-.08.01-.08.01-.08.012-.08.012-.08.013-.079.015-.079.015-.079.016-.078.018-.079.018-.078.019-.078.02-.077.021-.078.022-.077.023-.077.024-.076.024-.076.026-.076.027-.075.027-.075.029-.075.029-.074.03-.074.031-.074.033-.073.032-.073.034-.072.035-.072.036-.072.036-.071.038-.07.038-.07.039-.07.04-.069.041-.069.042-.068.042-.068.044-.068.044-.066.045-.067.046-.065.047-.066.047-.064.049-.064.049-.064.05-.063.051-.062.052-.062.053-.061.053-.061.054-.06.055-.059.056-.059.057-.059.057-.057.059-.057.059-.056.059-.055.06-.054.061-.053.061-.053.062-.052.062-.051.063-.05.064-.049.064-.048.064-.048.066-.047.065-.046.067-.045.066-.044.068-.044.068-.042.068-.042.069-.041.069-.04.07-.039.07-.038.07-.038.071-.036.072-.036.072-.035.072-.034.073-.032.073-.033.074-.031.074-.03.074-.029.075-.029.075-.027.075-.027.076-.026.076-.024.076-.024.077-.023.077-.022.077-.021.078-.02.078-.019.078-.018.078-.018.079-.016.079-.015.079-.015.079-.013.08-.012.08-.012.08-.01.08-.01.08-.008.081-.008.081-.006.081-.006.081-.004.081-.004.081-.002.082-.002.082-.001.092v30.242l.001.092.002.082.002.082.004.081.004.081.006.081.006.081.008.081.008.081.01.08.01.08.012.08.012.08.013.08.015.079.015.079.016.079.018.078.018.079.019.078.02.078.021.078.022.077.023.077.024.077.024.076.026.076.027.076.027.075.029.075.029.075.03.074.031.074.033.074.032.073.034.073.035.072.036.072.036.072.038.071.038.07.039.07.04.07.041.069.042.069.042.069.044.067.044.068.045.066.046.067.047.065.048.066.048.064.049.064.05.064.051.063.052.062.053.062.053.061.054.061.055.06.056.059.057.059.057.058.059.058.059.057.059.055.06.056.061.054.061.053.062.053.062.052.063.051.064.05.064.049.064.049.066.047.065.047.067.046.066.045.068.044.068.044.068.042.069.042.069.041.07.04.07.039.07.038.072.038.071.036.072.036.072.035.073.034.073.032.074.033.074.031.074.03.075.029.075.029.075.027.076.027.076.025.076.025.077.024.077.023.077.022.078.021.078.02.078.019.078.018.079.018.079.016.079.015.079.015.08.013.08.012.08.012.08.01.081.01.08.008.081.008.081.006.081.006.081.004.082.004.081.002.081.002.093.001h30.242l.093-.001.081-.002.081-.002.082-.004.081-.004.081-.006.081-.006.081-.008.08-.008.081-.01.08-.01.08-.012.08-.012.08-.013.079-.015.079-.015.079-.016.079-.018.078-.018.078-.019.078-.02.078-.021.077-.022.077-.023.077-.024.076-.025.076-.025.076-.027.075-.027.075-.029.075-.029.074-.03.074-.031.074-.033.073-.033.073-.033.072-.035.072-.036.071-.036.072-.038.07-.038.07-.039.07-.04.069-.041.069-.042.068-.042.068-.044.068-.044.067-.045.066-.046.065-.047.066-.047.064-.049.064-.049.064-.05.063-.051.062-.052.062-.053.061-.053.061-.054.06-.056.059-.055.059-.057.059-.058.057-.058.057-.058.055-.06.056-.06.054-.061.053-.061.053-.062.052-.062.051-.063.05-.064.049-.064.049-.064.047-.065.047-.066.046-.067.045-.066.044-.068.044-.068.042-.068.042-.069.041-.069.04-.07.039-.07.038-.07.038-.072.036-.071.036-.072.035-.072.034-.073.032-.073.033-.074.031-.074.03-.074.029-.075.029-.075.027-.075.027-.076.025-.076.025-.076.024-.077.023-.077.022-.077.021-.078.02-.078.019-.078.018-.078.018-.079.016-.079.015-.079.015-.08.013-.079.012-.08.012-.08.01-.08.01-.081.008-.08.008-.081.006-.081.006-.081.004-.081.004-.081.002-.082.002-.081.001-.092v-30.244l-.001-.092-.002-.081-.002-.082-.004-.081-.004-.081-.006-.081-.006-.081-.008-.081-.008-.08-.01-.081-.01-.08-.012-.08-.012-.08-.013-.079-.015-.08-.015-.079-.016-.079-.018-.079-.018-.078-.019-.078-.02-.078-.021-.078-.022-.077-.023-.077-.024-.077-.025-.076-.025-.076-.027-.076-.027-.075-.029-.075-.029-.075-.03-.074-.031-.074-.033-.074-.032-.073-.034-.073-.035-.072-.036-.072-.036-.071-.038-.072-.038-.07-.039-.07-.04-.07-.041-.069-.042-.069-.042-.068-.044-.068-.044-.068-.045-.066-.046-.067-.047-.065-.047-.066-.049-.064-.049-.064-.05-.064-.051-.063-.052-.062-.053-.062-.053-.061-.054-.061-.056-.06-.055-.06-.057-.058-.057-.058-.059-.058-.059-.057-.059-.056-.06-.055-.061-.054-.061-.053-.062-.053-.062-.052-.063-.051-.064-.05-.064-.049-.064-.049-.066-.047-.065-.047-.066-.046-.067-.045-.068-.044-.068-.044-.068-.042-.069-.042-.069-.041-.07-.04-.07-.039-.07-.038-.071-.038-.072-.036-.072-.036-.072-.035-.073-.033-.073-.033-.074-.033-.074-.031-.074-.03-.075-.029-.075-.029-.075-.027-.076-.027-.076-.026-.076-.024-.077-.024-.077-.023-.077-.022-.078-.021-.078-.02-.078-.019-.078-.018-.079-.018-.079-.016-.079-.015-.079-.015-.08-.013-.08-.012-.08-.012-.08-.01-.08-.01-.081-.008-.081-.008-.081-.006-.081-.006-.081-.004-.081-.004-.082-.002-.082-.002-.092-.001z" transform="matrix(1.519995 0 0 1.519995 86.03995 167.23995)"/><path d="m123.333 22.667c0-2.652-1.053-5.196-2.929-7.071-1.875-1.876-4.419-2.929-7.071-2.929-8.879 0-21.787 0-30.666 0-2.652 0-5.196 1.053-7.071 2.929-1.876 1.875-2.929 4.419-2.929 7.071v6.666h50.666s0-3.123 0-6.666z" transform="matrix(1.5 0 0 1.5 88 168)"/><g stroke-width="1.5"><circle cx="211" cy="223.00005" r="3"/><circle cx="223" cy="223.00005" r="3"/><circle cx="235" cy="223.00005" r="3"/><circle cx="247" cy="223.00005" r="3"/><circle cx="259" cy="223.00005" r="3"/><circle cx="211" cy="235.00005" r="3"/><circle cx="223" cy="235.00005" r="3"/><circle cx="235" cy="235.00005" r="3"/><circle cx="247" cy="235.00005" r="6"/><circle cx="259" cy="235.00005" r="3"/><circle cx="211" cy="247.00005" r="3"/><circle cx="223" cy="247.00005" r="3"/><circle cx="235" cy="247.00005" r="3"/><circle cx="247" cy="247.00005" r="3"/><circle cx="259" cy="247.00005" r="3"/></g></g><g transform="matrix(1.5 0 0 1.5 116 167.625)"><path d="m180.523 20.917.053.002.052.004.052.005.052.006.051.007.052.009.051.01.05.012.05.012.05.014.05.016.049.016.048.018.048.019.048.02.047.022.046.022.046.024.045.025.045.027.044.027.043.029.042.029.042.031.041.032.04.033.04.035.038.035.038.036.037.038.036.038.035.04.034.04.033.041.031.041.03.043.03.043.028.044.027.044.025.046.025.045.023.047.022.046.02.048.02.048.018.048.017.049.016.049.014.049.014.05.012.051.01.05.009.051.008.051.007.052.005.052.004.051.003.052.001.053v.052l-.001.052-.003.053-.004.052-3.455 36.854-.005.048-.005.048-.006.047-.007.048-.007.047-.007.047-.009.047-.008.047-.009.047-.01.046-.01.046-.011.046-.011.046-.012.045-.012.046-.013.045-.013.044-.014.045-.015.044-.014.045-.016.043-.015.044-.017.044-.017.043-.017.043-.017.042-.019.043-.018.042-.019.042-.02.041-.02.041-.021.042-.021.04-.021.041-.022.04-.022.04-.023.04-.023.039-.024.039-.024.039-.024.038-.025.038-.025.038-.026.038-.026.037-.027.037-.026.036-.028.036-.027.036-.029.036-.028.035-.029.035-.029.035-.03.034-.03.034-.03.033-.031.034-.031.032-.032.033-.032.032-.032.032-.032.031-.033.031-.034.031-.033.03-.034.03-.035.029-.034.03-.035.028-.035.029-.036.028-.036.027-.036.027-.037.027-.037.026-.037.026-.037.026-.038.025-.038.025-.038.024-.039.024-.039.023-.039.023-.04.023-.039.022-.04.021-.041.021-.04.021-.041.021-.041.019-.041.02-.042.019-.042.018-.042.018-.042.018-.043.017-.043.016-.043.016-.043.016-.043.015-.044.015-.044.014-.044.014-.044.013-.045.012-.044.013-.045.011-.046.011-.045.011-.045.01-.046.01-.046.009-.046.008-.046.008-.047.008-.046.007-.047.006-.047.006-.047.005-.047.005-.047.004-.048.004-.048.003-.047.003-.048.002-.048.001-.049.001h-.048-18.048-.048l-.049-.001-.048-.001-.048-.002-.047-.003-.048-.003-.048-.004-.047-.004-.047-.005-.047-.005-.047-.006-.047-.006-.046-.007-.047-.008-.046-.008-.046-.008-.046-.009-.046-.01-.045-.01-.045-.011-.046-.011-.045-.011-.044-.013-.045-.012-.044-.013-.044-.014-.044-.014-.044-.015-.043-.015-.043-.016-.043-.016-.043-.016-.043-.017-.042-.018-.042-.018-.042-.018-.042-.019-.041-.02-.041-.019-.041-.021-.04-.021-.041-.021-.04-.021-.039-.022-.04-.023-.039-.023-.039-.023-.039-.024-.038-.024-.038-.025-.038-.025-.037-.026-.037-.026-.037-.026-.037-.027-.036-.027-.036-.027-.036-.028-.035-.029-.035-.028-.034-.03-.035-.029-.034-.03-.033-.03-.034-.031-.033-.031-.032-.031-.032-.032-.032-.032-.032-.033-.031-.032-.031-.034-.03-.033-.03-.034-.03-.034-.029-.035-.029-.035-.028-.035-.029-.036-.027-.036-.028-.036-.026-.036-.027-.037-.026-.037-.026-.038-.025-.038-.025-.038-.024-.038-.024-.039-.024-.039-.023-.039-.023-.04-.022-.04-.022-.04-.021-.041-.021-.04-.021-.042-.02-.041-.02-.041-.019-.042-.018-.042-.019-.043-.017-.042-.017-.043-.017-.043-.017-.044-.015-.044-.016-.043-.014-.045-.015-.044-.014-.045-.013-.044-.013-.045-.012-.046-.012-.045-.011-.046-.011-.046-.01-.046-.01-.046-.009-.047-.008-.047-.009-.047-.007-.047-.007-.047-.007-.048-.006-.047-.005-.048-.005-.048-3.455-36.854-.004-.052-.003-.053-.001-.052v-.052l.001-.053.003-.052.004-.051.005-.052.007-.052.008-.051.009-.051.01-.05.012-.051.014-.05.014-.049.016-.049.017-.049.018-.048.02-.048.02-.048.022-.046.023-.047.025-.045.025-.046.027-.044.028-.044.03-.043.03-.043.031-.041.033-.041.034-.04.035-.04.036-.038.037-.038.038-.036.038-.035.04-.035.04-.033.041-.032.042-.031.042-.029.043-.029.044-.027.045-.027.045-.025.046-.024.046-.022.047-.022.048-.02.048-.019.048-.018.049-.016.05-.016.05-.014.05-.012.05-.012.051-.01.052-.009.051-.007.052-.006.052-.005.052-.004.053-.002h.053 28.94zm-27.529 3.333 3.317 35.386.003.027.002.017.003.016.002.015.004.016.003.016.006.022.004.015.007.021.005.014.006.015.008.02.01.021.009.02.011.019.008.013.012.019.008.013.013.018.014.019.014.017.01.012.016.017.01.011.011.011.017.016.012.011.017.014.012.01.013.009.019.014.018.012.02.012.02.012.019.01.021.01.021.009.02.008.021.008.021.007.022.006.022.005.022.005.015.003.016.002.015.002.016.002.016.001.017.001.017.001h.027 18.028.019.008l.009-.001h.008.008l.009-.001h.008l.008-.001.008-.001.008-.001.007-.001.008-.001.008-.001.008-.001.008-.002.007-.001.007-.001.008-.002.007-.002.007-.001.008-.002.007-.002.007-.002.008-.002.007-.002.007-.002.007-.003.007-.002.006-.002.007-.003.008-.003.007-.002.007-.003.006-.003.007-.003.007-.003.007-.003.007-.003.006-.003.008-.004.006-.003.007-.004.006-.003.007-.004.007-.004.006-.004.007-.004.006-.004.007-.004.006-.004.006-.004.006-.004.007-.005.006-.004.006-.005.007-.004.006-.005.006-.005.006-.005.006-.004.005-.005.006-.005.006-.006.006-.005.006-.005.005-.005.006-.005.005-.006.006-.006.005-.005.005-.006.006-.005.005-.006.005-.006.005-.006.005-.006.005-.005.005-.006.004-.006.005-.006.005-.007.004-.006.004-.006.005-.006.004-.006.004-.006.004-.007.004-.006.004-.006.004-.007.004-.006.004-.007.004-.007.003-.006.004-.006.003-.007.003-.007.003-.006.004-.007.003-.007.003-.007.003-.007.003-.007.002-.006.003-.007.003-.008.002-.007.003-.007.002-.007.003-.007.002-.007.002-.007.002-.008.002-.007.002-.007.002-.008.002-.008.001-.008.002-.008.002-.008.001-.007.001-.008.002-.009.001-.007.001-.009.001-.008.001-.009.002-.018 3.317-35.386z" fill="#7f1734"/><path d="m264.312 45-3.802 40.56c-.289 3.083-2.877 5.44-5.974 5.44-10.515 0-22.536 0-22.536 0s-3.019-32.202-4.005-42.72c-.079-.841.2-1.676.769-2.3.568-.624 1.374-.98 2.218-.98z" fill="#7f1734" transform="matrix(.666667 0 0 .666667 5.33333 2.91667)"/><path d="m172 58.917 4-45" fill="none" stroke="#7f1734" stroke-width="3.33" transform="translate(-.666667)"/></g><g fill="#7f1734" transform="translate(156 172)"><path d="m336.081 17.809c-.41-1.493-1.889-2.429-3.413-2.16-.164.029-.329.058-.492.087-1.525.269-2.595 1.654-2.469 3.197.18 2.222.405 4.995.405 4.995-1.015.311-2.013.674-2.99 1.089 0 0-1.611-2.27-2.901-4.087-.896-1.263-2.605-1.637-3.946-.862-.144.083-.289.166-.433.249-1.341.775-1.872 2.442-1.227 3.849.93 2.026 2.09 4.555 2.09 4.555-.848.639-1.661 1.322-2.438 2.046 0 0-2.289-1.582-4.123-2.849-1.274-.88-3.008-.646-4.003.54-.107.127-.215.255-.321.383-.996 1.186-.925 2.934.163 4.036 1.566 1.586 3.521 3.566 3.521 3.566-.578.89-1.109 1.81-1.591 2.756 0 0-2.692-.704-4.849-1.267-1.498-.391-3.047.422-3.577 1.877-.057.156-.114.313-.171.469-.529 1.455.135 3.074 1.534 3.737 2.015.955 4.529 2.146 4.529 2.146-.239 1.035-.423 2.081-.552 3.134 0 0-2.771.26-4.99.468-1.542.145-2.72 1.439-2.72 2.987v.5c0 1.548 1.178 2.842 2.72 2.987 2.219.208 4.99.468 4.99.468.129 1.053.313 2.099.552 3.134 0 0-2.514 1.191-4.529 2.146-1.399.663-2.063 2.282-1.534 3.737.057.156.114.313.171.469.53 1.455 2.079 2.268 3.577 1.877 2.157-.563 4.849-1.267 4.849-1.267.482.946 1.013 1.866 1.591 2.756 0 0-1.955 1.98-3.521 3.566-1.088 1.102-1.159 2.85-.163 4.036.106.128.214.256.321.383.995 1.186 2.729 1.42 4.003.54 1.834-1.267 4.123-2.849 4.123-2.849.777.724 1.59 1.407 2.438 2.046 0 0-1.16 2.529-2.09 4.555-.645 1.407-.114 3.074 1.227 3.849.144.083.289.166.433.249 1.341.775 3.05.401 3.946-.862 1.29-1.817 2.901-4.087 2.901-4.087.977.415 1.975.778 2.99 1.089 0 0-.225 2.773-.405 4.995-.126 1.543.944 2.928 2.469 3.197.163.029.328.058.492.087 1.524.269 3.003-.667 3.413-2.16.591-2.149 1.328-4.833 1.328-4.833 1.06.056 2.122.056 3.182 0 0 0 .737 2.684 1.328 4.833.41 1.493 1.889 2.429 3.413 2.16.164-.029.329-.058.492-.087 1.525-.269 2.595-1.654 2.469-3.197-.18-2.222-.405-4.995-.405-4.995 1.015-.311 2.013-.674 2.99-1.089 0 0 1.611 2.27 2.901 4.087.896 1.263 2.605 1.637 3.946.862.144-.083.289-.166.433-.249 1.341-.775 1.872-2.442 1.227-3.849-.93-2.026-2.09-4.555-2.09-4.555.848-.639 1.661-1.322 2.438-2.046 0 0 2.289 1.582 4.123 2.849 1.274.88 3.008.646 4.003-.54.107-.127.215-.255.321-.383.996-1.186.925-2.934-.163-4.036-1.566-1.586-3.521-3.566-3.521-3.566.578-.89 1.109-1.81 1.591-2.756 0 0 2.692.704 4.849 1.267 1.498.391 3.047-.422 3.577-1.877.057-.156.114-.313.171-.469.529-1.455-.135-3.074-1.534-3.737-2.015-.955-4.529-2.146-4.529-2.146.239-1.035.423-2.081.552-3.134 0 0 2.771-.26 4.99-.468 1.542-.145 2.72-1.439 2.72-2.987 0-.166 0-.334 0-.5 0-1.548-1.178-2.842-2.72-2.987-2.219-.208-4.99-.468-4.99-.468-.129-1.053-.313-2.099-.552-3.134 0 0 2.514-1.191 4.529-2.146 1.399-.663 2.063-2.282 1.534-3.737-.057-.156-.114-.313-.171-.469-.53-1.455-2.079-2.268-3.577-1.877-2.157.563-4.849 1.267-4.849 1.267-.482-.946-1.013-1.866-1.591-2.756 0 0 1.955-1.98 3.521-3.566 1.088-1.102 1.159-2.85.163-4.036-.106-.128-.214-.256-.321-.383-.995-1.186-2.729-1.42-4.003-.54-1.834 1.267-4.123 2.849-4.123 2.849-.777-.724-1.59-1.407-2.438-2.046 0 0 1.16-2.529 2.09-4.555.645-1.407.114-3.074-1.227-3.849-.144-.083-.289-.166-.433-.249-1.341-.775-3.05-.401-3.946.862-1.29 1.817-2.901 4.087-2.901 4.087-.977-.415-1.975-.778-2.99-1.089 0 0 .225-2.773.405-4.995.126-1.543-.944-2.928-2.469-3.197-.163-.029-.328-.058-.492-.087-1.524-.269-3.003.667-3.413 2.16-.591 2.149-1.328 4.833-1.328 4.833-1.06-.056-2.122-.056-3.182 0 0 0-.737-2.684-1.328-4.833zm2.919 11.191c13.246 0 24 10.754 24 24s-10.754 24-24 24-24-10.754-24-24 10.754-24 24-24z"/><g fill-rule="nonzero"><path d="m249 42c0-.531-.198-1.039-.549-1.414-.352-.375-.829-.586-1.326-.586-4.024 0-13.125 0-13.125 0v-4h13.125c.497 0 .974-.211 1.326-.586.351-.375.549-.883.549-1.414l.937 4z" transform="matrix(1.60013 0 0 1.50012 -35.431 -4.00473)"/><path d="m249 42c0-.531-.198-1.039-.549-1.414-.352-.375-.829-.586-1.326-.586-4.024 0-13.125 0-13.125 0v-4h13.125c.497 0 .974-.211 1.326-.586.351-.375.549-.883.549-1.414l.937 4z" transform="matrix(-.800066 -1.38576 1.29915 -.750062 476.848 405.769)"/><path d="m249 42c0-.531-.198-1.039-.549-1.414-.352-.375-.829-.586-1.326-.586-4.024 0-13.125 0-13.125 0v-4h13.125c.497 0 .974-.211 1.326-.586.351-.375.549-.883.549-1.414l.937 4z" transform="matrix(-.800066 1.38576 -1.29915 -.750062 575.583 -242.764)"/></g></g></svg>